<?xml version="1.0" encoding="utf-8"?>
<!-- Generator: Adobe Illustrator 15.1.0, SVG Export Plug-In . SVG Version: 6.00 Build 0)  -->
<!DOCTYPE svg PUBLIC "-//W3C//DTD SVG 1.1//EN" "http://www.w3.org/Graphics/SVG/1.1/DTD/svg11.dtd">
<svg version="1.1" id="Layer_1" xmlns="http://www.w3.org/2000/svg" xmlns:xlink="http://www.w3.org/1999/xlink" x="0px" y="0px"
	 width="157.333px" height="36.667px" viewBox="0 0 157.333 36.667" enable-background="new 0 0 157.333 36.667"
	 xml:space="preserve">
<g id="Qt">
	<path fill="#0C481E" d="M12.07,0.063c-0.363-0.062-0.732-0.078-1.099-0.049h-0.002c0,0-2.432,0.165-2.542,0.173
		C6.206,0.364,4.521,2.19,4.521,4.712v29.731l2.487,2.318l24.99-4.2c1.719-0.298,3.077-2.325,3.077-4.517V3.834L12.07,0.063"/>
	<path fill="#66B036" d="M35.074,28.046c0,2.189-1.358,4.218-3.077,4.517l-24.99,4.199V4.554c0-2.93,2.338-4.941,5.063-4.491
		l23.004,3.771V28.046"/>
	<path fill="#FFFFFF" d="M30.365,23.843c-0.027,0.002-0.058,0.002-0.085,0.002c-0.293,0-0.511-0.092-0.65-0.278
		c-0.158-0.205-0.235-0.659-0.235-1.364v-8.12l2.271,0.105v-2.223l-2.271-0.161V8.263l-2.02-0.218l-0.835,3.56l-1.33-0.097v2.381
		l1.091,0.051v8.999c0,1.178,0.239,2.036,0.718,2.57c0.41,0.462,1.01,0.689,1.795,0.689c0.117,0,0.239-0.006,0.364-0.016
		c0.867-0.073,1.75-0.309,2.651-0.704v-2.041C31.3,23.681,30.813,23.818,30.365,23.843 M18.655,6.848
		c-0.293-0.034-0.588-0.052-0.883-0.052c-1.781,0-3.197,0.696-4.209,2.108c-1.202,1.677-1.814,4.32-1.814,7.9
		c0,3.318,0.447,5.857,1.323,7.595c0.864,1.707,2.114,2.726,3.713,3.065c0.349,1.689,0.893,2.834,1.63,3.424
		c0.559,0.449,1.297,0.671,2.213,0.671c0.275,0,0.568-0.021,0.875-0.06l1.045-0.14v-2.299c-0.16,0.019-0.312,0.026-0.453,0.026
		c-0.489,0-0.854-0.105-1.091-0.318c-0.304-0.275-0.534-0.801-0.687-1.581c1.505-0.515,2.605-1.628,3.328-3.33
		c0.708-1.676,1.058-3.948,1.058-6.838c0-3.153-0.475-5.554-1.445-7.23C22.27,8.079,20.749,7.09,18.655,6.848L18.655,6.848z
		 M20.494,23.203c-0.415,1.07-1.026,1.631-1.839,1.685c-0.037,0.002-0.072,0.003-0.107,0.003c-0.812,0-1.429-0.579-1.841-1.748
		c-0.438-1.229-0.655-3.318-0.655-6.265c0-3.05,0.223-5.064,0.664-6.037c0.408-0.891,0.994-1.337,1.754-1.337
		c0.062,0,0.123,0.004,0.186,0.009c0.822,0.072,1.434,0.643,1.844,1.699c0.408,1.051,0.61,2.966,0.61,5.751
		C21.109,20.064,20.906,22.144,20.494,23.203L20.494,23.203z"/>
	<path fill="#0C481E" d="M31.666,14.188l-2.271-0.105v0.05l1.216,0.056L31.666,14.188 M30.773,23.439
		c-0.318,0.145-0.618,0.256-0.905,0.324c0.115,0.056,0.25,0.082,0.412,0.082c0.027,0,0.058,0,0.085-0.002
		c0.447-0.025,0.935-0.162,1.464-0.404H30.773 M27.375,8.045h-1.053l-0.817,3.484l1.035,0.076L27.375,8.045 M27.019,25.509
		c-0.479-0.534-0.718-1.393-0.718-2.57V13.94l-1.091-0.051v-2.381h-1.054v0.534c0.153,0.573,0.271,1.195,0.361,1.864l0.73,0.034
		v8.999c0,1.178,0.239,2.036,0.717,2.57c0.41,0.462,1.009,0.689,1.794,0.689h1.055C28.028,26.201,27.429,25.971,27.019,25.509
		 M22.095,29.089c0.142,0,0.292-0.01,0.453-0.027h-0.846C21.819,29.082,21.956,29.089,22.095,29.089 M18.979,31.238
		c-0.019-0.009-0.039-0.018-0.06-0.029c-0.001,0-0.003,0-0.005,0c-0.019-0.01-0.036-0.021-0.055-0.028l-0.01-0.005
		c-0.017-0.01-0.033-0.018-0.049-0.026c-0.006-0.004-0.009-0.005-0.016-0.009c-0.014-0.008-0.028-0.018-0.043-0.025
		c-0.006-0.003-0.013-0.007-0.019-0.012l-0.038-0.021c-0.008-0.004-0.018-0.01-0.023-0.015c-0.011-0.008-0.021-0.014-0.032-0.021
		c-0.01-0.006-0.019-0.014-0.03-0.021c-0.008-0.006-0.018-0.011-0.025-0.017c-0.01-0.008-0.023-0.018-0.033-0.023l-0.021-0.018
		c-0.014-0.008-0.026-0.018-0.039-0.027c-0.005-0.003-0.01-0.005-0.015-0.009l-0.053-0.043c-0.737-0.591-1.281-1.733-1.63-3.423
		c-1.599-0.342-2.849-1.359-3.713-3.066c-0.876-1.736-1.323-4.275-1.323-7.595c0-3.58,0.612-6.223,1.814-7.9
		c1.012-1.413,2.428-2.108,4.209-2.108l-1.113-0.002v0.002c-1.778,0-3.192,0.696-4.206,2.108c-1.202,1.677-1.814,4.32-1.814,7.9
		c0,3.317,0.447,5.858,1.323,7.595c0.866,1.707,2.114,2.725,3.716,3.066c0.346,1.688,0.891,2.832,1.627,3.423
		c0.558,0.448,1.298,0.671,2.213,0.671h1.023c-0.598-0.01-1.119-0.114-1.56-0.32C18.979,31.24,18.979,31.24,18.979,31.238"/>
	<path fill="#0C481E" d="M18.655,9.512c-0.062-0.005-0.123-0.008-0.186-0.009c-0.19,0-0.371,0.029-0.539,0.086
		c0.631,0.195,1.117,0.738,1.459,1.623c0.41,1.051,0.612,2.966,0.612,5.751c0,3.102-0.203,5.182-0.617,6.24
		c-0.331,0.854-0.792,1.387-1.377,1.592c0.169,0.063,0.351,0.096,0.54,0.096c0.035,0,0.07-0.001,0.107-0.003
		c0.813-0.054,1.424-0.613,1.839-1.685c0.412-1.059,0.615-3.139,0.615-6.24c0-2.785-0.202-4.7-0.61-5.751
		C20.089,10.155,19.478,9.584,18.655,9.512"/>
	<text transform="matrix(1 0 0 1 39.5371 25.0659)" fill="#333333" font-family="'SegoeUI-SemiBold'" font-size="20.7572">Qt Designer</text>
</g>
</svg>
