<?xml version="1.0" encoding="utf-8"?>
<!-- Generator: Adobe Illustrator 15.1.0, SVG Export Plug-In . SVG Version: 6.00 Build 0)  -->
<!DOCTYPE svg PUBLIC "-//W3C//DTD SVG 1.1//EN" "http://www.w3.org/Graphics/SVG/1.1/DTD/svg11.dtd">
<svg version="1.1" id="Layer_1" xmlns="http://www.w3.org/2000/svg" xmlns:xlink="http://www.w3.org/1999/xlink" x="0px" y="0px"
	 width="36.625px" height="36.667px" viewBox="0 0 36.625 36.667" enable-background="new 0 0 36.625 36.667" xml:space="preserve">
<g id="Layer_10">
	<path fill="#0C481E" d="M10.55,0.063c-0.363-0.062-0.732-0.078-1.099-0.049H9.449c0,0-2.432,0.165-2.542,0.173
		C4.686,0.364,3,2.19,3,4.712v29.731l2.487,2.318l24.99-4.2c1.719-0.298,3.078-2.325,3.078-4.517V3.834L10.55,0.063"/>
	<path fill="#66B036" d="M33.555,28.046c0,2.189-1.359,4.218-3.078,4.517l-24.99,4.199V4.554c0-2.93,2.338-4.941,5.063-4.491
		l23.005,3.771V28.046"/>
	<path fill="#FFFFFF" d="M28.846,23.843c-0.027,0.002-0.059,0.002-0.086,0.002c-0.293,0-0.511-0.092-0.65-0.278
		c-0.157-0.205-0.234-0.659-0.234-1.364v-8.12l2.271,0.105v-2.222l-2.271-0.161V8.263l-2.02-0.218l-0.836,3.56l-1.33-0.097v2.382
		l1.092,0.05v9c0,1.179,0.238,2.036,0.718,2.571c0.41,0.461,1.01,0.689,1.795,0.689c0.117,0,0.239-0.007,0.364-0.017
		c0.867-0.073,1.75-0.31,2.65-0.704v-2.041C29.779,23.681,29.292,23.818,28.846,23.843 M17.135,6.848
		c-0.293-0.034-0.588-0.052-0.883-0.052c-1.781,0-3.197,0.696-4.209,2.108c-1.202,1.677-1.814,4.32-1.814,7.9
		c0,3.318,0.447,5.857,1.323,7.595c0.864,1.707,2.114,2.726,3.713,3.065c0.349,1.689,0.893,2.834,1.63,3.424
		c0.558,0.449,1.296,0.671,2.212,0.671c0.274,0,0.567-0.021,0.875-0.06l1.045-0.14v-2.299c-0.16,0.019-0.313,0.026-0.453,0.026
		c-0.489,0-0.854-0.105-1.092-0.318c-0.303-0.275-0.533-0.801-0.687-1.581c1.505-0.515,2.604-1.628,3.328-3.33
		c0.708-1.676,1.058-3.948,1.058-6.838c0-3.153-0.475-5.554-1.445-7.23C20.749,8.079,19.229,7.09,17.135,6.848L17.135,6.848z
		 M18.975,23.203c-0.416,1.07-1.026,1.631-1.838,1.685c-0.037,0.002-0.072,0.003-0.108,0.003c-0.811,0-1.428-0.579-1.84-1.748
		c-0.438-1.229-0.655-3.318-0.655-6.265c0-3.049,0.222-5.064,0.664-6.037c0.409-0.891,0.994-1.337,1.754-1.337
		c0.061,0,0.122,0.004,0.186,0.009c0.822,0.072,1.433,0.643,1.843,1.699c0.408,1.051,0.609,2.966,0.609,5.751
		C19.589,20.064,19.387,22.144,18.975,23.203L18.975,23.203z"/>
	<path fill="#0C481E" d="M30.146,14.188l-2.271-0.105v0.05l1.216,0.055H30.146 M29.253,23.439c-0.317,0.145-0.618,0.256-0.905,0.324
		c0.115,0.056,0.25,0.082,0.412,0.082c0.027,0,0.059,0,0.086-0.002c0.446-0.025,0.934-0.162,1.463-0.404H29.253 M25.854,8.045
		h-1.053l-0.816,3.484l1.035,0.076L25.854,8.045 M25.498,25.509c-0.479-0.534-0.719-1.393-0.719-2.57v-9l-1.09-0.05v-2.382h-1.055
		v0.534c0.153,0.573,0.271,1.195,0.361,1.864l0.73,0.034v9c0,1.178,0.238,2.036,0.717,2.57c0.41,0.462,1.009,0.689,1.793,0.689
		h1.056C26.508,26.201,25.908,25.971,25.498,25.509 M20.574,29.089c0.142,0,0.292-0.01,0.453-0.027h-0.846
		C20.299,29.082,20.436,29.089,20.574,29.089 M17.459,31.238c-0.019-0.009-0.04-0.018-0.06-0.029c-0.001,0-0.002,0-0.005,0
		c-0.019-0.01-0.036-0.021-0.055-0.028l-0.01-0.005c-0.016-0.01-0.032-0.018-0.048-0.026c-0.006-0.004-0.009-0.005-0.015-0.009
		c-0.015-0.008-0.029-0.018-0.043-0.025c-0.006-0.003-0.013-0.007-0.019-0.012l-0.038-0.021c-0.009-0.004-0.018-0.01-0.023-0.015
		c-0.011-0.008-0.021-0.014-0.033-0.021c-0.01-0.006-0.019-0.014-0.03-0.021c-0.009-0.006-0.018-0.011-0.026-0.017
		c-0.01-0.008-0.022-0.018-0.032-0.023l-0.021-0.018c-0.014-0.008-0.026-0.018-0.039-0.027c-0.005-0.003-0.01-0.005-0.015-0.009
		l-0.052-0.043c-0.738-0.591-1.281-1.733-1.63-3.423c-1.599-0.342-2.849-1.359-3.713-3.066c-0.876-1.736-1.323-4.275-1.323-7.595
		c0-3.58,0.612-6.223,1.814-7.9c1.013-1.413,2.429-2.108,4.209-2.108l-1.113-0.002v0.002c-1.779,0-3.193,0.696-4.206,2.108
		c-1.202,1.677-1.814,4.32-1.814,7.9c0,3.317,0.447,5.858,1.323,7.595c0.866,1.707,2.114,2.725,3.715,3.066
		c0.347,1.688,0.892,2.832,1.628,3.423c0.557,0.448,1.297,0.671,2.212,0.671h1.022c-0.598-0.01-1.119-0.114-1.56-0.32
		C17.459,31.24,17.459,31.24,17.459,31.238"/>
	<path fill="#0C481E" d="M17.135,9.512c-0.062-0.005-0.123-0.008-0.186-0.009c-0.191,0-0.372,0.029-0.54,0.086
		c0.63,0.195,1.117,0.738,1.459,1.623c0.41,1.051,0.612,2.966,0.612,5.751c0,3.102-0.203,5.182-0.617,6.24
		c-0.332,0.854-0.792,1.387-1.377,1.592c0.169,0.063,0.35,0.096,0.54,0.096c0.036,0,0.071-0.001,0.108-0.003
		c0.812-0.054,1.423-0.613,1.839-1.685c0.411-1.059,0.614-3.139,0.614-6.24c0-2.785-0.202-4.7-0.61-5.751
		C18.568,10.155,17.957,9.584,17.135,9.512"/>
</g>
</svg>
