<?xml version="1.0" encoding="utf-8"?>
<!-- Generator: Adobe Illustrator 15.1.0, SVG Export Plug-In . SVG Version: 6.00 Build 0)  -->
<!DOCTYPE svg PUBLIC "-//W3C//DTD SVG 1.1//EN" "http://www.w3.org/Graphics/SVG/1.1/DTD/svg11.dtd">
<svg version="1.1" id="Layer_1" xmlns="http://www.w3.org/2000/svg" xmlns:xlink="http://www.w3.org/1999/xlink" x="0px" y="0px"
	 width="36.625px" height="36.667px" viewBox="0 0 36.625 36.667" enable-background="new 0 0 36.625 36.667" xml:space="preserve">
<g id="Layer_2_1_">
	<path fill="#8FC31F" d="M22.58,2.428"/>
	<ellipse fill="#8FC31F" stroke="#FFFFFF" stroke-width="2" cx="18.503" cy="11.765" rx="9.888" ry="9.125"/>
	<path fill="#8FC31F" stroke="#FFFFFF" stroke-width="2" d="M11.008,9.484h14.99c1.32,0,2.393,1.069,2.393,2.389v14.994
		c0,1.318-1.072,2.389-2.393,2.389h-14.99c-1.32,0-2.39-1.069-2.39-2.389V11.873C8.618,10.554,9.688,9.484,11.008,9.484z"/>
	<path fill="#8FC31F" stroke="#FFFFFF" d="M12.026,0.219L12.026,0.219c-0.341,0.189-0.465,0.62-0.276,0.961l3.845,6.935
		c0.19,0.341,0.619,0.465,0.959,0.276l0,0c0.342-0.189,0.464-0.619,0.276-0.959l-3.845-6.938C12.797,0.153,12.367,0.03,12.026,0.219
		z"/>
	<path id="c_1_" fill="#8FC31F" stroke="#FFFFFF" stroke-width="2" d="M22.984,22.302L22.984,22.302
		c-1.439,0-2.605,1.168-2.605,2.607v9.233c0,1.44,1.166,2.606,2.605,2.606l0,0c1.441,0,2.607-1.166,2.607-2.606V24.91
		C25.593,23.47,24.427,22.302,22.984,22.302z"/>
	<path id="c" fill="#8FC31F" stroke="#FFFFFF" stroke-width="1.5" d="M31.43,11.765L31.43,11.765c-1.438,0-2.605,1.168-2.605,2.607
		v9.235c0,1.439,1.168,2.605,2.605,2.605l0,0c1.441,0,2.608-1.166,2.608-2.605v-9.235C34.038,12.933,32.871,11.765,31.43,11.765z"/>
	<path fill="#8FC31F" stroke="#FFFFFF" d="M24.979,0.219L24.979,0.219c0.342,0.189,0.465,0.62,0.276,0.961L21.41,8.115
		c-0.188,0.341-0.618,0.465-0.96,0.276l0,0c-0.341-0.189-0.464-0.619-0.275-0.959l3.845-6.938C24.21,0.153,24.641,0.03,24.979,0.219
		z"/>
	<path id="c_2_" fill="#8FC31F" stroke="#FFFFFF" stroke-width="1.5" d="M5.576,11.765L5.576,11.765
		c1.439,0,2.607,1.168,2.607,2.607v9.235c0,1.439-1.168,2.605-2.607,2.605l0,0c-1.44,0-2.607-1.166-2.607-2.605v-9.235
		C2.969,12.933,4.136,11.765,5.576,11.765z"/>
	<path id="c_3_" fill="#8FC31F" stroke="#FFFFFF" stroke-width="1.5" d="M14.81,22.302L14.81,22.302c1.44,0,2.606,1.168,2.606,2.607
		v9.233c0,1.44-1.166,2.606-2.606,2.606l0,0c-1.44,0-2.608-1.166-2.608-2.606V24.91C12.202,23.47,13.369,22.302,14.81,22.302z"/>
	<ellipse fill="#8FC31F" cx="18.503" cy="11.765" rx="9.888" ry="9.125"/>
	<path id="c_4_" fill="#8FC31F" stroke="#FFFFFF" stroke-width="1.5" d="M22.994,22.302L22.994,22.302
		c1.439,0,2.605,1.168,2.605,2.607v9.233c0,1.44-1.166,2.606-2.605,2.606l0,0c-1.439,0-2.607-1.166-2.607-2.606V24.91
		C20.387,23.47,21.555,22.302,22.994,22.302z"/>
	<path fill="#8FC31F" d="M11.008,9.484h14.99c1.32,0,2.393,1.069,2.393,2.389v14.994c0,1.318-1.072,2.389-2.393,2.389h-14.99
		c-1.32,0-2.39-1.069-2.39-2.389V11.873C8.618,10.554,9.688,9.484,11.008,9.484z"/>
	<path fill="#8FC31F" stroke="#FFFFFF" stroke-width="2" d="M8.184,12.146h20.64"/>
	<circle fill="#8FC31F" stroke="#FFFFFF" stroke-width="2" cx="13.941" cy="7.311" r="0.435"/>
	<circle fill="#8FC31F" stroke="#FFFFFF" stroke-width="2" cx="23.064" cy="7.311" r="0.435"/>
</g>
</svg>
