<?xml version="1.0" encoding="utf-8"?>
<!-- Generator: Adobe Illustrator 15.1.0, SVG Export Plug-In . SVG Version: 6.00 Build 0)  -->
<!DOCTYPE svg PUBLIC "-//W3C//DTD SVG 1.1//EN" "http://www.w3.org/Graphics/SVG/1.1/DTD/svg11.dtd">
<svg version="1.1" xmlns="http://www.w3.org/2000/svg" xmlns:xlink="http://www.w3.org/1999/xlink" x="0px" y="0px"
	 width="112.042px" height="36.667px" viewBox="0 0 112.042 36.667" enable-background="new 0 0 112.042 36.667"
	 xml:space="preserve">
<g id="Layer_1" display="none">
	<linearGradient id="SVGID_1_" gradientUnits="userSpaceOnUse" x1="0.021" y1="36.896" x2="18.4377" y2="18.4792">
		<stop  offset="0" style="stop-color:#00CBFB"/>
		<stop  offset="0.167" style="stop-color:#12BEFB"/>
		<stop  offset="0.5017" style="stop-color:#409BFC"/>
		<stop  offset="0.9696" style="stop-color:#8B63FD"/>
		<stop  offset="1" style="stop-color:#905FFD"/>
	</linearGradient>
	<polygon display="inline" fill="url(#SVGID_1_)" points="36.625,36.667 0.167,37.042 0.167,0.375 	"/>
	<linearGradient id="SVGID_2_" gradientUnits="userSpaceOnUse" x1="-9.1973" y1="27.5942" x2="27.511" y2="-9.114">
		<stop  offset="0" style="stop-color:#00CBFB"/>
		<stop  offset="0.1107" style="stop-color:#04C8FB"/>
		<stop  offset="0.2176" style="stop-color:#0FBFFB"/>
		<stop  offset="0.3231" style="stop-color:#23B1FB"/>
		<stop  offset="0.4276" style="stop-color:#3E9CFC"/>
		<stop  offset="0.5315" style="stop-color:#6182FC"/>
		<stop  offset="0.6336" style="stop-color:#8C62FD"/>
		<stop  offset="0.6424" style="stop-color:#905FFD"/>
	</linearGradient>
	<polygon display="inline" fill="url(#SVGID_2_)" points="0,36.792 0,0 36.625,0 	"/>
	<linearGradient id="SVGID_3_" gradientUnits="userSpaceOnUse" x1="0.1094" y1="18.188" x2="36.625" y2="18.188">
		<stop  offset="0" style="stop-color:#C757BC"/>
		<stop  offset="0.087" style="stop-color:#CF5F9F"/>
		<stop  offset="0.2434" style="stop-color:#DC6C71"/>
		<stop  offset="0.4005" style="stop-color:#E6764B"/>
		<stop  offset="0.5557" style="stop-color:#EE7E2E"/>
		<stop  offset="0.7085" style="stop-color:#F48419"/>
		<stop  offset="0.858" style="stop-color:#F8880C"/>
		<stop  offset="1" style="stop-color:#F98908"/>
	</linearGradient>
	<polygon display="inline" fill="url(#SVGID_3_)" points="0.167,36.375 0.109,19.875 20.219,0 36.625,0 	"/>
	
		<text transform="matrix(1 0 0 1 35.9175 25.6548)" display="inline" fill="#EAEAEA" font-family="'MyriadPro-Regular'" font-size="23.1874">Kotlin</text>
</g>
<g id="Layer_2">
	<g>
		<path fill="#333333" d="M88.379,24.393c-3.044,0-5.521-2.573-5.521-5.736c0-3.162,2.477-5.735,5.521-5.735s5.52,2.573,5.52,5.735
			C93.899,21.82,91.423,24.393,88.379,24.393z M88.379,16.023c-1.381,0-2.505,1.182-2.505,2.634s1.124,2.634,2.505,2.634
			s2.504-1.182,2.504-2.634S89.76,16.023,88.379,16.023z M42.79,16.428h-3.041c-1.495,0-2.667,1.043-2.667,2.375
			c0,1.331,1.188,2.374,2.703,2.374h2.24v3.21h-2.248c-3.307,0-5.998-2.505-5.998-5.584s2.691-5.585,5.998-5.585h6.207v11.169
			l-3.194,0.001V16.428z M95.35,24.387V13.218h3.2v11.169H95.35z M55.353,24.387l0-6.128c0-1.599-1.35-2.589-2.601-2.589
			c-1.266,0-2.632,0.99-2.632,2.589v6.128h-3.146v-6.006c0-3.214,2.43-5.546,5.778-5.546s5.778,2.332,5.778,5.546v6.006H55.353z
			 M78.401,24.386v-0.271c-0.085-0.095-0.128-0.204-0.132-0.328l-0.003-0.128l0.058-0.114c0.045-0.087,0.039-0.24,0.031-0.418
			l-0.006-0.235c0-0.729-0.543-1.337-1.263-1.415l-5.422,0.003l0.003-3.03h5.457c1.649,0,1.649-0.547,1.649-1.075
			c0-0.466,0-0.947-1.713-0.947h-5.456v-3.211h5.336c2.43,0,4.913,0.498,4.913,4.188c0,1.478-0.37,2.495-1.157,3.148
			c1.053,1.479,0.687,3.463,0.68,3.483l-0.11,0.35H78.401z M99.725,24.365v-3.188l5.455,0.001c1.611,0,2.184-1.33,2.184-2.469
			c0-0.686-0.21-2.28-2.153-2.28h-5.455v-3.21h5.338c3.151,0,5.352,2.271,5.352,5.521c0,3.259-2.264,5.625-5.382,5.626H99.725z
			 M59.7,24.365v-3.188l5.455,0.001c1.612,0,2.185-1.33,2.185-2.469c0-0.686-0.21-2.28-2.155-2.28H59.73v-3.21h5.337
			c3.15,0,5.351,2.271,5.351,5.521c0,3.259-2.262,5.625-5.379,5.626H59.7z"/>
		<path fill="#FFFFFF" d="M52.752,13.335c2.916,0,5.278,2.006,5.278,5.046v5.506h-2.178l0-5.628c0-1.959-1.644-3.089-3.101-3.089
			c-1.458,0-3.132,1.13-3.132,3.089v5.628h-2.146v-5.506C47.475,15.341,49.838,13.335,52.752,13.335 M88.379,13.421
			c2.772,0,5.02,2.345,5.02,5.235c0,2.892-2.247,5.236-5.02,5.236s-5.021-2.345-5.021-5.236
			C83.359,15.766,85.607,13.421,88.379,13.421 M88.379,21.791c1.658,0,3.004-1.402,3.004-3.134c0-1.73-1.346-3.134-3.004-3.134
			c-1.659,0-3.005,1.403-3.005,3.134C85.375,20.388,86.72,21.791,88.379,21.791 M76.942,13.716c2.916,0,4.413,0.869,4.413,3.688
			c0,1.603-0.464,2.539-1.399,3.048c1.309,1.27,0.945,3.434,0.945,3.434l0,0h-2c0-0.038-0.131-0.076-0.132-0.112
			c0.136-0.265,0.08-0.563,0.08-0.882c0-0.992-0.749-1.809-1.709-1.912c-0.046,0-0.091,0-0.138,0h-4.837l0.002-2.03h4.957
			c1.878,0,2.149-0.727,2.149-1.575c0-0.85-0.336-1.447-2.213-1.447h-4.956v-2.211H76.942 M105.093,13.718
			c2.914,0,4.852,2.089,4.852,5.021c0,2.931-1.966,5.125-4.882,5.126h-4.838v-2.188l4.955,0.001c1.878,0,2.684-1.504,2.684-2.969
			s-0.776-2.78-2.653-2.78h-4.955v-2.21H105.093 M98.05,13.718v10.169h-2.2V13.718H98.05 M65.067,13.718
			c2.916,0,4.851,2.089,4.851,5.021c0,2.931-1.964,5.125-4.879,5.126H60.2v-2.188l4.955,0.001c1.879,0,2.685-1.504,2.685-2.969
			s-0.777-2.78-2.655-2.78H60.23v-2.21H65.067 M45.484,13.718v10.169l-2.194,0.001v-7.96h-3.541c-1.763,0-3.167,1.242-3.167,2.875
			c0,1.631,1.438,2.874,3.203,2.874h1.74v2.21h-1.748c-3.036,0-5.498-2.276-5.498-5.084c0-2.809,2.461-5.085,5.498-5.085H45.484
			 M52.752,12.335c-3.457,0-6.093,2.426-6.269,5.697v-4.314v-1h-1h-5.707c-3.583,0-6.498,2.729-6.498,6.085
			c0,3.354,2.915,6.084,6.498,6.084h1.748h0.764v0.001h1l2.194-0.001h0.99l0,0h1h2.146h1v-1v-5.628c0-1.425,1.272-2.089,2.132-2.089
			c0.873,0,2.101,0.648,2.101,2.089l0,5.628v1h1h2.178h1v-1v-5.506C59.031,14.935,56.332,12.335,52.752,12.335L52.752,12.335z
			 M39.785,20.677c-1.235,0-2.203-0.823-2.203-1.874c0-1.069,0.931-1.875,2.167-1.875h2.541v3.749h-0.764H39.785L39.785,20.677z
			 M88.379,12.421c-3.319,0-6.021,2.797-6.021,6.235s2.701,6.236,6.021,6.236s6.02-2.798,6.02-6.236S91.699,12.421,88.379,12.421
			L88.379,12.421z M88.379,20.791c-1.105,0-2.005-0.957-2.005-2.134s0.899-2.134,2.005-2.134c1.104,0,2.004,0.957,2.004,2.134
			S89.484,20.791,88.379,20.791L88.379,20.791z M76.942,12.716h-4.836h-1v1v2.211v1h1h4.956c0.97,0,1.179,0.18,1.188,0.188l0,0
			c-0.002,0,0.025,0.062,0.025,0.26c0,0.383,0,0.575-1.149,0.575h-4.957h-0.999l-0.001,0.999l-0.002,2.03l-0.001,1.001h1.001h4.837
			h0.074c0.443,0.069,0.772,0.454,0.772,0.912c0,0.087,0.003,0.172,0.007,0.256c0.003,0.069,0.006,0.16,0.004,0.208l-0.098,0.189
			l0.007,0.256c0.004,0.118,0.029,0.294,0.132,0.474v0.611h1h2h0.674l0.253-0.624c0.084-0.206,0.385-2.067-0.49-3.631
			c0.684-0.746,1.018-1.813,1.018-3.227C82.355,13.203,79.266,12.716,76.942,12.716L76.942,12.716z M105.093,12.718h-4.838h-1v1
			v2.21v1h1h4.955c1.097,0,1.653,0.599,1.653,1.78c0,0.462-0.121,1.969-1.684,1.969l-4.955-0.001h-1v1v2.188v1h1h4.838
			c3.408-0.001,5.882-2.577,5.882-6.126C110.945,15.194,108.539,12.718,105.093,12.718L105.093,12.718z M99.05,12.718h-1h-2.2h-1v1
			v10.169v1h1h2.2h1v-1V13.718V12.718L99.05,12.718z M65.067,12.718H60.23h-1v1v2.21v1h1h4.955c1.098,0,1.655,0.599,1.655,1.78
			c0,0.462-0.122,1.969-1.685,1.969L60.2,20.676h-1v1v2.188v1h1h4.839c3.407-0.001,5.879-2.577,5.879-6.126
			C70.918,15.194,68.512,12.718,65.067,12.718L65.067,12.718z"/>
	</g>
	<path fill="#8FC31F" d="M19.821,3.603"/>
	<circle fill="#8FC31F" stroke="#FFFFFF" stroke-width="2" cx="11.75" cy="8.164" r="0.406"/>
	<circle fill="#8FC31F" stroke="#FFFFFF" stroke-width="2" cx="20.275" cy="8.164" r="0.406"/>
	<path fill="#A4C639" d="M11.978,22.688c1.035,0,1.875,0.924,1.875,2.063v8.852c0,1.14-0.84,2.063-1.875,2.063
		c-1.036,0-1.875-0.924-1.875-2.063v-8.852C10.103,23.612,10.941,22.688,11.978,22.688L11.978,22.688z"/>
	<path fill="#A4C639" d="M7.267,12.046c-0.007,0.078-0.013,0.157-0.013,0.236v13.412c0,1.441,1.142,2.604,2.559,2.604h13.638
		c1.417,0,2.559-1.162,2.559-2.604V12.283c0-0.079-0.003-0.158-0.01-0.236H7.267L7.267,12.046z"/>
	<path fill="#A4C639" d="M21.286,22.688c1.036,0,1.875,0.924,1.875,2.063v8.852c0,1.14-0.839,2.063-1.875,2.063
		c-1.035,0-1.875-0.924-1.875-2.063v-8.852C19.412,23.612,20.251,22.688,21.286,22.688L21.286,22.688z M3.938,13.24
		c1.035,0,1.875,0.924,1.875,2.063v8.852c0,1.14-0.84,2.063-1.875,2.063s-1.875-0.924-1.875-2.063v-8.852
		C2.063,14.164,2.903,13.24,3.938,13.24L3.938,13.24z M29.325,13.24c1.035,0,1.875,0.924,1.875,2.063v8.852
		c0,1.14-0.84,2.063-1.875,2.063s-1.875-0.924-1.875-2.063v-8.852C27.45,14.164,28.29,13.24,29.325,13.24L29.325,13.24z
		 M7.327,11.165c0.058-4.119,3.653-7.496,8.268-7.941h2.074c4.616,0.445,8.21,3.823,8.268,7.941H7.327z"/>
	<path fill="none" stroke="#A4C639" stroke-linecap="round" stroke-linejoin="round" d="M8.044,2.825l2.177,3.771 M25.219,2.825
		l-2.177,3.771"/>
	<path fill="#FFFFFF" d="M13.86,7.473c0.002,0.576-0.475,1.044-1.065,1.045c-0.589,0.002-1.068-0.463-1.07-1.04V7.473
		C11.723,6.898,12.2,6.429,12.79,6.428c0.589-0.002,1.069,0.463,1.07,1.04V7.473z M21.828,7.473
		c0.002,0.576-0.474,1.044-1.064,1.045c-0.59,0.002-1.069-0.463-1.071-1.04V7.473c-0.001-0.575,0.475-1.044,1.064-1.045
		c0.589-0.002,1.069,0.463,1.07,1.04V7.473z"/>
</g>
</svg>
