<?xml version="1.0" encoding="utf-8"?>
<!-- Generator: Adobe Illustrator 15.1.0, SVG Export Plug-In . SVG Version: 6.00 Build 0)  -->
<!DOCTYPE svg PUBLIC "-//W3C//DTD SVG 1.1//EN" "http://www.w3.org/Graphics/SVG/1.1/DTD/svg11.dtd">
<svg version="1.1" xmlns="http://www.w3.org/2000/svg" xmlns:xlink="http://www.w3.org/1999/xlink" x="0px" y="0px"
	 width="100.333px" height="36.667px" viewBox="0 0 100.333 36.667" enable-background="new 0 0 100.333 36.667"
	 xml:space="preserve">
<g id="Layer_1" display="none">
	<linearGradient id="SVGID_1_" gradientUnits="userSpaceOnUse" x1="0.021" y1="36.896" x2="18.4377" y2="18.4792">
		<stop  offset="0" style="stop-color:#00CBFB"/>
		<stop  offset="0.167" style="stop-color:#12BEFB"/>
		<stop  offset="0.5017" style="stop-color:#409BFC"/>
		<stop  offset="0.9696" style="stop-color:#8B63FD"/>
		<stop  offset="1" style="stop-color:#905FFD"/>
	</linearGradient>
	<polygon display="inline" fill="url(#SVGID_1_)" points="36.625,36.667 0.167,37.042 0.167,0.375 	"/>
	<linearGradient id="SVGID_2_" gradientUnits="userSpaceOnUse" x1="-9.1973" y1="27.5942" x2="27.511" y2="-9.114">
		<stop  offset="0" style="stop-color:#00CBFB"/>
		<stop  offset="0.1107" style="stop-color:#04C8FB"/>
		<stop  offset="0.2176" style="stop-color:#0FBFFB"/>
		<stop  offset="0.3231" style="stop-color:#23B1FB"/>
		<stop  offset="0.4276" style="stop-color:#3E9CFC"/>
		<stop  offset="0.5315" style="stop-color:#6182FC"/>
		<stop  offset="0.6336" style="stop-color:#8C62FD"/>
		<stop  offset="0.6424" style="stop-color:#905FFD"/>
	</linearGradient>
	<polygon display="inline" fill="url(#SVGID_2_)" points="0,36.792 0,0 36.625,0 	"/>
	<linearGradient id="SVGID_3_" gradientUnits="userSpaceOnUse" x1="0.1094" y1="18.188" x2="36.625" y2="18.188">
		<stop  offset="0" style="stop-color:#C757BC"/>
		<stop  offset="0.087" style="stop-color:#CF5F9F"/>
		<stop  offset="0.2434" style="stop-color:#DC6C71"/>
		<stop  offset="0.4005" style="stop-color:#E6764B"/>
		<stop  offset="0.5557" style="stop-color:#EE7E2E"/>
		<stop  offset="0.7085" style="stop-color:#F48419"/>
		<stop  offset="0.858" style="stop-color:#F8880C"/>
		<stop  offset="1" style="stop-color:#F98908"/>
	</linearGradient>
	<polygon display="inline" fill="url(#SVGID_3_)" points="0.167,36.375 0.109,19.875 20.219,0 36.625,0 	"/>
	
		<text transform="matrix(1 0 0 1 35.9175 25.6548)" display="inline" fill="#EAEAEA" font-family="'MyriadPro-Regular'" font-size="23.1874">Kotlin</text>
</g>
<g id="Layer_2" display="none">
	<g display="inline">
		<path fill="#333333" d="M88.379,24.393c-3.044,0-5.521-2.573-5.521-5.736c0-3.162,2.477-5.735,5.521-5.735s5.52,2.573,5.52,5.735
			C93.899,21.82,91.423,24.393,88.379,24.393z M88.379,16.023c-1.381,0-2.505,1.182-2.505,2.634s1.124,2.634,2.505,2.634
			s2.504-1.182,2.504-2.634S89.76,16.023,88.379,16.023z M42.79,16.428h-3.041c-1.495,0-2.667,1.043-2.667,2.375
			c0,1.331,1.188,2.374,2.703,2.374h2.24v3.21h-2.248c-3.307,0-5.998-2.505-5.998-5.584s2.691-5.585,5.998-5.585h6.207v11.169
			l-3.194,0.001V16.428z M95.35,24.387V13.218h3.2v11.169H95.35z M55.353,24.387l0-6.128c0-1.599-1.35-2.589-2.601-2.589
			c-1.266,0-2.632,0.99-2.632,2.589v6.128h-3.146v-6.006c0-3.214,2.43-5.546,5.778-5.546s5.778,2.332,5.778,5.546v6.006H55.353z
			 M78.401,24.386v-0.271c-0.085-0.095-0.128-0.204-0.132-0.328l-0.003-0.128l0.058-0.114c0.045-0.087,0.039-0.24,0.031-0.418
			l-0.006-0.235c0-0.729-0.543-1.337-1.263-1.415l-5.422,0.003l0.003-3.03h5.457c1.649,0,1.649-0.547,1.649-1.075
			c0-0.466,0-0.947-1.713-0.947h-5.456v-3.211h5.336c2.43,0,4.913,0.498,4.913,4.188c0,1.478-0.37,2.495-1.157,3.148
			c1.053,1.479,0.687,3.463,0.68,3.483l-0.11,0.35H78.401z M99.725,24.365v-3.188l5.455,0.001c1.611,0,2.184-1.33,2.184-2.469
			c0-0.686-0.21-2.28-2.153-2.28h-5.455v-3.21h5.338c3.151,0,5.352,2.271,5.352,5.521c0,3.259-2.264,5.625-5.382,5.626H99.725z
			 M59.7,24.365v-3.188l5.455,0.001c1.612,0,2.185-1.33,2.185-2.469c0-0.686-0.21-2.28-2.155-2.28H59.73v-3.21h5.337
			c3.15,0,5.351,2.271,5.351,5.521c0,3.259-2.262,5.625-5.379,5.626H59.7z"/>
		<path fill="#FFFFFF" d="M52.752,13.335c2.916,0,5.278,2.006,5.278,5.046v5.506h-2.178l0-5.628c0-1.959-1.644-3.089-3.101-3.089
			c-1.458,0-3.132,1.13-3.132,3.089v5.628h-2.146v-5.506C47.475,15.341,49.838,13.335,52.752,13.335 M88.379,13.421
			c2.772,0,5.02,2.345,5.02,5.235c0,2.892-2.247,5.236-5.02,5.236s-5.021-2.345-5.021-5.236
			C83.359,15.766,85.607,13.421,88.379,13.421 M88.379,21.791c1.658,0,3.004-1.402,3.004-3.134c0-1.73-1.346-3.134-3.004-3.134
			c-1.659,0-3.005,1.403-3.005,3.134C85.375,20.388,86.72,21.791,88.379,21.791 M76.942,13.716c2.916,0,4.413,0.869,4.413,3.688
			c0,1.603-0.464,2.539-1.399,3.048c1.309,1.27,0.945,3.434,0.945,3.434l0,0h-2c0-0.038-0.131-0.076-0.132-0.112
			c0.136-0.265,0.08-0.563,0.08-0.882c0-0.992-0.749-1.809-1.709-1.912c-0.046,0-0.091,0-0.138,0h-4.837l0.002-2.03h4.957
			c1.878,0,2.149-0.727,2.149-1.575c0-0.85-0.336-1.447-2.213-1.447h-4.956v-2.211H76.942 M105.093,13.718
			c2.914,0,4.852,2.089,4.852,5.021c0,2.931-1.966,5.125-4.882,5.126h-4.838v-2.188l4.955,0.001c1.878,0,2.684-1.504,2.684-2.969
			s-0.776-2.78-2.653-2.78h-4.955v-2.21H105.093 M98.05,13.718v10.169h-2.2V13.718H98.05 M65.067,13.718
			c2.916,0,4.851,2.089,4.851,5.021c0,2.931-1.964,5.125-4.879,5.126H60.2v-2.188l4.955,0.001c1.879,0,2.685-1.504,2.685-2.969
			s-0.777-2.78-2.655-2.78H60.23v-2.21H65.067 M45.484,13.718v10.169l-2.194,0.001v-7.96h-3.541c-1.763,0-3.167,1.242-3.167,2.875
			c0,1.631,1.438,2.874,3.203,2.874h1.74v2.21h-1.748c-3.036,0-5.498-2.276-5.498-5.084c0-2.809,2.461-5.085,5.498-5.085H45.484
			 M52.752,12.335c-3.457,0-6.093,2.426-6.269,5.697v-4.314v-1h-1h-5.707c-3.583,0-6.498,2.729-6.498,6.085
			c0,3.354,2.915,6.084,6.498,6.084h1.748h0.764v0.001h1l2.194-0.001h0.99l0,0h1h2.146h1v-1v-5.628c0-1.425,1.272-2.089,2.132-2.089
			c0.873,0,2.101,0.648,2.101,2.089l0,5.628v1h1h2.178h1v-1v-5.506C59.031,14.935,56.332,12.335,52.752,12.335L52.752,12.335z
			 M39.785,20.677c-1.235,0-2.203-0.823-2.203-1.874c0-1.069,0.931-1.875,2.167-1.875h2.541v3.749h-0.764H39.785L39.785,20.677z
			 M88.379,12.421c-3.319,0-6.021,2.797-6.021,6.235s2.701,6.236,6.021,6.236s6.02-2.798,6.02-6.236S91.699,12.421,88.379,12.421
			L88.379,12.421z M88.379,20.791c-1.105,0-2.005-0.957-2.005-2.134s0.899-2.134,2.005-2.134c1.104,0,2.004,0.957,2.004,2.134
			S89.484,20.791,88.379,20.791L88.379,20.791z M76.942,12.716h-4.836h-1v1v2.211v1h1h4.956c0.97,0,1.179,0.18,1.188,0.188l0,0
			c-0.002,0,0.025,0.062,0.025,0.26c0,0.383,0,0.575-1.149,0.575h-4.957h-0.999l-0.001,0.999l-0.002,2.03l-0.001,1.001h1.001h4.837
			h0.074c0.443,0.069,0.772,0.454,0.772,0.912c0,0.087,0.003,0.172,0.007,0.256c0.003,0.069,0.006,0.16,0.004,0.208l-0.098,0.189
			l0.007,0.256c0.004,0.118,0.029,0.294,0.132,0.474v0.611h1h2h0.674l0.253-0.624c0.084-0.206,0.385-2.067-0.49-3.631
			c0.684-0.746,1.018-1.813,1.018-3.227C82.355,13.203,79.266,12.716,76.942,12.716L76.942,12.716z M105.093,12.718h-4.838h-1v1
			v2.21v1h1h4.955c1.097,0,1.653,0.599,1.653,1.78c0,0.462-0.121,1.969-1.684,1.969l-4.955-0.001h-1v1v2.188v1h1h4.838
			c3.408-0.001,5.882-2.577,5.882-6.126C110.945,15.194,108.539,12.718,105.093,12.718L105.093,12.718z M99.05,12.718h-1h-2.2h-1v1
			v10.169v1h1h2.2h1v-1V13.718V12.718L99.05,12.718z M65.067,12.718H60.23h-1v1v2.21v1h1h4.955c1.098,0,1.655,0.599,1.655,1.78
			c0,0.462-0.122,1.969-1.685,1.969L60.2,20.676h-1v1v2.188v1h1h4.839c3.407-0.001,5.879-2.577,5.879-6.126
			C70.918,15.194,68.512,12.718,65.067,12.718L65.067,12.718z"/>
	</g>
	<path display="inline" fill="#8FC31F" d="M19.821,3.603"/>
	<circle display="inline" fill="#8FC31F" stroke="#FFFFFF" stroke-width="2" cx="11.75" cy="8.164" r="0.406"/>
	<circle display="inline" fill="#8FC31F" stroke="#FFFFFF" stroke-width="2" cx="20.275" cy="8.164" r="0.406"/>
	<path display="inline" fill="#A4C639" d="M11.978,22.688c1.035,0,1.875,0.924,1.875,2.063v8.852c0,1.14-0.84,2.063-1.875,2.063
		c-1.036,0-1.875-0.924-1.875-2.063v-8.852C10.103,23.612,10.941,22.688,11.978,22.688L11.978,22.688z"/>
	<path display="inline" fill="#A4C639" d="M7.267,12.046c-0.007,0.078-0.013,0.157-0.013,0.236v13.412
		c0,1.441,1.142,2.604,2.559,2.604h13.638c1.417,0,2.559-1.162,2.559-2.604V12.283c0-0.079-0.003-0.158-0.01-0.236H7.267
		L7.267,12.046z"/>
	<path display="inline" fill="#A4C639" d="M21.286,22.688c1.036,0,1.875,0.924,1.875,2.063v8.852c0,1.14-0.839,2.063-1.875,2.063
		c-1.035,0-1.875-0.924-1.875-2.063v-8.852C19.412,23.612,20.251,22.688,21.286,22.688L21.286,22.688z M3.938,13.24
		c1.035,0,1.875,0.924,1.875,2.063v8.852c0,1.14-0.84,2.063-1.875,2.063s-1.875-0.924-1.875-2.063v-8.852
		C2.063,14.164,2.903,13.24,3.938,13.24L3.938,13.24z M29.325,13.24c1.035,0,1.875,0.924,1.875,2.063v8.852
		c0,1.14-0.84,2.063-1.875,2.063s-1.875-0.924-1.875-2.063v-8.852C27.45,14.164,28.29,13.24,29.325,13.24L29.325,13.24z
		 M7.327,11.165c0.058-4.119,3.653-7.496,8.268-7.941h2.074c4.616,0.445,8.21,3.823,8.268,7.941H7.327z"/>
	<path display="inline" fill="none" stroke="#A4C639" stroke-linecap="round" stroke-linejoin="round" d="M8.044,2.825l2.177,3.771
		 M25.219,2.825l-2.177,3.771"/>
	<path display="inline" fill="#FFFFFF" d="M13.86,7.473c0.002,0.576-0.475,1.044-1.065,1.045c-0.589,0.002-1.068-0.463-1.07-1.04
		V7.473C11.723,6.898,12.2,6.429,12.79,6.428c0.589-0.002,1.069,0.463,1.07,1.04V7.473z M21.828,7.473
		c0.002,0.576-0.474,1.044-1.064,1.045c-0.59,0.002-1.069-0.463-1.071-1.04V7.473c-0.001-0.575,0.475-1.044,1.064-1.045
		c0.589-0.002,1.069,0.463,1.07,1.04V7.473z"/>
</g>
<g id="Layer_4">
	<g>
		<defs>
			<path id="SVGID_4_" d="M31.367,33.189L31.367,33.189l-2.448-4.227c3.568-3.016,5.837-7.51,5.837-12.539
				C34.756,7.361,27.396,0,18.334,0C9.271,0,1.911,7.361,1.911,16.423c0,5.029,2.269,9.539,5.837,12.555L5.3,33.203
				c-0.075,0.135-0.119,0.27-0.134,0.418l-0.209,2.762c-0.016,0.105,0.045,0.195,0.134,0.254l0,0l0,0
				c0.09,0.061,0.194,0.045,0.284-0.014l2.299-1.553c0.119-0.09,0.225-0.195,0.299-0.314l0,0l2.314-4
				c2.373,1.344,5.12,2.104,8.047,2.104c2.926,0,5.673-0.775,8.062-2.119l2.314,4.002c0.074,0.133,0.179,0.238,0.298,0.313
				l2.3,1.568c0.089,0.059,0.194,0.059,0.283,0.014l0,0l0,0c0.09-0.059,0.135-0.148,0.135-0.254l-0.209-2.762
				C31.486,33.472,31.457,33.322,31.367,33.189z"/>
		</defs>
		<clipPath id="SVGID_5_">
			<use xlink:href="#SVGID_4_"  overflow="visible"/>
		</clipPath>
		<path clip-path="url(#SVGID_5_)" fill="#7CB342" d="M18.334,0C9.271,0,1.911,7.361,1.911,16.423h16.423h16.422
			C34.771,7.345,27.411,0,18.334,0z"/>
	</g>
	<g>
		<defs>
			<path id="SVGID_6_" d="M31.367,33.189L31.367,33.189l-2.448-4.227c3.568-3.016,5.837-7.51,5.837-12.539
				C34.756,7.361,27.396,0,18.334,0C9.271,0,1.911,7.361,1.911,16.423c0,5.029,2.269,9.539,5.837,12.555L5.3,33.203
				c-0.075,0.135-0.119,0.27-0.134,0.418l-0.209,2.762c-0.016,0.105,0.045,0.195,0.134,0.254l0,0l0,0
				c0.09,0.061,0.194,0.045,0.284-0.014l2.299-1.553c0.119-0.09,0.225-0.195,0.299-0.314l0,0l2.314-4
				c2.373,1.344,5.12,2.104,8.047,2.104c2.926,0,5.673-0.775,8.062-2.119l2.314,4.002c0.074,0.133,0.179,0.238,0.298,0.313
				l2.3,1.568c0.089,0.059,0.194,0.059,0.283,0.014l0,0l0,0c0.09-0.059,0.135-0.148,0.135-0.254l-0.209-2.762
				C31.486,33.472,31.457,33.322,31.367,33.189z"/>
		</defs>
		<clipPath id="SVGID_7_">
			<use xlink:href="#SVGID_6_"  overflow="visible"/>
		</clipPath>
		<path clip-path="url(#SVGID_7_)" fill="#8BC34A" d="M18.334,16.423H1.911c0,9.061,7.36,16.422,16.423,16.422
			c9.062,0,16.422-7.361,16.422-16.422H18.334z"/>
	</g>
	<g>
		<defs>
			<path id="SVGID_8_" d="M31.367,33.189L31.367,33.189l-2.448-4.227c3.568-3.016,5.837-7.51,5.837-12.539
				C34.756,7.361,27.396,0,18.334,0C9.271,0,1.911,7.361,1.911,16.423c0,5.029,2.269,9.539,5.837,12.555L5.3,33.203
				c-0.075,0.135-0.119,0.27-0.134,0.418l-0.209,2.762c-0.016,0.105,0.045,0.195,0.134,0.254l0,0l0,0
				c0.09,0.061,0.194,0.045,0.284-0.014l2.299-1.553c0.119-0.09,0.225-0.195,0.299-0.314l0,0l2.314-4
				c2.373,1.344,5.12,2.104,8.047,2.104c2.926,0,5.673-0.775,8.062-2.119l2.314,4.002c0.074,0.133,0.179,0.238,0.298,0.313
				l2.3,1.568c0.089,0.059,0.194,0.059,0.283,0.014l0,0l0,0c0.09-0.059,0.135-0.148,0.135-0.254l-0.209-2.762
				C31.486,33.472,31.457,33.322,31.367,33.189z"/>
		</defs>
		<clipPath id="SVGID_9_">
			<use xlink:href="#SVGID_8_"  overflow="visible"/>
		</clipPath>
		<path opacity="0.2" clip-path="url(#SVGID_9_)" fill="#FFFFFF" enable-background="new    " d="M18.334,0.179
			c9.032,0,16.377,7.301,16.422,16.332c0-0.029,0-0.059,0-0.088C34.756,7.361,27.396,0,18.334,0
			C9.271-0.014,1.911,7.345,1.911,16.423c0,0.029,0,0.059,0,0.088C1.971,7.496,9.301,0.179,18.334,0.179z"/>
	</g>
	<g>
		<defs>
			<path id="SVGID_10_" d="M31.367,33.189L31.367,33.189l-2.448-4.227c3.568-3.016,5.837-7.51,5.837-12.539
				C34.756,7.361,27.396,0,18.334,0C9.271,0,1.911,7.361,1.911,16.423c0,5.029,2.269,9.539,5.837,12.555L5.3,33.203
				c-0.075,0.135-0.119,0.27-0.134,0.418l-0.209,2.762c-0.016,0.105,0.045,0.195,0.134,0.254l0,0l0,0
				c0.09,0.061,0.194,0.045,0.284-0.014l2.299-1.553c0.119-0.09,0.225-0.195,0.299-0.314l0,0l2.314-4
				c2.373,1.344,5.12,2.104,8.047,2.104c2.926,0,5.673-0.775,8.062-2.119l2.314,4.002c0.074,0.133,0.179,0.238,0.298,0.313
				l2.3,1.568c0.089,0.059,0.194,0.059,0.283,0.014l0,0l0,0c0.09-0.059,0.135-0.148,0.135-0.254l-0.209-2.762
				C31.486,33.472,31.457,33.322,31.367,33.189z"/>
		</defs>
		<clipPath id="SVGID_11_">
			<use xlink:href="#SVGID_10_"  overflow="visible"/>
		</clipPath>
		<path opacity="0.2" clip-path="url(#SVGID_11_)" fill="#263238" enable-background="new    " d="M18.334,32.65
			c-9.033,0-16.379-7.299-16.423-16.332c0,0.029,0,0.061,0,0.09c0,9.063,7.36,16.422,16.423,16.422
			c9.062,0,16.422-7.359,16.422-16.422c0-0.029,0-0.061,0-0.09C34.711,25.351,27.381,32.65,18.334,32.65z"/>
	</g>
	<g>
		<defs>
			<path id="SVGID_12_" d="M31.367,33.189L31.367,33.189l-2.448-4.227c3.568-3.016,5.837-7.51,5.837-12.539
				C34.756,7.361,27.396,0,18.334,0C9.271,0,1.911,7.361,1.911,16.423c0,5.029,2.269,9.539,5.837,12.555L5.3,33.203
				c-0.075,0.135-0.119,0.27-0.134,0.418l-0.209,2.762c-0.016,0.105,0.045,0.195,0.134,0.254l0,0l0,0
				c0.09,0.061,0.194,0.045,0.284-0.014l2.299-1.553c0.119-0.09,0.225-0.195,0.299-0.314l0,0l2.314-4
				c2.373,1.344,5.12,2.104,8.047,2.104c2.926,0,5.673-0.775,8.062-2.119l2.314,4.002c0.074,0.133,0.179,0.238,0.298,0.313
				l2.3,1.568c0.089,0.059,0.194,0.059,0.283,0.014l0,0l0,0c0.09-0.059,0.135-0.148,0.135-0.254l-0.209-2.762
				C31.486,33.472,31.457,33.322,31.367,33.189z"/>
		</defs>
		<clipPath id="SVGID_13_">
			<use xlink:href="#SVGID_12_"  overflow="visible"/>
		</clipPath>
		<rect y="16.228" clip-path="url(#SVGID_13_)" fill="#263238" fill-opacity="0.05" width="36.667" height="0.195"/>
		<rect y="16.423" clip-path="url(#SVGID_13_)" fill="#FFFFFF" fill-opacity="0.05" width="36.667" height="0.193"/>
	</g>
	<g>
		<defs>
			<path id="SVGID_14_" d="M31.367,33.189L31.367,33.189l-2.448-4.227c3.568-3.016,5.837-7.51,5.837-12.539
				C34.756,7.361,27.396,0,18.334,0C9.271,0,1.911,7.361,1.911,16.423c0,5.029,2.269,9.539,5.837,12.555L5.3,33.203
				c-0.075,0.135-0.119,0.27-0.134,0.418l-0.209,2.762c-0.016,0.105,0.045,0.195,0.134,0.254l0,0l0,0
				c0.09,0.061,0.194,0.045,0.284-0.014l2.299-1.553c0.119-0.09,0.225-0.195,0.299-0.314l0,0l2.314-4
				c2.373,1.344,5.12,2.104,8.047,2.104c2.926,0,5.673-0.775,8.062-2.119l2.314,4.002c0.074,0.133,0.179,0.238,0.298,0.313
				l2.3,1.568c0.089,0.059,0.194,0.059,0.283,0.014l0,0l0,0c0.09-0.059,0.135-0.148,0.135-0.254l-0.209-2.762
				C31.486,33.472,31.457,33.322,31.367,33.189z"/>
		</defs>
		<clipPath id="SVGID_15_">
			<use xlink:href="#SVGID_14_"  overflow="visible"/>
		</clipPath>
		
			<linearGradient id="SVGID_16_" gradientUnits="userSpaceOnUse" x1="-176.5034" y1="2040.8276" x2="-85.0857" y2="2132.2454" gradientTransform="matrix(0.1999 0 0 0.1999 45.0943 -394.4508)">
			<stop  offset="0.33" style="stop-color:#263238;stop-opacity:0.16"/>
			<stop  offset="1" style="stop-color:#263238;stop-opacity:0"/>
		</linearGradient>
		<path clip-path="url(#SVGID_15_)" fill="url(#SVGID_16_)" d="M30.173,16.453c0-0.016,0-0.029,0-0.029h-0.762l-9.167-9.168l0,0l0,0
			h-1.91h-1.896v0.016v3.061h-0.971c-0.94,0-1.717,0.775-1.717,1.717v3.896h0.016c-0.016,0.135,0.074,0.299,0.254,0.492
			c0.014,0.016,0.014,0.016,0.014,0.031l0.598,0.596l-6.883,11.93c0.791,0.672,1.643,1.254,2.539,1.762
			c2.389,1.344,5.12,2.119,8.062,2.119c2.926,0,5.673-0.775,8.062-2.119c0.896-0.508,1.747-1.105,2.538-1.762
			c2.419-2.047,4.225-4.764,5.151-7.883c0.06-0.195,0.104-0.389,0.164-0.568L30.173,16.453z"/>
		
			<linearGradient id="SVGID_17_" gradientUnits="userSpaceOnUse" x1="-197.6377" y1="2096.8442" x2="-123.1065" y2="2070.408" gradientTransform="matrix(0.1999 0 0 0.1999 45.0943 -394.4508)">
			<stop  offset="0.33" style="stop-color:#263238;stop-opacity:0.16"/>
			<stop  offset="1" style="stop-color:#263238;stop-opacity:0"/>
		</linearGradient>
		<path clip-path="url(#SVGID_15_)" fill="url(#SVGID_17_)" d="M30.173,16.453c0-0.016,0-0.029,0-0.029h-0.762l-9.167-9.168l0,0l0,0
			h-1.91h-1.896v0.016v3.061h-0.971c-0.94,0-1.717,0.775-1.717,1.717v3.896h0.016c-0.016,0.135,0.074,0.299,0.254,0.492
			c0.014,0.016,0.014,0.016,0.014,0.031l0.598,0.596l-6.883,11.93c0.791,0.672,1.643,1.254,2.539,1.762
			c2.389,1.344,5.12,2.119,8.062,2.119c2.926,0,5.673-0.775,8.062-2.119c0.896-0.508,1.747-1.105,2.538-1.762
			c2.419-2.047,4.225-4.764,5.151-7.883c0.06-0.195,0.104-0.389,0.164-0.568L30.173,16.453z"/>
	</g>
	<g>
		<defs>
			<path id="SVGID_18_" d="M31.367,33.189L31.367,33.189l-2.448-4.227c3.568-3.016,5.837-7.51,5.837-12.539
				C34.756,7.361,27.396,0,18.334,0C9.271,0,1.911,7.361,1.911,16.423c0,5.029,2.269,9.539,5.837,12.555L5.3,33.203
				c-0.075,0.135-0.119,0.27-0.134,0.418l-0.209,2.762c-0.016,0.105,0.045,0.195,0.134,0.254l0,0l0,0
				c0.09,0.061,0.194,0.045,0.284-0.014l2.299-1.553c0.119-0.09,0.225-0.195,0.299-0.314l0,0l2.314-4
				c2.373,1.344,5.12,2.104,8.047,2.104c2.926,0,5.673-0.775,8.062-2.119l2.314,4.002c0.074,0.133,0.179,0.238,0.298,0.313
				l2.3,1.568c0.089,0.059,0.194,0.059,0.283,0.014l0,0l0,0c0.09-0.059,0.135-0.148,0.135-0.254l-0.209-2.762
				C31.486,33.472,31.457,33.322,31.367,33.189z"/>
		</defs>
		<clipPath id="SVGID_19_">
			<use xlink:href="#SVGID_18_"  overflow="visible"/>
		</clipPath>
		
			<g transform="matrix(1 0 0 1 -6.141988e-008 1.573097e-007)" opacity="0.2" clip-path="url(#SVGID_19_)" enable-background="new    ">
			
				<image overflow="visible" width="364" height="400" xlink:href="68BC1E00.png"  transform="matrix(0.076 0 0 0.076 4.665 6.8687)">
			</image>
		</g>
		<path clip-path="url(#SVGID_19_)" fill="#646464" d="M31.502,33.621c-0.016-0.148-0.061-0.283-0.135-0.418l0,0l-4.777-8.285
			c2.209-2.15,3.598-5.166,3.598-8.494h-3.061c0,2.178-0.807,4.18-2.135,5.732l-2.956-5.105l0.597-0.598
			c0.194-0.193,0.27-0.373,0.27-0.508h0.015v-3.896c0-0.941-0.776-1.717-1.717-1.717h-0.956V7.271V7.255h-1.91h-1.896v0.016v3.061
			h-0.971c-0.94,0-1.717,0.775-1.717,1.717v3.896h0.016c-0.016,0.148,0.074,0.314,0.268,0.508l0.598,0.598L5.3,33.189
			c-0.075,0.133-0.119,0.268-0.134,0.418l-0.209,2.775c-0.016,0.105,0.045,0.195,0.134,0.254l0,0l0,0
			c0.09,0.061,0.194,0.045,0.284-0.014l2.299-1.553c0.119-0.09,0.225-0.195,0.299-0.314l0,0l4.613-7.986
			c1.701,0.955,3.672,1.508,5.763,1.508c2.09,0,4.061-0.553,5.763-1.508l4.613,7.973c0.074,0.133,0.179,0.238,0.299,0.313
			l2.299,1.568c0.089,0.059,0.194,0.059,0.283,0.014l0,0l0,0c0.09-0.059,0.135-0.148,0.135-0.254L31.502,33.621z M18.334,11.839
			V11.81l0.015,0.029c1.254,0.016,2.284,1.029,2.284,2.299s-1.03,2.285-2.284,2.299h-0.015l0,0c-1.254,0-2.285-1.029-2.285-2.299
			C16.049,12.855,17.064,11.839,18.334,11.839z M18.334,25.201c-1.538,0-2.986-0.402-4.226-1.09l2.776-4.807l0.582,0.582
			c0.24,0.238,0.553,0.357,0.852,0.357V20.23l0.016,0.014c0.313,0,0.627-0.119,0.851-0.357l0.582-0.582l2.777,4.822
			C21.319,24.812,19.871,25.201,18.334,25.201z"/>
	</g>
	<g>
		<defs>
			<path id="SVGID_20_" d="M31.367,33.189L31.367,33.189l-2.448-4.227c3.568-3.016,5.837-7.51,5.837-12.539
				C34.756,7.361,27.396,0,18.334,0C9.271,0,1.911,7.361,1.911,16.423c0,5.029,2.269,9.539,5.837,12.555L5.3,33.203
				c-0.075,0.135-0.119,0.27-0.134,0.418l-0.209,2.762c-0.016,0.105,0.045,0.195,0.134,0.254l0,0l0,0
				c0.09,0.061,0.194,0.045,0.284-0.014l2.299-1.553c0.119-0.09,0.225-0.195,0.299-0.314l0,0l2.314-4
				c2.373,1.344,5.12,2.104,8.047,2.104c2.926,0,5.673-0.775,8.062-2.119l2.314,4.002c0.074,0.133,0.179,0.238,0.298,0.313
				l2.3,1.568c0.089,0.059,0.194,0.059,0.283,0.014l0,0l0,0c0.09-0.059,0.135-0.148,0.135-0.254l-0.209-2.762
				C31.486,33.472,31.457,33.322,31.367,33.189z"/>
		</defs>
		<clipPath id="SVGID_21_">
			<use xlink:href="#SVGID_20_"  overflow="visible"/>
		</clipPath>
		<path clip-path="url(#SVGID_21_)" fill="#E1E1E1" d="M31.502,33.621c-0.016-0.148-0.061-0.283-0.135-0.418l0,0l-4.777-8.285
			l-1.583-2.762l-2.956-5.105l-2.254,2.254l2.776,4.822l1.523,2.643l4.613,7.973c0.074,0.133,0.179,0.238,0.298,0.313l2.3,1.568
			c0.089,0.059,0.194,0.059,0.283,0.014l0,0l0,0c0.09-0.059,0.135-0.148,0.135-0.254L31.502,33.621z"/>
		<path clip-path="url(#SVGID_21_)" fill="#FFFFFF" fill-opacity="0.4" d="M24.992,22.335l1.582,2.762l4.793,8.285l0,0
			c0.074,0.135,0.119,0.27,0.135,0.418l0.193,2.627c0-0.014,0.015-0.029,0.015-0.059l-0.208-2.762
			c-0.016-0.15-0.061-0.285-0.135-0.418l0,0l-4.777-8.287l-1.583-2.762l-2.956-5.105l-0.089,0.104L24.992,22.335z"/>
		<path clip-path="url(#SVGID_21_)" fill="#262626" fill-opacity="0.2" d="M31.576,36.427L31.576,36.427L31.576,36.427
			c-0.09,0.061-0.194,0.045-0.284-0.014l-2.299-1.568c-0.119-0.09-0.224-0.193-0.299-0.313l-4.613-7.973l-1.522-2.643l-2.688-4.688
			l-0.074,0.074l2.776,4.822l1.523,2.643l4.613,7.973c0.074,0.133,0.179,0.238,0.298,0.313l2.3,1.568
			c0.089,0.059,0.194,0.059,0.283,0.014l0,0l0,0c0.09-0.059,0.135-0.148,0.135-0.254L31.71,36.25
			C31.681,36.324,31.65,36.398,31.576,36.427z"/>
		<path clip-path="url(#SVGID_21_)" fill="#F1F1F1" d="M27.127,16.423c0,2.178-0.807,4.18-2.135,5.732
			c-0.687,0.791-1.493,1.463-2.419,1.971c-1.254,0.701-2.702,1.09-4.239,1.09c-1.538,0-2.986-0.404-4.226-1.09l2.776-4.822
			l-2.254-2.254L5.3,33.203c-0.075,0.135-0.119,0.27-0.134,0.418l-0.209,2.777c-0.016,0.105,0.045,0.195,0.134,0.254l0,0l0,0
			c0.09,0.061,0.194,0.045,0.284-0.016l2.299-1.553c0.119-0.088,0.225-0.193,0.299-0.313l0,0l4.613-7.988
			c1.701,0.957,3.672,1.51,5.763,1.51c2.09,0,4.061-0.553,5.763-1.51c0.91-0.508,1.747-1.135,2.479-1.85
			c2.209-2.15,3.598-5.166,3.598-8.496L27.127,16.423L27.127,16.423z"/>
		<path clip-path="url(#SVGID_21_)" fill="none" d="M19.199,19.886c-0.238,0.238-0.552,0.357-0.851,0.357l-0.015-0.014v0.014
			c-0.314,0-0.627-0.119-0.852-0.357L16.9,19.304l-2.777,4.807c1.254,0.701,2.703,1.09,4.226,1.09s2.985-0.402,4.24-1.09
			l-2.777-4.822L19.199,19.886z"/>
		<path clip-path="url(#SVGID_21_)" fill="#FFFFFF" fill-opacity="0.4" d="M5.3,33.382l9.436-16.258l-0.104-0.09L5.3,33.189
			c-0.075,0.133-0.119,0.268-0.134,0.418l-0.209,2.775c0,0.016,0.015,0.031,0.015,0.061l0.194-2.627
			C5.195,33.666,5.225,33.517,5.3,33.382z"/>
		<path clip-path="url(#SVGID_21_)" fill="#FFFFFF" fill-opacity="0.4" d="M18.334,25.396c1.537,0,2.985-0.404,4.239-1.09
			c0.911-0.508,1.732-1.18,2.419-1.971c1.328-1.539,2.135-3.539,2.135-5.734h3.046c0-0.059,0.015-0.133,0.015-0.193h-3.061
			c0,2.18-0.807,4.18-2.135,5.732c-0.687,0.791-1.493,1.463-2.419,1.971c-1.254,0.701-2.702,1.09-4.239,1.09
			c-1.508,0-2.912-0.389-4.15-1.061l-0.09,0.15C15.363,24.992,16.811,25.396,18.334,25.396z"/>
		<path clip-path="url(#SVGID_21_)" fill="#262626" fill-opacity="0.2" d="M14.108,24.097l2.776-4.793l-0.074-0.074l-2.791,4.822
			C14.049,24.066,14.078,24.082,14.108,24.097z"/>
		<path clip-path="url(#SVGID_21_)" fill="#262626" fill-opacity="0.2" d="M26.59,24.708c-0.747,0.717-1.568,1.344-2.479,1.852
			c-1.702,0.955-3.673,1.508-5.763,1.508c-2.091,0-4.062-0.553-5.763-1.508l-4.613,7.986l0,0c-0.074,0.135-0.18,0.24-0.299,0.314
			l-2.299,1.553c-0.09,0.059-0.194,0.059-0.284,0.014l0,0l0,0c-0.074-0.045-0.104-0.119-0.119-0.193l-0.015,0.135
			c-0.016,0.104,0.045,0.193,0.134,0.254l0,0l0,0c0.09,0.045,0.194,0.045,0.284-0.016l2.299-1.553
			c0.119-0.09,0.225-0.193,0.299-0.313l0,0l4.613-7.988c1.701,0.955,3.672,1.508,5.763,1.508c2.09,0,4.061-0.553,5.763-1.508
			c0.91-0.508,1.747-1.135,2.479-1.852c2.209-2.15,3.598-5.166,3.598-8.494h-0.015C30.128,19.662,28.754,22.603,26.59,24.708z"/>
		<path clip-path="url(#SVGID_21_)" fill="#646464" d="M21.2,10.316h-0.956V7.255V7.24h-1.91h-1.896v0.016v3.061h-0.971
			c-0.94,0-1.717,0.777-1.717,1.717v3.896h0.016c-0.016,0.15,0.074,0.314,0.268,0.508l3.449,3.449
			c0.238,0.238,0.553,0.357,0.852,0.357V20.23l0.015,0.014c0.313,0,0.627-0.119,0.851-0.357l3.449-3.449
			c0.194-0.193,0.269-0.373,0.269-0.508h0.015v-3.881C22.917,11.093,22.155,10.316,21.2,10.316z M18.349,16.423h-0.015l0,0
			c-1.254,0-2.285-1.031-2.285-2.301c0-1.268,1.031-2.299,2.285-2.299v-0.029l0.015,0.029c1.254,0.016,2.284,1.031,2.284,2.299
			C20.633,15.392,19.603,16.408,18.349,16.423z"/>
		<path opacity="0.2" clip-path="url(#SVGID_21_)" fill="#FFFFFF" enable-background="new    " d="M20.244,7.435v-0.18V7.24h-1.91
			h-1.896v0.016v0.18h1.896H20.244z"/>
		<path clip-path="url(#SVGID_21_)" fill="#FFFFFF" fill-opacity="0.2" d="M18.349,16.228h-0.015l0,0
			c-1.225,0-2.225-0.984-2.285-2.193c0,0.029-0.015,0.059-0.015,0.088c0,1.254,1.03,2.301,2.284,2.301l0,0h0.016
			c1.254-0.016,2.284-1.031,2.284-2.301c0-0.029,0-0.059-0.016-0.088C20.573,15.244,19.572,16.212,18.349,16.228z"/>
		<path opacity="0.2" clip-path="url(#SVGID_21_)" fill="#FFFFFF" enable-background="new    " d="M15.482,10.511h0.97v-0.195h-0.97
			c-0.941,0-1.717,0.777-1.717,1.717v0.195C13.75,11.287,14.526,10.511,15.482,10.511z"/>
		<path opacity="0.2" clip-path="url(#SVGID_21_)" fill="#FFFFFF" enable-background="new    " d="M21.2,10.316h-0.956v0.195H21.2
			c0.94,0,1.717,0.775,1.717,1.717v-0.18C22.917,11.093,22.155,10.316,21.2,10.316z"/>
		<path opacity="0.2" clip-path="url(#SVGID_21_)" fill="#262626" enable-background="new    " d="M18.349,11.839l-0.015-0.029
			v0.029c-1.254,0-2.285,1.029-2.285,2.299c0,0.029,0,0.061,0.016,0.09c0.06-1.225,1.06-2.195,2.284-2.195v-0.029l0.015,0.029
			c1.225,0.016,2.225,0.986,2.27,2.195c0-0.029,0.015-0.061,0.015-0.09C20.633,12.869,19.603,11.839,18.349,11.839z"/>
		<path clip-path="url(#SVGID_21_)" fill="#262626" fill-opacity="0.2" d="M22.648,16.259l-3.449,3.447
			c-0.238,0.24-0.552,0.359-0.851,0.359l-0.015-0.016v0.016c-0.314,0-0.627-0.119-0.852-0.359l-3.449-3.447
			c-0.193-0.195-0.268-0.375-0.268-0.508H13.75v0.193h0.016c-0.016,0.148,0.074,0.314,0.268,0.508l3.449,3.434
			c0.238,0.238,0.553,0.357,0.852,0.357V20.23l0.015,0.014c0.313,0,0.627-0.119,0.851-0.357l3.449-3.449
			c0.194-0.193,0.269-0.373,0.269-0.508h0.015v-0.193h-0.015C22.917,15.884,22.843,16.064,22.648,16.259z"/>
		<path clip-path="url(#SVGID_21_)" fill="none" d="M18.334,16.423L18.334,16.423h0.015c1.254-0.016,2.284-1.031,2.284-2.301
			c0-1.268-1.03-2.283-2.284-2.299l-0.015-0.029v0.029c-1.254,0-2.285,1.031-2.285,2.299C16.049,15.392,17.064,16.423,18.334,16.423
			z"/>
	</g>
	
		<radialGradient id="SVGID_22_" cx="-191.7383" cy="2002.605" r="202.8974" gradientTransform="matrix(0.1999 0 0 0.1999 45.0943 -394.4508)" gradientUnits="userSpaceOnUse">
		<stop  offset="0" style="stop-color:#FFFFFF"/>
		<stop  offset="1" style="stop-color:#FFFFFF;stop-opacity:0"/>
	</radialGradient>
	<path fill="url(#SVGID_22_)" fill-opacity="0.1" stroke="#777777" stroke-width="0.1" stroke-miterlimit="10" d="M31.367,33.189
		L31.367,33.189l-2.448-4.227c3.568-3.016,5.837-7.51,5.837-12.539C34.756,7.361,27.396,0,18.334,0
		C9.271,0,1.911,7.361,1.911,16.423c0,5.029,2.269,9.539,5.837,12.555L5.3,33.203c-0.075,0.135-0.119,0.27-0.134,0.418l-0.209,2.762
		c-0.016,0.105,0.045,0.195,0.134,0.254l0,0l0,0c0.09,0.061,0.194,0.045,0.284-0.014l2.299-1.553
		c0.119-0.09,0.225-0.195,0.299-0.314l0,0l2.314-4c2.373,1.344,5.12,2.104,8.047,2.104c2.926,0,5.673-0.775,8.062-2.119l2.314,4.002
		c0.074,0.133,0.179,0.238,0.298,0.313l2.3,1.568c0.089,0.059,0.194,0.059,0.283,0.014l0,0l0,0c0.09-0.059,0.135-0.148,0.135-0.254
		l-0.209-2.762C31.486,33.472,31.457,33.322,31.367,33.189z"/>
	<text transform="matrix(1 0 0 1 38.334 17.8384)" fill="#EAEAEA" font-family="'MyriadPro-Semibold'" font-size="16.5954">Android</text>
	<text transform="matrix(1 0 0 1 38.333 31.8032)" fill="#EAEAEA" font-family="'SegoeUI-Semilight'" font-size="14.2246">Studio</text>
</g>
<g id="Layer_3" display="none">
	<g display="inline">
		<path fill="#FFA000" d="M2.142,29.522l0.167-0.325L12.625,9.623L8.041,0.957C7.66,0.24,6.693,0.423,6.568,1.224L2.142,29.522z"/>
	</g>
	<g display="inline">
		<path fill="#FFA000" d="M15.968,15.841l3.327-3.406L15.968,6.1c-0.315-0.601-1.083-0.664-1.396-0.062l-1.838,3.543l-0.056,0.18
			L15.968,15.841z"/>
	</g>
	<path display="inline" fill="#F6820C" d="M2.012,29.757l0.101-0.101l0.362-0.147l13.34-13.291l0.169-0.459l-3.328-6.342
		L2.012,29.757z"/>
	<path display="inline" fill="#FCCA3F" d="M28.422,29.67L25,8.599c-0.107-0.66-0.784-0.933-1.257-0.459L2.146,29.715l11.872,6.637
		c0.753,0.42,1.67,0.42,2.423,0L28.422,29.67L28.422,29.67z"/>
	
		<text transform="matrix(1 0 0 1 30.1655 26.2329)" display="inline" fill="#EAEAEA" font-family="'MyriadPro-Regular'" font-size="23.0278">Firebase</text>
</g>
</svg>
