<?xml version="1.0" encoding="utf-8"?>
<!-- Generator: Adobe Illustrator 15.1.0, SVG Export Plug-In . SVG Version: 6.00 Build 0)  -->
<!DOCTYPE svg PUBLIC "-//W3C//DTD SVG 1.1//EN" "http://www.w3.org/Graphics/SVG/1.1/DTD/svg11.dtd">
<svg version="1.1" id="Layer_1" xmlns="http://www.w3.org/2000/svg" xmlns:xlink="http://www.w3.org/1999/xlink" x="0px" y="0px"
	 width="36.625px" height="36.667px" viewBox="0 0 36.625 36.667" enable-background="new 0 0 36.625 36.667" xml:space="preserve">
<g id="Layer_6">
	<g>
		<g>
			<defs>
				<path id="SVGID_1_" d="M31.367,33.189L31.367,33.189l-2.448-4.227c3.567-3.017,5.837-7.51,5.837-12.541
					C34.756,7.36,27.396,0,18.334,0C9.271,0,1.911,7.36,1.911,16.423c0,5.03,2.269,9.54,5.837,12.555L5.3,33.203
					c-0.075,0.135-0.119,0.271-0.134,0.418l-0.209,2.762c-0.015,0.105,0.045,0.195,0.134,0.255l0,0l0,0
					c0.09,0.062,0.194,0.045,0.284-0.015l2.299-1.553c0.119-0.09,0.224-0.195,0.298-0.314l0,0l2.314-4
					c2.374,1.345,5.121,2.104,8.047,2.104s5.673-0.774,8.062-2.118l2.314,4.002c0.074,0.133,0.18,0.237,0.298,0.313l2.3,1.568
					c0.09,0.059,0.194,0.059,0.283,0.014l0,0l0,0c0.09-0.059,0.135-0.148,0.135-0.254l-0.209-2.762
					C31.486,33.472,31.457,33.322,31.367,33.189z"/>
			</defs>
			<clipPath id="SVGID_2_">
				<use xlink:href="#SVGID_1_"  overflow="visible"/>
			</clipPath>
			<path clip-path="url(#SVGID_2_)" fill="#7CB342" d="M18.334,0C9.271,0,1.911,7.36,1.911,16.423h16.423h16.422
				C34.771,7.346,27.411,0,18.334,0z"/>
		</g>
	</g>
	<g>
		<g>
			<defs>
				<path id="SVGID_3_" d="M31.367,33.189L31.367,33.189l-2.448-4.227c3.567-3.017,5.837-7.51,5.837-12.541
					C34.756,7.36,27.396,0,18.334,0C9.271,0,1.911,7.36,1.911,16.423c0,5.03,2.269,9.54,5.837,12.555L5.3,33.203
					c-0.075,0.135-0.119,0.271-0.134,0.418l-0.209,2.762c-0.015,0.105,0.045,0.195,0.134,0.255l0,0l0,0
					c0.09,0.062,0.194,0.045,0.284-0.015l2.299-1.553c0.119-0.09,0.224-0.195,0.298-0.314l0,0l2.314-4
					c2.374,1.345,5.121,2.104,8.047,2.104s5.673-0.774,8.062-2.118l2.314,4.002c0.074,0.133,0.18,0.237,0.298,0.313l2.3,1.568
					c0.09,0.059,0.194,0.059,0.283,0.014l0,0l0,0c0.09-0.059,0.135-0.148,0.135-0.254l-0.209-2.762
					C31.486,33.472,31.457,33.322,31.367,33.189z"/>
			</defs>
			<clipPath id="SVGID_4_">
				<use xlink:href="#SVGID_3_"  overflow="visible"/>
			</clipPath>
			<path clip-path="url(#SVGID_4_)" fill="#8BC34A" d="M18.334,16.423H1.911c0,9.061,7.36,16.422,16.423,16.422
				c9.063,0,16.422-7.361,16.422-16.422H18.334z"/>
		</g>
	</g>
	<g>
		<g>
			<defs>
				<path id="SVGID_5_" d="M31.367,33.189L31.367,33.189l-2.448-4.227c3.567-3.017,5.837-7.51,5.837-12.541
					C34.756,7.36,27.396,0,18.334,0C9.271,0,1.911,7.36,1.911,16.423c0,5.03,2.269,9.54,5.837,12.555L5.3,33.203
					c-0.075,0.135-0.119,0.271-0.134,0.418l-0.209,2.762c-0.015,0.105,0.045,0.195,0.134,0.255l0,0l0,0
					c0.09,0.062,0.194,0.045,0.284-0.015l2.299-1.553c0.119-0.09,0.224-0.195,0.298-0.314l0,0l2.314-4
					c2.374,1.345,5.121,2.104,8.047,2.104s5.673-0.774,8.062-2.118l2.314,4.002c0.074,0.133,0.18,0.237,0.298,0.313l2.3,1.568
					c0.09,0.059,0.194,0.059,0.283,0.014l0,0l0,0c0.09-0.059,0.135-0.148,0.135-0.254l-0.209-2.762
					C31.486,33.472,31.457,33.322,31.367,33.189z"/>
			</defs>
			<clipPath id="SVGID_6_">
				<use xlink:href="#SVGID_5_"  overflow="visible"/>
			</clipPath>
			<path opacity="0.2" clip-path="url(#SVGID_6_)" fill="#FFFFFF" enable-background="new    " d="M18.334,0.179
				c9.032,0,16.377,7.3,16.422,16.333c0-0.029,0-0.06,0-0.089C34.756,7.36,27.396,0,18.334,0C9.271-0.015,1.911,7.346,1.911,16.423
				c0,0.029,0,0.06,0,0.089C1.971,7.495,9.301,0.179,18.334,0.179z"/>
		</g>
	</g>
	<g>
		<g>
			<defs>
				<path id="SVGID_7_" d="M31.367,33.189L31.367,33.189l-2.448-4.227c3.567-3.017,5.837-7.51,5.837-12.541
					C34.756,7.36,27.396,0,18.334,0C9.271,0,1.911,7.36,1.911,16.423c0,5.03,2.269,9.54,5.837,12.555L5.3,33.203
					c-0.075,0.135-0.119,0.271-0.134,0.418l-0.209,2.762c-0.015,0.105,0.045,0.195,0.134,0.255l0,0l0,0
					c0.09,0.062,0.194,0.045,0.284-0.015l2.299-1.553c0.119-0.09,0.224-0.195,0.298-0.314l0,0l2.314-4
					c2.374,1.345,5.121,2.104,8.047,2.104s5.673-0.774,8.062-2.118l2.314,4.002c0.074,0.133,0.18,0.237,0.298,0.313l2.3,1.568
					c0.09,0.059,0.194,0.059,0.283,0.014l0,0l0,0c0.09-0.059,0.135-0.148,0.135-0.254l-0.209-2.762
					C31.486,33.472,31.457,33.322,31.367,33.189z"/>
			</defs>
			<clipPath id="SVGID_8_">
				<use xlink:href="#SVGID_7_"  overflow="visible"/>
			</clipPath>
			<path opacity="0.2" clip-path="url(#SVGID_8_)" fill="#263238" enable-background="new    " d="M18.334,32.65
				c-9.033,0-16.378-7.299-16.423-16.332c0,0.029,0,0.06,0,0.089c0,9.063,7.36,16.422,16.423,16.422
				c9.063,0,16.422-7.359,16.422-16.422c0-0.029,0-0.06,0-0.089C34.711,25.351,27.381,32.65,18.334,32.65z"/>
		</g>
	</g>
	<g>
		<g>
			<defs>
				<path id="SVGID_9_" d="M31.367,33.189L31.367,33.189l-2.448-4.227c3.567-3.017,5.837-7.51,5.837-12.541
					C34.756,7.36,27.396,0,18.334,0C9.271,0,1.911,7.36,1.911,16.423c0,5.03,2.269,9.54,5.837,12.555L5.3,33.203
					c-0.075,0.135-0.119,0.271-0.134,0.418l-0.209,2.762c-0.015,0.105,0.045,0.195,0.134,0.255l0,0l0,0
					c0.09,0.062,0.194,0.045,0.284-0.015l2.299-1.553c0.119-0.09,0.224-0.195,0.298-0.314l0,0l2.314-4
					c2.374,1.345,5.121,2.104,8.047,2.104s5.673-0.774,8.062-2.118l2.314,4.002c0.074,0.133,0.18,0.237,0.298,0.313l2.3,1.568
					c0.09,0.059,0.194,0.059,0.283,0.014l0,0l0,0c0.09-0.059,0.135-0.148,0.135-0.254l-0.209-2.762
					C31.486,33.472,31.457,33.322,31.367,33.189z"/>
			</defs>
			<clipPath id="SVGID_10_">
				<use xlink:href="#SVGID_9_"  overflow="visible"/>
			</clipPath>
			<rect y="16.229" clip-path="url(#SVGID_10_)" fill="#263238" fill-opacity="0.05" width="36.667" height="0.194"/>
		</g>
		<g>
			<defs>
				<path id="SVGID_11_" d="M31.367,33.189L31.367,33.189l-2.448-4.227c3.567-3.017,5.837-7.51,5.837-12.541
					C34.756,7.36,27.396,0,18.334,0C9.271,0,1.911,7.36,1.911,16.423c0,5.03,2.269,9.54,5.837,12.555L5.3,33.203
					c-0.075,0.135-0.119,0.271-0.134,0.418l-0.209,2.762c-0.015,0.105,0.045,0.195,0.134,0.255l0,0l0,0
					c0.09,0.062,0.194,0.045,0.284-0.015l2.299-1.553c0.119-0.09,0.224-0.195,0.298-0.314l0,0l2.314-4
					c2.374,1.345,5.121,2.104,8.047,2.104s5.673-0.774,8.062-2.118l2.314,4.002c0.074,0.133,0.18,0.237,0.298,0.313l2.3,1.568
					c0.09,0.059,0.194,0.059,0.283,0.014l0,0l0,0c0.09-0.059,0.135-0.148,0.135-0.254l-0.209-2.762
					C31.486,33.472,31.457,33.322,31.367,33.189z"/>
			</defs>
			<clipPath id="SVGID_12_">
				<use xlink:href="#SVGID_11_"  overflow="visible"/>
			</clipPath>
			<rect y="16.423" clip-path="url(#SVGID_12_)" fill="#FFFFFF" fill-opacity="0.05" width="36.667" height="0.194"/>
		</g>
	</g>
	<g>
		<g>
			<defs>
				<path id="SVGID_13_" d="M31.367,33.189L31.367,33.189l-2.448-4.227c3.567-3.017,5.837-7.51,5.837-12.541
					C34.756,7.36,27.396,0,18.334,0C9.271,0,1.911,7.36,1.911,16.423c0,5.03,2.269,9.54,5.837,12.555L5.3,33.203
					c-0.075,0.135-0.119,0.271-0.134,0.418l-0.209,2.762c-0.015,0.105,0.045,0.195,0.134,0.255l0,0l0,0
					c0.09,0.062,0.194,0.045,0.284-0.015l2.299-1.553c0.119-0.09,0.224-0.195,0.298-0.314l0,0l2.314-4
					c2.374,1.345,5.121,2.104,8.047,2.104s5.673-0.774,8.062-2.118l2.314,4.002c0.074,0.133,0.18,0.237,0.298,0.313l2.3,1.568
					c0.09,0.059,0.194,0.059,0.283,0.014l0,0l0,0c0.09-0.059,0.135-0.148,0.135-0.254l-0.209-2.762
					C31.486,33.472,31.457,33.322,31.367,33.189z"/>
			</defs>
			<clipPath id="SVGID_14_">
				<use xlink:href="#SVGID_13_"  overflow="visible"/>
			</clipPath>
			
				<linearGradient id="SVGID_15_" gradientUnits="userSpaceOnUse" x1="1410.3906" y1="-3780.1943" x2="1501.8068" y2="-3871.6106" gradientTransform="matrix(0.1999 0 0 -0.1999 -272.1515 -742.128)">
				<stop  offset="0.33" style="stop-color:#263238;stop-opacity:0.16"/>
				<stop  offset="1" style="stop-color:#263238;stop-opacity:0"/>
			</linearGradient>
			<path clip-path="url(#SVGID_14_)" fill="url(#SVGID_15_)" d="M30.173,16.452c0-0.015,0-0.029,0-0.029h-0.762l-9.167-9.167l0,0
				l0,0h-1.91h-1.896v0.015v3.061h-0.971c-0.94,0-1.717,0.776-1.717,1.717v3.896h0.015c-0.015,0.135,0.075,0.299,0.254,0.493
				c0.015,0.015,0.015,0.015,0.015,0.03l0.597,0.597L7.749,28.994c0.791,0.672,1.642,1.254,2.538,1.762
				c2.389,1.345,5.121,2.119,8.062,2.119c2.926,0,5.672-0.774,8.062-2.119c0.896-0.508,1.747-1.104,2.538-1.762
				c2.419-2.047,4.225-4.764,5.15-7.883c0.061-0.195,0.104-0.389,0.164-0.568L30.173,16.452z"/>
		</g>
		<g>
			<defs>
				<path id="SVGID_16_" d="M31.367,33.189L31.367,33.189l-2.448-4.227c3.567-3.017,5.837-7.51,5.837-12.541
					C34.756,7.36,27.396,0,18.334,0C9.271,0,1.911,7.36,1.911,16.423c0,5.03,2.269,9.54,5.837,12.555L5.3,33.203
					c-0.075,0.135-0.119,0.271-0.134,0.418l-0.209,2.762c-0.015,0.105,0.045,0.195,0.134,0.255l0,0l0,0
					c0.09,0.062,0.194,0.045,0.284-0.015l2.299-1.553c0.119-0.09,0.224-0.195,0.298-0.314l0,0l2.314-4
					c2.374,1.345,5.121,2.104,8.047,2.104s5.673-0.774,8.062-2.118l2.314,4.002c0.074,0.133,0.18,0.237,0.298,0.313l2.3,1.568
					c0.09,0.059,0.194,0.059,0.283,0.014l0,0l0,0c0.09-0.059,0.135-0.148,0.135-0.254l-0.209-2.762
					C31.486,33.472,31.457,33.322,31.367,33.189z"/>
			</defs>
			<clipPath id="SVGID_17_">
				<use xlink:href="#SVGID_16_"  overflow="visible"/>
			</clipPath>
			
				<linearGradient id="SVGID_18_" gradientUnits="userSpaceOnUse" x1="1389.4346" y1="-3836.3062" x2="1463.9633" y2="-3809.8708" gradientTransform="matrix(0.1999 0 0 -0.1999 -272.1515 -742.128)">
				<stop  offset="0.33" style="stop-color:#263238;stop-opacity:0.16"/>
				<stop  offset="1" style="stop-color:#263238;stop-opacity:0"/>
			</linearGradient>
			<path clip-path="url(#SVGID_17_)" fill="url(#SVGID_18_)" d="M30.173,16.452c0-0.015,0-0.029,0-0.029h-0.762l-9.167-9.167l0,0
				l0,0h-1.91h-1.896v0.015v3.061h-0.971c-0.94,0-1.717,0.776-1.717,1.717v3.896h0.015c-0.015,0.135,0.075,0.299,0.254,0.493
				c0.015,0.015,0.015,0.015,0.015,0.03l0.597,0.597L7.749,28.994c0.791,0.672,1.642,1.254,2.538,1.762
				c2.389,1.345,5.121,2.119,8.062,2.119c2.926,0,5.672-0.774,8.062-2.119c0.896-0.508,1.747-1.104,2.538-1.762
				c2.419-2.047,4.225-4.764,5.15-7.883c0.061-0.195,0.104-0.389,0.164-0.568L30.173,16.452z"/>
		</g>
	</g>
	<g>
		<g>
			<defs>
				<path id="SVGID_19_" d="M31.367,33.189L31.367,33.189l-2.448-4.227c3.567-3.017,5.837-7.51,5.837-12.541
					C34.756,7.36,27.396,0,18.334,0C9.271,0,1.911,7.36,1.911,16.423c0,5.03,2.269,9.54,5.837,12.555L5.3,33.203
					c-0.075,0.135-0.119,0.271-0.134,0.418l-0.209,2.762c-0.015,0.105,0.045,0.195,0.134,0.255l0,0l0,0
					c0.09,0.062,0.194,0.045,0.284-0.015l2.299-1.553c0.119-0.09,0.224-0.195,0.298-0.314l0,0l2.314-4
					c2.374,1.345,5.121,2.104,8.047,2.104s5.673-0.774,8.062-2.118l2.314,4.002c0.074,0.133,0.18,0.237,0.298,0.313l2.3,1.568
					c0.09,0.059,0.194,0.059,0.283,0.014l0,0l0,0c0.09-0.059,0.135-0.148,0.135-0.254l-0.209-2.762
					C31.486,33.472,31.457,33.322,31.367,33.189z"/>
			</defs>
			<clipPath id="SVGID_20_">
				<use xlink:href="#SVGID_19_"  overflow="visible"/>
			</clipPath>
			
				<g transform="matrix(1 0 0 1 -6.141988e-008 1.367077e-007)" opacity="0.2" clip-path="url(#SVGID_20_)" enable-background="new    ">
			</g>
		</g>
		<g>
			<defs>
				<path id="SVGID_21_" d="M31.367,33.189L31.367,33.189l-2.448-4.227c3.567-3.017,5.837-7.51,5.837-12.541
					C34.756,7.36,27.396,0,18.334,0C9.271,0,1.911,7.36,1.911,16.423c0,5.03,2.269,9.54,5.837,12.555L5.3,33.203
					c-0.075,0.135-0.119,0.271-0.134,0.418l-0.209,2.762c-0.015,0.105,0.045,0.195,0.134,0.255l0,0l0,0
					c0.09,0.062,0.194,0.045,0.284-0.015l2.299-1.553c0.119-0.09,0.224-0.195,0.298-0.314l0,0l2.314-4
					c2.374,1.345,5.121,2.104,8.047,2.104s5.673-0.774,8.062-2.118l2.314,4.002c0.074,0.133,0.18,0.237,0.298,0.313l2.3,1.568
					c0.09,0.059,0.194,0.059,0.283,0.014l0,0l0,0c0.09-0.059,0.135-0.148,0.135-0.254l-0.209-2.762
					C31.486,33.472,31.457,33.322,31.367,33.189z"/>
			</defs>
			<clipPath id="SVGID_22_">
				<use xlink:href="#SVGID_21_"  overflow="visible"/>
			</clipPath>
			<path clip-path="url(#SVGID_22_)" fill="#646464" d="M31.502,33.621c-0.016-0.147-0.061-0.283-0.135-0.418l0,0l-4.777-8.285
				c2.209-2.149,3.598-5.166,3.598-8.495h-3.061c0,2.179-0.807,4.18-2.135,5.733l-2.956-5.106l0.597-0.598
				c0.194-0.193,0.27-0.373,0.27-0.508h0.016v-3.896c0-0.94-0.775-1.717-1.717-1.717h-0.956v-3.06V7.256h-1.91h-1.896v0.015v3.061
				h-0.971c-0.94,0-1.717,0.776-1.717,1.717v3.896h0.015c-0.015,0.149,0.075,0.314,0.269,0.508l0.597,0.598L5.3,33.189
				c-0.075,0.133-0.119,0.268-0.134,0.418l-0.209,2.775c-0.015,0.104,0.045,0.195,0.134,0.254l0,0l0,0
				c0.09,0.061,0.194,0.045,0.284-0.014l2.299-1.554c0.119-0.09,0.224-0.194,0.298-0.313l0,0l4.613-7.986
				c1.702,0.955,3.673,1.508,5.763,1.508c2.089,0,4.061-0.553,5.763-1.508l4.613,7.973c0.073,0.133,0.178,0.238,0.299,0.313
				l2.299,1.567c0.089,0.06,0.193,0.06,0.283,0.015l0,0l0,0c0.09-0.06,0.135-0.147,0.135-0.255L31.502,33.621z M18.334,11.839V11.81
				l0.015,0.029c1.254,0.016,2.284,1.03,2.284,2.299c0,1.27-1.029,2.285-2.284,2.3h-0.015l0,0c-1.254,0-2.285-1.03-2.285-2.3
				C16.049,12.854,17.064,11.839,18.334,11.839z M18.334,25.201c-1.538,0-2.986-0.402-4.226-1.09l2.777-4.807l0.582,0.582
				c0.239,0.238,0.552,0.357,0.851,0.357V20.23l0.016,0.014c0.313,0,0.627-0.119,0.852-0.356l0.582-0.582l2.776,4.821
				C21.318,24.812,19.871,25.201,18.334,25.201z"/>
		</g>
	</g>
	<g>
		<g>
			<defs>
				<path id="SVGID_23_" d="M31.367,33.189L31.367,33.189l-2.448-4.227c3.567-3.017,5.837-7.51,5.837-12.541
					C34.756,7.36,27.396,0,18.334,0C9.271,0,1.911,7.36,1.911,16.423c0,5.03,2.269,9.54,5.837,12.555L5.3,33.203
					c-0.075,0.135-0.119,0.271-0.134,0.418l-0.209,2.762c-0.015,0.105,0.045,0.195,0.134,0.255l0,0l0,0
					c0.09,0.062,0.194,0.045,0.284-0.015l2.299-1.553c0.119-0.09,0.224-0.195,0.298-0.314l0,0l2.314-4
					c2.374,1.345,5.121,2.104,8.047,2.104s5.673-0.774,8.062-2.118l2.314,4.002c0.074,0.133,0.18,0.237,0.298,0.313l2.3,1.568
					c0.09,0.059,0.194,0.059,0.283,0.014l0,0l0,0c0.09-0.059,0.135-0.148,0.135-0.254l-0.209-2.762
					C31.486,33.472,31.457,33.322,31.367,33.189z"/>
			</defs>
			<clipPath id="SVGID_24_">
				<use xlink:href="#SVGID_23_"  overflow="visible"/>
			</clipPath>
			<path clip-path="url(#SVGID_24_)" fill="#E1E1E1" d="M31.502,33.621c-0.016-0.147-0.061-0.283-0.135-0.418l0,0l-4.777-8.285
				l-1.583-2.762l-2.956-5.106l-2.254,2.254l2.776,4.822l1.522,2.643l4.613,7.973c0.074,0.133,0.18,0.238,0.298,0.313l2.3,1.567
				c0.09,0.06,0.194,0.06,0.283,0.015l0,0l0,0c0.09-0.06,0.135-0.147,0.135-0.255L31.502,33.621z"/>
		</g>
		<g>
			<defs>
				<path id="SVGID_25_" d="M31.367,33.189L31.367,33.189l-2.448-4.227c3.567-3.017,5.837-7.51,5.837-12.541
					C34.756,7.36,27.396,0,18.334,0C9.271,0,1.911,7.36,1.911,16.423c0,5.03,2.269,9.54,5.837,12.555L5.3,33.203
					c-0.075,0.135-0.119,0.271-0.134,0.418l-0.209,2.762c-0.015,0.105,0.045,0.195,0.134,0.255l0,0l0,0
					c0.09,0.062,0.194,0.045,0.284-0.015l2.299-1.553c0.119-0.09,0.224-0.195,0.298-0.314l0,0l2.314-4
					c2.374,1.345,5.121,2.104,8.047,2.104s5.673-0.774,8.062-2.118l2.314,4.002c0.074,0.133,0.18,0.237,0.298,0.313l2.3,1.568
					c0.09,0.059,0.194,0.059,0.283,0.014l0,0l0,0c0.09-0.059,0.135-0.148,0.135-0.254l-0.209-2.762
					C31.486,33.472,31.457,33.322,31.367,33.189z"/>
			</defs>
			<clipPath id="SVGID_26_">
				<use xlink:href="#SVGID_25_"  overflow="visible"/>
			</clipPath>
			<path clip-path="url(#SVGID_26_)" fill="#FFFFFF" fill-opacity="0.4" d="M24.992,22.335l1.582,2.762l4.793,8.285l0,0
				c0.074,0.135,0.119,0.27,0.135,0.418l0.193,2.627c0-0.014,0.015-0.029,0.015-0.059l-0.208-2.763
				c-0.016-0.149-0.061-0.285-0.135-0.418l0,0l-4.777-8.287l-1.583-2.762l-2.956-5.106l-0.089,0.104L24.992,22.335z"/>
		</g>
		<g>
			<defs>
				<path id="SVGID_27_" d="M31.367,33.189L31.367,33.189l-2.448-4.227c3.567-3.017,5.837-7.51,5.837-12.541
					C34.756,7.36,27.396,0,18.334,0C9.271,0,1.911,7.36,1.911,16.423c0,5.03,2.269,9.54,5.837,12.555L5.3,33.203
					c-0.075,0.135-0.119,0.271-0.134,0.418l-0.209,2.762c-0.015,0.105,0.045,0.195,0.134,0.255l0,0l0,0
					c0.09,0.062,0.194,0.045,0.284-0.015l2.299-1.553c0.119-0.09,0.224-0.195,0.298-0.314l0,0l2.314-4
					c2.374,1.345,5.121,2.104,8.047,2.104s5.673-0.774,8.062-2.118l2.314,4.002c0.074,0.133,0.18,0.237,0.298,0.313l2.3,1.568
					c0.09,0.059,0.194,0.059,0.283,0.014l0,0l0,0c0.09-0.059,0.135-0.148,0.135-0.254l-0.209-2.762
					C31.486,33.472,31.457,33.322,31.367,33.189z"/>
			</defs>
			<clipPath id="SVGID_28_">
				<use xlink:href="#SVGID_27_"  overflow="visible"/>
			</clipPath>
			<path clip-path="url(#SVGID_28_)" fill="#262626" fill-opacity="0.2" d="M31.576,36.427L31.576,36.427L31.576,36.427
				c-0.09,0.061-0.194,0.045-0.284-0.014l-2.299-1.568c-0.119-0.09-0.224-0.193-0.3-0.313l-4.612-7.974l-1.522-2.644l-2.688-4.688
				l-0.074,0.074l2.776,4.822l1.522,2.643l4.613,7.973c0.074,0.133,0.18,0.238,0.298,0.313l2.3,1.567
				c0.09,0.06,0.194,0.06,0.283,0.014l0,0l0,0c0.09-0.059,0.135-0.147,0.135-0.254L31.71,36.25
				C31.682,36.324,31.65,36.398,31.576,36.427z"/>
		</g>
		<g>
			<defs>
				<path id="SVGID_29_" d="M31.367,33.189L31.367,33.189l-2.448-4.227c3.567-3.017,5.837-7.51,5.837-12.541
					C34.756,7.36,27.396,0,18.334,0C9.271,0,1.911,7.36,1.911,16.423c0,5.03,2.269,9.54,5.837,12.555L5.3,33.203
					c-0.075,0.135-0.119,0.271-0.134,0.418l-0.209,2.762c-0.015,0.105,0.045,0.195,0.134,0.255l0,0l0,0
					c0.09,0.062,0.194,0.045,0.284-0.015l2.299-1.553c0.119-0.09,0.224-0.195,0.298-0.314l0,0l2.314-4
					c2.374,1.345,5.121,2.104,8.047,2.104s5.673-0.774,8.062-2.118l2.314,4.002c0.074,0.133,0.18,0.237,0.298,0.313l2.3,1.568
					c0.09,0.059,0.194,0.059,0.283,0.014l0,0l0,0c0.09-0.059,0.135-0.148,0.135-0.254l-0.209-2.762
					C31.486,33.472,31.457,33.322,31.367,33.189z"/>
			</defs>
			<clipPath id="SVGID_30_">
				<use xlink:href="#SVGID_29_"  overflow="visible"/>
			</clipPath>
			<path clip-path="url(#SVGID_30_)" fill="#F1F1F1" d="M27.127,16.423c0,2.179-0.807,4.18-2.135,5.733
				c-0.688,0.791-1.493,1.463-2.419,1.971c-1.255,0.701-2.702,1.09-4.239,1.09c-1.538,0-2.986-0.403-4.226-1.09l2.777-4.821
				l-2.254-2.254L5.3,33.203c-0.075,0.135-0.119,0.271-0.134,0.418l-0.209,2.777c-0.015,0.105,0.045,0.195,0.134,0.254l0,0l0,0
				c0.09,0.061,0.194,0.045,0.284-0.016l2.299-1.553c0.119-0.088,0.224-0.193,0.298-0.313l0,0l4.613-7.987
				c1.702,0.957,3.673,1.51,5.763,1.51c2.089,0,4.061-0.553,5.763-1.51c0.91-0.509,1.746-1.136,2.479-1.851
				c2.209-2.149,3.598-5.166,3.598-8.496L27.127,16.423L27.127,16.423z"/>
		</g>
		<g>
			<defs>
				<path id="SVGID_31_" d="M31.367,33.189L31.367,33.189l-2.448-4.227c3.567-3.017,5.837-7.51,5.837-12.541
					C34.756,7.36,27.396,0,18.334,0C9.271,0,1.911,7.36,1.911,16.423c0,5.03,2.269,9.54,5.837,12.555L5.3,33.203
					c-0.075,0.135-0.119,0.271-0.134,0.418l-0.209,2.762c-0.015,0.105,0.045,0.195,0.134,0.255l0,0l0,0
					c0.09,0.062,0.194,0.045,0.284-0.015l2.299-1.553c0.119-0.09,0.224-0.195,0.298-0.314l0,0l2.314-4
					c2.374,1.345,5.121,2.104,8.047,2.104s5.673-0.774,8.062-2.118l2.314,4.002c0.074,0.133,0.18,0.237,0.298,0.313l2.3,1.568
					c0.09,0.059,0.194,0.059,0.283,0.014l0,0l0,0c0.09-0.059,0.135-0.148,0.135-0.254l-0.209-2.762
					C31.486,33.472,31.457,33.322,31.367,33.189z"/>
			</defs>
			<clipPath id="SVGID_32_">
				<use xlink:href="#SVGID_31_"  overflow="visible"/>
			</clipPath>
			<path clip-path="url(#SVGID_32_)" fill="none" d="M19.199,19.886c-0.238,0.238-0.552,0.357-0.851,0.357l-0.015-0.015v0.015
				c-0.314,0-0.627-0.119-0.852-0.357L16.9,19.304l-2.777,4.807c1.254,0.701,2.702,1.09,4.225,1.09c1.522,0,2.985-0.402,4.24-1.09
				l-2.777-4.822L19.199,19.886z"/>
		</g>
		<g>
			<defs>
				<path id="SVGID_33_" d="M31.367,33.189L31.367,33.189l-2.448-4.227c3.567-3.017,5.837-7.51,5.837-12.541
					C34.756,7.36,27.396,0,18.334,0C9.271,0,1.911,7.36,1.911,16.423c0,5.03,2.269,9.54,5.837,12.555L5.3,33.203
					c-0.075,0.135-0.119,0.271-0.134,0.418l-0.209,2.762c-0.015,0.105,0.045,0.195,0.134,0.255l0,0l0,0
					c0.09,0.062,0.194,0.045,0.284-0.015l2.299-1.553c0.119-0.09,0.224-0.195,0.298-0.314l0,0l2.314-4
					c2.374,1.345,5.121,2.104,8.047,2.104s5.673-0.774,8.062-2.118l2.314,4.002c0.074,0.133,0.18,0.237,0.298,0.313l2.3,1.568
					c0.09,0.059,0.194,0.059,0.283,0.014l0,0l0,0c0.09-0.059,0.135-0.148,0.135-0.254l-0.209-2.762
					C31.486,33.472,31.457,33.322,31.367,33.189z"/>
			</defs>
			<clipPath id="SVGID_34_">
				<use xlink:href="#SVGID_33_"  overflow="visible"/>
			</clipPath>
			<path clip-path="url(#SVGID_34_)" fill="#FFFFFF" fill-opacity="0.4" d="M5.3,33.382l9.436-16.258l-0.104-0.09L5.3,33.189
				c-0.075,0.133-0.119,0.268-0.134,0.418l-0.209,2.775c0,0.016,0.015,0.031,0.015,0.061l0.194-2.627
				C5.195,33.666,5.225,33.517,5.3,33.382z"/>
		</g>
		<g>
			<defs>
				<path id="SVGID_35_" d="M31.367,33.189L31.367,33.189l-2.448-4.227c3.567-3.017,5.837-7.51,5.837-12.541
					C34.756,7.36,27.396,0,18.334,0C9.271,0,1.911,7.36,1.911,16.423c0,5.03,2.269,9.54,5.837,12.555L5.3,33.203
					c-0.075,0.135-0.119,0.271-0.134,0.418l-0.209,2.762c-0.015,0.105,0.045,0.195,0.134,0.255l0,0l0,0
					c0.09,0.062,0.194,0.045,0.284-0.015l2.299-1.553c0.119-0.09,0.224-0.195,0.298-0.314l0,0l2.314-4
					c2.374,1.345,5.121,2.104,8.047,2.104s5.673-0.774,8.062-2.118l2.314,4.002c0.074,0.133,0.18,0.237,0.298,0.313l2.3,1.568
					c0.09,0.059,0.194,0.059,0.283,0.014l0,0l0,0c0.09-0.059,0.135-0.148,0.135-0.254l-0.209-2.762
					C31.486,33.472,31.457,33.322,31.367,33.189z"/>
			</defs>
			<clipPath id="SVGID_36_">
				<use xlink:href="#SVGID_35_"  overflow="visible"/>
			</clipPath>
			<path clip-path="url(#SVGID_36_)" fill="#FFFFFF" fill-opacity="0.4" d="M18.334,25.396c1.537,0,2.984-0.404,4.239-1.09
				c0.911-0.508,1.731-1.18,2.419-1.971c1.328-1.539,2.135-3.541,2.135-5.734h3.046c0-0.06,0.015-0.134,0.015-0.194h-3.061
				c0,2.18-0.807,4.18-2.135,5.733c-0.688,0.791-1.493,1.463-2.419,1.971c-1.255,0.701-2.702,1.09-4.239,1.09
				c-1.508,0-2.912-0.389-4.151-1.061l-0.09,0.15C15.363,24.992,16.811,25.396,18.334,25.396z"/>
		</g>
		<g>
			<defs>
				<path id="SVGID_37_" d="M31.367,33.189L31.367,33.189l-2.448-4.227c3.567-3.017,5.837-7.51,5.837-12.541
					C34.756,7.36,27.396,0,18.334,0C9.271,0,1.911,7.36,1.911,16.423c0,5.03,2.269,9.54,5.837,12.555L5.3,33.203
					c-0.075,0.135-0.119,0.271-0.134,0.418l-0.209,2.762c-0.015,0.105,0.045,0.195,0.134,0.255l0,0l0,0
					c0.09,0.062,0.194,0.045,0.284-0.015l2.299-1.553c0.119-0.09,0.224-0.195,0.298-0.314l0,0l2.314-4
					c2.374,1.345,5.121,2.104,8.047,2.104s5.673-0.774,8.062-2.118l2.314,4.002c0.074,0.133,0.18,0.237,0.298,0.313l2.3,1.568
					c0.09,0.059,0.194,0.059,0.283,0.014l0,0l0,0c0.09-0.059,0.135-0.148,0.135-0.254l-0.209-2.762
					C31.486,33.472,31.457,33.322,31.367,33.189z"/>
			</defs>
			<clipPath id="SVGID_38_">
				<use xlink:href="#SVGID_37_"  overflow="visible"/>
			</clipPath>
			<path clip-path="url(#SVGID_38_)" fill="#262626" fill-opacity="0.2" d="M14.108,24.097l2.777-4.793L16.81,19.23l-2.792,4.822
				C14.049,24.066,14.079,24.082,14.108,24.097z"/>
		</g>
		<g>
			<defs>
				<path id="SVGID_39_" d="M31.367,33.189L31.367,33.189l-2.448-4.227c3.567-3.017,5.837-7.51,5.837-12.541
					C34.756,7.36,27.396,0,18.334,0C9.271,0,1.911,7.36,1.911,16.423c0,5.03,2.269,9.54,5.837,12.555L5.3,33.203
					c-0.075,0.135-0.119,0.271-0.134,0.418l-0.209,2.762c-0.015,0.105,0.045,0.195,0.134,0.255l0,0l0,0
					c0.09,0.062,0.194,0.045,0.284-0.015l2.299-1.553c0.119-0.09,0.224-0.195,0.298-0.314l0,0l2.314-4
					c2.374,1.345,5.121,2.104,8.047,2.104s5.673-0.774,8.062-2.118l2.314,4.002c0.074,0.133,0.18,0.237,0.298,0.313l2.3,1.568
					c0.09,0.059,0.194,0.059,0.283,0.014l0,0l0,0c0.09-0.059,0.135-0.148,0.135-0.254l-0.209-2.762
					C31.486,33.472,31.457,33.322,31.367,33.189z"/>
			</defs>
			<clipPath id="SVGID_40_">
				<use xlink:href="#SVGID_39_"  overflow="visible"/>
			</clipPath>
			<path clip-path="url(#SVGID_40_)" fill="#262626" fill-opacity="0.2" d="M26.59,24.708c-0.747,0.717-1.568,1.344-2.479,1.852
				c-1.702,0.955-3.674,1.508-5.763,1.508c-2.09,0-4.061-0.553-5.763-1.508l-4.613,7.986l0,0c-0.074,0.135-0.179,0.24-0.298,0.313
				l-2.299,1.554c-0.089,0.059-0.194,0.059-0.284,0.014l0,0l0,0c-0.074-0.045-0.104-0.119-0.119-0.193l-0.015,0.135
				c-0.015,0.104,0.045,0.193,0.134,0.254l0,0l0,0c0.09,0.045,0.194,0.045,0.284-0.016l2.299-1.553
				c0.119-0.09,0.224-0.193,0.298-0.313l0,0l4.613-7.988c1.702,0.955,3.673,1.508,5.763,1.508c2.089,0,4.061-0.553,5.763-1.508
				c0.91-0.508,1.746-1.135,2.479-1.853c2.209-2.149,3.598-5.166,3.598-8.495h-0.015C30.128,19.662,28.754,22.603,26.59,24.708z"/>
		</g>
		<g>
			<defs>
				<path id="SVGID_41_" d="M31.367,33.189L31.367,33.189l-2.448-4.227c3.567-3.017,5.837-7.51,5.837-12.541
					C34.756,7.36,27.396,0,18.334,0C9.271,0,1.911,7.36,1.911,16.423c0,5.03,2.269,9.54,5.837,12.555L5.3,33.203
					c-0.075,0.135-0.119,0.271-0.134,0.418l-0.209,2.762c-0.015,0.105,0.045,0.195,0.134,0.255l0,0l0,0
					c0.09,0.062,0.194,0.045,0.284-0.015l2.299-1.553c0.119-0.09,0.224-0.195,0.298-0.314l0,0l2.314-4
					c2.374,1.345,5.121,2.104,8.047,2.104s5.673-0.774,8.062-2.118l2.314,4.002c0.074,0.133,0.18,0.237,0.298,0.313l2.3,1.568
					c0.09,0.059,0.194,0.059,0.283,0.014l0,0l0,0c0.09-0.059,0.135-0.148,0.135-0.254l-0.209-2.762
					C31.486,33.472,31.457,33.322,31.367,33.189z"/>
			</defs>
			<clipPath id="SVGID_42_">
				<use xlink:href="#SVGID_41_"  overflow="visible"/>
			</clipPath>
			<path clip-path="url(#SVGID_42_)" fill="#646464" d="M21.2,10.316h-0.956v-3.06V7.24h-1.91h-1.896v0.016v3.061h-0.971
				c-0.94,0-1.717,0.776-1.717,1.717v3.896h0.015c-0.015,0.149,0.075,0.313,0.269,0.508l3.449,3.449
				c0.239,0.237,0.553,0.356,0.852,0.356V20.23l0.015,0.014c0.313,0,0.626-0.119,0.851-0.356l3.449-3.449
				c0.193-0.194,0.269-0.373,0.269-0.508h0.015v-3.882C22.917,11.093,22.154,10.316,21.2,10.316z M18.349,16.423h-0.015l0,0
				c-1.254,0-2.285-1.03-2.285-2.3c0-1.269,1.03-2.299,2.285-2.299v-0.029l0.015,0.029c1.254,0.015,2.284,1.03,2.284,2.299
				C20.633,15.393,19.604,16.407,18.349,16.423z"/>
		</g>
		<g>
			<defs>
				<path id="SVGID_43_" d="M31.367,33.189L31.367,33.189l-2.448-4.227c3.567-3.017,5.837-7.51,5.837-12.541
					C34.756,7.36,27.396,0,18.334,0C9.271,0,1.911,7.36,1.911,16.423c0,5.03,2.269,9.54,5.837,12.555L5.3,33.203
					c-0.075,0.135-0.119,0.271-0.134,0.418l-0.209,2.762c-0.015,0.105,0.045,0.195,0.134,0.255l0,0l0,0
					c0.09,0.062,0.194,0.045,0.284-0.015l2.299-1.553c0.119-0.09,0.224-0.195,0.298-0.314l0,0l2.314-4
					c2.374,1.345,5.121,2.104,8.047,2.104s5.673-0.774,8.062-2.118l2.314,4.002c0.074,0.133,0.18,0.237,0.298,0.313l2.3,1.568
					c0.09,0.059,0.194,0.059,0.283,0.014l0,0l0,0c0.09-0.059,0.135-0.148,0.135-0.254l-0.209-2.762
					C31.486,33.472,31.457,33.322,31.367,33.189z"/>
			</defs>
			<clipPath id="SVGID_44_">
				<use xlink:href="#SVGID_43_"  overflow="visible"/>
			</clipPath>
			<path opacity="0.2" clip-path="url(#SVGID_44_)" fill="#FFFFFF" enable-background="new    " d="M20.244,7.435V7.256V7.24h-1.91
				h-1.896v0.016v0.179h1.896H20.244z"/>
		</g>
		<g>
			<defs>
				<path id="SVGID_45_" d="M31.367,33.189L31.367,33.189l-2.448-4.227c3.567-3.017,5.837-7.51,5.837-12.541
					C34.756,7.36,27.396,0,18.334,0C9.271,0,1.911,7.36,1.911,16.423c0,5.03,2.269,9.54,5.837,12.555L5.3,33.203
					c-0.075,0.135-0.119,0.271-0.134,0.418l-0.209,2.762c-0.015,0.105,0.045,0.195,0.134,0.255l0,0l0,0
					c0.09,0.062,0.194,0.045,0.284-0.015l2.299-1.553c0.119-0.09,0.224-0.195,0.298-0.314l0,0l2.314-4
					c2.374,1.345,5.121,2.104,8.047,2.104s5.673-0.774,8.062-2.118l2.314,4.002c0.074,0.133,0.18,0.237,0.298,0.313l2.3,1.568
					c0.09,0.059,0.194,0.059,0.283,0.014l0,0l0,0c0.09-0.059,0.135-0.148,0.135-0.254l-0.209-2.762
					C31.486,33.472,31.457,33.322,31.367,33.189z"/>
			</defs>
			<clipPath id="SVGID_46_">
				<use xlink:href="#SVGID_45_"  overflow="visible"/>
			</clipPath>
			<path clip-path="url(#SVGID_46_)" fill="#FFFFFF" fill-opacity="0.2" d="M18.349,16.229h-0.015l0,0
				c-1.225,0-2.225-0.985-2.285-2.194c0,0.029-0.015,0.06-0.015,0.089c0,1.254,1.03,2.3,2.284,2.3l0,0h0.016
				c1.254-0.016,2.284-1.03,2.284-2.3c0-0.029,0-0.06-0.017-0.089C20.573,15.243,19.572,16.213,18.349,16.229z"/>
		</g>
		<g>
			<defs>
				<path id="SVGID_47_" d="M31.367,33.189L31.367,33.189l-2.448-4.227c3.567-3.017,5.837-7.51,5.837-12.541
					C34.756,7.36,27.396,0,18.334,0C9.271,0,1.911,7.36,1.911,16.423c0,5.03,2.269,9.54,5.837,12.555L5.3,33.203
					c-0.075,0.135-0.119,0.271-0.134,0.418l-0.209,2.762c-0.015,0.105,0.045,0.195,0.134,0.255l0,0l0,0
					c0.09,0.062,0.194,0.045,0.284-0.015l2.299-1.553c0.119-0.09,0.224-0.195,0.298-0.314l0,0l2.314-4
					c2.374,1.345,5.121,2.104,8.047,2.104s5.673-0.774,8.062-2.118l2.314,4.002c0.074,0.133,0.18,0.237,0.298,0.313l2.3,1.568
					c0.09,0.059,0.194,0.059,0.283,0.014l0,0l0,0c0.09-0.059,0.135-0.148,0.135-0.254l-0.209-2.762
					C31.486,33.472,31.457,33.322,31.367,33.189z"/>
			</defs>
			<clipPath id="SVGID_48_">
				<use xlink:href="#SVGID_47_"  overflow="visible"/>
			</clipPath>
			<path opacity="0.2" clip-path="url(#SVGID_48_)" fill="#FFFFFF" enable-background="new    " d="M15.482,10.511h0.97v-0.194
				h-0.97c-0.94,0-1.717,0.776-1.717,1.717v0.194C13.75,11.287,14.526,10.511,15.482,10.511z"/>
		</g>
		<g>
			<defs>
				<path id="SVGID_49_" d="M31.367,33.189L31.367,33.189l-2.448-4.227c3.567-3.017,5.837-7.51,5.837-12.541
					C34.756,7.36,27.396,0,18.334,0C9.271,0,1.911,7.36,1.911,16.423c0,5.03,2.269,9.54,5.837,12.555L5.3,33.203
					c-0.075,0.135-0.119,0.271-0.134,0.418l-0.209,2.762c-0.015,0.105,0.045,0.195,0.134,0.255l0,0l0,0
					c0.09,0.062,0.194,0.045,0.284-0.015l2.299-1.553c0.119-0.09,0.224-0.195,0.298-0.314l0,0l2.314-4
					c2.374,1.345,5.121,2.104,8.047,2.104s5.673-0.774,8.062-2.118l2.314,4.002c0.074,0.133,0.18,0.237,0.298,0.313l2.3,1.568
					c0.09,0.059,0.194,0.059,0.283,0.014l0,0l0,0c0.09-0.059,0.135-0.148,0.135-0.254l-0.209-2.762
					C31.486,33.472,31.457,33.322,31.367,33.189z"/>
			</defs>
			<clipPath id="SVGID_50_">
				<use xlink:href="#SVGID_49_"  overflow="visible"/>
			</clipPath>
			<path opacity="0.2" clip-path="url(#SVGID_50_)" fill="#FFFFFF" enable-background="new    " d="M21.2,10.316h-0.956v0.194H21.2
				c0.94,0,1.717,0.776,1.717,1.717v-0.18C22.917,11.093,22.154,10.316,21.2,10.316z"/>
		</g>
		<g>
			<defs>
				<path id="SVGID_51_" d="M31.367,33.189L31.367,33.189l-2.448-4.227c3.567-3.017,5.837-7.51,5.837-12.541
					C34.756,7.36,27.396,0,18.334,0C9.271,0,1.911,7.36,1.911,16.423c0,5.03,2.269,9.54,5.837,12.555L5.3,33.203
					c-0.075,0.135-0.119,0.271-0.134,0.418l-0.209,2.762c-0.015,0.105,0.045,0.195,0.134,0.255l0,0l0,0
					c0.09,0.062,0.194,0.045,0.284-0.015l2.299-1.553c0.119-0.09,0.224-0.195,0.298-0.314l0,0l2.314-4
					c2.374,1.345,5.121,2.104,8.047,2.104s5.673-0.774,8.062-2.118l2.314,4.002c0.074,0.133,0.18,0.237,0.298,0.313l2.3,1.568
					c0.09,0.059,0.194,0.059,0.283,0.014l0,0l0,0c0.09-0.059,0.135-0.148,0.135-0.254l-0.209-2.762
					C31.486,33.472,31.457,33.322,31.367,33.189z"/>
			</defs>
			<clipPath id="SVGID_52_">
				<use xlink:href="#SVGID_51_"  overflow="visible"/>
			</clipPath>
			<path opacity="0.2" clip-path="url(#SVGID_52_)" fill="#262626" enable-background="new    " d="M18.349,11.839l-0.015-0.029
				v0.029c-1.254,0-2.285,1.03-2.285,2.299c0,0.03,0,0.061,0.015,0.09c0.06-1.224,1.06-2.194,2.284-2.194v-0.03l0.015,0.03
				c1.225,0.015,2.225,0.985,2.27,2.194c0-0.029,0.016-0.06,0.016-0.09C20.633,12.869,19.604,11.839,18.349,11.839z"/>
		</g>
		<g>
			<defs>
				<path id="SVGID_53_" d="M31.367,33.189L31.367,33.189l-2.448-4.227c3.567-3.017,5.837-7.51,5.837-12.541
					C34.756,7.36,27.396,0,18.334,0C9.271,0,1.911,7.36,1.911,16.423c0,5.03,2.269,9.54,5.837,12.555L5.3,33.203
					c-0.075,0.135-0.119,0.271-0.134,0.418l-0.209,2.762c-0.015,0.105,0.045,0.195,0.134,0.255l0,0l0,0
					c0.09,0.062,0.194,0.045,0.284-0.015l2.299-1.553c0.119-0.09,0.224-0.195,0.298-0.314l0,0l2.314-4
					c2.374,1.345,5.121,2.104,8.047,2.104s5.673-0.774,8.062-2.118l2.314,4.002c0.074,0.133,0.18,0.237,0.298,0.313l2.3,1.568
					c0.09,0.059,0.194,0.059,0.283,0.014l0,0l0,0c0.09-0.059,0.135-0.148,0.135-0.254l-0.209-2.762
					C31.486,33.472,31.457,33.322,31.367,33.189z"/>
			</defs>
			<clipPath id="SVGID_54_">
				<use xlink:href="#SVGID_53_"  overflow="visible"/>
			</clipPath>
			<path clip-path="url(#SVGID_54_)" fill="#262626" fill-opacity="0.2" d="M22.648,16.259l-3.449,3.448
				c-0.238,0.24-0.552,0.359-0.851,0.359l-0.015-0.016v0.016c-0.314,0-0.627-0.119-0.852-0.359l-3.449-3.448
				c-0.194-0.194-0.269-0.374-0.269-0.508H13.75v0.193h0.015c-0.015,0.149,0.075,0.314,0.269,0.508l3.449,3.434
				c0.239,0.238,0.553,0.357,0.852,0.357V20.23l0.015,0.014c0.313,0,0.626-0.119,0.851-0.356l3.449-3.449
				c0.193-0.194,0.269-0.373,0.269-0.508h0.015v-0.194h-0.015C22.917,15.885,22.843,16.064,22.648,16.259z"/>
		</g>
		<g>
			<defs>
				<path id="SVGID_55_" d="M31.367,33.189L31.367,33.189l-2.448-4.227c3.567-3.017,5.837-7.51,5.837-12.541
					C34.756,7.36,27.396,0,18.334,0C9.271,0,1.911,7.36,1.911,16.423c0,5.03,2.269,9.54,5.837,12.555L5.3,33.203
					c-0.075,0.135-0.119,0.271-0.134,0.418l-0.209,2.762c-0.015,0.105,0.045,0.195,0.134,0.255l0,0l0,0
					c0.09,0.062,0.194,0.045,0.284-0.015l2.299-1.553c0.119-0.09,0.224-0.195,0.298-0.314l0,0l2.314-4
					c2.374,1.345,5.121,2.104,8.047,2.104s5.673-0.774,8.062-2.118l2.314,4.002c0.074,0.133,0.18,0.237,0.298,0.313l2.3,1.568
					c0.09,0.059,0.194,0.059,0.283,0.014l0,0l0,0c0.09-0.059,0.135-0.148,0.135-0.254l-0.209-2.762
					C31.486,33.472,31.457,33.322,31.367,33.189z"/>
			</defs>
			<clipPath id="SVGID_56_">
				<use xlink:href="#SVGID_55_"  overflow="visible"/>
			</clipPath>
			<path clip-path="url(#SVGID_56_)" fill="none" d="M18.334,16.423L18.334,16.423h0.015c1.254-0.016,2.284-1.03,2.284-2.3
				c0-1.269-1.029-2.284-2.284-2.299l-0.015-0.029v0.029c-1.254,0-2.285,1.03-2.285,2.299
				C16.049,15.393,17.064,16.423,18.334,16.423z"/>
		</g>
	</g>
	
		<radialGradient id="SVGID_57_" cx="1395.2617" cy="-3741.8633" r="202.8976" gradientTransform="matrix(0.1999 0 0 -0.1999 -272.1515 -742.128)" gradientUnits="userSpaceOnUse">
		<stop  offset="0" style="stop-color:#FFFFFF"/>
		<stop  offset="1" style="stop-color:#FFFFFF;stop-opacity:0"/>
	</radialGradient>
	<path fill="url(#SVGID_57_)" fill-opacity="0.1" stroke="#777777" stroke-width="0.1" stroke-miterlimit="10" d="M31.367,33.189
		L31.367,33.189l-2.448-4.227c3.567-3.017,5.837-7.51,5.837-12.541C34.756,7.36,27.396,0,18.334,0C9.271,0,1.911,7.36,1.911,16.423
		c0,5.03,2.269,9.54,5.837,12.555L5.3,33.203c-0.075,0.135-0.119,0.271-0.134,0.418l-0.209,2.762
		c-0.015,0.105,0.045,0.195,0.134,0.255l0,0l0,0c0.09,0.062,0.194,0.045,0.284-0.015l2.299-1.553
		c0.119-0.09,0.224-0.195,0.298-0.314l0,0l2.314-4c2.374,1.345,5.121,2.104,8.047,2.104s5.673-0.774,8.062-2.118l2.314,4.002
		c0.074,0.133,0.18,0.237,0.298,0.313l2.3,1.568c0.09,0.059,0.194,0.059,0.283,0.014l0,0l0,0c0.09-0.059,0.135-0.148,0.135-0.254
		l-0.209-2.762C31.486,33.472,31.457,33.322,31.367,33.189z"/>
</g>
</svg>
