<?xml version="1.0" encoding="utf-8"?>
<!-- Generator: Adobe Illustrator 15.1.0, SVG Export Plug-In . SVG Version: 6.00 Build 0)  -->
<!DOCTYPE svg PUBLIC "-//W3C//DTD SVG 1.1//EN" "http://www.w3.org/Graphics/SVG/1.1/DTD/svg11.dtd">
<svg version="1.1" xmlns="http://www.w3.org/2000/svg" xmlns:xlink="http://www.w3.org/1999/xlink" x="0px" y="0px"
	 width="36.625px" height="36.667px" viewBox="0 0 36.625 36.667" enable-background="new 0 0 36.625 36.667" xml:space="preserve">
<g id="Layer_1" display="none">
	<g id="Layer_1_1_" display="inline">
		
			<linearGradient id="SVGID_1_" gradientUnits="userSpaceOnUse" x1="206.0215" y1="-295.2295" x2="224.438" y2="-276.8129" gradientTransform="matrix(1 0 0 -1 -206 -258.333)">
			<stop  offset="0" style="stop-color:#00CBFB"/>
			<stop  offset="0.167" style="stop-color:#12BEFB"/>
			<stop  offset="0.5017" style="stop-color:#409BFC"/>
			<stop  offset="0.9696" style="stop-color:#8B63FD"/>
			<stop  offset="1" style="stop-color:#905FFD"/>
		</linearGradient>
		<polygon fill="url(#SVGID_1_)" points="36.625,36.667 0.167,37.042 0.167,0.375 		"/>
		
			<linearGradient id="SVGID_2_" gradientUnits="userSpaceOnUse" x1="196.8027" y1="-285.9268" x2="233.5116" y2="-249.218" gradientTransform="matrix(1 0 0 -1 -206 -258.333)">
			<stop  offset="0" style="stop-color:#00CBFB"/>
			<stop  offset="0.1107" style="stop-color:#04C8FB"/>
			<stop  offset="0.2176" style="stop-color:#0FBFFB"/>
			<stop  offset="0.3231" style="stop-color:#23B1FB"/>
			<stop  offset="0.4276" style="stop-color:#3E9CFC"/>
			<stop  offset="0.5315" style="stop-color:#6182FC"/>
			<stop  offset="0.6336" style="stop-color:#8C62FD"/>
			<stop  offset="0.6424" style="stop-color:#905FFD"/>
		</linearGradient>
		<polygon fill="url(#SVGID_2_)" points="0,36.792 0,0 36.625,0 		"/>
		
			<linearGradient id="SVGID_3_" gradientUnits="userSpaceOnUse" x1="206.1094" y1="-276.52" x2="242.625" y2="-276.52" gradientTransform="matrix(1 0 0 -1 -206 -258.333)">
			<stop  offset="0" style="stop-color:#C757BC"/>
			<stop  offset="0.087" style="stop-color:#CF5F9F"/>
			<stop  offset="0.2434" style="stop-color:#DC6C71"/>
			<stop  offset="0.4005" style="stop-color:#E6764B"/>
			<stop  offset="0.5557" style="stop-color:#EE7E2E"/>
			<stop  offset="0.7085" style="stop-color:#F48419"/>
			<stop  offset="0.858" style="stop-color:#F8880C"/>
			<stop  offset="1" style="stop-color:#F98908"/>
		</linearGradient>
		<polygon fill="url(#SVGID_3_)" points="0.167,36.375 0.109,19.875 20.219,0 36.625,0 		"/>
	</g>
	<g id="Layer_2" display="inline">
	</g>
</g>
<g id="Layer_2_1_" display="none">
	<path display="inline" fill="#8FC31F" d="M22.58,2.428"/>
	<ellipse display="inline" fill="#8FC31F" stroke="#FFFFFF" stroke-width="2" cx="18.503" cy="11.765" rx="9.887" ry="9.125"/>
	<path display="inline" fill="#8FC31F" stroke="#FFFFFF" stroke-width="2" d="M11.008,9.484h14.99c1.32,0,2.392,1.069,2.392,2.389
		v14.993c0,1.319-1.071,2.39-2.392,2.39h-14.99c-1.32,0-2.39-1.07-2.39-2.39V11.873C8.618,10.554,9.688,9.484,11.008,9.484z"/>
	<path display="inline" fill="#8FC31F" stroke="#FFFFFF" d="M12.026,0.219L12.026,0.219c-0.341,0.189-0.465,0.62-0.276,0.961
		l3.845,6.935c0.19,0.341,0.619,0.465,0.959,0.276l0,0c0.342-0.189,0.464-0.619,0.276-0.959l-3.845-6.938
		C12.797,0.153,12.367,0.03,12.026,0.219z"/>
	<path id="c_1_" display="inline" fill="#8FC31F" stroke="#FFFFFF" stroke-width="2" d="M22.985,22.302L22.985,22.302
		c-1.44,0-2.606,1.168-2.606,2.608v9.233c0,1.441,1.166,2.607,2.606,2.607l0,0c1.441,0,2.607-1.166,2.607-2.607v-9.233
		C25.593,23.47,24.427,22.302,22.985,22.302z"/>
	<path id="c" display="inline" fill="#8FC31F" stroke="#FFFFFF" stroke-width="1.5" d="M31.43,11.765L31.43,11.765
		c-1.438,0-2.606,1.168-2.606,2.607v9.235c0,1.439,1.168,2.606,2.606,2.606l0,0c1.441,0,2.608-1.167,2.608-2.606v-9.235
		C34.038,12.933,32.871,11.765,31.43,11.765z"/>
	<path display="inline" fill="#8FC31F" stroke="#FFFFFF" d="M24.979,0.219L24.979,0.219c0.342,0.189,0.465,0.62,0.276,0.961
		l-3.845,6.935c-0.188,0.341-0.618,0.465-0.96,0.276l0,0c-0.34-0.189-0.464-0.619-0.275-0.959l3.845-6.938
		C24.21,0.153,24.64,0.03,24.979,0.219z"/>
	<path id="c_2_" display="inline" fill="#8FC31F" stroke="#FFFFFF" stroke-width="1.5" d="M5.576,11.765L5.576,11.765
		c1.439,0,2.607,1.168,2.607,2.607v9.235c0,1.439-1.168,2.606-2.607,2.606l0,0c-1.44,0-2.607-1.167-2.607-2.606v-9.235
		C2.969,12.933,4.136,11.765,5.576,11.765z"/>
	<path id="c_3_" display="inline" fill="#8FC31F" stroke="#FFFFFF" stroke-width="1.5" d="M14.81,22.302L14.81,22.302
		c1.44,0,2.606,1.168,2.606,2.608v9.233c0,1.441-1.166,2.607-2.606,2.607l0,0c-1.44,0-2.608-1.166-2.608-2.607v-9.233
		C12.202,23.47,13.369,22.302,14.81,22.302z"/>
	<ellipse display="inline" fill="#8FC31F" cx="18.503" cy="11.765" rx="9.887" ry="9.125"/>
	<path id="c_4_" display="inline" fill="#8FC31F" stroke="#FFFFFF" stroke-width="1.5" d="M22.994,22.302L22.994,22.302
		c1.44,0,2.606,1.168,2.606,2.608v9.233c0,1.441-1.166,2.607-2.606,2.607l0,0c-1.44,0-2.607-1.166-2.607-2.607v-9.233
		C20.387,23.47,21.554,22.302,22.994,22.302z"/>
	<path display="inline" fill="#8FC31F" d="M11.008,9.484h14.99c1.32,0,2.392,1.069,2.392,2.389v14.993
		c0,1.319-1.071,2.39-2.392,2.39h-14.99c-1.32,0-2.39-1.07-2.39-2.39V11.873C8.618,10.554,9.688,9.484,11.008,9.484z"/>
	<path display="inline" fill="#8FC31F" stroke="#FFFFFF" stroke-width="2" d="M8.184,12.146h20.64"/>
	<circle display="inline" fill="#8FC31F" stroke="#FFFFFF" stroke-width="2" cx="13.941" cy="7.311" r="0.435"/>
	<circle display="inline" fill="#8FC31F" stroke="#FFFFFF" stroke-width="2" cx="23.065" cy="7.311" r="0.435"/>
</g>
<g id="Layer_4" display="none">
	<path display="inline" fill="#8FC31F" d="M21.708,1.715"/>
	<circle display="inline" fill="#8FC31F" stroke="#FFFFFF" stroke-width="2" cx="12.91" cy="6.687" r="0.443"/>
	<circle display="inline" fill="#8FC31F" stroke="#FFFFFF" stroke-width="2" cx="22.202" cy="6.687" r="0.443"/>
	<path display="inline" fill="#A4C639" d="M13.157,22.52c1.129,0,2.044,1.007,2.044,2.249v9.649c0,1.242-0.915,2.249-2.044,2.249
		c-1.128,0-2.044-1.007-2.044-2.249v-9.649C11.113,23.527,12.029,22.52,13.157,22.52L13.157,22.52z"/>
	<path display="inline" fill="#A4C639" d="M8.021,10.919c-0.006,0.085-0.014,0.172-0.014,0.258v14.62
		c0,1.571,1.245,2.838,2.791,2.838h14.866c1.544,0,2.79-1.267,2.79-2.838v-14.62c0-0.086-0.005-0.173-0.011-0.258H8.021
		L8.021,10.919z"/>
	<path display="inline" fill="#A4C639" d="M23.305,22.52c1.13,0,2.045,1.007,2.045,2.249v9.649c0,1.242-0.915,2.249-2.045,2.249
		c-1.129,0-2.044-1.007-2.044-2.249v-9.649C21.261,23.527,22.176,22.52,23.305,22.52L23.305,22.52z M4.394,12.22
		c1.128,0,2.044,1.007,2.044,2.25v9.649c0,1.242-0.916,2.249-2.044,2.249S2.35,25.361,2.35,24.119V14.47
		C2.35,13.228,3.265,12.22,4.394,12.22L4.394,12.22z M32.067,12.22c1.128,0,2.044,1.007,2.044,2.25v9.649
		c0,1.242-0.916,2.249-2.044,2.249s-2.044-1.007-2.044-2.249V14.47C30.023,13.228,30.939,12.22,32.067,12.22L32.067,12.22z
		 M8.087,9.958c0.063-4.49,3.981-8.171,9.012-8.657h2.262c5.031,0.485,8.95,4.167,9.012,8.657H8.087z"/>
	<path display="inline" fill="none" stroke="#A4C639" stroke-linecap="round" stroke-linejoin="round" d="M8.87,0.868l2.373,4.11
		 M27.592,0.868l-2.373,4.11"/>
	<path display="inline" fill="#FFFFFF" d="M15.209,5.935c0.002,0.627-0.518,1.139-1.161,1.14c-0.643,0.002-1.165-0.505-1.167-1.133
		V5.935c-0.002-0.627,0.518-1.138,1.161-1.139c0.642-0.002,1.165,0.505,1.167,1.133V5.935z M23.896,5.935
		c0.002,0.627-0.518,1.139-1.16,1.14c-0.643,0.002-1.165-0.505-1.167-1.133V5.935c-0.002-0.627,0.518-1.138,1.16-1.139
		c0.643-0.002,1.165,0.505,1.167,1.133V5.935z"/>
	<path display="inline" fill="#FFC24A" d="M5.069,29.521l0.221-0.309L15.715,9.432l0.022-0.209L11.141,0.59
		c-0.385-0.723-1.469-0.541-1.595,0.269L5.069,29.521z"/>
	<g display="inline">
		<path id="a" fill="#FFA712" d="M5.2,29.286l0.167-0.325L15.682,9.387L11.098,0.72C10.717,0.004,9.75,0.187,9.625,0.987L5.2,29.286
			z"/>
	</g>
	<path display="inline" fill="#F4BD62" d="M19.087,15.751l3.422-3.504l-3.423-6.534c-0.325-0.618-1.232-0.62-1.554,0L15.704,9.2
		v0.297L19.087,15.751L19.087,15.751z"/>
	<g display="inline">
		<path id="c_6_" fill="#FFA50E" d="M19.025,15.605l3.327-3.407l-3.327-6.334C18.71,5.263,17.942,5.2,17.63,5.803l-1.838,3.542
			l-0.055,0.181L19.025,15.605z"/>
	</g>
	<path display="inline" fill="#FDE068" d="M19.515,36.223l12.072-6.733L28.14,8.258c-0.108-0.664-0.923-0.927-1.398-0.451
		L5.069,29.521l12.004,6.702C17.831,36.646,18.756,36.646,19.515,36.223"/>
	<path display="inline" fill="#EEAB37" d="M19.515,36.025c-0.759,0.423-1.684,0.423-2.441,0L5.166,29.419L5.07,29.521l12.003,6.702
		c0.758,0.423,1.683,0.423,2.441,0l12.072-6.733l-0.029-0.181L19.515,36.025L19.515,36.025z"/>
</g>
<g id="Layer_5" display="none">
	<g display="inline">
		<path fill="#FFA000" d="M5.956,29.523l0.167-0.325L16.438,9.624l-4.584-8.666c-0.381-0.717-1.348-0.533-1.473,0.268L5.956,29.523z
			"/>
	</g>
	<g display="inline">
		<path fill="#FFA000" d="M19.781,15.842l3.327-3.406l-3.327-6.335C19.466,5.5,18.698,5.437,18.386,6.04l-1.838,3.543l-0.055,0.18
			L19.781,15.842z"/>
	</g>
	<path display="inline" fill="#F6820C" d="M5.825,29.758l0.1-0.101l0.363-0.147l13.34-13.291l0.169-0.459l-3.328-6.342L5.825,29.758
		z"/>
	<path display="inline" fill="#FCCA3F" d="M32.235,29.671L28.813,8.6c-0.107-0.66-0.784-0.933-1.257-0.459L5.959,29.716
		l11.872,6.637c0.753,0.42,1.67,0.42,2.423,0L32.235,29.671L32.235,29.671z"/>
</g>
<g id="Layer_6">
	<g>
		<defs>
			<path id="SVGID_4_" d="M31.367,33.189L31.367,33.189l-2.448-4.227c3.568-3.016,5.837-7.51,5.837-12.54
				C34.756,7.36,27.396,0,18.334,0C9.271,0,1.911,7.36,1.911,16.423c0,5.03,2.269,9.54,5.837,12.555L5.3,33.203
				c-0.075,0.135-0.119,0.27-0.134,0.418l-0.209,2.762c-0.015,0.105,0.045,0.195,0.134,0.254l0,0l0,0
				c0.09,0.061,0.194,0.045,0.284-0.014l2.299-1.553c0.119-0.09,0.224-0.195,0.298-0.314l0,0l2.314-4
				c2.374,1.344,5.121,2.104,8.047,2.104c2.926,0,5.673-0.775,8.062-2.119l2.314,4.002c0.074,0.133,0.179,0.238,0.298,0.313
				l2.3,1.568c0.089,0.059,0.194,0.059,0.283,0.014l0,0l0,0c0.09-0.059,0.135-0.148,0.135-0.254l-0.209-2.762
				C31.486,33.472,31.457,33.322,31.367,33.189z"/>
		</defs>
		<clipPath id="SVGID_5_">
			<use xlink:href="#SVGID_4_"  overflow="visible"/>
		</clipPath>
		<path clip-path="url(#SVGID_5_)" fill="#7CB342" d="M18.334,0C9.271,0,1.911,7.36,1.911,16.423h16.423h16.422
			C34.771,7.346,27.411,0,18.334,0z"/>
	</g>
	<g>
		<defs>
			<path id="SVGID_6_" d="M31.367,33.189L31.367,33.189l-2.448-4.227c3.568-3.016,5.837-7.51,5.837-12.54
				C34.756,7.36,27.396,0,18.334,0C9.271,0,1.911,7.36,1.911,16.423c0,5.03,2.269,9.54,5.837,12.555L5.3,33.203
				c-0.075,0.135-0.119,0.27-0.134,0.418l-0.209,2.762c-0.015,0.105,0.045,0.195,0.134,0.254l0,0l0,0
				c0.09,0.061,0.194,0.045,0.284-0.014l2.299-1.553c0.119-0.09,0.224-0.195,0.298-0.314l0,0l2.314-4
				c2.374,1.344,5.121,2.104,8.047,2.104c2.926,0,5.673-0.775,8.062-2.119l2.314,4.002c0.074,0.133,0.179,0.238,0.298,0.313
				l2.3,1.568c0.089,0.059,0.194,0.059,0.283,0.014l0,0l0,0c0.09-0.059,0.135-0.148,0.135-0.254l-0.209-2.762
				C31.486,33.472,31.457,33.322,31.367,33.189z"/>
		</defs>
		<clipPath id="SVGID_7_">
			<use xlink:href="#SVGID_6_"  overflow="visible"/>
		</clipPath>
		<path clip-path="url(#SVGID_7_)" fill="#8BC34A" d="M18.334,16.423H1.911c0,9.061,7.36,16.422,16.423,16.422
			c9.062,0,16.422-7.361,16.422-16.422H18.334z"/>
	</g>
	<g>
		<defs>
			<path id="SVGID_8_" d="M31.367,33.189L31.367,33.189l-2.448-4.227c3.568-3.016,5.837-7.51,5.837-12.54
				C34.756,7.36,27.396,0,18.334,0C9.271,0,1.911,7.36,1.911,16.423c0,5.03,2.269,9.54,5.837,12.555L5.3,33.203
				c-0.075,0.135-0.119,0.27-0.134,0.418l-0.209,2.762c-0.015,0.105,0.045,0.195,0.134,0.254l0,0l0,0
				c0.09,0.061,0.194,0.045,0.284-0.014l2.299-1.553c0.119-0.09,0.224-0.195,0.298-0.314l0,0l2.314-4
				c2.374,1.344,5.121,2.104,8.047,2.104c2.926,0,5.673-0.775,8.062-2.119l2.314,4.002c0.074,0.133,0.179,0.238,0.298,0.313
				l2.3,1.568c0.089,0.059,0.194,0.059,0.283,0.014l0,0l0,0c0.09-0.059,0.135-0.148,0.135-0.254l-0.209-2.762
				C31.486,33.472,31.457,33.322,31.367,33.189z"/>
		</defs>
		<clipPath id="SVGID_9_">
			<use xlink:href="#SVGID_8_"  overflow="visible"/>
		</clipPath>
		<path opacity="0.2" clip-path="url(#SVGID_9_)" fill="#FFFFFF" enable-background="new    " d="M18.334,0.179
			c9.032,0,16.377,7.3,16.422,16.333c0-0.029,0-0.06,0-0.089C34.756,7.36,27.396,0,18.334,0C9.271-0.015,1.911,7.346,1.911,16.423
			c0,0.029,0,0.06,0,0.089C1.971,7.495,9.301,0.179,18.334,0.179z"/>
	</g>
	<g>
		<defs>
			<path id="SVGID_10_" d="M31.367,33.189L31.367,33.189l-2.448-4.227c3.568-3.016,5.837-7.51,5.837-12.54
				C34.756,7.36,27.396,0,18.334,0C9.271,0,1.911,7.36,1.911,16.423c0,5.03,2.269,9.54,5.837,12.555L5.3,33.203
				c-0.075,0.135-0.119,0.27-0.134,0.418l-0.209,2.762c-0.015,0.105,0.045,0.195,0.134,0.254l0,0l0,0
				c0.09,0.061,0.194,0.045,0.284-0.014l2.299-1.553c0.119-0.09,0.224-0.195,0.298-0.314l0,0l2.314-4
				c2.374,1.344,5.121,2.104,8.047,2.104c2.926,0,5.673-0.775,8.062-2.119l2.314,4.002c0.074,0.133,0.179,0.238,0.298,0.313
				l2.3,1.568c0.089,0.059,0.194,0.059,0.283,0.014l0,0l0,0c0.09-0.059,0.135-0.148,0.135-0.254l-0.209-2.762
				C31.486,33.472,31.457,33.322,31.367,33.189z"/>
		</defs>
		<clipPath id="SVGID_11_">
			<use xlink:href="#SVGID_10_"  overflow="visible"/>
		</clipPath>
		<path opacity="0.2" clip-path="url(#SVGID_11_)" fill="#263238" enable-background="new    " d="M18.334,32.65
			c-9.033,0-16.378-7.299-16.423-16.332c0,0.029,0,0.06,0,0.089c0,9.063,7.36,16.422,16.423,16.422
			c9.062,0,16.422-7.359,16.422-16.422c0-0.029,0-0.06,0-0.089C34.711,25.351,27.381,32.65,18.334,32.65z"/>
	</g>
	<g>
		<defs>
			<path id="SVGID_12_" d="M31.367,33.189L31.367,33.189l-2.448-4.227c3.568-3.016,5.837-7.51,5.837-12.54
				C34.756,7.36,27.396,0,18.334,0C9.271,0,1.911,7.36,1.911,16.423c0,5.03,2.269,9.54,5.837,12.555L5.3,33.203
				c-0.075,0.135-0.119,0.27-0.134,0.418l-0.209,2.762c-0.015,0.105,0.045,0.195,0.134,0.254l0,0l0,0
				c0.09,0.061,0.194,0.045,0.284-0.014l2.299-1.553c0.119-0.09,0.224-0.195,0.298-0.314l0,0l2.314-4
				c2.374,1.344,5.121,2.104,8.047,2.104c2.926,0,5.673-0.775,8.062-2.119l2.314,4.002c0.074,0.133,0.179,0.238,0.298,0.313
				l2.3,1.568c0.089,0.059,0.194,0.059,0.283,0.014l0,0l0,0c0.09-0.059,0.135-0.148,0.135-0.254l-0.209-2.762
				C31.486,33.472,31.457,33.322,31.367,33.189z"/>
		</defs>
		<clipPath id="SVGID_13_">
			<use xlink:href="#SVGID_12_"  overflow="visible"/>
		</clipPath>
		<rect y="16.229" clip-path="url(#SVGID_13_)" fill="#263238" fill-opacity="0.05" width="36.667" height="0.194"/>
		<rect y="16.423" clip-path="url(#SVGID_13_)" fill="#FFFFFF" fill-opacity="0.05" width="36.667" height="0.194"/>
	</g>
	<g>
		<defs>
			<path id="SVGID_14_" d="M31.367,33.189L31.367,33.189l-2.448-4.227c3.568-3.016,5.837-7.51,5.837-12.54
				C34.756,7.36,27.396,0,18.334,0C9.271,0,1.911,7.36,1.911,16.423c0,5.03,2.269,9.54,5.837,12.555L5.3,33.203
				c-0.075,0.135-0.119,0.27-0.134,0.418l-0.209,2.762c-0.015,0.105,0.045,0.195,0.134,0.254l0,0l0,0
				c0.09,0.061,0.194,0.045,0.284-0.014l2.299-1.553c0.119-0.09,0.224-0.195,0.298-0.314l0,0l2.314-4
				c2.374,1.344,5.121,2.104,8.047,2.104c2.926,0,5.673-0.775,8.062-2.119l2.314,4.002c0.074,0.133,0.179,0.238,0.298,0.313
				l2.3,1.568c0.089,0.059,0.194,0.059,0.283,0.014l0,0l0,0c0.09-0.059,0.135-0.148,0.135-0.254l-0.209-2.762
				C31.486,33.472,31.457,33.322,31.367,33.189z"/>
		</defs>
		<clipPath id="SVGID_15_">
			<use xlink:href="#SVGID_14_"  overflow="visible"/>
		</clipPath>
		
			<linearGradient id="SVGID_16_" gradientUnits="userSpaceOnUse" x1="55.0283" y1="2012.146" x2="146.4453" y2="2103.563" gradientTransform="matrix(0.1999 0 0 0.1999 -1.1934 -388.7166)">
			<stop  offset="0.33" style="stop-color:#263238;stop-opacity:0.16"/>
			<stop  offset="1" style="stop-color:#263238;stop-opacity:0"/>
		</linearGradient>
		<path clip-path="url(#SVGID_15_)" fill="url(#SVGID_16_)" d="M30.173,16.452c0-0.015,0-0.029,0-0.029h-0.762l-9.167-9.167l0,0l0,0
			h-1.91h-1.896v0.015v3.061h-0.971c-0.94,0-1.717,0.776-1.717,1.717v3.896h0.015c-0.015,0.135,0.075,0.299,0.254,0.493
			c0.015,0.015,0.015,0.015,0.015,0.03l0.597,0.597L7.749,28.994c0.791,0.672,1.642,1.254,2.538,1.762
			c2.389,1.344,5.121,2.119,8.062,2.119c2.926,0,5.673-0.775,8.062-2.119c0.896-0.508,1.747-1.105,2.538-1.762
			c2.419-2.047,4.225-4.764,5.151-7.883c0.06-0.195,0.104-0.389,0.164-0.568L30.173,16.452z"/>
		
			<linearGradient id="SVGID_17_" gradientUnits="userSpaceOnUse" x1="33.8936" y1="2068.1616" x2="108.4233" y2="2041.7258" gradientTransform="matrix(0.1999 0 0 0.1999 -1.1934 -388.7166)">
			<stop  offset="0.33" style="stop-color:#263238;stop-opacity:0.16"/>
			<stop  offset="1" style="stop-color:#263238;stop-opacity:0"/>
		</linearGradient>
		<path clip-path="url(#SVGID_15_)" fill="url(#SVGID_17_)" d="M30.173,16.452c0-0.015,0-0.029,0-0.029h-0.762l-9.167-9.167l0,0l0,0
			h-1.91h-1.896v0.015v3.061h-0.971c-0.94,0-1.717,0.776-1.717,1.717v3.896h0.015c-0.015,0.135,0.075,0.299,0.254,0.493
			c0.015,0.015,0.015,0.015,0.015,0.03l0.597,0.597L7.749,28.994c0.791,0.672,1.642,1.254,2.538,1.762
			c2.389,1.344,5.121,2.119,8.062,2.119c2.926,0,5.673-0.775,8.062-2.119c0.896-0.508,1.747-1.105,2.538-1.762
			c2.419-2.047,4.225-4.764,5.151-7.883c0.06-0.195,0.104-0.389,0.164-0.568L30.173,16.452z"/>
	</g>
	<g>
		<defs>
			<path id="SVGID_18_" d="M31.367,33.189L31.367,33.189l-2.448-4.227c3.568-3.016,5.837-7.51,5.837-12.54
				C34.756,7.36,27.396,0,18.334,0C9.271,0,1.911,7.36,1.911,16.423c0,5.03,2.269,9.54,5.837,12.555L5.3,33.203
				c-0.075,0.135-0.119,0.27-0.134,0.418l-0.209,2.762c-0.015,0.105,0.045,0.195,0.134,0.254l0,0l0,0
				c0.09,0.061,0.194,0.045,0.284-0.014l2.299-1.553c0.119-0.09,0.224-0.195,0.298-0.314l0,0l2.314-4
				c2.374,1.344,5.121,2.104,8.047,2.104c2.926,0,5.673-0.775,8.062-2.119l2.314,4.002c0.074,0.133,0.179,0.238,0.298,0.313
				l2.3,1.568c0.089,0.059,0.194,0.059,0.283,0.014l0,0l0,0c0.09-0.059,0.135-0.148,0.135-0.254l-0.209-2.762
				C31.486,33.472,31.457,33.322,31.367,33.189z"/>
		</defs>
		<clipPath id="SVGID_19_">
			<use xlink:href="#SVGID_18_"  overflow="visible"/>
		</clipPath>
		
			<g transform="matrix(1 0 0 1 -6.141988e-008 1.367077e-007)" opacity="0.2" clip-path="url(#SVGID_19_)" enable-background="new    ">
			
				<image overflow="visible" width="364" height="400" xlink:href="BD5564B8.png"  transform="matrix(0.076 0 0 0.076 4.665 6.8691)">
			</image>
		</g>
		<path clip-path="url(#SVGID_19_)" fill="#646464" d="M31.502,33.621c-0.016-0.148-0.061-0.283-0.135-0.418l0,0l-4.777-8.285
			c2.209-2.15,3.598-5.166,3.598-8.495h-3.061c0,2.179-0.807,4.18-2.135,5.733l-2.956-5.106l0.597-0.598
			c0.194-0.193,0.27-0.373,0.27-0.508h0.015v-3.896c0-0.94-0.776-1.717-1.717-1.717h-0.956V7.271V7.256h-1.91h-1.896v0.015v3.061
			h-0.971c-0.94,0-1.717,0.776-1.717,1.717v3.896h0.015c-0.015,0.149,0.075,0.314,0.269,0.508l0.597,0.598L5.3,33.189
			c-0.075,0.133-0.119,0.268-0.134,0.418l-0.209,2.775c-0.015,0.105,0.045,0.195,0.134,0.254l0,0l0,0
			c0.09,0.061,0.194,0.045,0.284-0.014l2.299-1.553c0.119-0.09,0.224-0.195,0.298-0.314l0,0l4.613-7.986
			c1.702,0.955,3.673,1.508,5.763,1.508c2.09,0,4.061-0.553,5.763-1.508l4.613,7.973c0.074,0.133,0.179,0.238,0.299,0.313
			l2.299,1.568c0.089,0.059,0.194,0.059,0.283,0.014l0,0l0,0c0.09-0.059,0.135-0.148,0.135-0.254L31.502,33.621z M18.334,11.839
			V11.81l0.015,0.029c1.254,0.016,2.284,1.03,2.284,2.299c0,1.27-1.03,2.285-2.284,2.3h-0.015l0,0c-1.254,0-2.285-1.03-2.285-2.3
			C16.049,12.854,17.064,11.839,18.334,11.839z M18.334,25.201c-1.538,0-2.986-0.402-4.226-1.09l2.777-4.807l0.582,0.582
			c0.239,0.238,0.552,0.357,0.851,0.357V20.23l0.016,0.014c0.313,0,0.627-0.119,0.851-0.357l0.582-0.582l2.777,4.822
			C21.319,24.812,19.871,25.201,18.334,25.201z"/>
	</g>
	<g>
		<defs>
			<path id="SVGID_20_" d="M31.367,33.189L31.367,33.189l-2.448-4.227c3.568-3.016,5.837-7.51,5.837-12.54
				C34.756,7.36,27.396,0,18.334,0C9.271,0,1.911,7.36,1.911,16.423c0,5.03,2.269,9.54,5.837,12.555L5.3,33.203
				c-0.075,0.135-0.119,0.27-0.134,0.418l-0.209,2.762c-0.015,0.105,0.045,0.195,0.134,0.254l0,0l0,0
				c0.09,0.061,0.194,0.045,0.284-0.014l2.299-1.553c0.119-0.09,0.224-0.195,0.298-0.314l0,0l2.314-4
				c2.374,1.344,5.121,2.104,8.047,2.104c2.926,0,5.673-0.775,8.062-2.119l2.314,4.002c0.074,0.133,0.179,0.238,0.298,0.313
				l2.3,1.568c0.089,0.059,0.194,0.059,0.283,0.014l0,0l0,0c0.09-0.059,0.135-0.148,0.135-0.254l-0.209-2.762
				C31.486,33.472,31.457,33.322,31.367,33.189z"/>
		</defs>
		<clipPath id="SVGID_21_">
			<use xlink:href="#SVGID_20_"  overflow="visible"/>
		</clipPath>
		<path clip-path="url(#SVGID_21_)" fill="#E1E1E1" d="M31.502,33.621c-0.016-0.148-0.061-0.283-0.135-0.418l0,0l-4.777-8.285
			l-1.583-2.762l-2.956-5.106l-2.254,2.254l2.776,4.822l1.523,2.643l4.613,7.973c0.074,0.133,0.179,0.238,0.298,0.313l2.3,1.568
			c0.089,0.059,0.194,0.059,0.283,0.014l0,0l0,0c0.09-0.059,0.135-0.148,0.135-0.254L31.502,33.621z"/>
		<path clip-path="url(#SVGID_21_)" fill="#FFFFFF" fill-opacity="0.4" d="M24.992,22.335l1.582,2.762l4.793,8.285l0,0
			c0.074,0.135,0.119,0.27,0.135,0.418l0.193,2.627c0-0.014,0.015-0.029,0.015-0.059l-0.208-2.762
			c-0.016-0.15-0.061-0.285-0.135-0.418l0,0l-4.777-8.287l-1.583-2.762l-2.956-5.106l-0.089,0.104L24.992,22.335z"/>
		<path clip-path="url(#SVGID_21_)" fill="#262626" fill-opacity="0.2" d="M31.576,36.427L31.576,36.427L31.576,36.427
			c-0.09,0.061-0.194,0.045-0.284-0.014l-2.299-1.568c-0.119-0.09-0.224-0.193-0.299-0.313l-4.613-7.973l-1.522-2.643l-2.688-4.688
			l-0.074,0.074l2.776,4.822l1.523,2.643l4.613,7.973c0.074,0.133,0.179,0.238,0.298,0.313l2.3,1.568
			c0.089,0.059,0.194,0.059,0.283,0.014l0,0l0,0c0.09-0.059,0.135-0.148,0.135-0.254L31.71,36.25
			C31.681,36.324,31.65,36.398,31.576,36.427z"/>
		<path clip-path="url(#SVGID_21_)" fill="#F1F1F1" d="M27.127,16.423c0,2.179-0.807,4.18-2.135,5.733
			c-0.687,0.791-1.493,1.463-2.419,1.971c-1.254,0.701-2.702,1.09-4.239,1.09c-1.538,0-2.986-0.404-4.226-1.09l2.777-4.822
			l-2.254-2.254L5.3,33.203c-0.075,0.135-0.119,0.27-0.134,0.418l-0.209,2.777c-0.015,0.105,0.045,0.195,0.134,0.254l0,0l0,0
			c0.09,0.061,0.194,0.045,0.284-0.016l2.299-1.553c0.119-0.088,0.224-0.193,0.298-0.313l0,0l4.613-7.988
			c1.702,0.957,3.673,1.51,5.763,1.51c2.09,0,4.061-0.553,5.763-1.51c0.91-0.508,1.747-1.135,2.479-1.85
			c2.209-2.15,3.598-5.166,3.598-8.496L27.127,16.423L27.127,16.423z"/>
		<path clip-path="url(#SVGID_21_)" fill="none" d="M19.199,19.886c-0.238,0.238-0.552,0.357-0.851,0.357l-0.015-0.014v0.014
			c-0.314,0-0.627-0.119-0.852-0.357L16.9,19.304l-2.777,4.807c1.254,0.701,2.702,1.09,4.225,1.09c1.522,0,2.985-0.402,4.24-1.09
			l-2.777-4.822L19.199,19.886z"/>
		<path clip-path="url(#SVGID_21_)" fill="#FFFFFF" fill-opacity="0.4" d="M5.3,33.382l9.436-16.258l-0.104-0.09L5.3,33.189
			c-0.075,0.133-0.119,0.268-0.134,0.418l-0.209,2.775c0,0.016,0.015,0.031,0.015,0.061l0.194-2.627
			C5.195,33.666,5.225,33.517,5.3,33.382z"/>
		<path clip-path="url(#SVGID_21_)" fill="#FFFFFF" fill-opacity="0.4" d="M18.334,25.396c1.537,0,2.985-0.404,4.239-1.09
			c0.911-0.508,1.732-1.18,2.419-1.971c1.328-1.539,2.135-3.54,2.135-5.734h3.046c0-0.06,0.015-0.134,0.015-0.194h-3.061
			c0,2.18-0.807,4.18-2.135,5.733c-0.687,0.791-1.493,1.463-2.419,1.971c-1.254,0.701-2.702,1.09-4.239,1.09
			c-1.508,0-2.912-0.389-4.151-1.061l-0.09,0.15C15.363,24.992,16.811,25.396,18.334,25.396z"/>
		<path clip-path="url(#SVGID_21_)" fill="#262626" fill-opacity="0.2" d="M14.108,24.097l2.777-4.793l-0.075-0.074l-2.792,4.822
			C14.049,24.066,14.079,24.082,14.108,24.097z"/>
		<path clip-path="url(#SVGID_21_)" fill="#262626" fill-opacity="0.2" d="M26.59,24.708c-0.747,0.717-1.568,1.344-2.479,1.852
			c-1.702,0.955-3.673,1.508-5.763,1.508c-2.09,0-4.061-0.553-5.763-1.508l-4.613,7.986l0,0c-0.074,0.135-0.179,0.24-0.298,0.314
			l-2.299,1.553c-0.089,0.059-0.194,0.059-0.284,0.014l0,0l0,0c-0.074-0.045-0.104-0.119-0.119-0.193l-0.015,0.135
			c-0.015,0.104,0.045,0.193,0.134,0.254l0,0l0,0c0.09,0.045,0.194,0.045,0.284-0.016l2.299-1.553
			c0.119-0.09,0.224-0.193,0.298-0.313l0,0l4.613-7.988c1.702,0.955,3.673,1.508,5.763,1.508c2.09,0,4.061-0.553,5.763-1.508
			c0.91-0.508,1.747-1.135,2.479-1.852c2.209-2.15,3.598-5.166,3.598-8.495h-0.015C30.128,19.662,28.754,22.603,26.59,24.708z"/>
		<path clip-path="url(#SVGID_21_)" fill="#646464" d="M21.2,10.316h-0.956V7.256V7.24h-1.91h-1.896v0.016v3.061h-0.971
			c-0.94,0-1.717,0.776-1.717,1.717v3.896h0.015c-0.015,0.149,0.075,0.313,0.269,0.508l3.449,3.449
			c0.239,0.238,0.553,0.357,0.852,0.357V20.23l0.015,0.014c0.313,0,0.627-0.119,0.851-0.357l3.449-3.449
			c0.194-0.194,0.269-0.373,0.269-0.508h0.015v-3.882C22.917,11.093,22.155,10.316,21.2,10.316z M18.349,16.423h-0.015l0,0
			c-1.254,0-2.285-1.03-2.285-2.3c0-1.269,1.03-2.299,2.285-2.299v-0.029l0.015,0.029c1.254,0.015,2.284,1.03,2.284,2.299
			C20.633,15.393,19.603,16.407,18.349,16.423z"/>
		<path opacity="0.2" clip-path="url(#SVGID_21_)" fill="#FFFFFF" enable-background="new    " d="M20.244,7.435V7.256V7.24h-1.91
			h-1.896v0.016v0.179h1.896H20.244z"/>
		<path clip-path="url(#SVGID_21_)" fill="#FFFFFF" fill-opacity="0.2" d="M18.349,16.229h-0.015l0,0
			c-1.225,0-2.225-0.985-2.285-2.194c0,0.029-0.015,0.06-0.015,0.089c0,1.254,1.03,2.3,2.284,2.3l0,0h0.016
			c1.254-0.016,2.284-1.03,2.284-2.3c0-0.029,0-0.06-0.016-0.089C20.573,15.243,19.572,16.213,18.349,16.229z"/>
		<path opacity="0.2" clip-path="url(#SVGID_21_)" fill="#FFFFFF" enable-background="new    " d="M15.482,10.511h0.97v-0.194h-0.97
			c-0.94,0-1.717,0.776-1.717,1.717v0.194C13.75,11.287,14.526,10.511,15.482,10.511z"/>
		<path opacity="0.2" clip-path="url(#SVGID_21_)" fill="#FFFFFF" enable-background="new    " d="M21.2,10.316h-0.956v0.194H21.2
			c0.94,0,1.717,0.776,1.717,1.717v-0.18C22.917,11.093,22.155,10.316,21.2,10.316z"/>
		<path opacity="0.2" clip-path="url(#SVGID_21_)" fill="#262626" enable-background="new    " d="M18.349,11.839l-0.015-0.029
			v0.029c-1.254,0-2.285,1.03-2.285,2.299c0,0.03,0,0.061,0.015,0.09c0.06-1.224,1.06-2.194,2.284-2.194v-0.03l0.015,0.03
			c1.225,0.015,2.225,0.985,2.27,2.194c0-0.029,0.015-0.06,0.015-0.09C20.633,12.869,19.603,11.839,18.349,11.839z"/>
		<path clip-path="url(#SVGID_21_)" fill="#262626" fill-opacity="0.2" d="M22.648,16.259l-3.449,3.448
			c-0.238,0.24-0.552,0.359-0.851,0.359l-0.015-0.016v0.016c-0.314,0-0.627-0.119-0.852-0.359l-3.449-3.448
			c-0.194-0.194-0.269-0.374-0.269-0.508H13.75v0.193h0.015c-0.015,0.149,0.075,0.314,0.269,0.508l3.449,3.434
			c0.239,0.238,0.553,0.357,0.852,0.357V20.23l0.015,0.014c0.313,0,0.627-0.119,0.851-0.357l3.449-3.449
			c0.194-0.194,0.269-0.373,0.269-0.508h0.015v-0.194h-0.015C22.917,15.885,22.843,16.064,22.648,16.259z"/>
		<path clip-path="url(#SVGID_21_)" fill="none" d="M18.334,16.423L18.334,16.423h0.015c1.254-0.016,2.284-1.03,2.284-2.3
			c0-1.269-1.03-2.284-2.284-2.299l-0.015-0.029v0.029c-1.254,0-2.285,1.03-2.285,2.299C16.049,15.393,17.064,16.423,18.334,16.423z
			"/>
	</g>
	
		<radialGradient id="SVGID_22_" cx="39.793" cy="1973.9204" r="202.8974" gradientTransform="matrix(0.1999 0 0 0.1999 -1.1934 -388.7166)" gradientUnits="userSpaceOnUse">
		<stop  offset="0" style="stop-color:#FFFFFF"/>
		<stop  offset="1" style="stop-color:#FFFFFF;stop-opacity:0"/>
	</radialGradient>
	<path fill="url(#SVGID_22_)" fill-opacity="0.1" stroke="#777777" stroke-width="0.1" stroke-miterlimit="10" d="M31.367,33.189
		L31.367,33.189l-2.448-4.227c3.568-3.016,5.837-7.51,5.837-12.54C34.756,7.36,27.396,0,18.334,0C9.271,0,1.911,7.36,1.911,16.423
		c0,5.03,2.269,9.54,5.837,12.555L5.3,33.203c-0.075,0.135-0.119,0.27-0.134,0.418l-0.209,2.762
		c-0.015,0.105,0.045,0.195,0.134,0.254l0,0l0,0c0.09,0.061,0.194,0.045,0.284-0.014l2.299-1.553
		c0.119-0.09,0.224-0.195,0.298-0.314l0,0l2.314-4c2.374,1.344,5.121,2.104,8.047,2.104c2.926,0,5.673-0.775,8.062-2.119
		l2.314,4.002c0.074,0.133,0.179,0.238,0.298,0.313l2.3,1.568c0.089,0.059,0.194,0.059,0.283,0.014l0,0l0,0
		c0.09-0.059,0.135-0.148,0.135-0.254l-0.209-2.762C31.486,33.472,31.457,33.322,31.367,33.189z"/>
</g>
<g id="Layer_3" display="none">
	
		<linearGradient id="SVGID_23_" gradientUnits="userSpaceOnUse" x1="-67.1382" y1="98.2905" x2="-65.4257" y2="100.003" gradientTransform="matrix(20 0 0 -20 1336.5625 1999.5034)">
		<stop  offset="0.108" style="stop-color:#C757BC"/>
		<stop  offset="0.173" style="stop-color:#CD5CA9"/>
		<stop  offset="0.492" style="stop-color:#E8744F"/>
		<stop  offset="0.716" style="stop-color:#F88316"/>
		<stop  offset="0.823" style="stop-color:#FF8900"/>
	</linearGradient>
	<path display="inline" fill="url(#SVGID_23_)" d="M18.483-0.145L0,19.292v17.376l18.456-18.489L36.813-0.145H18.483z"/>
	
		<linearGradient id="SVGID_24_" gradientUnits="userSpaceOnUse" x1="-66.2407" y1="97.8091" x2="-65.4056" y2="98.6442" gradientTransform="matrix(20 0 0 -20 1336.5625 1999.5034)">
		<stop  offset="0.296" style="stop-color:#00AFFF"/>
		<stop  offset="0.694" style="stop-color:#5282FF"/>
		<stop  offset="1" style="stop-color:#945DFF"/>
	</linearGradient>
	<path display="inline" fill="url(#SVGID_24_)" d="M0,36.667L18.456,18.18l18.356,18.488H0z"/>
	
		<linearGradient id="SVGID_25_" gradientUnits="userSpaceOnUse" x1="-66.8496" y1="99.4751" x2="-66.2639" y2="100.0608" gradientTransform="matrix(20 0 0 -20 1336.5625 1999.5034)">
		<stop  offset="0.296" style="stop-color:#00AFFF"/>
		<stop  offset="0.694" style="stop-color:#5282FF"/>
		<stop  offset="1" style="stop-color:#945DFF"/>
	</linearGradient>
	<path display="inline" fill="url(#SVGID_25_)" d="M0-0.145h18.483L0,19.292V-0.145z"/>
</g>
</svg>
