<?xml version="1.0" encoding="utf-8"?>
<!-- Generator: Adobe Illustrator 15.1.0, SVG Export Plug-In . SVG Version: 6.00 Build 0)  -->
<!DOCTYPE svg PUBLIC "-//W3C//DTD SVG 1.1//EN" "http://www.w3.org/Graphics/SVG/1.1/DTD/svg11.dtd">
<svg version="1.1" id="Layer_1" xmlns="http://www.w3.org/2000/svg" xmlns:xlink="http://www.w3.org/1999/xlink" x="0px" y="0px"
	 width="36.625px" height="36.667px" viewBox="0 0 36.625 36.667" enable-background="new 0 0 36.625 36.667" xml:space="preserve">
<g id="Layer_9">
	
		<linearGradient id="SVGID_1_" gradientUnits="userSpaceOnUse" x1="-1997.1655" y1="35.604" x2="-1990.4689" y2="29.8426" gradientTransform="matrix(2.9618 0 0 -2.9907 5914.4878 107.4948)">
		<stop  offset="0" style="stop-color:#5A9FD4"/>
		<stop  offset="1" style="stop-color:#306998"/>
	</linearGradient>
	<path fill="url(#SVGID_1_)" d="M17.953,0c-1.484,0.007-2.899,0.134-4.145,0.354C10.137,1.002,9.471,2.36,9.471,4.862v3.306h8.672
		V9.27H6.216c-2.52,0-4.728,1.515-5.418,4.397c-0.796,3.303-0.832,5.366,0,8.815c0.617,2.566,2.089,4.396,4.61,4.396H8.39v-3.963
		c0-2.862,2.477-5.389,5.419-5.389h8.664c2.41,0,4.336-1.985,4.336-4.408V4.863c0-2.35-1.982-4.116-4.336-4.509
		C20.98,0.107,19.436-0.006,17.953,0L17.953,0z M13.262,2.66c0.896,0,1.627,0.744,1.627,1.657c0,0.912-0.732,1.648-1.627,1.648
		c-0.899,0-1.628-0.736-1.628-1.648C11.634,3.403,12.363,2.66,13.262,2.66L13.262,2.66z"/>
	
		<linearGradient id="SVGID_2_" gradientUnits="userSpaceOnUse" x1="-1987.8765" y1="26.353" x2="-1990.2683" y2="29.7371" gradientTransform="matrix(2.9618 0 0 -2.9907 5914.4878 107.4948)">
		<stop  offset="0" style="stop-color:#FFD43B"/>
		<stop  offset="1" style="stop-color:#FFE873"/>
	</linearGradient>
	<path fill="url(#SVGID_2_)" d="M27.889,9.271v3.851c0,2.986-2.531,5.499-5.418,5.499h-8.663c-2.373,0-4.337,2.032-4.337,4.408v8.26
		c0,2.352,2.044,3.732,4.337,4.405c2.745,0.81,5.375,0.955,8.663,0c2.184-0.63,4.338-1.901,4.338-4.405v-3.307h-8.665V26.88h13
		c2.521,0,3.459-1.758,4.336-4.396c0.906-2.718,0.869-5.33,0-8.816c-0.623-2.509-1.813-4.396-4.336-4.396L27.889,9.271L27.889,9.271
		z M23.018,30.187c0.898,0,1.627,0.734,1.627,1.646c0,0.914-0.729,1.658-1.627,1.658c-0.896,0-1.629-0.744-1.629-1.658
		C21.389,30.923,22.12,30.187,23.018,30.187z"/>
</g>
</svg>
