<?xml version="1.0" encoding="utf-8"?>
<!-- Generator: Adobe Illustrator 15.1.0, SVG Export Plug-In . SVG Version: 6.00 Build 0)  -->
<!DOCTYPE svg PUBLIC "-//W3C//DTD SVG 1.1//EN" "http://www.w3.org/Graphics/SVG/1.1/DTD/svg11.dtd">
<svg version="1.1" id="Layer_1" xmlns="http://www.w3.org/2000/svg" xmlns:xlink="http://www.w3.org/1999/xlink" x="0px" y="0px"
	 width="129.833px" height="36.667px" viewBox="0 0 129.833 36.667" enable-background="new 0 0 129.833 36.667"
	 xml:space="preserve">
<g id="Python">
	<path fill="#646464" d="M48.543,15.581c0-3.867-1.102-5.853-3.308-5.961c-0.878-0.042-1.734,0.099-2.568,0.423
		c-0.666,0.237-1.113,0.474-1.349,0.711v9.231c1.411,0.886,2.664,1.298,3.756,1.231C47.386,21.063,48.543,19.186,48.543,15.581z
		 M51.264,15.741c0,1.966-0.46,3.596-1.388,4.893c-1.032,1.469-2.464,2.225-4.294,2.266c-1.38,0.043-2.801-0.389-4.263-1.294v8.39
		l-2.366-0.845V10.528c0.388-0.476,0.888-0.885,1.494-1.232c1.408-0.821,3.119-1.243,5.133-1.263l0.033,0.033
		c1.841-0.023,3.259,0.732,4.256,2.265C50.798,11.737,51.264,13.539,51.264,15.741L51.264,15.741z M65.724,21.248
		c0,2.637-0.265,4.461-0.792,5.476c-0.53,1.014-1.541,1.823-3.031,2.428c-1.208,0.478-2.517,0.735-3.919,0.779l-0.391-1.49
		c1.426-0.194,2.431-0.39,3.013-0.583c1.147-0.389,1.934-0.982,2.367-1.781c0.347-0.648,0.517-1.889,0.517-3.725v-0.615
		c-1.618,0.735-3.313,1.1-5.086,1.1c-1.166,0-2.193-0.363-3.078-1.1c-0.994-0.801-1.491-1.814-1.491-3.045V8.843l2.366-0.81v9.912
		c0,1.059,0.341,1.874,1.024,2.445c0.684,0.572,1.569,0.848,2.654,0.826c1.084-0.023,2.247-0.443,3.481-1.264V8.389h2.366V21.248
		L65.724,21.248z M74.959,22.769c-0.26,0.021-0.52,0.033-0.78,0.034c-1.339,0-2.382-0.319-3.126-0.958
		c-0.743-0.639-1.116-1.521-1.116-2.646V9.878h-1.62V8.39h1.62V4.437l2.362-0.841V8.39h2.66v1.488h-2.66v9.254
		c0,0.889,0.238,1.518,0.716,1.885c0.407,0.303,1.06,0.477,1.942,0.521L74.959,22.769L74.959,22.769z M89.286,22.576h-2.367v-9.133
		c0-0.93-0.217-1.729-0.649-2.397c-0.498-0.756-1.192-1.134-2.082-1.134c-1.086,0-2.44,0.571-4.069,1.716v10.948H77.75V0.746
		L80.116,0v9.943c1.512-1.1,3.164-1.652,4.957-1.652c1.254,0,2.268,0.422,3.045,1.263c0.779,0.841,1.168,1.89,1.168,3.143V22.576
		L89.286,22.576L89.286,22.576z M101.86,15.208c0-1.486-0.283-2.713-0.844-3.684c-0.668-1.183-1.705-1.807-3.107-1.872
		c-2.596,0.15-3.889,2.009-3.889,5.57c0,1.634,0.27,2.998,0.813,4.093c0.691,1.396,1.732,2.084,3.121,2.062
		C100.559,21.356,101.86,19.3,101.86,15.208L101.86,15.208z M104.452,15.223c0,2.115-0.543,3.876-1.621,5.28
		c-1.188,1.574-2.83,2.363-4.922,2.363c-2.078,0-3.695-0.789-4.863-2.363c-1.059-1.404-1.586-3.166-1.586-5.28
		c0-1.987,0.572-3.66,1.715-5.021c1.209-1.444,2.8-2.168,4.765-2.168s3.563,0.725,4.797,2.168
		C103.879,11.563,104.452,13.236,104.452,15.223L104.452,15.223z M118.014,22.576h-2.365v-9.65c0-1.059-0.316-1.884-0.955-2.48
		c-0.637-0.593-1.486-0.88-2.545-0.857c-1.123,0.021-2.193,0.389-3.207,1.101v11.886h-2.365v-12.18
		c1.361-0.991,2.615-1.638,3.758-1.941c1.08-0.282,2.033-0.421,2.854-0.421c0.562,0,1.09,0.053,1.586,0.163
		c0.931,0.214,1.687,0.613,2.267,1.198c0.649,0.647,0.975,1.423,0.975,2.332v10.849H118.014z"/>
	
		<linearGradient id="SVGID_1_" gradientUnits="userSpaceOnUse" x1="-1927.6494" y1="40.1587" x2="-1922.1506" y2="35.4278" gradientTransform="matrix(2.9618 0 0 -2.9907 5709.564 121.7623)">
		<stop  offset="0" style="stop-color:#5A9FD4"/>
		<stop  offset="1" style="stop-color:#306998"/>
	</linearGradient>
	<path fill="url(#SVGID_1_)" d="M15.585,0.833c-1.218,0.006-2.38,0.11-3.402,0.291C9.169,1.656,8.622,2.771,8.622,4.825v2.714h7.12
		v0.905H5.95c-2.069,0-3.881,1.244-4.449,3.61c-0.653,2.712-0.683,4.405,0,7.236C2.007,21.398,3.216,22.9,5.286,22.9h2.448v-3.254
		c0-2.35,2.033-4.423,4.449-4.423h7.112c1.979,0,3.56-1.63,3.56-3.619V4.825c0-1.929-1.628-3.379-3.56-3.701
		C18.071,0.92,16.802,0.827,15.585,0.833L15.585,0.833z M11.734,3.016c0.735,0,1.336,0.61,1.336,1.361
		c0,0.748-0.601,1.353-1.336,1.353c-0.738,0-1.336-0.604-1.336-1.353C10.398,3.626,10.996,3.016,11.734,3.016L11.734,3.016z"/>
	
		<linearGradient id="SVGID_2_" gradientUnits="userSpaceOnUse" x1="-1920.022" y1="32.5659" x2="-1921.9852" y2="35.3436" gradientTransform="matrix(2.9618 0 0 -2.9907 5709.564 121.7623)">
		<stop  offset="0" style="stop-color:#FFD43B"/>
		<stop  offset="1" style="stop-color:#FFE873"/>
	</linearGradient>
	<path fill="url(#SVGID_2_)" d="M23.743,8.444v3.162c0,2.452-2.078,4.514-4.448,4.514h-7.112c-1.948,0-3.561,1.668-3.561,3.62v6.779
		c0,1.93,1.678,3.064,3.561,3.618c2.253,0.663,4.415,0.782,7.112,0c1.792-0.519,3.56-1.563,3.56-3.618v-2.714h-7.113v-0.904h10.673
		c2.07,0,2.84-1.444,3.561-3.608c0.743-2.231,0.712-4.376,0-7.238c-0.512-2.06-1.488-3.609-3.561-3.609L23.743,8.444L23.743,8.444z
		 M19.743,25.615c0.738,0,1.336,0.604,1.336,1.354s-0.598,1.359-1.336,1.359c-0.736,0-1.336-0.609-1.336-1.359
		C18.407,26.22,19.007,25.615,19.743,25.615z"/>
	<path fill="#646464" d="M122.622,6.28h0.414V3.679h0.982v-0.31h-2.379v0.31h0.982V6.28 M124.387,6.28h0.354V3.905l0.771,2.375
		h0.395l0.804-2.368V6.28h0.387V3.369h-0.512l-0.875,2.495l-0.75-2.495h-0.57V6.28"/>
	
		<radialGradient id="SVGID_3_" cx="-3534.0161" cy="350.4067" r="1.4651" gradientTransform="matrix(0 -1.2632 -5.5534 0 1961.7721 -4429.3394)" gradientUnits="userSpaceOnUse">
		<stop  offset="0" style="stop-color:#B8B8B8;stop-opacity:0.498"/>
		<stop  offset="1" style="stop-color:#7F7F7F;stop-opacity:0"/>
	</radialGradient>
	<path opacity="0.444" fill="url(#SVGID_3_)" enable-background="new    " d="M25.366,34.748c0,1.021-4.272,1.851-9.543,1.851
		c-5.27,0-9.542-0.828-9.542-1.851c0-1.021,4.272-1.851,9.542-1.851C21.093,32.897,25.366,33.725,25.366,34.748z"/>
</g>
</svg>
