<?xml version="1.0" encoding="utf-8"?>
<!-- Generator: Adobe Illustrator 15.1.0, SVG Export Plug-In . SVG Version: 6.00 Build 0)  -->
<!DOCTYPE svg PUBLIC "-//W3C//DTD SVG 1.1//EN" "http://www.w3.org/Graphics/SVG/1.1/DTD/svg11.dtd">
<svg version="1.1" xmlns="http://www.w3.org/2000/svg" xmlns:xlink="http://www.w3.org/1999/xlink" x="0px" y="0px"
	 width="129.833px" height="36.667px" viewBox="0 0 129.833 36.667" enable-background="new 0 0 129.833 36.667"
	 xml:space="preserve">
<g id="Kotlin" display="none">
	<linearGradient id="SVGID_1_" gradientUnits="userSpaceOnUse" x1="0.021" y1="36.896" x2="18.4377" y2="18.4792">
		<stop  offset="0" style="stop-color:#00CBFB"/>
		<stop  offset="0.167" style="stop-color:#12BEFB"/>
		<stop  offset="0.5017" style="stop-color:#409BFC"/>
		<stop  offset="0.9696" style="stop-color:#8B63FD"/>
		<stop  offset="1" style="stop-color:#905FFD"/>
	</linearGradient>
	<polygon display="inline" fill="url(#SVGID_1_)" points="36.625,36.667 0.167,37.042 0.167,0.375 	"/>
	<linearGradient id="SVGID_2_" gradientUnits="userSpaceOnUse" x1="-9.1973" y1="27.5942" x2="27.511" y2="-9.114">
		<stop  offset="0" style="stop-color:#00CBFB"/>
		<stop  offset="0.1107" style="stop-color:#04C8FB"/>
		<stop  offset="0.2176" style="stop-color:#0FBFFB"/>
		<stop  offset="0.3231" style="stop-color:#23B1FB"/>
		<stop  offset="0.4276" style="stop-color:#3E9CFC"/>
		<stop  offset="0.5315" style="stop-color:#6182FC"/>
		<stop  offset="0.6336" style="stop-color:#8C62FD"/>
		<stop  offset="0.6424" style="stop-color:#905FFD"/>
	</linearGradient>
	<polygon display="inline" fill="url(#SVGID_2_)" points="0,36.792 0,0 36.625,0 	"/>
	<linearGradient id="SVGID_3_" gradientUnits="userSpaceOnUse" x1="0.1094" y1="18.188" x2="36.625" y2="18.188">
		<stop  offset="0" style="stop-color:#C757BC"/>
		<stop  offset="0.087" style="stop-color:#CF5F9F"/>
		<stop  offset="0.2434" style="stop-color:#DC6C71"/>
		<stop  offset="0.4005" style="stop-color:#E6764B"/>
		<stop  offset="0.5557" style="stop-color:#EE7E2E"/>
		<stop  offset="0.7085" style="stop-color:#F48419"/>
		<stop  offset="0.858" style="stop-color:#F8880C"/>
		<stop  offset="1" style="stop-color:#F98908"/>
	</linearGradient>
	<polygon display="inline" fill="url(#SVGID_3_)" points="0.167,36.375 0.109,19.875 20.219,0 36.625,0 	"/>
	
		<text transform="matrix(1 0 0 1 35.9175 25.6548)" display="inline" fill="#EAEAEA" font-family="'MyriadPro-Regular'" font-size="23.1874">Kotlin</text>
</g>
<g id="Android" display="none">
	<g display="inline">
		<path fill="#333333" d="M88.379,24.393c-3.044,0-5.521-2.573-5.521-5.736c0-3.162,2.477-5.735,5.521-5.735s5.52,2.573,5.52,5.735
			C93.899,21.82,91.423,24.393,88.379,24.393z M88.379,16.023c-1.381,0-2.505,1.182-2.505,2.634s1.124,2.634,2.505,2.634
			s2.504-1.182,2.504-2.634S89.76,16.023,88.379,16.023z M42.79,16.428h-3.041c-1.495,0-2.667,1.043-2.667,2.375
			c0,1.331,1.188,2.374,2.703,2.374h2.24v3.21h-2.248c-3.307,0-5.998-2.505-5.998-5.584s2.691-5.585,5.998-5.585h6.207v11.169
			l-3.194,0.001V16.428z M95.35,24.387V13.218h3.2v11.169H95.35z M55.353,24.387l0-6.128c0-1.599-1.35-2.589-2.601-2.589
			c-1.266,0-2.632,0.99-2.632,2.589v6.128h-3.146v-6.006c0-3.214,2.43-5.546,5.778-5.546s5.778,2.332,5.778,5.546v6.006H55.353z
			 M78.401,24.386v-0.271c-0.085-0.095-0.128-0.204-0.132-0.328l-0.003-0.128l0.058-0.114c0.045-0.087,0.039-0.24,0.031-0.418
			l-0.006-0.235c0-0.729-0.543-1.337-1.263-1.415l-5.422,0.003l0.003-3.03h5.457c1.649,0,1.649-0.547,1.649-1.075
			c0-0.466,0-0.947-1.713-0.947h-5.456v-3.211h5.336c2.43,0,4.913,0.498,4.913,4.188c0,1.478-0.37,2.495-1.157,3.148
			c1.053,1.479,0.687,3.463,0.68,3.483l-0.11,0.35H78.401z M99.725,24.365v-3.188l5.455,0.001c1.611,0,2.184-1.33,2.184-2.469
			c0-0.686-0.21-2.28-2.153-2.28h-5.455v-3.21h5.338c3.151,0,5.352,2.271,5.352,5.521c0,3.259-2.264,5.625-5.382,5.626H99.725z
			 M59.7,24.365v-3.188l5.455,0.001c1.612,0,2.185-1.33,2.185-2.469c0-0.686-0.21-2.28-2.155-2.28H59.73v-3.21h5.337
			c3.15,0,5.351,2.271,5.351,5.521c0,3.259-2.262,5.625-5.379,5.626H59.7z"/>
		<path fill="#FFFFFF" d="M52.752,13.335c2.916,0,5.278,2.006,5.278,5.046v5.506h-2.178l0-5.628c0-1.959-1.644-3.089-3.101-3.089
			c-1.458,0-3.132,1.13-3.132,3.089v5.628h-2.146v-5.506C47.475,15.341,49.838,13.335,52.752,13.335 M88.379,13.421
			c2.772,0,5.02,2.345,5.02,5.235c0,2.892-2.247,5.236-5.02,5.236s-5.021-2.345-5.021-5.236
			C83.359,15.766,85.607,13.421,88.379,13.421 M88.379,21.791c1.658,0,3.004-1.402,3.004-3.134c0-1.73-1.346-3.134-3.004-3.134
			c-1.659,0-3.005,1.403-3.005,3.134C85.375,20.388,86.72,21.791,88.379,21.791 M76.942,13.716c2.916,0,4.413,0.869,4.413,3.688
			c0,1.603-0.464,2.539-1.399,3.048c1.309,1.27,0.945,3.434,0.945,3.434l0,0h-2c0-0.038-0.131-0.076-0.132-0.112
			c0.136-0.265,0.08-0.563,0.08-0.882c0-0.992-0.749-1.809-1.709-1.912c-0.046,0-0.091,0-0.138,0h-4.837l0.002-2.03h4.957
			c1.878,0,2.149-0.727,2.149-1.575c0-0.85-0.336-1.447-2.213-1.447h-4.956v-2.211H76.942 M105.093,13.718
			c2.914,0,4.852,2.089,4.852,5.021c0,2.931-1.966,5.125-4.882,5.126h-4.838v-2.188l4.955,0.001c1.878,0,2.684-1.504,2.684-2.969
			s-0.776-2.78-2.653-2.78h-4.955v-2.21H105.093 M98.05,13.718v10.169h-2.2V13.718H98.05 M65.067,13.718
			c2.916,0,4.851,2.089,4.851,5.021c0,2.931-1.964,5.125-4.879,5.126H60.2v-2.188l4.955,0.001c1.879,0,2.685-1.504,2.685-2.969
			s-0.777-2.78-2.655-2.78H60.23v-2.21H65.067 M45.484,13.718v10.169l-2.194,0.001v-7.96h-3.541c-1.763,0-3.167,1.242-3.167,2.875
			c0,1.631,1.438,2.874,3.203,2.874h1.74v2.21h-1.748c-3.036,0-5.498-2.276-5.498-5.084c0-2.809,2.461-5.085,5.498-5.085H45.484
			 M52.752,12.335c-3.457,0-6.093,2.426-6.269,5.697v-4.314v-1h-1h-5.707c-3.583,0-6.498,2.729-6.498,6.085
			c0,3.354,2.915,6.084,6.498,6.084h1.748h0.764v0.001h1l2.194-0.001h0.99l0,0h1h2.146h1v-1v-5.628c0-1.425,1.272-2.089,2.132-2.089
			c0.873,0,2.101,0.648,2.101,2.089l0,5.628v1h1h2.178h1v-1v-5.506C59.031,14.935,56.332,12.335,52.752,12.335L52.752,12.335z
			 M39.785,20.677c-1.235,0-2.203-0.823-2.203-1.874c0-1.069,0.931-1.875,2.167-1.875h2.541v3.749h-0.764H39.785L39.785,20.677z
			 M88.379,12.421c-3.319,0-6.021,2.797-6.021,6.235s2.701,6.236,6.021,6.236s6.02-2.798,6.02-6.236S91.699,12.421,88.379,12.421
			L88.379,12.421z M88.379,20.791c-1.105,0-2.005-0.957-2.005-2.134s0.899-2.134,2.005-2.134c1.104,0,2.004,0.957,2.004,2.134
			S89.484,20.791,88.379,20.791L88.379,20.791z M76.942,12.716h-4.836h-1v1v2.211v1h1h4.956c0.97,0,1.179,0.18,1.188,0.188l0,0
			c-0.002,0,0.025,0.062,0.025,0.26c0,0.383,0,0.575-1.149,0.575h-4.957h-0.999l-0.001,0.999l-0.002,2.03l-0.001,1.001h1.001h4.837
			h0.074c0.443,0.069,0.772,0.454,0.772,0.912c0,0.087,0.003,0.172,0.007,0.256c0.003,0.069,0.006,0.16,0.004,0.208l-0.098,0.189
			l0.007,0.256c0.004,0.118,0.029,0.294,0.132,0.474v0.611h1h2h0.674l0.253-0.624c0.084-0.206,0.385-2.067-0.49-3.631
			c0.684-0.746,1.018-1.813,1.018-3.227C82.355,13.203,79.266,12.716,76.942,12.716L76.942,12.716z M105.093,12.718h-4.838h-1v1
			v2.21v1h1h4.955c1.097,0,1.653,0.599,1.653,1.78c0,0.462-0.121,1.969-1.684,1.969l-4.955-0.001h-1v1v2.188v1h1h4.838
			c3.408-0.001,5.882-2.577,5.882-6.126C110.945,15.194,108.539,12.718,105.093,12.718L105.093,12.718z M99.05,12.718h-1h-2.2h-1v1
			v10.169v1h1h2.2h1v-1V13.718V12.718L99.05,12.718z M65.067,12.718H60.23h-1v1v2.21v1h1h4.955c1.098,0,1.655,0.599,1.655,1.78
			c0,0.462-0.122,1.969-1.685,1.969L60.2,20.676h-1v1v2.188v1h1h4.839c3.407-0.001,5.879-2.577,5.879-6.126
			C70.918,15.194,68.512,12.718,65.067,12.718L65.067,12.718z"/>
	</g>
	<path display="inline" fill="#8FC31F" d="M19.821,3.603"/>
	<circle display="inline" fill="#8FC31F" stroke="#FFFFFF" stroke-width="2" cx="11.75" cy="8.164" r="0.406"/>
	<circle display="inline" fill="#8FC31F" stroke="#FFFFFF" stroke-width="2" cx="20.275" cy="8.164" r="0.406"/>
	<path display="inline" fill="#A4C639" d="M11.978,22.688c1.035,0,1.875,0.924,1.875,2.063v8.852c0,1.14-0.84,2.063-1.875,2.063
		c-1.036,0-1.875-0.924-1.875-2.063v-8.852C10.103,23.612,10.941,22.688,11.978,22.688L11.978,22.688z"/>
	<path display="inline" fill="#A4C639" d="M7.267,12.046c-0.007,0.078-0.013,0.157-0.013,0.236v13.412
		c0,1.441,1.142,2.604,2.559,2.604h13.638c1.417,0,2.559-1.162,2.559-2.604V12.283c0-0.079-0.003-0.158-0.01-0.236H7.267
		L7.267,12.046z"/>
	<path display="inline" fill="#A4C639" d="M21.286,22.688c1.036,0,1.875,0.924,1.875,2.063v8.852c0,1.14-0.839,2.063-1.875,2.063
		c-1.035,0-1.875-0.924-1.875-2.063v-8.852C19.412,23.612,20.251,22.688,21.286,22.688L21.286,22.688z M3.938,13.24
		c1.035,0,1.875,0.924,1.875,2.063v8.852c0,1.14-0.84,2.063-1.875,2.063s-1.875-0.924-1.875-2.063v-8.852
		C2.063,14.164,2.903,13.24,3.938,13.24L3.938,13.24z M29.325,13.24c1.035,0,1.875,0.924,1.875,2.063v8.852
		c0,1.14-0.84,2.063-1.875,2.063s-1.875-0.924-1.875-2.063v-8.852C27.45,14.164,28.29,13.24,29.325,13.24L29.325,13.24z
		 M7.327,11.165c0.058-4.119,3.653-7.496,8.268-7.941h2.074c4.616,0.445,8.21,3.823,8.268,7.941H7.327z"/>
	<path display="inline" fill="none" stroke="#A4C639" stroke-linecap="round" stroke-linejoin="round" d="M8.044,2.825l2.177,3.771
		 M25.219,2.825l-2.177,3.771"/>
	<path display="inline" fill="#FFFFFF" d="M13.86,7.473c0.002,0.576-0.475,1.044-1.065,1.045c-0.589,0.002-1.068-0.463-1.07-1.04
		V7.473C11.723,6.898,12.2,6.429,12.79,6.428c0.589-0.002,1.069,0.463,1.07,1.04V7.473z M21.828,7.473
		c0.002,0.576-0.474,1.044-1.064,1.045c-0.59,0.002-1.069-0.463-1.071-1.04V7.473c-0.001-0.575,0.475-1.044,1.064-1.045
		c0.589-0.002,1.069,0.463,1.07,1.04V7.473z"/>
</g>
<g id="Android_Studio" display="none">
	<g display="inline">
		<defs>
			<path id="SVGID_4_" d="M31.367,33.189L31.367,33.189l-2.448-4.227c3.568-3.016,5.837-7.51,5.837-12.539
				C34.756,7.361,27.396,0,18.334,0C9.271,0,1.911,7.361,1.911,16.423c0,5.029,2.269,9.539,5.837,12.555L5.3,33.203
				c-0.075,0.135-0.119,0.27-0.134,0.418l-0.209,2.762c-0.016,0.105,0.045,0.195,0.134,0.254l0,0l0,0
				c0.09,0.061,0.194,0.045,0.284-0.014l2.299-1.553c0.119-0.09,0.225-0.195,0.299-0.314l0,0l2.314-4
				c2.373,1.344,5.12,2.104,8.047,2.104c2.926,0,5.673-0.775,8.062-2.119l2.314,4.002c0.074,0.133,0.179,0.238,0.298,0.313
				l2.3,1.568c0.089,0.059,0.194,0.059,0.283,0.014l0,0l0,0c0.09-0.059,0.135-0.148,0.135-0.254l-0.209-2.762
				C31.486,33.472,31.457,33.322,31.367,33.189z"/>
		</defs>
		<clipPath id="SVGID_5_">
			<use xlink:href="#SVGID_4_"  overflow="visible"/>
		</clipPath>
		<path clip-path="url(#SVGID_5_)" fill="#7CB342" d="M18.334,0C9.271,0,1.911,7.361,1.911,16.423h16.423h16.422
			C34.771,7.345,27.411,0,18.334,0z"/>
	</g>
	<g display="inline">
		<defs>
			<path id="SVGID_6_" d="M31.367,33.189L31.367,33.189l-2.448-4.227c3.568-3.016,5.837-7.51,5.837-12.539
				C34.756,7.361,27.396,0,18.334,0C9.271,0,1.911,7.361,1.911,16.423c0,5.029,2.269,9.539,5.837,12.555L5.3,33.203
				c-0.075,0.135-0.119,0.27-0.134,0.418l-0.209,2.762c-0.016,0.105,0.045,0.195,0.134,0.254l0,0l0,0
				c0.09,0.061,0.194,0.045,0.284-0.014l2.299-1.553c0.119-0.09,0.225-0.195,0.299-0.314l0,0l2.314-4
				c2.373,1.344,5.12,2.104,8.047,2.104c2.926,0,5.673-0.775,8.062-2.119l2.314,4.002c0.074,0.133,0.179,0.238,0.298,0.313
				l2.3,1.568c0.089,0.059,0.194,0.059,0.283,0.014l0,0l0,0c0.09-0.059,0.135-0.148,0.135-0.254l-0.209-2.762
				C31.486,33.472,31.457,33.322,31.367,33.189z"/>
		</defs>
		<clipPath id="SVGID_7_">
			<use xlink:href="#SVGID_6_"  overflow="visible"/>
		</clipPath>
		<path clip-path="url(#SVGID_7_)" fill="#8BC34A" d="M18.334,16.423H1.911c0,9.061,7.36,16.422,16.423,16.422
			c9.062,0,16.422-7.361,16.422-16.422H18.334z"/>
	</g>
	<g display="inline">
		<defs>
			<path id="SVGID_8_" d="M31.367,33.189L31.367,33.189l-2.448-4.227c3.568-3.016,5.837-7.51,5.837-12.539
				C34.756,7.361,27.396,0,18.334,0C9.271,0,1.911,7.361,1.911,16.423c0,5.029,2.269,9.539,5.837,12.555L5.3,33.203
				c-0.075,0.135-0.119,0.27-0.134,0.418l-0.209,2.762c-0.016,0.105,0.045,0.195,0.134,0.254l0,0l0,0
				c0.09,0.061,0.194,0.045,0.284-0.014l2.299-1.553c0.119-0.09,0.225-0.195,0.299-0.314l0,0l2.314-4
				c2.373,1.344,5.12,2.104,8.047,2.104c2.926,0,5.673-0.775,8.062-2.119l2.314,4.002c0.074,0.133,0.179,0.238,0.298,0.313
				l2.3,1.568c0.089,0.059,0.194,0.059,0.283,0.014l0,0l0,0c0.09-0.059,0.135-0.148,0.135-0.254l-0.209-2.762
				C31.486,33.472,31.457,33.322,31.367,33.189z"/>
		</defs>
		<clipPath id="SVGID_9_">
			<use xlink:href="#SVGID_8_"  overflow="visible"/>
		</clipPath>
		<path opacity="0.2" clip-path="url(#SVGID_9_)" fill="#FFFFFF" enable-background="new    " d="M18.334,0.179
			c9.032,0,16.377,7.301,16.422,16.332c0-0.029,0-0.059,0-0.088C34.756,7.361,27.396,0,18.334,0
			C9.271-0.014,1.911,7.345,1.911,16.423c0,0.029,0,0.059,0,0.088C1.971,7.496,9.301,0.179,18.334,0.179z"/>
	</g>
	<g display="inline">
		<defs>
			<path id="SVGID_10_" d="M31.367,33.189L31.367,33.189l-2.448-4.227c3.568-3.016,5.837-7.51,5.837-12.539
				C34.756,7.361,27.396,0,18.334,0C9.271,0,1.911,7.361,1.911,16.423c0,5.029,2.269,9.539,5.837,12.555L5.3,33.203
				c-0.075,0.135-0.119,0.27-0.134,0.418l-0.209,2.762c-0.016,0.105,0.045,0.195,0.134,0.254l0,0l0,0
				c0.09,0.061,0.194,0.045,0.284-0.014l2.299-1.553c0.119-0.09,0.225-0.195,0.299-0.314l0,0l2.314-4
				c2.373,1.344,5.12,2.104,8.047,2.104c2.926,0,5.673-0.775,8.062-2.119l2.314,4.002c0.074,0.133,0.179,0.238,0.298,0.313
				l2.3,1.568c0.089,0.059,0.194,0.059,0.283,0.014l0,0l0,0c0.09-0.059,0.135-0.148,0.135-0.254l-0.209-2.762
				C31.486,33.472,31.457,33.322,31.367,33.189z"/>
		</defs>
		<clipPath id="SVGID_11_">
			<use xlink:href="#SVGID_10_"  overflow="visible"/>
		</clipPath>
		<path opacity="0.2" clip-path="url(#SVGID_11_)" fill="#263238" enable-background="new    " d="M18.334,32.65
			c-9.033,0-16.379-7.299-16.423-16.332c0,0.029,0,0.061,0,0.09c0,9.063,7.36,16.422,16.423,16.422
			c9.062,0,16.422-7.359,16.422-16.422c0-0.029,0-0.061,0-0.09C34.711,25.351,27.381,32.65,18.334,32.65z"/>
	</g>
	<g display="inline">
		<defs>
			<path id="SVGID_12_" d="M31.367,33.189L31.367,33.189l-2.448-4.227c3.568-3.016,5.837-7.51,5.837-12.539
				C34.756,7.361,27.396,0,18.334,0C9.271,0,1.911,7.361,1.911,16.423c0,5.029,2.269,9.539,5.837,12.555L5.3,33.203
				c-0.075,0.135-0.119,0.27-0.134,0.418l-0.209,2.762c-0.016,0.105,0.045,0.195,0.134,0.254l0,0l0,0
				c0.09,0.061,0.194,0.045,0.284-0.014l2.299-1.553c0.119-0.09,0.225-0.195,0.299-0.314l0,0l2.314-4
				c2.373,1.344,5.12,2.104,8.047,2.104c2.926,0,5.673-0.775,8.062-2.119l2.314,4.002c0.074,0.133,0.179,0.238,0.298,0.313
				l2.3,1.568c0.089,0.059,0.194,0.059,0.283,0.014l0,0l0,0c0.09-0.059,0.135-0.148,0.135-0.254l-0.209-2.762
				C31.486,33.472,31.457,33.322,31.367,33.189z"/>
		</defs>
		<clipPath id="SVGID_13_">
			<use xlink:href="#SVGID_12_"  overflow="visible"/>
		</clipPath>
		<rect y="16.228" clip-path="url(#SVGID_13_)" fill="#263238" fill-opacity="0.05" width="36.667" height="0.195"/>
		<rect y="16.423" clip-path="url(#SVGID_13_)" fill="#FFFFFF" fill-opacity="0.05" width="36.667" height="0.193"/>
	</g>
	<g display="inline">
		<defs>
			<path id="SVGID_14_" d="M31.367,33.189L31.367,33.189l-2.448-4.227c3.568-3.016,5.837-7.51,5.837-12.539
				C34.756,7.361,27.396,0,18.334,0C9.271,0,1.911,7.361,1.911,16.423c0,5.029,2.269,9.539,5.837,12.555L5.3,33.203
				c-0.075,0.135-0.119,0.27-0.134,0.418l-0.209,2.762c-0.016,0.105,0.045,0.195,0.134,0.254l0,0l0,0
				c0.09,0.061,0.194,0.045,0.284-0.014l2.299-1.553c0.119-0.09,0.225-0.195,0.299-0.314l0,0l2.314-4
				c2.373,1.344,5.12,2.104,8.047,2.104c2.926,0,5.673-0.775,8.062-2.119l2.314,4.002c0.074,0.133,0.179,0.238,0.298,0.313
				l2.3,1.568c0.089,0.059,0.194,0.059,0.283,0.014l0,0l0,0c0.09-0.059,0.135-0.148,0.135-0.254l-0.209-2.762
				C31.486,33.472,31.457,33.322,31.367,33.189z"/>
		</defs>
		<clipPath id="SVGID_15_">
			<use xlink:href="#SVGID_14_"  overflow="visible"/>
		</clipPath>
		
			<linearGradient id="SVGID_16_" gradientUnits="userSpaceOnUse" x1="-176.5034" y1="2040.8276" x2="-85.0857" y2="2132.2454" gradientTransform="matrix(0.1999 0 0 0.1999 45.0943 -394.4508)">
			<stop  offset="0.33" style="stop-color:#263238;stop-opacity:0.16"/>
			<stop  offset="1" style="stop-color:#263238;stop-opacity:0"/>
		</linearGradient>
		<path clip-path="url(#SVGID_15_)" fill="url(#SVGID_16_)" d="M30.173,16.453c0-0.016,0-0.029,0-0.029h-0.762l-9.167-9.168l0,0l0,0
			h-1.91h-1.896v0.016v3.061h-0.971c-0.94,0-1.717,0.775-1.717,1.717v3.896h0.016c-0.016,0.135,0.074,0.299,0.254,0.492
			c0.014,0.016,0.014,0.016,0.014,0.031l0.598,0.596l-6.883,11.93c0.791,0.672,1.643,1.254,2.539,1.762
			c2.389,1.344,5.12,2.119,8.062,2.119c2.926,0,5.673-0.775,8.062-2.119c0.896-0.508,1.747-1.105,2.538-1.762
			c2.419-2.047,4.225-4.764,5.151-7.883c0.06-0.195,0.104-0.389,0.164-0.568L30.173,16.453z"/>
		
			<linearGradient id="SVGID_17_" gradientUnits="userSpaceOnUse" x1="-197.6377" y1="2096.8442" x2="-123.1065" y2="2070.408" gradientTransform="matrix(0.1999 0 0 0.1999 45.0943 -394.4508)">
			<stop  offset="0.33" style="stop-color:#263238;stop-opacity:0.16"/>
			<stop  offset="1" style="stop-color:#263238;stop-opacity:0"/>
		</linearGradient>
		<path clip-path="url(#SVGID_15_)" fill="url(#SVGID_17_)" d="M30.173,16.453c0-0.016,0-0.029,0-0.029h-0.762l-9.167-9.168l0,0l0,0
			h-1.91h-1.896v0.016v3.061h-0.971c-0.94,0-1.717,0.775-1.717,1.717v3.896h0.016c-0.016,0.135,0.074,0.299,0.254,0.492
			c0.014,0.016,0.014,0.016,0.014,0.031l0.598,0.596l-6.883,11.93c0.791,0.672,1.643,1.254,2.539,1.762
			c2.389,1.344,5.12,2.119,8.062,2.119c2.926,0,5.673-0.775,8.062-2.119c0.896-0.508,1.747-1.105,2.538-1.762
			c2.419-2.047,4.225-4.764,5.151-7.883c0.06-0.195,0.104-0.389,0.164-0.568L30.173,16.453z"/>
	</g>
	<g display="inline">
		<defs>
			<path id="SVGID_18_" d="M31.367,33.189L31.367,33.189l-2.448-4.227c3.568-3.016,5.837-7.51,5.837-12.539
				C34.756,7.361,27.396,0,18.334,0C9.271,0,1.911,7.361,1.911,16.423c0,5.029,2.269,9.539,5.837,12.555L5.3,33.203
				c-0.075,0.135-0.119,0.27-0.134,0.418l-0.209,2.762c-0.016,0.105,0.045,0.195,0.134,0.254l0,0l0,0
				c0.09,0.061,0.194,0.045,0.284-0.014l2.299-1.553c0.119-0.09,0.225-0.195,0.299-0.314l0,0l2.314-4
				c2.373,1.344,5.12,2.104,8.047,2.104c2.926,0,5.673-0.775,8.062-2.119l2.314,4.002c0.074,0.133,0.179,0.238,0.298,0.313
				l2.3,1.568c0.089,0.059,0.194,0.059,0.283,0.014l0,0l0,0c0.09-0.059,0.135-0.148,0.135-0.254l-0.209-2.762
				C31.486,33.472,31.457,33.322,31.367,33.189z"/>
		</defs>
		<clipPath id="SVGID_19_">
			<use xlink:href="#SVGID_18_"  overflow="visible"/>
		</clipPath>
		
			<g transform="matrix(1 0 0 1 -6.141988e-008 1.573097e-007)" opacity="0.2" clip-path="url(#SVGID_19_)" enable-background="new    ">
			
				<image overflow="visible" width="364" height="400" xlink:href="69828CCD.png"  transform="matrix(0.076 0 0 0.076 4.665 6.8687)">
			</image>
		</g>
		<path clip-path="url(#SVGID_19_)" fill="#646464" d="M31.502,33.621c-0.016-0.148-0.061-0.283-0.135-0.418l0,0l-4.777-8.285
			c2.209-2.15,3.598-5.166,3.598-8.494h-3.061c0,2.178-0.807,4.18-2.135,5.732l-2.956-5.105l0.597-0.598
			c0.194-0.193,0.27-0.373,0.27-0.508h0.015v-3.896c0-0.941-0.776-1.717-1.717-1.717h-0.956V7.271V7.255h-1.91h-1.896v0.016v3.061
			h-0.971c-0.94,0-1.717,0.775-1.717,1.717v3.896h0.016c-0.016,0.148,0.074,0.314,0.268,0.508l0.598,0.598L5.3,33.189
			c-0.075,0.133-0.119,0.268-0.134,0.418l-0.209,2.775c-0.016,0.105,0.045,0.195,0.134,0.254l0,0l0,0
			c0.09,0.061,0.194,0.045,0.284-0.014l2.299-1.553c0.119-0.09,0.225-0.195,0.299-0.314l0,0l4.613-7.986
			c1.701,0.955,3.672,1.508,5.763,1.508c2.09,0,4.061-0.553,5.763-1.508l4.613,7.973c0.074,0.133,0.179,0.238,0.299,0.313
			l2.299,1.568c0.089,0.059,0.194,0.059,0.283,0.014l0,0l0,0c0.09-0.059,0.135-0.148,0.135-0.254L31.502,33.621z M18.334,11.839
			V11.81l0.015,0.029c1.254,0.016,2.284,1.029,2.284,2.299s-1.03,2.285-2.284,2.299h-0.015l0,0c-1.254,0-2.285-1.029-2.285-2.299
			C16.049,12.855,17.064,11.839,18.334,11.839z M18.334,25.201c-1.538,0-2.986-0.402-4.226-1.09l2.776-4.807l0.582,0.582
			c0.24,0.238,0.553,0.357,0.852,0.357V20.23l0.016,0.014c0.313,0,0.627-0.119,0.851-0.357l0.582-0.582l2.777,4.822
			C21.319,24.812,19.871,25.201,18.334,25.201z"/>
	</g>
	<g display="inline">
		<defs>
			<path id="SVGID_20_" d="M31.367,33.189L31.367,33.189l-2.448-4.227c3.568-3.016,5.837-7.51,5.837-12.539
				C34.756,7.361,27.396,0,18.334,0C9.271,0,1.911,7.361,1.911,16.423c0,5.029,2.269,9.539,5.837,12.555L5.3,33.203
				c-0.075,0.135-0.119,0.27-0.134,0.418l-0.209,2.762c-0.016,0.105,0.045,0.195,0.134,0.254l0,0l0,0
				c0.09,0.061,0.194,0.045,0.284-0.014l2.299-1.553c0.119-0.09,0.225-0.195,0.299-0.314l0,0l2.314-4
				c2.373,1.344,5.12,2.104,8.047,2.104c2.926,0,5.673-0.775,8.062-2.119l2.314,4.002c0.074,0.133,0.179,0.238,0.298,0.313
				l2.3,1.568c0.089,0.059,0.194,0.059,0.283,0.014l0,0l0,0c0.09-0.059,0.135-0.148,0.135-0.254l-0.209-2.762
				C31.486,33.472,31.457,33.322,31.367,33.189z"/>
		</defs>
		<clipPath id="SVGID_21_">
			<use xlink:href="#SVGID_20_"  overflow="visible"/>
		</clipPath>
		<path clip-path="url(#SVGID_21_)" fill="#E1E1E1" d="M31.502,33.621c-0.016-0.148-0.061-0.283-0.135-0.418l0,0l-4.777-8.285
			l-1.583-2.762l-2.956-5.105l-2.254,2.254l2.776,4.822l1.523,2.643l4.613,7.973c0.074,0.133,0.179,0.238,0.298,0.313l2.3,1.568
			c0.089,0.059,0.194,0.059,0.283,0.014l0,0l0,0c0.09-0.059,0.135-0.148,0.135-0.254L31.502,33.621z"/>
		<path clip-path="url(#SVGID_21_)" fill="#FFFFFF" fill-opacity="0.4" d="M24.992,22.335l1.582,2.762l4.793,8.285l0,0
			c0.074,0.135,0.119,0.27,0.135,0.418l0.193,2.627c0-0.014,0.015-0.029,0.015-0.059l-0.208-2.762
			c-0.016-0.15-0.061-0.285-0.135-0.418l0,0l-4.777-8.287l-1.583-2.762l-2.956-5.105l-0.089,0.104L24.992,22.335z"/>
		<path clip-path="url(#SVGID_21_)" fill="#262626" fill-opacity="0.2" d="M31.576,36.427L31.576,36.427L31.576,36.427
			c-0.09,0.061-0.194,0.045-0.284-0.014l-2.299-1.568c-0.119-0.09-0.224-0.193-0.299-0.313l-4.613-7.973l-1.522-2.643l-2.688-4.688
			l-0.074,0.074l2.776,4.822l1.523,2.643l4.613,7.973c0.074,0.133,0.179,0.238,0.298,0.313l2.3,1.568
			c0.089,0.059,0.194,0.059,0.283,0.014l0,0l0,0c0.09-0.059,0.135-0.148,0.135-0.254L31.71,36.25
			C31.681,36.324,31.65,36.398,31.576,36.427z"/>
		<path clip-path="url(#SVGID_21_)" fill="#F1F1F1" d="M27.127,16.423c0,2.178-0.807,4.18-2.135,5.732
			c-0.687,0.791-1.493,1.463-2.419,1.971c-1.254,0.701-2.702,1.09-4.239,1.09c-1.538,0-2.986-0.404-4.226-1.09l2.776-4.822
			l-2.254-2.254L5.3,33.203c-0.075,0.135-0.119,0.27-0.134,0.418l-0.209,2.777c-0.016,0.105,0.045,0.195,0.134,0.254l0,0l0,0
			c0.09,0.061,0.194,0.045,0.284-0.016l2.299-1.553c0.119-0.088,0.225-0.193,0.299-0.313l0,0l4.613-7.988
			c1.701,0.957,3.672,1.51,5.763,1.51c2.09,0,4.061-0.553,5.763-1.51c0.91-0.508,1.747-1.135,2.479-1.85
			c2.209-2.15,3.598-5.166,3.598-8.496L27.127,16.423L27.127,16.423z"/>
		<path clip-path="url(#SVGID_21_)" fill="none" d="M19.199,19.886c-0.238,0.238-0.552,0.357-0.851,0.357l-0.015-0.014v0.014
			c-0.314,0-0.627-0.119-0.852-0.357L16.9,19.304l-2.777,4.807c1.254,0.701,2.703,1.09,4.226,1.09s2.985-0.402,4.24-1.09
			l-2.777-4.822L19.199,19.886z"/>
		<path clip-path="url(#SVGID_21_)" fill="#FFFFFF" fill-opacity="0.4" d="M5.3,33.382l9.436-16.258l-0.104-0.09L5.3,33.189
			c-0.075,0.133-0.119,0.268-0.134,0.418l-0.209,2.775c0,0.016,0.015,0.031,0.015,0.061l0.194-2.627
			C5.195,33.666,5.225,33.517,5.3,33.382z"/>
		<path clip-path="url(#SVGID_21_)" fill="#FFFFFF" fill-opacity="0.4" d="M18.334,25.396c1.537,0,2.985-0.404,4.239-1.09
			c0.911-0.508,1.732-1.18,2.419-1.971c1.328-1.539,2.135-3.539,2.135-5.734h3.046c0-0.059,0.015-0.133,0.015-0.193h-3.061
			c0,2.18-0.807,4.18-2.135,5.732c-0.687,0.791-1.493,1.463-2.419,1.971c-1.254,0.701-2.702,1.09-4.239,1.09
			c-1.508,0-2.912-0.389-4.15-1.061l-0.09,0.15C15.363,24.992,16.811,25.396,18.334,25.396z"/>
		<path clip-path="url(#SVGID_21_)" fill="#262626" fill-opacity="0.2" d="M14.108,24.097l2.776-4.793l-0.074-0.074l-2.791,4.822
			C14.049,24.066,14.078,24.082,14.108,24.097z"/>
		<path clip-path="url(#SVGID_21_)" fill="#262626" fill-opacity="0.2" d="M26.59,24.708c-0.747,0.717-1.568,1.344-2.479,1.852
			c-1.702,0.955-3.673,1.508-5.763,1.508c-2.091,0-4.062-0.553-5.763-1.508l-4.613,7.986l0,0c-0.074,0.135-0.18,0.24-0.299,0.314
			l-2.299,1.553c-0.09,0.059-0.194,0.059-0.284,0.014l0,0l0,0c-0.074-0.045-0.104-0.119-0.119-0.193l-0.015,0.135
			c-0.016,0.104,0.045,0.193,0.134,0.254l0,0l0,0c0.09,0.045,0.194,0.045,0.284-0.016l2.299-1.553
			c0.119-0.09,0.225-0.193,0.299-0.313l0,0l4.613-7.988c1.701,0.955,3.672,1.508,5.763,1.508c2.09,0,4.061-0.553,5.763-1.508
			c0.91-0.508,1.747-1.135,2.479-1.852c2.209-2.15,3.598-5.166,3.598-8.494h-0.015C30.128,19.662,28.754,22.603,26.59,24.708z"/>
		<path clip-path="url(#SVGID_21_)" fill="#646464" d="M21.2,10.316h-0.956V7.255V7.24h-1.91h-1.896v0.016v3.061h-0.971
			c-0.94,0-1.717,0.777-1.717,1.717v3.896h0.016c-0.016,0.15,0.074,0.314,0.268,0.508l3.449,3.449
			c0.238,0.238,0.553,0.357,0.852,0.357V20.23l0.015,0.014c0.313,0,0.627-0.119,0.851-0.357l3.449-3.449
			c0.194-0.193,0.269-0.373,0.269-0.508h0.015v-3.881C22.917,11.093,22.155,10.316,21.2,10.316z M18.349,16.423h-0.015l0,0
			c-1.254,0-2.285-1.031-2.285-2.301c0-1.268,1.031-2.299,2.285-2.299v-0.029l0.015,0.029c1.254,0.016,2.284,1.031,2.284,2.299
			C20.633,15.392,19.603,16.408,18.349,16.423z"/>
		<path opacity="0.2" clip-path="url(#SVGID_21_)" fill="#FFFFFF" enable-background="new    " d="M20.244,7.435v-0.18V7.24h-1.91
			h-1.896v0.016v0.18h1.896H20.244z"/>
		<path clip-path="url(#SVGID_21_)" fill="#FFFFFF" fill-opacity="0.2" d="M18.349,16.228h-0.015l0,0
			c-1.225,0-2.225-0.984-2.285-2.193c0,0.029-0.015,0.059-0.015,0.088c0,1.254,1.03,2.301,2.284,2.301l0,0h0.016
			c1.254-0.016,2.284-1.031,2.284-2.301c0-0.029,0-0.059-0.016-0.088C20.573,15.244,19.572,16.212,18.349,16.228z"/>
		<path opacity="0.2" clip-path="url(#SVGID_21_)" fill="#FFFFFF" enable-background="new    " d="M15.482,10.511h0.97v-0.195h-0.97
			c-0.941,0-1.717,0.777-1.717,1.717v0.195C13.75,11.287,14.526,10.511,15.482,10.511z"/>
		<path opacity="0.2" clip-path="url(#SVGID_21_)" fill="#FFFFFF" enable-background="new    " d="M21.2,10.316h-0.956v0.195H21.2
			c0.94,0,1.717,0.775,1.717,1.717v-0.18C22.917,11.093,22.155,10.316,21.2,10.316z"/>
		<path opacity="0.2" clip-path="url(#SVGID_21_)" fill="#262626" enable-background="new    " d="M18.349,11.839l-0.015-0.029
			v0.029c-1.254,0-2.285,1.029-2.285,2.299c0,0.029,0,0.061,0.016,0.09c0.06-1.225,1.06-2.195,2.284-2.195v-0.029l0.015,0.029
			c1.225,0.016,2.225,0.986,2.27,2.195c0-0.029,0.015-0.061,0.015-0.09C20.633,12.869,19.603,11.839,18.349,11.839z"/>
		<path clip-path="url(#SVGID_21_)" fill="#262626" fill-opacity="0.2" d="M22.648,16.259l-3.449,3.447
			c-0.238,0.24-0.552,0.359-0.851,0.359l-0.015-0.016v0.016c-0.314,0-0.627-0.119-0.852-0.359l-3.449-3.447
			c-0.193-0.195-0.268-0.375-0.268-0.508H13.75v0.193h0.016c-0.016,0.148,0.074,0.314,0.268,0.508l3.449,3.434
			c0.238,0.238,0.553,0.357,0.852,0.357V20.23l0.015,0.014c0.313,0,0.627-0.119,0.851-0.357l3.449-3.449
			c0.194-0.193,0.269-0.373,0.269-0.508h0.015v-0.193h-0.015C22.917,15.884,22.843,16.064,22.648,16.259z"/>
		<path clip-path="url(#SVGID_21_)" fill="none" d="M18.334,16.423L18.334,16.423h0.015c1.254-0.016,2.284-1.031,2.284-2.301
			c0-1.268-1.03-2.283-2.284-2.299l-0.015-0.029v0.029c-1.254,0-2.285,1.031-2.285,2.299C16.049,15.392,17.064,16.423,18.334,16.423
			z"/>
	</g>
	
		<radialGradient id="SVGID_22_" cx="-191.7383" cy="2002.605" r="202.8974" gradientTransform="matrix(0.1999 0 0 0.1999 45.0943 -394.4508)" gradientUnits="userSpaceOnUse">
		<stop  offset="0" style="stop-color:#FFFFFF"/>
		<stop  offset="1" style="stop-color:#FFFFFF;stop-opacity:0"/>
	</radialGradient>
	<path display="inline" fill="url(#SVGID_22_)" fill-opacity="0.1" stroke="#777777" stroke-width="0.1" stroke-miterlimit="10" d="
		M31.367,33.189L31.367,33.189l-2.448-4.227c3.568-3.016,5.837-7.51,5.837-12.539C34.756,7.361,27.396,0,18.334,0
		C9.271,0,1.911,7.361,1.911,16.423c0,5.029,2.269,9.539,5.837,12.555L5.3,33.203c-0.075,0.135-0.119,0.27-0.134,0.418l-0.209,2.762
		c-0.016,0.105,0.045,0.195,0.134,0.254l0,0l0,0c0.09,0.061,0.194,0.045,0.284-0.014l2.299-1.553
		c0.119-0.09,0.225-0.195,0.299-0.314l0,0l2.314-4c2.373,1.344,5.12,2.104,8.047,2.104c2.926,0,5.673-0.775,8.062-2.119l2.314,4.002
		c0.074,0.133,0.179,0.238,0.298,0.313l2.3,1.568c0.089,0.059,0.194,0.059,0.283,0.014l0,0l0,0c0.09-0.059,0.135-0.148,0.135-0.254
		l-0.209-2.762C31.486,33.472,31.457,33.322,31.367,33.189z"/>
	
		<text transform="matrix(1 0 0 1 38.334 17.8384)" display="inline" fill="#EAEAEA" font-family="'MyriadPro-Semibold'" font-size="16.5954">Android</text>
	
		<text transform="matrix(1 0 0 1 38.333 31.8032)" display="inline" fill="#EAEAEA" font-family="'SegoeUI-Semilight'" font-size="14.2246">Studio</text>
</g>
<g id="Java" display="none">
	<path display="inline" fill="#5382A1" d="M11.058,28.33c0,0-1.406,0.817,1,1.093c2.914,0.334,4.404,0.285,7.616-0.322
		c0,0,0.845,0.529,2.024,0.989C14.497,33.175,5.401,29.911,11.058,28.33 M10.177,24.303c0,0-1.576,1.165,0.832,1.415
		c3.113,0.32,5.572,0.349,9.827-0.471c0,0,0.588,0.596,1.514,0.922C13.644,28.715,3.946,26.37,10.177,24.303"/>
	<path display="inline" fill="#CE0000" d="M17.595,17.471c1.775,2.042-0.466,3.88-0.466,3.88s4.506-2.325,2.437-5.238
		c-1.934-2.715-3.415-4.064,4.607-8.717C24.173,7.396,11.581,10.541,17.595,17.471"/>
	<path display="inline" fill="#5382A1" d="M27.119,31.307c0,0,1.039,0.858-1.146,1.521c-4.155,1.26-17.3,1.64-20.95,0.051
		c-1.313-0.572,1.148-1.363,1.924-1.531c0.807-0.175,1.268-0.142,1.268-0.142c-1.459-1.027-9.434,2.02-4.051,2.891
		C18.846,36.479,30.927,33.027,27.119,31.307 M11.733,20.129c0,0-6.686,1.589-2.368,2.164c1.823,0.244,5.458,0.189,8.843-0.095
		c2.768-0.233,5.546-0.729,5.546-0.729s-0.976,0.417-1.682,0.899c-6.789,1.786-19.904,0.953-16.128-0.872
		C9.137,19.954,11.733,20.129,11.733,20.129 M23.726,26.833c6.901-3.587,3.71-7.034,1.482-6.568
		c-0.545,0.113-0.788,0.212-0.788,0.212s0.202-0.318,0.589-0.456c4.407-1.548,7.795,4.57-1.422,6.993
		C23.587,27.014,23.694,26.917,23.726,26.833"/>
	<path display="inline" fill="#CE0000" d="M19.565-0.118c0,0,3.821,3.823-3.625,9.703c-5.973,4.715-1.362,7.404-0.003,10.477
		c-3.485-3.145-6.044-5.914-4.327-8.49C14.128,7.789,21.107,5.955,19.565-0.118"/>
	<path display="inline" fill="#5382A1" d="M12.411,36.55c6.624,0.425,16.797-0.235,17.038-3.369c0,0-0.464,1.188-5.476,2.132
		c-5.653,1.063-12.627,0.939-16.764,0.258C7.211,35.571,8.058,36.271,12.411,36.55"/>
	<path display="inline" fill="#E76F00" d="M72.125,14.085H71.85v-0.154h0.741v0.154h-0.274v0.768h-0.192V14.085z M73.603,14.125
		h-0.004l-0.272,0.728h-0.125l-0.271-0.728h-0.003v0.728h-0.181v-0.922h0.266l0.251,0.652l0.25-0.652h0.267v0.922h-0.177V14.125z"/>
	<path display="inline" fill="#CE0000" d="M47.857,22.742c-0.851,0.738-1.75,1.153-2.556,1.153c-1.152,0-1.774-0.691-1.774-1.799
		c0-1.198,0.667-2.073,3.341-2.073h0.989V22.742 M50.206,25.391v-8.202c0-2.096-1.195-3.479-4.077-3.479
		c-1.682,0-3.155,0.415-4.353,0.945l0.346,1.452c0.943-0.347,2.164-0.669,3.362-0.669c1.66,0,2.374,0.669,2.374,2.051v1.036h-0.828
		c-4.033,0-5.852,1.566-5.852,3.916c0,2.027,1.199,3.181,3.456,3.181c1.451,0,2.534-0.6,3.546-1.477l0.184,1.245H50.206
		L50.206,25.391z M58.044,25.391h-2.929l-3.525-11.473h2.558l2.188,7.049l0.486,2.119c1.107-3.064,1.889-6.174,2.281-9.168h2.489
		C60.924,17.696,59.724,21.842,58.044,25.391 M69.281,22.742c-0.853,0.738-1.754,1.153-2.561,1.153
		c-1.149,0-1.773-0.691-1.773-1.799c0-1.198,0.668-2.073,3.343-2.073h0.991V22.742 M71.628,25.391v-8.202
		c0-2.096-1.197-3.479-4.075-3.479c-1.684,0-3.158,0.415-4.355,0.945l0.346,1.452c0.943-0.347,2.166-0.669,3.363-0.669
		c1.659,0,2.375,0.669,2.375,2.051v1.036h-0.83c-4.035,0-5.853,1.566-5.853,3.916c0,2.027,1.198,3.181,3.455,3.181
		c1.452,0,2.534-0.6,3.549-1.477l0.184,1.245H71.628L71.628,25.391z M38.602,27.34c-0.67,0.977-1.751,1.75-2.935,2.188l-1.16-1.365
		c0.901-0.462,1.674-1.209,2.033-1.903c0.31-0.619,0.439-1.416,0.439-3.322V9.838h2.495v12.919
		C39.475,25.305,39.271,26.335,38.602,27.34"/>
</g>
<g id="RaspberryPi" display="none">
	<path display="inline" d="M10.028-0.127C9.842-0.123,9.642-0.054,9.415,0.125C8.858-0.089,8.319-0.164,7.835,0.274
		C7.09,0.177,6.848,0.376,6.665,0.609C6.5,0.606,5.44,0.442,4.953,1.167C3.731,1.023,3.345,1.885,3.782,2.692
		c-0.25,0.387-0.509,0.768,0.075,1.504C3.651,4.608,3.779,5.051,4.266,5.591C4.137,6.168,4.39,6.576,4.842,6.893
		C4.758,7.682,5.567,8.141,5.808,8.304C5.9,8.765,6.094,9.198,7.018,9.44c0.152,0.685,0.707,0.803,1.244,0.945
		c-1.776,1.035-3.3,2.394-3.29,5.729l-0.26,0.463c-2.037,1.238-3.871,5.223-1.003,8.458c0.187,1.014,0.5,1.741,0.781,2.547
		c0.418,3.245,3.146,4.766,3.867,4.945c1.055,0.803,2.178,1.565,3.699,2.1c1.432,1.479,2.984,2.041,4.545,2.04
		c0.023,0,3.184-0.562,4.616-2.04c1.521-0.534,2.645-1.297,3.698-2.1c0.721-0.18,3.449-1.7,3.867-4.945
		c0.28-0.806,0.595-1.533,0.781-2.547c2.866-3.237,1.034-7.22-1.004-8.458l-0.261-0.463c0.01-3.336-1.514-4.693-3.29-5.729
		c0.537-0.143,1.093-0.261,1.244-0.947c0.924-0.24,1.117-0.674,1.21-1.134c0.242-0.163,1.05-0.622,0.966-1.411
		c0.453-0.318,0.706-0.726,0.577-1.303c0.487-0.539,0.614-0.984,0.406-1.395c0.585-0.736,0.327-1.117,0.076-1.504
		c0.439-0.807,0.052-1.67-1.171-1.525c-0.486-0.725-1.547-0.561-1.711-0.558c-0.184-0.232-0.426-0.432-1.171-0.335
		c-0.483-0.438-1.022-0.363-1.579-0.148c-0.661-0.521-1.099-0.104-1.599,0.055c-0.8-0.262-0.983,0.097-1.378,0.242
		c-0.872-0.185-1.137,0.217-1.556,0.643l-0.487-0.01c-1.316,0.774-1.971,2.355-2.202,3.168c-0.231-0.813-0.884-2.394-2.2-3.168
		l-0.487,0.01c-0.419-0.426-0.685-0.827-1.558-0.643c-0.393-0.146-0.576-0.504-1.377-0.242C10.684,0.077,10.383-0.14,10.028-0.127"
		/>
	<path display="inline" fill="#75A928" d="M7.408,3.286c3.493,1.801,5.523,3.258,6.636,4.498c-0.569,2.283-3.542,2.388-4.629,2.324
		c0.223-0.104,0.408-0.229,0.475-0.418c-0.273-0.193-1.24-0.021-1.915-0.4c0.259-0.054,0.381-0.105,0.502-0.297
		c-0.638-0.204-1.325-0.38-1.729-0.716C6.965,8.28,7.168,8.325,7.454,8.127C6.882,7.82,6.272,7.577,5.799,7.106
		c0.295-0.008,0.613-0.003,0.707-0.112C5.982,6.67,5.542,6.31,5.176,5.916c0.413,0.05,0.588,0.007,0.688-0.065
		C5.469,5.446,4.969,5.104,4.73,4.604c0.307,0.107,0.587,0.147,0.791-0.008c-0.134-0.303-0.71-0.481-1.041-1.189
		c0.323,0.031,0.666,0.07,0.734,0c-0.15-0.611-0.408-0.954-0.66-1.312C5.246,2.086,6.292,2.098,6.246,2.04L5.818,1.604
		C6.493,1.421,7.184,1.633,7.686,1.79c0.227-0.179-0.004-0.402-0.278-0.633C7.981,1.235,8.5,1.366,8.969,1.547
		c0.25-0.226-0.163-0.453-0.363-0.678C9.493,1.038,9.87,1.274,10.243,1.51c0.271-0.26,0.016-0.48-0.168-0.706
		c0.669,0.247,1.014,0.567,1.377,0.883c0.122-0.166,0.312-0.288,0.082-0.688c0.475,0.275,0.833,0.598,1.098,0.959
		c0.294-0.188,0.175-0.443,0.176-0.68c0.494,0.4,0.807,0.828,1.189,1.245c0.078-0.056,0.146-0.246,0.205-0.548
		c1.178,1.142,2.84,4.018,0.428,5.158C12.577,5.441,10.124,4.209,7.408,3.286L7.408,3.286 M25.942,3.286
		c-3.492,1.801-5.523,3.258-6.637,4.498c0.57,2.283,3.542,2.388,4.63,2.324c-0.224-0.104-0.409-0.229-0.475-0.418
		c0.272-0.193,1.239-0.021,1.914-0.4c-0.259-0.054-0.38-0.105-0.501-0.297c0.638-0.204,1.325-0.38,1.729-0.716
		c-0.219,0.003-0.422,0.048-0.706-0.149c0.571-0.308,1.181-0.551,1.654-1.021c-0.295-0.008-0.613-0.003-0.706-0.112
		c0.522-0.323,0.963-0.684,1.328-1.078c-0.412,0.05-0.587,0.007-0.687-0.065c0.395-0.404,0.896-0.746,1.133-1.246
		c-0.307,0.107-0.587,0.147-0.79-0.008c0.135-0.303,0.71-0.481,1.042-1.189c-0.323,0.031-0.666,0.07-0.735,0
		c0.15-0.611,0.408-0.955,0.66-1.312c-0.691-0.009-1.738,0.003-1.691-0.056l0.428-0.438c-0.676-0.181-1.367,0.029-1.868,0.188
		c-0.226-0.179,0.004-0.402,0.278-0.633c-0.573,0.076-1.093,0.209-1.562,0.391c-0.25-0.226,0.163-0.453,0.363-0.678
		c-0.888,0.167-1.263,0.404-1.636,0.641c-0.271-0.26-0.017-0.48,0.167-0.706c-0.668,0.247-1.013,0.567-1.376,0.883
		c-0.123-0.166-0.313-0.288-0.083-0.688c-0.475,0.275-0.832,0.598-1.098,0.959c-0.293-0.189-0.175-0.445-0.177-0.68
		c-0.492,0.4-0.807,0.828-1.189,1.245c-0.076-0.057-0.145-0.246-0.204-0.548c-1.177,1.142-2.841,4.018-0.428,5.158
		C20.773,5.44,23.224,4.209,25.942,3.286L25.942,3.286"/>
	<path display="inline" fill="#BC1142" d="M20.905,26.538c0.013,2.132-1.852,3.869-4.162,3.88s-4.193-1.708-4.207-3.838
		c0-0.014,0-0.027,0-0.042c-0.012-2.13,1.853-3.867,4.163-3.878s4.194,1.707,4.206,3.838V26.538 M14.299,15.516
		c1.734,1.137,2.047,3.711,0.698,5.751c-1.348,2.04-3.847,2.772-5.581,1.638c-1.732-1.137-2.045-3.711-0.697-5.751
		S12.566,14.38,14.299,15.516 M18.979,15.311c-1.733,1.136-2.047,3.71-0.697,5.75c1.348,2.04,3.846,2.773,5.579,1.638
		c1.734-1.135,2.047-3.711,0.698-5.751C23.211,14.908,20.712,14.175,18.979,15.311 M5.635,17.374
		c1.872-0.502,0.631,7.743-0.892,7.067C3.068,23.093,2.529,19.147,5.635,17.374 M27.266,17.27c-1.872-0.501-0.632,7.745,0.892,7.068
		C29.833,22.991,30.373,19.044,27.266,17.27 M20.907,11.13c3.229-0.545,5.918,1.373,5.81,4.876
		C26.609,17.349,19.715,11.331,20.907,11.13 M11.981,11.027c-3.23-0.546-5.918,1.374-5.811,4.878
		C6.278,17.247,13.171,11.227,11.981,11.027 M16.622,10.209c-1.928-0.049-3.779,1.432-3.783,2.291
		c-0.006,1.044,1.523,2.112,3.796,2.141c2.319,0.016,3.8-0.855,3.808-1.934C20.45,11.488,18.333,10.191,16.622,10.209L16.622,10.209
		 M16.739,31.616c1.682-0.073,3.937,0.542,3.941,1.356c0.027,0.792-2.046,2.582-4.053,2.547c-2.078,0.09-4.116-1.702-4.09-2.324
		C12.506,32.285,15.069,31.573,16.739,31.616 M10.53,26.782c1.197,1.442,1.742,3.975,0.744,4.723
		c-0.945,0.569-3.239,0.335-4.871-2.009c-1.099-1.965-0.957-3.967-0.186-4.554C7.372,24.238,9.157,25.188,10.53,26.782L10.53,26.782
		 M22.708,26.325c-1.296,1.517-2.017,4.284-1.071,5.174c0.903,0.692,3.327,0.595,5.118-1.89c1.301-1.669,0.865-4.456,0.122-5.195
		C25.774,23.559,24.189,24.652,22.708,26.325L22.708,26.325"/>
	
		<text transform="matrix(1 0 0 1 34.041 25.0835)" display="inline" fill="#333333" font-family="'SegoeUI-Semilight'" font-size="21.4112">RaspberryPi</text>
</g>
<g id="Python">
	<path fill="#646464" d="M48.543,15.581c0-3.867-1.102-5.853-3.308-5.961c-0.878-0.042-1.734,0.099-2.568,0.423
		c-0.666,0.237-1.113,0.474-1.349,0.711v9.231c1.411,0.885,2.664,1.297,3.756,1.231C47.386,21.063,48.543,19.186,48.543,15.581z
		 M51.264,15.741c0,1.966-0.46,3.596-1.388,4.893c-1.032,1.469-2.464,2.225-4.294,2.266c-1.38,0.043-2.801-0.389-4.263-1.294v8.389
		l-2.366-0.844V10.528c0.388-0.476,0.888-0.885,1.494-1.232c1.408-0.821,3.119-1.243,5.133-1.263l0.033,0.033
		c1.841-0.023,3.259,0.732,4.256,2.265C50.798,11.737,51.264,13.539,51.264,15.741L51.264,15.741z M65.724,21.248
		c0,2.636-0.264,4.46-0.792,5.475c-0.53,1.014-1.541,1.824-3.031,2.428c-1.208,0.477-2.517,0.735-3.919,0.779l-0.391-1.49
		c1.426-0.194,2.431-0.389,3.013-0.583c1.147-0.389,1.934-0.983,2.367-1.781c0.347-0.649,0.517-1.889,0.517-3.725v-0.615
		c-1.618,0.735-3.313,1.1-5.086,1.1c-1.166,0-2.193-0.364-3.078-1.1c-0.994-0.801-1.491-1.814-1.491-3.045V8.843l2.366-0.81v9.912
		c0,1.058,0.341,1.874,1.024,2.445c0.684,0.572,1.569,0.848,2.654,0.826c1.084-0.023,2.247-0.443,3.481-1.264V8.389h2.366V21.248
		L65.724,21.248z M74.959,22.769c-0.259,0.022-0.519,0.033-0.78,0.034c-1.338,0-2.381-0.319-3.126-0.958
		c-0.743-0.639-1.116-1.521-1.116-2.647v-9.32h-1.62V8.39h1.62V4.437l2.363-0.841V8.39h2.659v1.488h-2.659v9.254
		c0,0.889,0.238,1.518,0.715,1.885c0.408,0.303,1.059,0.476,1.943,0.521L74.959,22.769L74.959,22.769z M89.286,22.575h-2.367v-9.132
		c0-0.93-0.217-1.729-0.65-2.397c-0.498-0.756-1.193-1.134-2.082-1.134c-1.086,0-2.441,0.571-4.07,1.716v10.947H77.75V0.746
		L80.116,0v9.943c1.512-1.1,3.164-1.652,4.957-1.652c1.254,0,2.268,0.422,3.045,1.263c0.779,0.841,1.168,1.89,1.168,3.143V22.575
		L89.286,22.575L89.286,22.575z M101.86,15.208c0-1.486-0.283-2.713-0.844-3.684c-0.668-1.183-1.705-1.807-3.107-1.872
		c-2.596,0.15-3.889,2.009-3.889,5.57c0,1.634,0.27,2.998,0.813,4.093c0.691,1.396,1.732,2.084,3.121,2.062
		C100.559,21.356,101.86,19.301,101.86,15.208L101.86,15.208z M104.452,15.223c0,2.115-0.543,3.876-1.621,5.281
		c-1.189,1.574-2.83,2.363-4.922,2.363c-2.078,0-3.695-0.79-4.863-2.363c-1.059-1.405-1.586-3.166-1.586-5.281
		c0-1.987,0.572-3.66,1.715-5.021c1.209-1.444,2.799-2.168,4.764-2.168s3.564,0.725,4.797,2.168
		C103.879,11.563,104.452,13.236,104.452,15.223L104.452,15.223z M118.014,22.575h-2.365v-9.649c0-1.059-0.316-1.884-0.955-2.48
		c-0.637-0.593-1.486-0.88-2.545-0.857c-1.123,0.021-2.193,0.389-3.207,1.101v11.886h-2.365V10.396
		c1.361-0.991,2.615-1.638,3.758-1.941c1.08-0.282,2.033-0.421,2.854-0.421c0.561,0,1.09,0.053,1.586,0.163
		c0.93,0.214,1.686,0.613,2.266,1.198c0.65,0.647,0.975,1.423,0.975,2.332V22.575L118.014,22.575z"/>
	
		<linearGradient id="SVGID_23_" gradientUnits="userSpaceOnUse" x1="-1974.3047" y1="-47.4268" x2="-1968.8059" y2="-42.6959" gradientTransform="matrix(2.9618 0 0 2.9907 5847.7192 143.533)">
		<stop  offset="0" style="stop-color:#5A9FD4"/>
		<stop  offset="1" style="stop-color:#306998"/>
	</linearGradient>
	<path fill="url(#SVGID_23_)" d="M15.585,0.833c-1.218,0.006-2.38,0.11-3.402,0.291C9.169,1.656,8.622,2.771,8.622,4.825v2.714h7.12
		v0.905H5.95c-2.069,0-3.881,1.244-4.449,3.61c-0.653,2.712-0.683,4.405,0,7.237c0.506,2.107,1.715,3.609,3.785,3.609h2.448v-3.254
		c0-2.35,2.033-4.423,4.449-4.423h7.112c1.979,0,3.56-1.63,3.56-3.619V4.825c0-1.929-1.628-3.379-3.56-3.701
		C18.071,0.92,16.802,0.827,15.585,0.833L15.585,0.833z M11.734,3.016c0.735,0,1.336,0.61,1.336,1.361
		c0,0.748-0.601,1.353-1.336,1.353c-0.738,0-1.336-0.604-1.336-1.353C10.398,3.626,10.996,3.016,11.734,3.016L11.734,3.016z"/>
	
		<linearGradient id="SVGID_24_" gradientUnits="userSpaceOnUse" x1="-1966.6821" y1="-39.8345" x2="-1968.6454" y2="-42.6122" gradientTransform="matrix(2.9618 0 0 2.9907 5847.7192 143.533)">
		<stop  offset="0" style="stop-color:#FFD43B"/>
		<stop  offset="1" style="stop-color:#FFE873"/>
	</linearGradient>
	<path fill="url(#SVGID_24_)" d="M23.743,8.444v3.162c0,2.452-2.078,4.514-4.448,4.514h-7.112c-1.948,0-3.561,1.668-3.561,3.619
		v6.78c0,1.93,1.678,3.064,3.561,3.618c2.253,0.663,4.415,0.783,7.112,0c1.792-0.519,3.56-1.563,3.56-3.618v-2.714h-7.113v-0.904
		h10.673c2.07,0,2.84-1.444,3.561-3.609c0.743-2.231,0.712-4.376,0-7.238c-0.512-2.06-1.488-3.609-3.561-3.609H23.743z
		 M19.743,25.615c0.738,0,1.336,0.604,1.336,1.353c0,0.751-0.598,1.36-1.336,1.36c-0.736,0-1.336-0.609-1.336-1.36
		C18.407,26.22,19.007,25.615,19.743,25.615z"/>
	<path fill="#646464" d="M122.622,6.28h0.414V3.679h0.982v-0.31h-2.379v0.31h0.982V6.28 M124.387,6.28h0.354V3.905l0.77,2.375h0.395
		l0.803-2.368V6.28h0.387V3.369h-0.512l-0.875,2.495l-0.75-2.495h-0.57V6.28"/>
	
		<radialGradient id="SVGID_25_" cx="-3200.8525" cy="-274.896" r="1.4642" gradientTransform="matrix(0 -1.2632 5.5534 0 1542.4248 -4008.4863)" gradientUnits="userSpaceOnUse">
		<stop  offset="0" style="stop-color:#B8B8B8;stop-opacity:0.498"/>
		<stop  offset="1" style="stop-color:#7F7F7F;stop-opacity:0"/>
	</radialGradient>
	<path opacity="0.444" fill="url(#SVGID_25_)" enable-background="new    " d="M25.366,34.747c0,1.022-4.272,1.851-9.543,1.851
		c-5.27,0-9.542-0.828-9.542-1.851c0-1.021,4.272-1.85,9.542-1.85C21.093,32.897,25.366,33.725,25.366,34.747z"/>
</g>
<g id="Firebase" display="none">
	<g display="inline">
		<path fill="#FFA000" d="M2.142,29.522l0.167-0.325L12.625,9.623L8.041,0.957C7.66,0.24,6.693,0.423,6.568,1.224L2.142,29.522z"/>
	</g>
	<g display="inline">
		<path fill="#FFA000" d="M15.968,15.841l3.327-3.406L15.968,6.1c-0.315-0.601-1.083-0.664-1.396-0.062l-1.838,3.543l-0.056,0.18
			L15.968,15.841z"/>
	</g>
	<path display="inline" fill="#F6820C" d="M2.012,29.757l0.101-0.101l0.362-0.147l13.34-13.291l0.169-0.459l-3.328-6.342
		L2.012,29.757z"/>
	<path display="inline" fill="#FCCA3F" d="M28.422,29.67L25,8.599c-0.107-0.66-0.784-0.933-1.257-0.459L2.146,29.715l11.872,6.637
		c0.753,0.42,1.67,0.42,2.423,0L28.422,29.67L28.422,29.67z"/>
	
		<text transform="matrix(1 0 0 1 30.1655 26.2329)" display="inline" fill="#EAEAEA" font-family="'MyriadPro-Regular'" font-size="23.0278">Firebase</text>
</g>
</svg>
