<?xml version="1.0" encoding="utf-8"?>
<!-- Generator: Adobe Illustrator 15.1.0, SVG Export Plug-In . SVG Version: 6.00 Build 0)  -->
<!DOCTYPE svg PUBLIC "-//W3C//DTD SVG 1.1//EN" "http://www.w3.org/Graphics/SVG/1.1/DTD/svg11.dtd">
<svg version="1.1" id="Layer_1" xmlns="http://www.w3.org/2000/svg" xmlns:xlink="http://www.w3.org/1999/xlink" x="0px" y="0px"
	 width="75.292px" height="36.667px" viewBox="0 0 75.292 36.667" enable-background="new 0 0 75.292 36.667" xml:space="preserve">
<g id="Layer_5">
	<path fill="#5382A1" d="M11.058,28.33c0,0-1.406,0.817,1,1.094c2.914,0.334,4.404,0.285,7.616-0.322c0,0,0.845,0.529,2.024,0.988
		C14.497,33.175,5.401,29.912,11.058,28.33 M10.177,24.303c0,0-1.576,1.165,0.832,1.415c3.113,0.32,5.572,0.349,9.827-0.471
		c0,0,0.588,0.596,1.514,0.922C13.644,28.714,3.946,26.371,10.177,24.303"/>
	<path fill="#CE0000" d="M17.595,17.471c1.775,2.042-0.466,3.88-0.466,3.88s4.506-2.325,2.437-5.238
		c-1.934-2.715-3.415-4.064,4.607-8.717C24.173,7.396,11.581,10.541,17.595,17.471"/>
	<path fill="#5382A1" d="M27.119,31.307c0,0,1.039,0.858-1.146,1.521c-4.155,1.26-17.3,1.641-20.95,0.051
		c-1.313-0.571,1.148-1.362,1.924-1.53c0.807-0.175,1.268-0.142,1.268-0.142c-1.459-1.027-9.434,2.02-4.051,2.891
		C18.846,36.479,30.927,33.027,27.119,31.307 M11.733,20.128c0,0-6.686,1.59-2.368,2.164c1.823,0.244,5.458,0.189,8.843-0.094
		c2.768-0.234,5.546-0.73,5.546-0.73s-0.976,0.418-1.682,0.9c-6.789,1.785-19.904,0.952-16.128-0.873
		C9.137,19.955,11.733,20.128,11.733,20.128 M23.726,26.833c6.901-3.588,3.71-7.035,1.482-6.568
		c-0.545,0.113-0.788,0.212-0.788,0.212s0.202-0.317,0.589-0.456c4.407-1.548,7.795,4.57-1.422,6.993
		C23.587,27.014,23.694,26.917,23.726,26.833"/>
	<path fill="#CE0000" d="M19.565-0.118c0,0,3.821,3.823-3.625,9.703c-5.973,4.715-1.362,7.404-0.003,10.477
		c-3.485-3.145-6.044-5.914-4.327-8.49C14.128,7.789,21.107,5.955,19.565-0.118"/>
	<path fill="#5382A1" d="M12.411,36.55c6.624,0.425,16.797-0.235,17.038-3.369c0,0-0.464,1.188-5.476,2.132
		c-5.653,1.063-12.627,0.938-16.764,0.258C7.211,35.571,8.058,36.271,12.411,36.55"/>
	<path fill="#E76F00" d="M72.125,14.085H71.85v-0.154h0.741v0.154h-0.274v0.768h-0.192V14.085z M73.603,14.125h-0.004l-0.271,0.728
		h-0.125l-0.271-0.728h-0.003v0.728h-0.181v-0.922h0.266l0.251,0.652l0.25-0.652h0.267v0.922h-0.177L73.603,14.125L73.603,14.125z"
		/>
	<path fill="#CE0000" d="M47.857,22.742c-0.852,0.738-1.75,1.153-2.557,1.153c-1.151,0-1.773-0.69-1.773-1.799
		c0-1.198,0.667-2.073,3.342-2.073h0.988V22.742 M50.207,25.391v-8.202c0-2.096-1.195-3.479-4.078-3.479
		c-1.682,0-3.154,0.415-4.353,0.945l0.347,1.452c0.942-0.347,2.164-0.669,3.361-0.669c1.66,0,2.374,0.669,2.374,2.051v1.036H47.03
		c-4.032,0-5.852,1.566-5.852,3.916c0,2.027,1.198,3.182,3.456,3.182c1.451,0,2.533-0.601,3.546-1.478l0.184,1.245L50.207,25.391
		L50.207,25.391z M58.044,25.391h-2.93l-3.525-11.473h2.559l2.188,7.048l0.486,2.119c1.107-3.063,1.889-6.173,2.281-9.167h2.488
		C60.923,17.696,59.724,21.841,58.044,25.391 M69.281,22.742c-0.853,0.738-1.754,1.153-2.561,1.153c-1.149,0-1.773-0.69-1.773-1.799
		c0-1.198,0.668-2.073,3.344-2.073h0.99V22.742 M71.628,25.391v-8.202c0-2.096-1.197-3.479-4.075-3.479
		c-1.685,0-3.158,0.415-4.354,0.945l0.346,1.452c0.942-0.347,2.166-0.669,3.363-0.669c1.658,0,2.375,0.669,2.375,2.051v1.036h-0.83
		c-4.035,0-5.854,1.566-5.854,3.916c0,2.027,1.197,3.182,3.455,3.182c1.451,0,2.533-0.601,3.549-1.478l0.184,1.245L71.628,25.391
		L71.628,25.391z M38.602,27.339c-0.67,0.978-1.751,1.75-2.935,2.188l-1.16-1.364c0.901-0.463,1.674-1.209,2.033-1.904
		c0.31-0.618,0.439-1.416,0.439-3.321v-13.1h2.495v12.919C39.475,25.305,39.271,26.335,38.602,27.339"/>
</g>
</svg>
