<?xml version="1.0" encoding="utf-8"?>
<!-- Generator: Adobe Illustrator 15.1.0, SVG Export Plug-In . SVG Version: 6.00 Build 0)  -->
<!DOCTYPE svg PUBLIC "-//W3C//DTD SVG 1.1//EN" "http://www.w3.org/Graphics/SVG/1.1/DTD/svg11.dtd">
<svg version="1.1" id="Layer_1" xmlns="http://www.w3.org/2000/svg" xmlns:xlink="http://www.w3.org/1999/xlink" x="0px" y="0px"
	 width="36.625px" height="36.667px" viewBox="0 0 36.625 36.667" enable-background="new 0 0 36.625 36.667" xml:space="preserve">
<g id="Layer_7">
	<path fill="#5382A1" d="M13.537,28.332c0,0-1.406,0.817,1,1.094c2.915,0.334,4.404,0.285,7.615-0.322c0,0,0.846,0.529,2.024,0.988
		C16.977,33.177,7.881,29.914,13.537,28.332 M12.657,24.305c0,0-1.577,1.165,0.831,1.415c3.114,0.32,5.573,0.349,9.829-0.471
		c0,0,0.588,0.596,1.514,0.922C16.123,28.716,6.426,26.373,12.657,24.305"/>
	<path fill="#CE0000" d="M20.074,17.473c1.775,2.042-0.467,3.88-0.467,3.88s4.506-2.325,2.438-5.238
		c-1.934-2.716-3.415-4.065,4.607-8.718C26.652,7.397,14.06,10.542,20.074,17.473"/>
	<path fill="#5382A1" d="M29.6,31.309c0,0,1.039,0.858-1.146,1.521c-4.155,1.26-17.299,1.641-20.95,0.051
		c-1.313-0.571,1.149-1.362,1.923-1.53c0.807-0.175,1.269-0.142,1.269-0.142c-1.459-1.027-9.434,2.02-4.051,2.891
		C21.325,36.481,33.406,33.029,29.6,31.309 M14.212,20.13c0,0-6.685,1.59-2.368,2.164c1.823,0.244,5.458,0.189,8.844-0.094
		c2.768-0.234,5.545-0.729,5.545-0.729s-0.976,0.417-1.682,0.899C17.763,24.158,4.647,23.326,8.423,21.5
		C11.616,19.957,14.212,20.13,14.212,20.13 M26.205,26.835c6.9-3.588,3.71-7.035,1.482-6.568c-0.545,0.113-0.789,0.212-0.789,0.212
		s0.203-0.317,0.59-0.456c4.406-1.548,7.795,4.57-1.422,6.993C26.066,27.016,26.174,26.919,26.205,26.835"/>
	<path fill="#CE0000" d="M22.045-0.116c0,0,3.821,3.823-3.625,9.703c-5.972,4.716-1.362,7.405-0.002,10.477
		c-3.486-3.145-6.043-5.914-4.328-8.49C16.608,7.791,23.587,5.957,22.045-0.116"/>
	<path fill="#5382A1" d="M14.891,36.552c6.625,0.425,16.796-0.235,17.039-3.369c0,0-0.465,1.188-5.477,2.132
		C20.8,36.378,13.826,36.253,9.69,35.574C9.69,35.574,10.537,36.273,14.891,36.552"/>
</g>
</svg>
