<?xml version="1.0" encoding="utf-8"?>
<!-- Generator: Adobe Illustrator 15.1.0, SVG Export Plug-In . SVG Version: 6.00 Build 0)  -->
<!DOCTYPE svg PUBLIC "-//W3C//DTD SVG 1.1//EN" "http://www.w3.org/Graphics/SVG/1.1/DTD/svg11.dtd">
<svg version="1.1" id="Layer_1" xmlns="http://www.w3.org/2000/svg" xmlns:xlink="http://www.w3.org/1999/xlink" x="0px" y="0px"
	 width="97.833px" height="92.5px" viewBox="4.527 15.904 97.833 92.5" enable-background="new 4.527 15.904 97.833 92.5"
	 xml:space="preserve">
<g id="Layer_1_1_" display="none">
	<g display="inline">
		<path fill="#4389C2" d="M100.237,89.38c-1.969,0-3.938,0-5.904,0c-0.511-1.11,0.993-1.836,1.478-2.419
			c10-12.07,14.948-35.258,6.149-53.209C94.344,18.217,79.037,5.177,56.446,4.969c-22.259-0.202-38.381,13.236-45.76,28.781
			C6.469,42.634,4.77,53.804,6.749,64.709c1.842,10.147,6.653,18.27,11.811,24.671c-2.397-0.456-4.214,0.608-6.15,0
			c-2.043-0.643-4.411-5.491-5.413-7.256c-4.689-8.258-7.599-18.347-6.889-30.958c0.83-14.723,7.767-26.457,15.992-34.828
			C26.369,5.884,40.852-1.06,60.874,0.133c15.36,0.916,28.412,8.858,37.148,18.141c9.046,9.608,15.201,23.849,14.271,40.39
			C111.551,71.831,106.963,80.396,100.237,89.38z"/>
		<path fill="#4389C2" d="M75.635,17.789c5.51-1.438,9.939,5.333,12.795,9.916c4.961,7.97,7.12,18.897,3.936,30.476
			c-1.246,4.527-3.644,10.966-8.364,10.399c-5.42-0.649-2.47-8.348-1.477-11.368c4.407-13.399-0.231-22.729-6.644-30.231
			C73.907,24.67,70.563,19.113,75.635,17.789z"/>
		<path fill="#4389C2" d="M34.549,19.482c2.006-0.264,4.251,0.557,4.676,2.419c1.082,4.755-3.782,8.021-5.413,10.158
			c-5.211,6.822-8.1,15.737-4.183,27.331c1.092,3.229,3.934,10.03-1.229,10.883c-4.517,0.745-7.065-4.989-8.364-9.434
			c-3.219-11.008-1.668-21.603,2.952-29.989C25.559,26.18,29.729,20.114,34.549,19.482z"/>
		<path fill="#4389C2" d="M60.382,25.045c0,3.532,0,6.934,0,11.125c0,3.427-0.955,8.644,2.215,8.707
			c4.924,0.102,1.383-13.869,2.461-17.896c7.277,3.036,11.689,14.619,7.135,23.46c-8.976,5.316-25.994,3.813-32.967-2.176
			c-3.136-9.197,1.871-18.57,7.873-21.042c1.059,3.757-2.49,17.729,2.707,17.413c4.576-0.277,1.111-16.409,2.214-19.591
			C54.617,24.462,57.782,24.462,60.382,25.045z"/>
		<path fill="#4389C2" d="M40.208,50.44c4.044,2.622,11,5.862,18.698,5.32c4.761-0.335,8.926-2.004,12.055-4.111
			c-2.074,4.177-6.898,7.661-13.04,8.223C49.579,60.637,43.169,55.74,40.208,50.44z"/>
		<path fill="#4389C2" d="M37.994,59.39c0.571-0.144,4.764-0.571,6.644-0.242c3.016,0.526,4.985,2.718,8.856,3.144
			c2.001,0.222,3.484,0.17,5.167,0c3.969-0.398,6.073-2.604,8.856-3.144c4.492-0.872,10.073,0.141,11.069,2.66
			c0.723,1.824-0.265,4.951-0.736,7.256c-0.905,4.4-1.885,8.793-2.952,13.544c-0.536,2.381-1.183,4.631-2.952,5.319
			c-3.359,1.313-11.469,0.242-15.5,0.242c-4.024,0-11.789,1.206-15.5-0.242c-2.938-1.146-3.32-7.6-4.183-12.093
			C35.601,69.778,31.717,60.946,37.994,59.39z"/>
		<path fill="#4389C2" d="M14.376,90.347c5.2-1.422,16.518-0.242,22.88-0.242c19.158,0,36.91,0,56.584,0
			c4.418,0,7.627,0.289,7.627,3.629c0,3.498-3.533,3.628-8.363,3.628c-20.249,0-39.938,0-60.029,0
			c-6.139,0-20.122,1.652-21.403-2.419C10.872,92.41,12.606,90.831,14.376,90.347z"/>
		<path fill="#4389C2" d="M58.414,110.905c-1.442,0.512-2.215-0.521-3.199-0.484c-1.438,0.056-1.618,1.181-3.197,0.727
			c-2.956-0.849-2.852-8.681,0.983-8.948c1.077-0.01,1.519,0.604,2.214,0.967c0-1.208,0-2.418,0-3.627
			c1.251,0.23,2.568-0.383,3.199,0C58.414,103.327,58.414,107.115,58.414,110.905z M54.231,109.938
			c1.566-0.554,1.587-6.287-0.246-6.531C53.183,104.915,52.705,108.851,54.231,109.938z"/>
		<path fill="#4389C2" d="M20.035,99.538c1.066,0,2.132,0,3.198,0c0,1.451,0,2.902,0,4.354c0.421,0.553,1.878,0.089,2.707,0.24
			c0-1.53,0-3.063,0-4.595c1.147,0,2.296,0,3.443,0c0,3.789,0,7.577,0,11.367c-1.146,0-2.296,0-3.443,0c0-1.774,0-3.548,0-5.321
			c-0.421-0.553-1.878-0.088-2.707-0.242c0,1.854,0,3.71,0,5.563c-1.066,0-2.132,0-3.198,0
			C20.035,107.115,20.035,103.327,20.035,99.538z"/>
		<path fill="#4389C2" d="M77.111,99.538c0.675,3.326-1.416,9.535,1.229,10.4c4.976,1.625,2.235-7.233,3.689-10.4
			c0.463,3.074,1.678,9.551-0.983,11.125c-1.631,0.965-4.866,1.021-6.396-0.483c-2.008-1.975-0.496-6.769-0.983-10.642
			C74.815,99.538,75.963,99.538,77.111,99.538z"/>
		<path fill="#4389C2" d="M38.732,103.407c0,2.097,0,4.192,0,6.289c0.183,1.046,1.329-0.354,1.229,0.967
			c-1.05,0.718-3.395,0.639-4.183-0.242c-2.553,1.692-5.827,0.322-4.92-2.66c0.605-1.994,4.179-1.289,4.92-3.386
			c0.055-2.294-4.097-1.401-2.707,0.726c-0.201,0.489-1.297-0.152-1.722-0.24C31.197,101.461,37.179,101.716,38.732,103.407z
			 M34.796,109.938c1.229,0.019,1.424-3.355,0.492-3.87C34.176,106.21,33.225,109.466,34.796,109.938z"/>
		<path fill="#4389C2" d="M43.406,102.198c0.538,0.036,0.528,0.609,0.492,1.209c0.635-0.027,1.896-1.516,3.937-0.967
			c1.769,1.406,0.69,5.609,0.984,8.465c-1.066,0-2.132,0-3.199,0c-0.147-2.273,0.307-5.138-0.246-7.014
			c-2.554,0.31-1.077,4.584-1.476,7.014c-1.066,0-2.132,0-3.198,0c0-2.821,0-5.645,0-8.465
			C41.528,102.286,42.985,102.752,43.406,102.198z"/>
		<path fill="#4389C2" d="M66.778,104.617c-1.844,1.104-2.306-3.151-4.429-0.968c0.754,2.46,4.083,1.688,4.675,3.869
			c1.309,4.818-7.443,5.197-7.381,0.726c0.752,0.176,0.896-0.247,1.476-0.241c-0.183,1.792,0.882,2.358,2.461,2.418
			c0.354-0.135,0.602-0.377,0.738-0.725c-0.831-2.615-5.547-1.648-4.428-5.563C60.521,101.925,66.302,101.321,66.778,104.617z"/>
		<path fill="#4389C2" d="M84.246,102.44c0.998,0.309,3.355-0.721,3.198,0.725c0.461,0.121,1.547-1.212,3.198-0.725
			c3.424,1.746,1.861,11.854-3.198,7.979c0,1.129,0,2.258,0,3.388c-1.066,0-2.132,0-3.198,0
			C84.246,110.019,84.246,106.229,84.246,102.44z M88.429,109.938c1.392-1.262,0.944-4.394,0.49-6.289
			C86.554,103.369,86.995,109.518,88.429,109.938z"/>
	</g>
</g>
<g id="Layer_2" display="none">
	<g display="inline">
		<path fill="#5BBBAB" d="M0,89.291C0,65.95,0,42.609,0,19.268c7.676,0,15.353,0,23.028,0c1.51-4.559,3.576-11.305,7.989-10.81
			c3.845,0.433,4.158,6.642,5.64,10.81c27.754,0.443,56.274,0.119,83.651,0.939c-26.218,0.212-55.931-0.15-83.651,0
			c0.082,6.035,0.227,12.132-1.41,16.448c28.868,0.112,57.752,0.208,86.001,0.94c-28.667,0-57.333,0-86.001,0
			c-1.631,6.102-9.415,8.708-7.049,15.978c29.99,1.653,64.286-1,93.521,1.41c-31.051,0.973-63.392-1.818-93.052,0.47
			c-0.283,5.581,5.479,2.988,8.93,4.699c3.956,1.963,5.713,5.751,7.049,11.279c25.488,0.044,50.869,0.197,75.662,0.938
			c-25.222,0-50.441,0-75.662,0c-0.18,3.542-0.715,6.255-1.88,8.46c-1.869,3.539-5.5,4.364-7.521,7.52
			c27.274,1.706,59.034-1.073,85.531,1.409c-28.862,0.353-56.459-0.562-85.062-0.47c2.265,10.519,3.271,22.812-7.519,23.497
			c-5.493,0.351-11.948-2.399-12.219-8.459c-0.387-8.608,11.749-10.192,11.749-2.35c0,4.513-1.841,3.265-5.64,6.108
			c10.832,9.346,16.159-7.999,11.279-18.798C22.244,89.291,11.122,89.291,0,89.291z M29.137,19.268
			c1.429-0.295,4.048,0.602,4.699-0.471C32.548,17.235,30.074,17.212,29.137,19.268z M3.76,36.656c6.423,0,12.846,0,19.269,0
			c-0.288-5.454-1.656-10.911-0.47-16.448c-6.557,0.133-12.017-0.83-18.799-0.47C3.76,25.377,3.76,31.017,3.76,36.656z
			 M25.377,36.656c6.578-1.881,8.871-8.048,8.93-16.448C23.871,17.937,24.623,29.297,25.377,36.656z M3.76,37.126
			c0,5.483,0,10.966,0,16.448c2.819,0,5.64,0,8.46,0c3.292-5.389,11.546-8.898,11.278-15.978
			C17.837,36.521,10.198,37.424,3.76,37.126z M22.558,54.044c1.253,0,2.506,0,3.76,0C27.015,48.959,23.011,51.521,22.558,54.044z
			 M3.76,71.433c1.566,0,3.134,0,4.699,0c-1.339-6.786,1.126-12.246,3.29-16.918c-2.663,0-5.326,0-7.989,0
			C3.76,60.153,3.76,65.793,3.76,71.433z M12.688,71.433c2.192,0,4.386,0,6.58,0c0.146-6.59,3.949-9.522,8.459-11.749
			c-0.31-1.728-0.913-3.16-0.94-5.169C16.233,54.299,13.315,61.721,12.688,71.433z M31.957,71.433
			c2.202-0.306,5.627,0.613,7.049-0.471c-1.91-2.476-3.392-5.381-7.988-5.17C30.933,68.07,31.637,69.56,31.957,71.433z
			 M23.498,71.433c2.046-0.304,5.313,0.612,6.579-0.471c-0.729-1.15-0.701-3.059-0.939-4.699
			C25.768,66.497,24.693,69.025,23.498,71.433z M3.76,88.351c7.228-0.489,15.214,0.763,21.147,0
			c-9.542-1.425-14.045-7.887-16.448-16.448c-1.565,0-3.133,0-4.699,0C3.76,77.385,3.76,82.868,3.76,88.351z M32.427,86.001
			c-0.361-5.276-1.302-9.977-2.819-14.099c-2.037,0-4.073,0-6.109,0c-0.794,5.337,2.233,6.853,3.76,9.869
			c-4.429-1.682-7.211-5.008-8.459-9.869c-2.035,0-4.072,0-6.108,0C13.022,82.625,21.168,87.736,32.427,86.001z M34.307,84.591
			c4.551-1.216,6.378-6.692,5.169-12.219c-2.358,0.306-5.942-0.615-7.521,0.471C33.072,76.427,33.848,80.351,34.307,84.591z
			 M30.077,88.82c1.33-0.08,3.224,0.404,3.29-0.939C31.91,87.834,30.76,88.094,30.077,88.82z"/>
	</g>
</g>
<g id="Layer_3">
	<g>
		<path fill="#FFFFFF" d="M44.146,44.594l0.166,0.319c-1.396-3.021-2.131-6.671-2.131-10.555c0-10.024,4.836-17.583,11.25-17.583
			s11.25,7.559,11.25,17.583c0,3.87-0.558,5.825-1.475,8.584l-7.592-2.523c0.758-2.279,1.065-3.314,1.065-6.061
			c0-6.233-2.498-9.46-3.257-9.583c-0.744,0.122-3.243,3.347-3.243,9.583c0,2.694,0.495,5.253,1.395,7.203l0.031,0.142"/>
	</g>
	<g>
		<path fill="#FFFFFF" d="M51.541,41.416l0.036,0.146l1.855,4.654l2.182-5.868l7.638,2.574l-5.444,14.271l11.456,28.744h7.44
			c2.546-0.051,5.361,0.218,8.146,0.771c4.358,0.867,8.382,2.375,11.323,4.246c5.435,3.454,5.619,7.117,5.245,8.993
			c-1.314,6.604-11.181,7.715-20.374,5.886c-7.485-1.489-12.055-2.926-14.758-6.251L65.9,99.108l-2.063-5.172H43.786l-0.78,2.043
			c-0.076,0.213-0.165,0.427-0.265,0.641c-2.235,4.79-9.677,7.893-15.896,9.194c-2.707,0.565-5.391,0.854-7.86,0.854
			c-1.5,0-2.921-0.105-4.222-0.319c-6.354-1.047-7.958-4.344-8.352-6.217c-0.392-1.871-0.244-5.534,5.153-9.044
			c2.924-1.899,6.93-3.448,11.28-4.359c3.353-0.703,7.502-1.015,10.625-0.792h4.804L49.22,57.255l-5.075-12.731l0.102-0.041
			 M15.204,98.292c1.879,0.452,5.434,0.648,10.001-0.308c4.996-1.047,8.324-2.87,9.671-4.048l-2.359-0.043
			c-2.044-0.1-5.167,0.065-8.029,0.665C19.918,95.516,16.744,97.123,15.204,98.292z M72.823,94.87
			c1.555,1.332,5.596,2.285,9.781,3.118c4.577,0.909,8.128,0.676,10.005,0.206c-1.552-1.153-4.742-2.729-9.321-3.64
			c-2.232-0.444-4.45-0.654-6.446-0.619l0.001,0.001l-0.126,0.002l-0.001-0.002h-4.265L72.823,94.87z M46.838,85.937H60.65
			l-7.056-17.705L46.838,85.937z"/>
	</g>
	<g>
		<path fill="#FFFFFF" d="M70.788,97.241"/>
	</g>
	<g>
		<path fill="#FFFFFF" d="M59.762,41.096"/>
	</g>
</g>
</svg>
