<?xml version="1.0" encoding="utf-8"?>
<!-- Generator: Adobe Illustrator 15.1.0, SVG Export Plug-In . SVG Version: 6.00 Build 0)  -->
<!DOCTYPE svg PUBLIC "-//W3C//DTD SVG 1.1//EN" "http://www.w3.org/Graphics/SVG/1.1/DTD/svg11.dtd">
<svg version="1.1" xmlns="http://www.w3.org/2000/svg" xmlns:xlink="http://www.w3.org/1999/xlink" x="0px" y="0px"
	 width="91.664px" height="92.5px" viewBox="0 0 91.664 92.5" enable-background="new 0 0 91.664 92.5" xml:space="preserve">
<g id="Layer_1" display="none">
	<g id="Layer_1_1_">
		<g display="inline">
			<path fill="#4389C2" d="M100.237,89.38c-1.969,0-3.938,0-5.904,0c-0.511-1.11,0.994-1.836,1.479-2.419
				c10-12.07,14.947-35.258,6.148-53.209C94.344,18.217,79.038,5.177,56.446,4.969C34.187,4.767,18.065,18.205,10.686,33.75
				C6.469,42.634,4.77,53.805,6.749,64.709c1.842,10.146,6.653,18.27,11.811,24.671c-2.397-0.456-4.214,0.608-6.15,0
				c-2.043-0.644-4.411-5.491-5.413-7.256c-4.689-8.258-7.599-18.347-6.889-30.958C0.938,36.443,7.875,24.709,16.1,16.338
				C26.369,5.884,40.852-1.06,60.874,0.133c15.36,0.916,28.412,8.858,37.148,18.141c9.046,9.608,15.201,23.849,14.271,40.39
				C111.551,71.831,106.963,80.396,100.237,89.38z"/>
			<path fill="#4389C2" d="M75.635,17.789c5.51-1.438,9.939,5.333,12.795,9.916c4.961,7.97,7.119,18.897,3.936,30.477
				c-1.246,4.526-3.644,10.965-8.363,10.398c-5.42-0.648-2.471-8.348-1.478-11.368c4.407-13.399-0.231-22.729-6.644-30.231
				C73.907,24.67,70.563,19.113,75.635,17.789z"/>
			<path fill="#4389C2" d="M34.549,19.482c2.006-0.264,4.251,0.557,4.676,2.419c1.082,4.755-3.782,8.021-5.413,10.158
				c-5.211,6.822-8.1,15.737-4.183,27.332c1.092,3.229,3.934,10.029-1.229,10.883c-4.517,0.744-7.065-4.989-8.364-9.435
				c-3.219-11.008-1.668-21.603,2.952-29.989C25.559,26.18,29.729,20.114,34.549,19.482z"/>
			<path fill="#4389C2" d="M60.381,25.045c0,3.532,0,6.934,0,11.125c0,3.427-0.955,8.644,2.216,8.707
				c4.924,0.102,1.383-13.869,2.461-17.896c7.276,3.036,11.688,14.619,7.135,23.46c-8.976,5.315-25.994,3.813-32.967-2.176
				c-3.136-9.198,1.871-18.571,7.873-21.042c1.059,3.757-2.49,17.729,2.707,17.413c4.575-0.277,1.11-16.409,2.214-19.591
				C54.618,24.462,57.782,24.462,60.381,25.045z"/>
			<path fill="#4389C2" d="M40.208,50.439c4.044,2.623,11,5.862,18.699,5.32c4.76-0.335,8.926-2.004,12.055-4.111
				c-2.074,4.178-6.898,7.662-13.041,8.224C49.579,60.637,43.169,55.74,40.208,50.439z"/>
			<path fill="#4389C2" d="M37.994,59.391c0.571-0.145,4.764-0.572,6.644-0.242c3.016,0.525,4.985,2.718,8.856,3.144
				c2,0.222,3.483,0.17,5.166,0c3.969-0.397,6.073-2.604,8.856-3.144c4.491-0.873,10.073,0.141,11.069,2.66
				c0.723,1.823-0.266,4.95-0.736,7.256c-0.905,4.399-1.885,8.793-2.952,13.543c-0.536,2.381-1.183,4.631-2.952,5.319
				c-3.359,1.313-11.469,0.242-15.5,0.242c-4.023,0-11.789,1.206-15.5-0.242c-2.938-1.146-3.32-7.6-4.183-12.093
				C35.601,69.777,31.717,60.945,37.994,59.391z"/>
			<path fill="#4389C2" d="M14.376,90.348c5.2-1.423,16.518-0.242,22.88-0.242c19.159,0,36.911,0,56.584,0
				c4.418,0,7.627,0.289,7.627,3.629c0,3.498-3.533,3.627-8.363,3.627c-20.249,0-39.938,0-60.029,0
				c-6.139,0-20.122,1.652-21.403-2.418C10.872,92.41,12.606,90.831,14.376,90.348z"/>
			<path fill="#4389C2" d="M58.415,110.904c-1.442,0.513-2.215-0.521-3.199-0.483c-1.438,0.056-1.618,1.181-3.197,0.728
				c-2.956-0.85-2.852-8.682,0.982-8.948c1.078-0.011,1.52,0.604,2.215,0.967c0-1.208,0-2.418,0-3.627
				c1.25,0.229,2.568-0.383,3.199,0C58.415,103.327,58.415,107.115,58.415,110.904z M54.231,109.938
				c1.566-0.554,1.587-6.287-0.246-6.53C53.183,104.915,52.706,108.852,54.231,109.938z"/>
			<path fill="#4389C2" d="M20.035,99.538c1.066,0,2.132,0,3.198,0c0,1.451,0,2.901,0,4.354c0.421,0.553,1.878,0.088,2.707,0.239
				c0-1.53,0-3.063,0-4.595c1.147,0,2.296,0,3.443,0c0,3.789,0,7.577,0,11.367c-1.146,0-2.296,0-3.443,0c0-1.774,0-3.549,0-5.321
				c-0.421-0.554-1.878-0.088-2.707-0.242c0,1.854,0,3.71,0,5.563c-1.066,0-2.132,0-3.198,0
				C20.035,107.115,20.035,103.327,20.035,99.538z"/>
			<path fill="#4389C2" d="M77.111,99.538c0.675,3.326-1.416,9.535,1.229,10.399c4.976,1.625,2.234-7.232,3.688-10.399
				c0.464,3.073,1.679,9.551-0.983,11.125c-1.631,0.965-4.865,1.021-6.396-0.483c-2.008-1.975-0.496-6.769-0.983-10.642
				C74.815,99.538,75.963,99.538,77.111,99.538z"/>
			<path fill="#4389C2" d="M38.732,103.407c0,2.097,0,4.192,0,6.288c0.183,1.047,1.329-0.354,1.229,0.968
				c-1.05,0.718-3.395,0.639-4.183-0.242c-2.553,1.692-5.827,0.322-4.92-2.66c0.605-1.993,4.179-1.288,4.92-3.386
				c0.055-2.294-4.097-1.4-2.707,0.727c-0.201,0.488-1.297-0.152-1.722-0.24C31.197,101.461,37.179,101.716,38.732,103.407z
				 M34.796,109.938c1.229,0.02,1.424-3.354,0.492-3.869C34.176,106.21,33.225,109.466,34.796,109.938z"/>
			<path fill="#4389C2" d="M43.406,102.198c0.538,0.036,0.528,0.608,0.492,1.209c0.635-0.027,1.896-1.517,3.937-0.968
				c1.769,1.406,0.69,5.609,0.984,8.465c-1.066,0-2.132,0-3.199,0c-0.147-2.272,0.307-5.137-0.246-7.014
				c-2.554,0.311-1.077,4.584-1.476,7.014c-1.066,0-2.132,0-3.198,0c0-2.82,0-5.645,0-8.465
				C41.528,102.286,42.985,102.752,43.406,102.198z"/>
			<path fill="#4389C2" d="M66.778,104.617c-1.844,1.104-2.306-3.151-4.429-0.969c0.754,2.461,4.083,1.688,4.675,3.869
				c1.309,4.818-7.443,5.197-7.381,0.727c0.752,0.176,0.896-0.247,1.477-0.241c-0.184,1.792,0.881,2.358,2.461,2.418
				c0.354-0.135,0.602-0.377,0.737-0.726c-0.831-2.614-5.547-1.647-4.428-5.563C60.521,101.925,66.301,101.32,66.778,104.617z"/>
			<path fill="#4389C2" d="M84.247,102.439c0.998,0.31,3.354-0.721,3.197,0.726c0.461,0.121,1.547-1.212,3.198-0.726
				c3.424,1.746,1.86,11.854-3.198,7.979c0,1.129,0,2.258,0,3.388c-1.066,0-2.132,0-3.197,0
				C84.247,110.02,84.247,106.229,84.247,102.439z M88.429,109.938c1.392-1.262,0.944-4.394,0.489-6.289
				C86.554,103.369,86.995,109.518,88.429,109.938z"/>
		</g>
	</g>
	<g id="Layer_2">
		<g display="inline">
			<path fill="#5BBBAB" d="M0,89.291C0,65.95,0,42.609,0,19.268c7.676,0,15.353,0,23.028,0c1.51-4.559,3.576-11.305,7.989-10.81
				c3.845,0.433,4.158,6.642,5.64,10.81c27.753,0.443,56.274,0.119,83.651,0.939c-26.218,0.212-55.931-0.15-83.651,0
				c0.082,6.035,0.227,12.132-1.41,16.448c28.869,0.112,57.751,0.208,86.001,0.94c-28.668,0-57.334,0-86.001,0
				c-1.631,6.102-9.415,8.708-7.049,15.978c29.99,1.653,64.286-1,93.521,1.409c-31.051,0.974-63.393-1.817-93.052,0.471
				c-0.283,5.581,5.479,2.988,8.93,4.699c3.956,1.963,5.713,5.75,7.049,11.279c25.487,0.043,50.869,0.196,75.662,0.938
				c-25.222,0-50.44,0-75.662,0c-0.18,3.542-0.715,6.255-1.88,8.46c-1.869,3.539-5.5,4.364-7.521,7.521
				c27.274,1.705,59.034-1.074,85.531,1.408c-28.861,0.354-56.459-0.563-85.062-0.47c2.265,10.519,3.271,22.812-7.519,23.497
				c-5.493,0.351-11.948-2.399-12.219-8.459c-0.387-8.608,11.749-10.192,11.749-2.35c0,4.513-1.841,3.265-5.64,6.107
				c10.832,9.346,16.159-7.999,11.279-18.798C22.244,89.291,11.122,89.291,0,89.291z M29.137,19.268
				c1.429-0.295,4.048,0.602,4.699-0.471C32.548,17.235,30.074,17.212,29.137,19.268z M3.76,36.656c6.423,0,12.846,0,19.269,0
				c-0.288-5.454-1.656-10.911-0.47-16.448c-6.557,0.133-12.017-0.83-18.799-0.47C3.76,25.377,3.76,31.017,3.76,36.656z
				 M25.377,36.656c6.578-1.881,8.871-8.048,8.93-16.448C23.871,17.937,24.623,29.297,25.377,36.656z M3.76,37.126
				c0,5.483,0,10.966,0,16.448c2.819,0,5.64,0,8.46,0c3.292-5.389,11.546-8.898,11.278-15.978
				C17.837,36.521,10.198,37.424,3.76,37.126z M22.558,54.044c1.253,0,2.506,0,3.76,0C27.015,48.959,23.011,51.521,22.558,54.044z
				 M3.76,71.434c1.566,0,3.134,0,4.699,0c-1.339-6.787,1.126-12.246,3.29-16.918c-2.663,0-5.326,0-7.989,0
				C3.76,60.152,3.76,65.793,3.76,71.434z M12.688,71.434c2.192,0,4.386,0,6.58,0c0.146-6.591,3.949-9.522,8.459-11.75
				c-0.31-1.728-0.913-3.16-0.94-5.168C16.233,54.299,13.315,61.721,12.688,71.434z M31.957,71.434
				c2.202-0.307,5.627,0.612,7.049-0.472c-1.91-2.476-3.392-5.381-7.988-5.17C30.933,68.07,31.637,69.561,31.957,71.434z
				 M23.498,71.434c2.046-0.305,5.313,0.611,6.579-0.472c-0.729-1.149-0.701-3.06-0.939-4.698
				C25.768,66.497,24.693,69.025,23.498,71.434z M3.76,88.352c7.228-0.49,15.214,0.763,21.147,0
				c-9.542-1.426-14.045-7.888-16.448-16.449c-1.565,0-3.133,0-4.699,0C3.76,77.385,3.76,82.868,3.76,88.352z M32.427,86.001
				c-0.361-5.276-1.302-9.978-2.819-14.099c-2.037,0-4.073,0-6.109,0c-0.794,5.337,2.233,6.853,3.76,9.869
				c-4.429-1.683-7.211-5.008-8.459-9.869c-2.035,0-4.072,0-6.108,0C13.022,82.625,21.168,87.736,32.427,86.001z M34.307,84.591
				c4.551-1.216,6.378-6.692,5.169-12.219c-2.358,0.306-5.942-0.615-7.521,0.471C33.072,76.427,33.848,80.352,34.307,84.591z
				 M30.077,88.82c1.33-0.08,3.224,0.404,3.29-0.939C31.91,87.834,30.76,88.094,30.077,88.82z"/>
		</g>
	</g>
</g>
<g id="Layer_2_1_" display="none">
	<g display="inline">
		<path fill-rule="evenodd" clip-rule="evenodd" fill="#FFFFFF" d="M0.154,85.929c0,0,6.354,4.946,14.855,4.81
			c7.981-0.13,11.059-2.569,11.059-2.569c0.494-0.331,23.044-13.5,31.405-31.327c8.36-17.827,14.246-22.62,12.406-39.508
			C68.041,0.445,62.021,1.582,62.188,1.08c0.166-0.502-7.524-0.034-7.042,13.579c0.324,9.145,0.959,74.24,1.858,76.414
			c0.9,2.174,0.515-24.746-10.862-38.291c-11.377-13.543-22.384-8.779-25.093-6.28c-2.709,2.497-14.375,15.645-0.163,30.526
			c14.213,14.881,64.971,3.177,70.776-21.403"/>
		<path d="M0.276,85.771c1.87,1.25,3.958,2.179,6.07,2.912c2.121,0.723,4.326,1.17,6.535,1.281c2.192,0.097,4.457-0.12,6.618-0.517
			c1.081-0.213,2.149-0.467,3.168-0.82c0.509-0.176,1.007-0.372,1.48-0.598c0.45-0.21,0.976-0.508,1.242-0.718l0.04-0.032
			l0.031-0.02c6.757-4.404,12.999-9.358,18.607-14.983c2.79-2.81,5.379-5.806,7.624-9.011c1.132-1.595,2.173-3.245,3.093-4.949
			c0.471-0.859,0.872-1.699,1.298-2.615l1.311-2.757c1.765-3.666,3.687-7.251,5.552-10.787c1.838-3.55,3.563-7.066,4.569-10.75
			c1.003-3.684,1.285-7.555,1.104-11.478c-0.212-3.926-0.659-7.902-1.818-11.567c-0.588-1.81-1.387-3.579-2.582-4.837
			c-0.298-0.309-0.62-0.581-0.963-0.798c-0.363-0.226-0.658-0.359-1.165-0.522c-0.089-0.038-0.144-0.032-0.41-0.188
			c-0.099,0-0.654-0.555-0.475-1.178c-0.198-0.014,0.346,1.364,0.437,1.049c0.254,0.121,0.217,0.07,0.234,0.083
			c-0.001-0.002-0.029-0.004-0.059-0.004c-0.131,0-0.326,0.028-0.513,0.077c-0.381,0.096-0.771,0.266-1.14,0.48
			c-1.494,0.873-2.584,2.479-3.245,4.244c-0.672,1.779-0.948,3.735-1.048,5.692c-0.05,0.988-0.033,1.954-0.012,2.979l0.036,3.029
			l0.083,6.05c0.037,4.033,0.115,8.064,0.196,12.095c0.147,8.063,0.384,16.124,0.693,24.182c0.296,8.055,0.611,16.12,1.083,24.146
			l0.202,2.995l0.127,1.475l0.078,0.709l0.045,0.321c0.01,0.076,0.045,0.226,0.022,0.132c0-0.019-0.065-0.16-0.033-0.093
			c-0.08-0.095,0.007-0.176-0.509-0.569c-0.993-0.693-2.307,0.509-2.03,0.478c-0.096,0.171-0.098,0.208-0.111,0.244
			c-0.021,0.074,0.002-0.028,0.007-0.107c0.016-0.18,0.025-0.408,0.029-0.635c0.008-0.459-0.003-0.941-0.021-1.425
			c-0.037-0.97-0.108-1.951-0.199-2.932c-0.371-3.928-1.035-7.849-1.958-11.683c-0.941-3.828-2.1-7.6-3.679-11.151
			c-1.583-3.557-3.536-6.859-6.137-9.639c-2.564-2.8-5.588-5.188-8.962-6.423c-3.343-1.265-7.064-1.229-10.213,0.142
			c-0.767,0.334-1.525,0.778-2.035,1.219c-0.566,0.51-1.241,1.248-1.807,1.945c-1.164,1.433-2.166,3.007-2.94,4.659
			c-1.547,3.306-2.16,6.95-1.438,10.453c0.688,3.51,2.603,6.795,5.093,9.64c0.638,0.726,1.238,1.389,1.9,1.946
			c0.667,0.574,1.401,1.093,2.182,1.556c1.562,0.928,3.303,1.639,5.117,2.176c3.639,1.075,7.542,1.476,11.445,1.52
			c3.912,0.033,7.852-0.343,11.738-1.029c7.771-1.361,15.427-3.894,22.275-7.883c3.4-2.017,6.644-4.351,9.358-7.238
			c2.704-2.874,4.894-6.306,5.973-10.165l0.389,0.092c-0.77,4.02-2.807,7.745-5.436,10.892c-2.641,3.153-5.813,5.847-9.262,8.072
			c-6.912,4.452-14.685,7.448-22.718,9.21c-4.027,0.848-8.135,1.381-12.289,1.482c-4.15,0.104-8.361-0.239-12.496-1.342
			c-2.063-0.559-4.108-1.325-6.042-2.411c-0.966-0.542-1.903-1.166-2.781-1.887c-0.901-0.721-1.669-1.549-2.37-2.328
			c-2.838-3.163-5.233-7.028-6.169-11.459c-0.97-4.414-0.261-9.15,1.654-13.112c0.941-1.997,2.127-3.846,3.507-5.54
			c0.712-0.86,1.389-1.627,2.321-2.467c1.027-0.869,2.048-1.42,3.122-1.899c4.269-1.89,9.21-1.735,13.375-0.093
			c4.206,1.63,7.617,4.491,10.433,7.653c2.871,3.168,5.017,6.944,6.641,10.771c1.626,3.852,2.82,7.831,3.672,11.861
			c0.854,4.031,1.428,8.1,1.704,12.21c0.067,1.029,0.114,2.061,0.126,3.107c0.005,0.524,0.002,1.05-0.021,1.599
			c-0.014,0.276-0.029,0.552-0.067,0.874c-0.024,0.171-0.036,0.319-0.125,0.636c-0.033,0.096-0.056,0.193-0.182,0.419
			c0.252,0.022-1.128,1.284-2.179,0.545c-0.568-0.43-0.511-0.57-0.62-0.72c0.003,0.011-0.083-0.189-0.103-0.269
			c-0.094-0.335-0.093-0.437-0.121-0.609l-0.047-0.429l-0.057-0.797l-0.068-1.543l-0.078-3.046
			c-0.234-16.171-0.033-32.286-0.256-48.419c-0.078-8.083-0.261-16.084-0.511-24.223c0.044-2.064,0.293-4.156,0.96-6.188
			c0.659-2.01,1.821-4.035,3.782-5.32c0.488-0.314,1.017-0.581,1.606-0.76c0.297-0.089,0.601-0.16,0.974-0.184
			c0.096-0.005,0.194-0.007,0.318,0.002c0.143,0.026,0.233-0.009,0.599,0.172c0.146-0.29,0.741,1.148,0.519,1.2
			c0.159-0.559-0.344-1.058-0.391-1.025c-0.158-0.091-0.092-0.047-0.062-0.045c0.46,0.119,1.111,0.354,1.613,0.65
			c0.522,0.299,0.993,0.664,1.412,1.061c1.665,1.619,2.614,3.612,3.366,5.58c1.446,3.982,2.068,8.076,2.474,12.175
			c0.378,4.109,0.279,8.402-0.775,12.533c-1.002,4.146-2.832,7.941-4.693,11.54c-1.858,3.617-3.777,7.124-5.563,10.701l-1.315,2.69
			c-0.435,0.907-0.913,1.882-1.423,2.785c-1.017,1.833-2.152,3.586-3.372,5.266c-2.464,3.345-5.248,6.402-8.207,9.243
			c-2.955,2.849-6.118,5.452-9.392,7.887c-3.255,2.426-6.708,4.726-10.168,6.706l0.071-0.052c-0.659,0.459-1.161,0.673-1.749,0.929
			c-0.569,0.238-1.144,0.432-1.722,0.602c-1.156,0.333-2.322,0.569-3.493,0.712c-2.346,0.271-4.665,0.344-7.021,0.09
			c-2.337-0.271-4.611-0.893-6.755-1.782c-2.145-0.894-4.159-2.052-5.977-3.489L0.276,85.771z"/>
	</g>
</g>
<g id="Layer_3">
	<g>
		<path fill-rule="evenodd" clip-rule="evenodd" fill="#FFFFFF" d="M57.952,79.379c15.135-3.186,28.146-10.574,33.84-24
			c-4.405,15.754-18.038,22.282-33.359,27.12c-0.329,1.512,1.851,9.16-0.96,9.84c-3.21,0.777-2.275-5.472-2.4-8.88
			c-6.96,1.336-15.477,2.324-21.36,0.96c-2.861,1.179-5.103,3.805-8.64,5.28c-8.366,3.491-19.783,0.739-25.2-3.84
			c0.932-0.462,2.042,0.548,2.88,0.96c7.6,3.735,21.383,3.863,26.88-3.12c-9.428-2.677-18.408-10.951-18-22.8
			c0.375-10.882,8.272-20.873,19.92-19.68c11.4,1.168,16.817,10.46,21.6,19.199c0.697-0.742,1.016-1.864,1.68-2.64
			c-0.052-11.803,0.092-25.51-0.239-36.72c-0.177-5.97-1.164-13.088,1.68-17.76c2.644-4.343,7.926-4.121,10.8-0.24
			c4.049,5.467,5.598,17.733,4.32,26.161c-1.751,11.545-10.775,22.883-14.641,32.159C57.21,66.841,56.974,73.471,57.952,79.379z
			 M68.512,24.899c0.588-8.772-0.881-21.782-7.2-23.04c-3.337-0.665-5.34,6.977-5.521,9.36c-0.544,7.177,0.24,14.674,0.24,22.08
			c0,7.661,0.23,14.305,0.72,20.64C59.866,45.124,67.693,37.119,68.512,24.899z M29.632,45.539
			c-8.415-0.048-14.199,8.935-13.68,17.28c0.615,9.886,8.771,16.072,17.52,18c6.574-4.707,12.468-10.093,17.041-16.8
			C46.668,55.74,40.717,45.604,29.632,45.539z M37.792,81.299c5.016,0.66,12.089-0.033,17.04-0.96
			c-0.805-4.314-1.475-8.765-3.12-12.239C47.834,73.262,42.808,77.275,37.792,81.299z"/>
	</g>
</g>
</svg>
