<?xml version="1.0" encoding="utf-8"?>
<!-- Generator: Adobe Illustrator 15.1.0, SVG Export Plug-In . SVG Version: 6.00 Build 0)  -->
<!DOCTYPE svg PUBLIC "-//W3C//DTD SVG 1.1//EN" "http://www.w3.org/Graphics/SVG/1.1/DTD/svg11.dtd">
<svg version="1.1" xmlns="http://www.w3.org/2000/svg" xmlns:xlink="http://www.w3.org/1999/xlink" x="0px" y="0px"
	 width="112.386px" height="113.808px" viewBox="0 0 112.386 113.808" enable-background="new 0 0 112.386 113.808"
	 xml:space="preserve">
<g id="Layer_1">
	<g>
		<path fill-rule="evenodd" clip-rule="evenodd" fill="#4389C2" d="M100.237,89.38c-1.969,0-3.937,0-5.904,0
			c-0.511-1.111,0.993-1.836,1.477-2.419c10-12.071,14.949-35.258,6.15-53.209C94.344,18.217,79.037,5.177,56.446,4.97
			c-22.259-0.203-38.381,13.236-45.76,28.781C6.469,42.634,4.77,53.804,6.749,64.709c1.842,10.147,6.653,18.269,11.81,24.671
			c-2.397-0.456-4.214,0.608-6.15,0c-2.043-0.643-4.411-5.492-5.413-7.256c-4.69-8.258-7.599-18.347-6.889-30.958
			c0.83-14.723,7.767-26.457,15.992-34.828C26.369,5.884,40.852-1.06,60.874,0.133c15.36,0.916,28.412,8.858,37.148,18.14
			c9.046,9.609,15.201,23.849,14.271,40.39C111.551,71.831,106.963,80.396,100.237,89.38z"/>
		<path fill-rule="evenodd" clip-rule="evenodd" fill="#4389C2" d="M75.635,17.789c5.509-1.438,9.939,5.333,12.794,9.916
			c4.961,7.97,7.121,18.897,3.936,30.475c-1.246,4.528-3.644,10.966-8.364,10.4c-5.42-0.65-2.47-8.348-1.477-11.368
			c4.407-13.4-0.231-22.73-6.643-30.232C73.907,24.67,70.563,19.113,75.635,17.789z"/>
		<path fill-rule="evenodd" clip-rule="evenodd" fill="#4389C2" d="M34.549,19.482c2.005-0.263,4.251,0.557,4.675,2.419
			c1.082,4.755-3.782,8.022-5.413,10.158c-5.211,6.823-8.099,15.738-4.182,27.331c1.091,3.23,3.933,10.031-1.23,10.883
			c-4.516,0.745-7.065-4.989-8.364-9.433c-3.219-11.008-1.668-21.603,2.952-29.99C25.559,26.18,29.729,20.114,34.549,19.482z"/>
		<path fill-rule="evenodd" clip-rule="evenodd" fill="#4389C2" d="M60.382,25.045c0,3.532,0,6.933,0,11.125
			c0,3.426-0.955,8.643,2.214,8.707c4.924,0.101,1.383-13.869,2.461-17.897c7.278,3.036,11.69,14.619,7.135,23.46
			c-8.975,5.317-25.994,3.814-32.967-2.176c-3.135-9.197,1.871-18.57,7.873-21.042c1.059,3.757-2.49,17.729,2.707,17.414
			c4.577-0.278,1.112-16.41,2.214-19.591C54.617,24.462,57.782,24.462,60.382,25.045z"/>
		<path fill-rule="evenodd" clip-rule="evenodd" fill="#4389C2" d="M40.208,50.44c4.044,2.622,11,5.863,18.698,5.321
			c4.761-0.335,8.926-2.004,12.055-4.112c-2.075,4.177-6.899,7.661-13.04,8.223C49.579,60.637,43.169,55.74,40.208,50.44z"/>
		<path fill-rule="evenodd" clip-rule="evenodd" fill="#4389C2" d="M37.994,59.39c0.571-0.143,4.764-0.571,6.643-0.242
			c3.016,0.527,4.986,2.718,8.857,3.144c2.001,0.221,3.484,0.17,5.167,0c3.969-0.399,6.073-2.604,8.856-3.144
			c4.493-0.872,10.074,0.141,11.07,2.66c0.722,1.825-0.265,4.952-0.737,7.256c-0.905,4.401-1.884,8.793-2.952,13.544
			c-0.536,2.381-1.182,4.631-2.952,5.32c-3.359,1.312-11.469,0.242-15.5,0.242c-4.024,0-11.789,1.206-15.5-0.242
			c-2.938-1.146-3.32-7.6-4.183-12.093C35.601,69.778,31.717,60.946,37.994,59.39z"/>
		<path fill-rule="evenodd" clip-rule="evenodd" fill="#4389C2" d="M14.376,90.347c5.2-1.421,16.517-0.242,22.88-0.242
			c19.158,0,36.91,0,56.584,0c4.418,0,7.627,0.289,7.627,3.629c0,3.498-3.534,3.628-8.364,3.628c-20.249,0-39.937,0-60.029,0
			c-6.139,0-20.122,1.652-21.403-2.419C10.872,92.41,12.606,90.831,14.376,90.347z"/>
		<path fill-rule="evenodd" clip-rule="evenodd" fill="#4389C2" d="M58.414,110.905c-1.443,0.512-2.215-0.521-3.199-0.484
			c-1.438,0.055-1.619,1.18-3.198,0.726c-2.956-0.848-2.851-8.68,0.984-8.948c1.077-0.01,1.518,0.604,2.214,0.967
			c0-1.208,0-2.418,0-3.627c1.251,0.23,2.568-0.383,3.199,0C58.414,103.327,58.414,107.115,58.414,110.905z M54.231,109.938
			c1.567-0.553,1.587-6.287-0.246-6.531C53.183,104.915,52.705,108.851,54.231,109.938z"/>
		<path fill-rule="evenodd" clip-rule="evenodd" fill="#4389C2" d="M20.035,99.538c1.066,0,2.132,0,3.198,0c0,1.451,0,2.902,0,4.354
			c0.421,0.553,1.878,0.089,2.707,0.241c0-1.531,0-3.063,0-4.595c1.148,0,2.296,0,3.444,0c0,3.789,0,7.577,0,11.367
			c-1.147,0-2.296,0-3.444,0c0-1.774,0-3.548,0-5.321c-0.421-0.553-1.878-0.088-2.707-0.242c0,1.854,0,3.71,0,5.563
			c-1.066,0-2.132,0-3.198,0C20.035,107.115,20.035,103.327,20.035,99.538z"/>
		<path fill-rule="evenodd" clip-rule="evenodd" fill="#4389C2" d="M77.111,99.538c0.675,3.326-1.416,9.535,1.23,10.4
			c4.975,1.625,2.235-7.233,3.689-10.4c0.463,3.074,1.678,9.551-0.983,11.125c-1.631,0.965-4.867,1.02-6.397-0.484
			c-2.008-1.974-0.496-6.768-0.983-10.641C74.815,99.538,75.963,99.538,77.111,99.538z"/>
		<path fill-rule="evenodd" clip-rule="evenodd" fill="#4389C2" d="M38.732,103.407c0,2.097,0,4.192,0,6.289
			c0.183,1.046,1.329-0.354,1.23,0.967c-1.05,0.718-3.395,0.639-4.183-0.242c-2.553,1.692-5.827,0.322-4.92-2.66
			c0.606-1.995,4.179-1.29,4.92-3.386c0.055-2.294-4.097-1.402-2.707,0.725c-0.201,0.49-1.297-0.152-1.722-0.24
			C31.197,101.461,37.179,101.716,38.732,103.407z M34.796,109.938c1.229,0.019,1.423-3.355,0.492-3.87
			C34.176,106.21,33.225,109.466,34.796,109.938z"/>
		<path fill-rule="evenodd" clip-rule="evenodd" fill="#4389C2" d="M43.406,102.198c0.538,0.036,0.528,0.609,0.492,1.209
			c0.635-0.027,1.897-1.516,3.937-0.967c1.768,1.406,0.69,5.61,0.984,8.465c-1.066,0-2.132,0-3.199,0
			c-0.148-2.273,0.307-5.138-0.246-7.014c-2.554,0.31-1.077,4.584-1.476,7.014c-1.066,0-2.132,0-3.198,0c0-2.821,0-5.644,0-8.465
			C41.528,102.286,42.985,102.752,43.406,102.198z"/>
		<path fill-rule="evenodd" clip-rule="evenodd" fill="#4389C2" d="M66.778,104.617c-1.844,1.104-2.306-3.151-4.429-0.968
			c0.754,2.46,4.083,1.688,4.675,3.869c1.309,4.819-7.443,5.198-7.381,0.726c0.752,0.176,0.896-0.247,1.476-0.241
			c-0.183,1.792,0.882,2.358,2.461,2.418c0.354-0.135,0.601-0.377,0.738-0.725c-0.831-2.615-5.547-1.648-4.428-5.563
			C60.521,101.925,66.302,101.321,66.778,104.617z"/>
		<path fill-rule="evenodd" clip-rule="evenodd" fill="#4389C2" d="M84.246,102.44c0.998,0.309,3.355-0.72,3.198,0.725
			c0.461,0.121,1.547-1.212,3.198-0.725c3.424,1.746,1.862,11.854-3.198,7.98c0,1.129,0,2.258,0,3.387c-1.066,0-2.132,0-3.198,0
			C84.246,110.019,84.246,106.229,84.246,102.44z M88.429,109.938c1.392-1.261,0.945-4.393,0.491-6.289
			C86.554,103.369,86.995,109.518,88.429,109.938z"/>
	</g>
</g>
<g id="Layer_2" display="none">
	<g display="inline">
		<linearGradient id="SVGID_1_" gradientUnits="userSpaceOnUse" x1="237.3242" y1="60.625" x2="237.8242" y2="60.625">
			<stop  offset="0" style="stop-color:#43B7C2"/>
			<stop  offset="1" style="stop-color:#9DC66B"/>
		</linearGradient>
		<path fill-rule="evenodd" clip-rule="evenodd" fill="url(#SVGID_1_)" d="M0,89.291C0,65.95,0,42.609,0,19.268
			c7.676,0,15.352,0,23.028,0c1.51-4.558,3.576-11.304,7.989-10.809c3.845,0.432,4.159,6.641,5.64,10.809
			c27.754,0.444,56.274,0.119,83.651,0.94c-26.217,0.212-55.93-0.151-83.651,0c0.082,6.035,0.227,12.132-1.41,16.448
			c28.868,0.112,57.752,0.208,86.001,0.94c-28.667,0-57.333,0-86.001,0c-1.631,6.102-9.415,8.708-7.049,15.978
			c29.99,1.653,64.286-1,93.521,1.41c-31.05,0.973-63.391-1.818-93.051,0.47c-0.283,5.581,5.479,2.988,8.929,4.699
			c3.956,1.963,5.713,5.751,7.049,11.279c25.489,0.044,50.869,0.198,75.662,0.939c-25.221,0-50.441,0-75.662,0
			c-0.179,3.542-0.715,6.255-1.88,8.46c-1.869,3.539-5.5,4.364-7.52,7.519c27.274,1.706,59.034-1.073,85.531,1.41
			c-28.862,0.352-56.459-0.562-85.061-0.47c2.264,10.518,3.27,22.811-7.519,23.497c-5.493,0.35-11.948-2.4-12.219-8.459
			c-0.386-8.608,11.749-10.192,11.749-2.35c0,4.513-1.841,3.265-5.639,6.109c10.832,9.345,16.159-7.999,11.279-18.798
			C22.244,89.291,11.122,89.291,0,89.291z M29.137,19.268c1.429-0.295,4.048,0.602,4.7-0.47
			C32.548,17.235,30.074,17.212,29.137,19.268z M3.76,36.656c6.422,0,12.845,0,19.268,0c-0.288-5.454-1.656-10.911-0.47-16.448
			c-6.556,0.133-12.016-0.83-18.798-0.47C3.76,25.377,3.76,31.017,3.76,36.656z M25.377,36.656
			c6.578-1.881,8.871-8.048,8.929-16.448C23.871,17.937,24.623,29.297,25.377,36.656z M3.76,37.126c0,5.483,0,10.966,0,16.448
			c2.819,0,5.639,0,8.459,0c3.292-5.389,11.546-8.898,11.279-15.978C17.837,36.521,10.198,37.424,3.76,37.126z M22.558,54.044
			c1.253,0,2.506,0,3.76,0C27.015,48.959,23.011,51.521,22.558,54.044z M3.76,71.433c1.566,0,3.133,0,4.699,0
			c-1.339-6.786,1.126-12.246,3.29-16.918c-2.663,0-5.326,0-7.989,0C3.76,60.153,3.76,65.793,3.76,71.433z M12.688,71.433
			c2.193,0,4.386,0,6.58,0c0.146-6.589,3.95-9.522,8.459-11.749c-0.309-1.727-0.913-3.16-0.94-5.169
			C16.233,54.299,13.315,61.721,12.688,71.433z M31.957,71.433c2.202-0.305,5.627,0.614,7.049-0.47
			c-1.911-2.476-3.392-5.381-7.989-5.17C30.933,68.07,31.637,69.56,31.957,71.433z M23.498,71.433
			c2.046-0.303,5.313,0.613,6.579-0.47c-0.729-1.151-0.701-3.059-0.94-4.7C25.768,66.497,24.693,69.025,23.498,71.433z M3.76,88.351
			c7.227-0.489,15.213,0.763,21.147,0c-9.542-1.424-14.045-7.886-16.448-16.448c-1.566,0-3.133,0-4.699,0
			C3.76,77.386,3.76,82.868,3.76,88.351z M32.427,86.001c-0.362-5.277-1.302-9.977-2.82-14.099c-2.037,0-4.073,0-6.109,0
			c-0.794,5.337,2.233,6.853,3.76,9.869c-4.429-1.681-7.211-5.008-8.459-9.869c-2.036,0-4.073,0-6.109,0
			C13.022,82.625,21.168,87.736,32.427,86.001z M34.307,84.591c4.551-1.216,6.378-6.693,5.169-12.219
			c-2.358,0.306-5.942-0.615-7.52,0.471C33.072,76.427,33.848,80.351,34.307,84.591z M30.077,88.82
			c1.33-0.08,3.224,0.404,3.29-0.939C31.91,87.834,30.76,88.094,30.077,88.82z"/>
	</g>
</g>
<g id="Layer_3" display="none">
</g>
</svg>
