<svg xmlns="http://www.w3.org/2000/svg" width="1920" height="645.918" viewBox="0 0 1920 645.918">
  <g id="Swoosh" transform="translate(32 -754.387)">
    <path id="Grey_Swish" data-name="Grey Swish" d="M5.028,1147.184s88.547,99.9,189.937,101.7,1414.16-.545,1537.834,0,192.229,110.838,192.229,110.838v373.217s-68.551-111.1-192.229-110.839-1436.446-.258-1537.834,0S5.028,1504.874,5.028,1504.874Z" transform="translate(-37.028 -332.636)" fill="#636363"/>
    <path id="Green_Swish" data-name="Green Swish" d="M5.028,1147.184s88.547,95.1,189.937,96.815,1414.16-.519,1537.834,0,192.229,105.513,192.229,105.513V1704.8s-68.551-105.758-192.229-105.513-1436.446-.245-1537.834,0-189.937-111.6-189.937-111.6Z" transform="translate(-37.028 -392.797)" fill="#92d7e8"/>
  </g>
</svg>
