<svg xmlns="http://www.w3.org/2000/svg" width="235" height="188" viewBox="0 0 235 188">
  <path id="Icon_awesome-project-diagram" data-name="Icon awesome-project-diagram" d="M141,117.5H94a11.751,11.751,0,0,0-11.75,11.75v47A11.751,11.751,0,0,0,94,188h47a11.751,11.751,0,0,0,11.75-11.75v-47A11.751,11.751,0,0,0,141,117.5ZM70.5,11.75A11.751,11.751,0,0,0,58.75,0h-47A11.751,11.751,0,0,0,0,11.75v47A11.751,11.751,0,0,0,11.75,70.5H46.9l26.863,47.015A23.422,23.422,0,0,1,94,105.75h.1l-23.6-41.3V47h82.25V23.5H70.5ZM223.25,0h-47A11.751,11.751,0,0,0,164.5,11.75v47A11.751,11.751,0,0,0,176.25,70.5h47A11.751,11.751,0,0,0,235,58.75v-47A11.751,11.751,0,0,0,223.25,0Z" fill="#92d7e8"/>
</svg>
