<?xml version="1.0" encoding="utf-8"?>
<!-- Generator: Adobe Illustrator 15.1.0, SVG Export Plug-In . SVG Version: 6.00 Build 0)  -->
<!DOCTYPE svg PUBLIC "-//W3C//DTD SVG 1.1//EN" "http://www.w3.org/Graphics/SVG/1.1/DTD/svg11.dtd">
<svg version="1.1" xmlns="http://www.w3.org/2000/svg" xmlns:xlink="http://www.w3.org/1999/xlink" x="0px" y="0px"
	 width="198.833px" height="125.962px" viewBox="-36.807 -9.558 198.833 125.962"
	 enable-background="new -36.807 -9.558 198.833 125.962" xml:space="preserve">
<g id="Camper">
	<g id="Layer_2" display="none">
		<g display="inline">
			
				<linearGradient id="SVGID_1_" gradientUnits="userSpaceOnUse" x1="443.3269" y1="-241.8167" x2="443.8269" y2="-241.8167" gradientTransform="matrix(1 0 0 -1 -206 -181.1919)">
				<stop  offset="0" style="stop-color:#43B7C2"/>
				<stop  offset="1" style="stop-color:#9DC66B"/>
			</linearGradient>
			<path fill="url(#SVGID_1_)" d="M0,89.291C0,65.95,0,42.609,0,19.268c7.676,0,15.353,0,23.028,0
				c1.51-4.559,3.576-11.305,7.989-10.81c3.845,0.433,4.158,6.642,5.64,10.81c27.754,0.443,56.274,0.119,83.651,0.939
				c-26.218,0.212-55.931-0.15-83.651,0c0.082,6.035,0.227,12.132-1.41,16.448c28.868,0.112,57.752,0.208,86.001,0.94
				c-28.667,0-57.333,0-86.001,0c-1.631,6.102-9.415,8.708-7.049,15.978c29.99,1.653,64.286-1,93.521,1.41
				c-31.051,0.973-63.392-1.818-93.052,0.47c-0.283,5.581,5.479,2.988,8.93,4.699c3.956,1.963,5.713,5.751,7.049,11.279
				c25.488,0.044,50.869,0.197,75.662,0.938c-25.222,0-50.441,0-75.662,0c-0.18,3.542-0.715,6.255-1.88,8.46
				c-1.869,3.539-5.5,4.364-7.521,7.52c27.274,1.706,59.034-1.073,85.531,1.409c-28.862,0.353-56.459-0.562-85.062-0.47
				c2.265,10.519,3.271,22.812-7.519,23.497c-5.493,0.351-11.948-2.399-12.219-8.459c-0.387-8.607,11.749-10.192,11.749-2.35
				c0,4.513-1.841,3.265-5.64,6.108c10.832,9.346,16.159-7.999,11.279-18.798C22.244,89.291,11.122,89.291,0,89.291z M29.137,19.268
				c1.429-0.295,4.048,0.602,4.699-0.471C32.548,17.235,30.074,17.212,29.137,19.268z M3.76,36.656c6.423,0,12.846,0,19.269,0
				c-0.288-5.454-1.656-10.911-0.47-16.448c-6.557,0.133-12.017-0.83-18.799-0.47C3.76,25.377,3.76,31.017,3.76,36.656z
				 M25.377,36.656c6.578-1.881,8.871-8.048,8.93-16.448C23.871,17.937,24.623,29.297,25.377,36.656z M3.76,37.126
				c0,5.483,0,10.966,0,16.448c2.819,0,5.64,0,8.459,0c3.293-5.389,11.547-8.898,11.279-15.978
				C17.837,36.521,10.198,37.424,3.76,37.126z M22.558,54.044c1.253,0,2.506,0,3.76,0C27.015,48.959,23.011,51.521,22.558,54.044z
				 M3.76,71.433c1.566,0,3.134,0,4.699,0c-1.339-6.786,1.126-12.246,3.29-16.918c-2.663,0-5.326,0-7.989,0
				C3.76,60.153,3.76,65.793,3.76,71.433z M12.688,71.433c2.192,0,4.386,0,6.58,0c0.146-6.59,3.949-9.522,8.459-11.749
				c-0.31-1.728-0.913-3.16-0.94-5.169C16.233,54.299,13.315,61.721,12.688,71.433z M31.957,71.433
				c2.202-0.306,5.627,0.613,7.049-0.471c-1.91-2.476-3.392-5.381-7.988-5.17C30.933,68.07,31.637,69.56,31.957,71.433z
				 M23.498,71.433c2.046-0.304,5.313,0.612,6.579-0.471c-0.729-1.15-0.701-3.059-0.939-4.699
				C25.768,66.497,24.693,69.025,23.498,71.433z M3.76,88.351c7.228-0.489,15.214,0.763,21.147,0
				c-9.542-1.425-14.045-7.887-16.448-16.448c-1.565,0-3.133,0-4.699,0C3.76,77.385,3.76,82.868,3.76,88.351z M32.427,86.001
				c-0.361-5.276-1.302-9.977-2.819-14.099c-2.037,0-4.073,0-6.109,0c-0.794,5.337,2.233,6.853,3.76,9.869
				c-4.429-1.682-7.211-5.008-8.459-9.869c-2.035,0-4.072,0-6.108,0C13.022,82.625,21.168,87.736,32.427,86.001z M34.307,84.591
				c4.551-1.216,6.378-6.692,5.169-12.219c-2.358,0.307-5.942-0.615-7.521,0.471C33.072,76.427,33.848,80.351,34.307,84.591z
				 M30.077,88.82c1.33-0.08,3.224,0.404,3.29-0.939C31.91,87.834,30.76,88.094,30.077,88.82z"/>
		</g>
	</g>
	<g id="Layer_3" display="none">
	</g>
	<linearGradient id="SVGID_2_" gradientUnits="userSpaceOnUse" x1="0.1648" y1="116.3689" x2="126.1686" y2="-9.6349">
		<stop  offset="0" style="stop-color:#522F88"/>
		<stop  offset="1" style="stop-color:#4466BF"/>
	</linearGradient>
	<path fill="url(#SVGID_2_)" d="M162.316,104.613c0,6.627-5.373,12-12,12H-24.515c-6.627,0-12-5.373-12-12V2.651
		c0-6.627,5.373-12,12-12h174.831c6.627,0,12,5.373,12,12V104.613z"/>
	<path fill="none" stroke="#FFFFFF" stroke-width="2" stroke-miterlimit="10" d="M153.443,94.398c0,6.627-5.373,12-12,12H-16.223
		c-6.627,0-12-5.373-12-12V12.866c0-6.627,5.373-12,12-12h157.667c6.627,0,12,5.373,12,12V94.398z"/>
</g>
<g id="Water_Logo">
	<g>
		<path fill-rule="evenodd" clip-rule="evenodd" fill="#FFFFFF" d="M65.977,23.748c3.348-0.751,10.571-3.723,11.159,1.145
			c0.094,0.766-0.107,1.903-0.428,2.432c-1.901,3.144-7.359,0.003-10.59-0.285c-0.671,0.069-1.367,1.281-2.144,1.717
			c0,1.382,0,2.766,0,4.148c0.432,0.331,1.475,0.051,2.144,0.144c0.833,2.365-1.401,7.296,0.717,8.727
			c1.131,0.763,5.252,0.287,7.296,0.287c4.792,0,10.354-0.832,11.448,2.432c1.175,3.509-0.591,10.183,0.142,14.307
			c-2.678,0.959-7.471,0.969-10.302,0.143c-0.054-2.092-0.075-4.216-0.285-6.151c-3.834-2.213-9.282-0.311-14.021-0.286
			c-2.42,0.013-4.739-0.543-6.868-0.716c-1.792-0.145-5.808-0.378-7.296,0.144c-1.213,0.425-1.846,1.971-2.002,3.577
			c-0.895,9.167,0.674,21.513,0,30.903c-1.952,3.332-8.172,3.033-9.443-1.287c-0.743-2.529-0.139-7.5-0.143-11.018
			c-0.008-7.605,0.143-13.729,0.143-21.89c0-3.937-0.548-8.475,1.717-9.729c1.68-0.929,5.415-0.428,8.727-0.428
			c3.814,0,8.474,0.545,9.873-0.858c0.325-2.442,0.055-5.478,0.142-8.155c0.812,0,1.624,0,2.433,0
			c-0.015-1.375,0.528-2.963,0.145-4.149c-0.318-0.979-1.616-1.068-1.861-1.859c-3.639,1.006-12.151,4.01-11.302-2.146
			c0.203-1.469,1.487-2.719,3.004-2.862c2.641-0.249,5.945,2.174,7.87,1.86c1.053-0.172,2.238-2.094,4.292-2.289
			C62.921,21.376,64.366,22.354,65.977,23.748z"/>
		<path fill-rule="evenodd" clip-rule="evenodd" fill="#FFFFFF" d="M81,60.519c0.716,2.893,3.457,4.648,4.149,7.295
			c1.747,6.672-7.595,8.23-8.44,2.574c-0.603-4.02,3.137-6.529,4.006-9.441C80.756,60.806,80.859,60.572,81,60.519z"/>
		<path fill-rule="evenodd" clip-rule="evenodd" fill="#FFFFFF" d="M75.849,71.535c0.715,2.895,3.457,4.65,4.15,7.295
			c1.746,6.672-7.597,8.23-8.443,2.578c-0.603-4.021,3.138-6.533,4.005-9.443C75.605,71.824,75.709,71.59,75.849,71.535z"/>
		<path fill-rule="evenodd" clip-rule="evenodd" fill="#FFFFFF" d="M85.721,76.398c0.716,2.896,3.457,4.652,4.149,7.299
			c1.746,6.668-7.594,8.229-8.442,2.574c-0.601-4.02,3.14-6.531,4.007-9.443C85.476,76.689,85.582,76.455,85.721,76.398z"/>
	</g>
</g>
<g id="HandsUp" display="none">
	<linearGradient id="SVGID_3_" gradientUnits="userSpaceOnUse" x1="0.1648" y1="116.3689" x2="126.1686" y2="-9.6349">
		<stop  offset="0" style="stop-color:#4B45A8"/>
		<stop  offset="1" style="stop-color:#449EBF"/>
	</linearGradient>
	<path display="inline" fill="url(#SVGID_3_)" d="M162.316,104.613c0,6.627-5.373,12-12,12H-24.515c-6.627,0-12-5.373-12-12V2.651
		c0-6.627,5.373-12,12-12h174.831c6.627,0,12,5.373,12,12V104.613z"/>
	<path display="inline" fill="none" stroke="#FFFFFF" stroke-width="2" stroke-miterlimit="10" d="M153.734,94.398
		c0,6.627-5.373,12-12,12H-15.932c-6.627,0-12-5.373-12-12V12.866c0-6.627,5.373-12,12-12h157.667c6.627,0,12,5.373,12,12V94.398z"
		/>
</g>
<g id="Xylophun" display="none">
	<linearGradient id="SVGID_4_" gradientUnits="userSpaceOnUse" x1="-0.1272" y1="116.3679" x2="125.8766" y2="-9.6359">
		<stop  offset="0" style="stop-color:#4C82AD"/>
		<stop  offset="1" style="stop-color:#4FBA9A"/>
	</linearGradient>
	<path display="inline" fill="url(#SVGID_4_)" d="M162.025,104.613c0,6.627-5.373,12-12,12H-24.806c-6.627,0-12-5.373-12-12V2.651
		c0-6.627,5.373-12,12-12h174.831c6.627,0,12,5.373,12,12V104.613z"/>
	<path display="inline" fill="none" stroke="#FFFFFF" stroke-width="2" stroke-miterlimit="10" d="M153.443,94.398
		c0,6.627-5.373,12-12,12H-16.223c-6.627,0-12-5.373-12-12V12.866c0-6.627,5.373-12,12-12h157.667c6.627,0,12,5.373,12,12V94.398z"
		/>
</g>
<g id="Xylophun_Logo" display="none">
	<path display="inline" fill="#FFFFFF" d="M27.494,21.775c-2.468,0-4.428,0.922-4.428,3.389l-0.04,26.691
		c0,2.467,2,2.886,4.468,2.886c2.467,0,4.468-0.419,4.468-2.886V25.163C31.962,22.753,29.93,21.775,27.494,21.775z M27.494,52.354
		c-0.67,0-1.213-0.518-1.213-1.155c0-0.637,0.542-1.154,1.213-1.154s1.213,0.518,1.213,1.154
		C28.707,51.836,28.165,52.354,27.494,52.354z M27.494,27.474c-0.67,0-1.213-0.517-1.213-1.156c0-0.638,0.542-1.155,1.213-1.155
		s1.213,0.518,1.213,1.155C28.707,26.957,28.165,27.474,27.494,27.474z"/>
	<path display="inline" fill="#FFFFFF" d="M37.766,21.775c-2.468,0-4.426,0.529-4.426,3.389l-0.042,31.889
		c0,2.859,2,2.928,4.469,2.928c2.468,0,4.467-0.068,4.467-2.928V25.163C42.233,22.304,40.234,21.775,37.766,21.775z M37.766,57.681
		c-0.671,0-1.214-0.518-1.214-1.155c0-0.639,0.543-1.156,1.214-1.156c0.67,0,1.213,0.517,1.213,1.156
		C38.979,57.164,38.436,57.681,37.766,57.681z M37.766,27.474c-0.671,0-1.214-0.517-1.214-1.156c0-0.638,0.543-1.155,1.214-1.155
		c0.67,0,1.213,0.518,1.213,1.155C38.979,26.957,38.436,27.474,37.766,27.474z"/>
	<path display="inline" fill="#FFFFFF" d="M52.521,25.163c0-3.112-1.916-3.389-4.384-3.389c-2.466,0-4.382,0.277-4.382,3.389
		L43.67,59.98c0,3.112,2.001,3.389,4.467,3.389c2.468,0,4.467-0.276,4.467-3.389L52.521,25.163z M48.137,61.135
		c-0.67,0-1.213-0.518-1.213-1.154c0-0.638,0.543-1.156,1.213-1.156s1.214,0.519,1.214,1.156
		C49.351,60.617,48.807,61.135,48.137,61.135z M48.137,27.474c-0.67,0-1.213-0.517-1.213-1.156c0-0.638,0.543-1.155,1.213-1.155
		s1.214,0.518,1.214,1.155C49.351,26.957,48.807,27.474,48.137,27.474z"/>
	<path display="inline" fill="#FFFFFF" d="M62.593,25.163c0-3.577-2-3.389-4.466-3.389c-2.468,0-4.446-0.188-4.446,3.389
		l0.195,40.324c0,3.577,1.783,4.08,4.251,4.08c2.466,0,4.686-0.503,4.686-4.08L62.593,25.163z M58.245,67.758
		c-0.67,0-1.214-0.517-1.214-1.154c0-0.637,0.544-1.154,1.214-1.154c0.671,0,1.214,0.518,1.214,1.154
		C59.459,67.241,58.916,67.758,58.245,67.758z M58.245,27.27c-0.67,0-1.214-0.518-1.214-1.155c0-0.638,0.544-1.156,1.214-1.156
		c0.671,0,1.214,0.518,1.214,1.156C59.459,26.752,58.916,27.27,58.245,27.27z"/>
	<path display="inline" fill="#FFFFFF" d="M72.788,25.163c0-3.423-2.001-3.389-4.468-3.389c-2.469,0-4.468-0.034-4.468,3.389
		l0.207,44.135c0,3.853,1.792,3.929,4.261,3.929c2.467,0,4.672-0.076,4.672-3.929L72.788,25.163z M68.422,71.648
		c-0.67,0-1.212-0.518-1.212-1.154c0-0.638,0.542-1.154,1.212-1.154c0.671,0,1.214,0.517,1.214,1.154
		C69.635,71.131,69.093,71.648,68.422,71.648z M68.422,27.474c-0.67,0-1.212-0.517-1.212-1.156c0-0.638,0.542-1.155,1.212-1.155
		c0.671,0,1.214,0.518,1.214,1.155C69.635,26.957,69.093,27.474,68.422,27.474z"/>
	<path display="inline" fill="#FFFFFF" d="M93.328,25.24c0.154-3.769-2-3.648-4.468-3.648c-2.467,0-4.467-0.473-4.467,3.39
		l0.153,51.942c0,4.501,1.847,4.794,4.313,4.794c2.468,0,4.622-0.293,4.622-4.794L93.328,25.24z M88.938,80.007
		c-0.672,0-1.214-0.517-1.214-1.156c0-0.637,0.542-1.154,1.214-1.154c0.67,0,1.212,0.518,1.212,1.154
		C90.15,79.49,89.608,80.007,88.938,80.007z M88.938,27.474c-0.672,0-1.214-0.517-1.214-1.156c0-0.638,0.542-1.155,1.214-1.155
		c0.67,0,1.212,0.518,1.212,1.155C90.15,26.957,89.608,27.474,88.938,27.474z"/>
	<path display="inline" fill="#FFFFFF" d="M83.097,25.12c0-3.546-2.002-3.346-4.469-3.346c-2.466,0-4.467-0.2-4.467,3.346
		l0.23,47.568c0,4.128,1.771,4.236,4.236,4.236c2.467,0,4.699-0.108,4.699-4.236L83.097,25.12z M78.744,75.115
		c-0.67,0-1.212-0.517-1.212-1.154c0-0.64,0.542-1.156,1.212-1.156c0.672,0,1.214,0.517,1.214,1.156
		C79.958,74.598,79.416,75.115,78.744,75.115z M78.744,27.27c-0.67,0-1.212-0.518-1.212-1.155c0-0.638,0.542-1.156,1.212-1.156
		c0.672,0,1.214,0.518,1.214,1.156C79.958,26.752,79.416,27.27,78.744,27.27z"/>
	<path display="inline" fill="#FFFFFF" d="M98.72,21.775c-2.469,0-4.276-0.617-4.468,3.389v56.383c0,4.844,1.999,4.93,4.468,4.93
		c2.466,0,4.467,0.086,4.467-4.758V25.163C103.187,21.653,101.186,21.775,98.72,21.775z M98.72,84.897
		c-0.671,0-1.213-0.518-1.213-1.154c0-0.638,0.542-1.154,1.213-1.154c0.67,0,1.213,0.517,1.213,1.154
		C99.933,84.38,99.39,84.897,98.72,84.897z M98.72,27.474c-0.671,0-1.213-0.517-1.213-1.156c0-0.638,0.542-1.155,1.213-1.155
		c0.67,0,1.213,0.518,1.213,1.155C99.933,26.957,99.39,27.474,98.72,27.474z"/>
</g>
<g id="Hands_Up_Logo" display="none">
	<g id="Layer_1_2_" display="inline">
		<g>
			<path fill="#FFFFFF" d="M93.2,82.062c-1.314,0-2.632,0-3.948,0c-0.34-0.743,0.663-1.228,0.989-1.618
				c6.686-8.068,9.991-23.568,4.112-35.568c-5.092-10.385-15.325-19.102-30.428-19.24c-14.877-0.136-25.655,8.847-30.586,19.239
				c-2.82,5.938-3.956,13.405-2.634,20.694c1.231,6.783,4.448,12.213,7.896,16.493c-1.603-0.306-2.817,0.404-4.111,0
				c-1.366-0.431-2.949-3.674-3.619-4.852c-3.135-5.521-5.079-12.264-4.604-20.693c0.554-9.842,5.192-17.686,10.69-23.282
				c6.864-6.989,16.547-11.629,29.932-10.833C77.156,23.015,85.88,28.324,91.72,34.53c6.048,6.422,10.161,15.941,9.539,26.999
				C100.763,70.333,97.696,76.055,93.2,82.062z"/>
			<path fill="#FFFFFF" d="M76.754,34.205c3.683-0.961,6.644,3.566,8.552,6.628c3.317,5.328,4.763,12.632,2.633,20.373
				c-0.834,3.026-2.436,7.332-5.593,6.951c-3.622-0.434-1.65-5.579-0.986-7.6c2.947-8.956-0.153-15.192-4.439-20.208
				C75.598,38.804,73.363,35.09,76.754,34.205z"/>
			<path fill="#FFFFFF" d="M49.289,35.337c1.341-0.177,2.842,0.372,3.126,1.618c0.723,3.178-2.528,5.361-3.619,6.79
				c-3.483,4.561-5.414,10.521-2.796,18.27c0.729,2.159,2.629,6.704-0.822,7.273c-3.019,0.501-4.722-3.333-5.59-6.304
				c-2.153-7.359-1.115-14.441,1.973-20.048C43.28,39.815,46.068,35.76,49.289,35.337z"/>
			<path fill="#FFFFFF" d="M66.558,39.055c0,2.361,0,4.635,0,7.437c0,2.291-0.64,5.777,1.479,5.82
				c3.292,0.068,0.923-9.271,1.645-11.963c4.868,2.03,7.815,9.772,4.771,15.682c-5.999,3.554-17.377,2.55-22.037-1.453
				c-2.097-6.149,1.25-12.414,5.262-14.066c0.708,2.511-1.664,11.851,1.811,11.64c3.057-0.186,0.741-10.969,1.479-13.096
				C62.704,38.666,64.82,38.666,66.558,39.055z"/>
			<path fill="#FFFFFF" d="M53.072,56.031c2.704,1.753,7.352,3.92,12.5,3.558c3.182-0.225,5.966-1.34,8.057-2.749
				c-1.385,2.793-4.611,5.123-8.716,5.497C59.336,62.849,55.052,59.575,53.072,56.031z"/>
			<path fill="#FFFFFF" d="M51.592,62.014c0.383-0.097,3.185-0.381,4.442-0.161c2.017,0.352,3.333,1.816,5.918,2.101
				c1.339,0.149,2.331,0.114,3.455,0c2.653-0.266,4.061-1.74,5.92-2.101c3.006-0.584,6.734,0.096,7.399,1.777
				c0.484,1.22-0.176,3.31-0.492,4.85c-0.604,2.942-1.259,5.878-1.972,9.056c-0.359,1.59-0.791,3.094-1.975,3.557
				c-2.246,0.877-7.667,0.159-10.362,0.159c-2.688,0-7.879,0.807-10.359-0.159c-1.964-0.768-2.22-5.083-2.796-8.085
				C49.992,68.958,47.395,63.054,51.592,62.014z"/>
			<path fill="#FFFFFF" d="M35.804,82.709c3.477-0.951,11.041-0.161,15.294-0.161c12.805,0,24.676,0,37.824,0
				c2.953,0,5.1,0.192,5.1,2.425c0,2.338-2.363,2.426-5.593,2.426c-13.533,0-26.695,0-40.126,0c-4.103,0-13.451,1.104-14.308-1.617
				C33.463,84.089,34.622,83.031,35.804,82.709z"/>
		</g>
	</g>
</g>
</svg>
