<?xml version="1.0" encoding="utf-8"?>
<!-- Generator: Adobe Illustrator 15.1.0, SVG Export Plug-In . SVG Version: 6.00 Build 0)  -->
<!DOCTYPE svg PUBLIC "-//W3C//DTD SVG 1.1//EN" "http://www.w3.org/Graphics/SVG/1.1/DTD/svg11.dtd">
<svg version="1.1" xmlns="http://www.w3.org/2000/svg" xmlns:xlink="http://www.w3.org/1999/xlink" x="0px" y="0px"
	 width="90.955px" height="113.281px" viewBox="10.719 0 90.955 113.281" enable-background="new 10.719 0 90.955 113.281"
	 xml:space="preserve">
<g id="Layer_1">
	<rect id="_x3C_Slice_x3E_" x="-3.54" y="-2.86" fill="#9468C5" width="9" height="3"/>
	<g>
		<path fill-rule="evenodd" clip-rule="evenodd" fill="#9468C5" d="M59.132,5.339c2.992-0.48,5.736-1.359,8.683-2.17
			c2.78-0.766,6.032-1.788,9.343-1.416c2.666,0.3,5.555,2.681,5.945,5.757c0.586,4.606-2.559,7.954-6.7,8.116
			c-5.499,0.216-9.825-2.634-14.722-3.586c-0.686-0.133-1.828-0.395-2.265-0.283c-0.679,0.174-1.366,1.63-1.983,2.171
			c-0.813,0.712-1.486,0.857-2.169,1.509c0,3.083,0,6.166,0,9.249c1.325,0.217,3.049,0.034,4.53,0.094
			c0.376,4.59-0.499,10.637,0,15.1c0.199,1.781,1.291,3.41,2.831,3.964c2.266,0.815,6.413,0.283,9.343,0.283
			c3.172,0,6.584,0,9.531,0c7.251,0,15.681-0.98,18.688,3.397c2.184,3.183,1.32,9.77,1.32,15.1c0,5.871,0,11.215,0,16.61
			c-5.612,1.938-15.835,2.148-21.706,0.282c-0.111-3.072-0.15-6.488-0.283-9.814c-0.043-1.069,0.017-2.254-0.282-3.02
			c-1.008-2.575-6.639-2.171-10.099-2.171c-2.24,0-4.287-0.203-6.134,0c-1.807,0.197-3.527,0.646-5.191,0.85
			c-5.753,0.701-11.625,0.686-17.27,0c-1.817-0.222-3.581-0.709-5.191-0.85c-3.992-0.349-8.24,0-12.362,0c-4.189,0-8.356,0-12.269,0
			c0-6.795,0-13.59,0-20.385c6.444,0,13.081,0,19.818,0c3.29,0,6.224,0.243,7.456-1.793c1.221-2.018,0.755-5.269,0.755-8.399
			c0-3.249,0-6.405,0-9.154c1.699,0,3.397,0,5.096,0c0.172-2.185,0.094-4.511,0.094-6.984c0-0.764,0.191-1.85,0-2.359
			c-0.18-0.48-1.413-0.924-1.888-1.321c-0.781-0.653-1.214-1.514-1.981-2.077c-5.559,0.484-11.148,3.851-17.271,3.586
			c-4.717-0.204-8.605-5.512-5.851-10.381c0.959-1.697,2.9-3.234,5.19-3.492c6.283-0.706,11.753,3.637,17.742,3.87
			c1.893-2.653,5.183-4.9,9.625-4.908C53.857,0.707,57.227,2.673,59.132,5.339z"/>
		<path fill-rule="evenodd" clip-rule="evenodd" fill="#9468C5" d="M91.408,84.162c-0.018-0.08,0.036-0.09,0.094-0.095
			c0.063,0,0.125,0,0.188,0c1.533,6.362,6.824,10.202,8.588,16.327c1.153,4.003-0.441,7.885-2.642,9.814
			c-5.805,5.091-16.99,0.752-14.911-9.061c1.22-5.752,5.573-9.638,7.739-14.438C90.821,85.918,90.944,84.904,91.408,84.162z"/>
	</g>
</g>
<g id="Layer_2" display="none">
</g>
</svg>
