<?xml version="1.0" encoding="utf-8"?>
<!-- Generator: Adobe Illustrator 15.1.0, SVG Export Plug-In . SVG Version: 6.00 Build 0)  -->
<!DOCTYPE svg PUBLIC "-//W3C//DTD SVG 1.1//EN" "http://www.w3.org/Graphics/SVG/1.1/DTD/svg11.dtd">
<svg version="1.1" xmlns="http://www.w3.org/2000/svg" xmlns:xlink="http://www.w3.org/1999/xlink" x="0px" y="0px" width="126.5px"
	 height="125.962px" viewBox="-0.807 -9.558 126.5 125.962" enable-background="new -0.807 -9.558 126.5 125.962"
	 xml:space="preserve">
<g id="Layer_1">
	<g id="Layer_2" display="none">
		<g display="inline">
			
				<linearGradient id="SVGID_1_" gradientUnits="userSpaceOnUse" x1="443.3259" y1="-241.8167" x2="443.8259" y2="-241.8167" gradientTransform="matrix(1 0 0 -1 -206 -181.1919)">
				<stop  offset="0" style="stop-color:#43B7C2"/>
				<stop  offset="1" style="stop-color:#9DC66B"/>
			</linearGradient>
			<path fill="url(#SVGID_1_)" d="M0,89.291C0,65.95,0,42.609,0,19.268c7.676,0,15.353,0,23.028,0
				c1.51-4.559,3.576-11.305,7.989-10.81c3.845,0.433,4.158,6.642,5.64,10.81c27.754,0.443,56.274,0.119,83.651,0.939
				c-26.218,0.212-55.931-0.15-83.651,0c0.082,6.035,0.227,12.132-1.41,16.448c28.868,0.112,57.752,0.208,86.001,0.94
				c-28.667,0-57.333,0-86.001,0c-1.631,6.102-9.415,8.708-7.049,15.978c29.99,1.653,64.286-1,93.521,1.41
				c-31.051,0.973-63.392-1.818-93.052,0.47c-0.283,5.581,5.479,2.988,8.93,4.699c3.956,1.963,5.713,5.751,7.049,11.279
				c25.488,0.044,50.869,0.197,75.662,0.938c-25.222,0-50.441,0-75.662,0c-0.18,3.542-0.715,6.255-1.88,8.46
				c-1.869,3.539-5.5,4.364-7.521,7.52c27.274,1.706,59.034-1.073,85.531,1.409c-28.862,0.353-56.459-0.562-85.062-0.47
				c2.265,10.519,3.271,22.812-7.519,23.497c-5.493,0.351-11.948-2.399-12.219-8.459c-0.387-8.607,11.749-10.192,11.749-2.35
				c0,4.513-1.841,3.265-5.64,6.108c10.832,9.346,16.159-7.999,11.279-18.798C22.244,89.291,11.122,89.291,0,89.291z M29.137,19.268
				c1.429-0.295,4.048,0.602,4.699-0.471C32.548,17.235,30.074,17.212,29.137,19.268z M3.76,36.656c6.423,0,12.846,0,19.269,0
				c-0.288-5.454-1.656-10.911-0.47-16.448c-6.557,0.133-12.017-0.83-18.799-0.47C3.76,25.377,3.76,31.017,3.76,36.656z
				 M25.377,36.656c6.578-1.881,8.871-8.048,8.93-16.448C23.871,17.937,24.623,29.297,25.377,36.656z M3.76,37.126
				c0,5.483,0,10.966,0,16.448c2.819,0,5.64,0,8.459,0c3.293-5.389,11.547-8.898,11.279-15.978
				C17.837,36.521,10.198,37.424,3.76,37.126z M22.558,54.044c1.253,0,2.506,0,3.76,0C27.015,48.959,23.011,51.521,22.558,54.044z
				 M3.76,71.433c1.566,0,3.134,0,4.699,0c-1.339-6.786,1.126-12.246,3.29-16.918c-2.663,0-5.326,0-7.989,0
				C3.76,60.153,3.76,65.793,3.76,71.433z M12.688,71.433c2.192,0,4.386,0,6.58,0c0.146-6.59,3.949-9.522,8.459-11.749
				c-0.31-1.728-0.913-3.16-0.94-5.169C16.233,54.299,13.315,61.721,12.688,71.433z M31.957,71.433
				c2.202-0.306,5.627,0.613,7.049-0.471c-1.91-2.476-3.392-5.381-7.988-5.17C30.933,68.07,31.637,69.56,31.957,71.433z
				 M23.498,71.433c2.046-0.304,5.313,0.612,6.579-0.471c-0.729-1.15-0.701-3.059-0.939-4.699
				C25.768,66.497,24.693,69.025,23.498,71.433z M3.76,88.351c7.228-0.489,15.214,0.763,21.147,0
				c-9.542-1.425-14.045-7.887-16.448-16.448c-1.565,0-3.133,0-4.699,0C3.76,77.385,3.76,82.868,3.76,88.351z M32.427,86.001
				c-0.361-5.276-1.302-9.977-2.819-14.099c-2.037,0-4.073,0-6.109,0c-0.794,5.337,2.233,6.853,3.76,9.869
				c-4.429-1.682-7.211-5.008-8.459-9.869c-2.035,0-4.072,0-6.108,0C13.022,82.625,21.168,87.736,32.427,86.001z M34.307,84.591
				c4.551-1.216,6.378-6.692,5.169-12.219c-2.358,0.307-5.942-0.615-7.521,0.471C33.072,76.427,33.848,80.351,34.307,84.591z
				 M30.077,88.82c1.33-0.08,3.224,0.404,3.29-0.939C31.91,87.834,30.76,88.094,30.077,88.82z"/>
		</g>
	</g>
	<g id="Layer_3" display="none">
	</g>
	<circle fill="#6B6B6B" stroke="#6B6B6B" stroke-miterlimit="10" cx="62.976" cy="53.077" r="62.572"/>
</g>
<g id="Layer_3_1_" display="none">
	<g id="Layer_2_2_" display="inline">
		<g>
			<path fill="#FFFFFF" d="M111.756,30.049c-16.336,0-32.672,0-49.009,0c-1.631,6.102-9.415,8.708-7.049,15.978
				c18.884,1.041,39.286,0.663,59.245,0.628l3.125,0.375c-20.5,0.188-42.463-0.623-61.9,0.877c-0.283,5.581,5.479,2.988,8.93,4.699
				c3.956,1.963,5.713,5.751,7.049,11.279c14.602,0.025,29.543,0.395,43.984,0.582l-2.438,0.356c-13.849,0-27.697,0-41.546,0
				c-0.18,3.542-0.715,6.255-1.88,8.46c-1.869,3.539-5.5,4.364-7.521,7.52c15.291,0.956,32.68,0.81,49.072,0.664l-2.001,0.658
				c-15.481-0.181-30.89-0.434-46.602-0.383c2.265,10.519,3.271,22.812-7.519,23.497c-5.493,0.351-11.948-2.399-12.219-8.459
				c-0.387-8.607,11.749-10.192,11.749-2.35c0,4.513-1.841,3.265-5.64,6.108c10.832,9.346,16.159-7.999,11.279-18.798
				c-11.123,0.002-22.245,0.002-33.367,0.002c0-23.341,0-46.682,0-70.022c7.676,0,15.353,0,23.028,0
				c1.51-4.559,3.576-11.305,7.989-10.81c3.845,0.433,4.158,6.642,5.64,10.81c13.35,0.213,24.731,0.613,38.224,0.684l2.125,0.272
				c-13.507-0.043-27.153-0.088-40.349-0.016c0.082,6.035,0.227,12.132-1.41,16.448c15.846,0.062,31.386,0.449,47.134,0.608
				L111.756,30.049z M56.637,11.72c1.429-0.295,4.048,0.602,4.699-0.471C60.048,9.687,57.574,9.664,56.637,11.72z M31.26,29.108
				c6.423,0,12.846,0,19.269,0c-0.288-5.454-1.656-10.911-0.47-16.448c-6.557,0.133-12.017-0.83-18.799-0.47
				C31.26,17.829,31.26,23.469,31.26,29.108z M52.877,29.108c6.578-1.881,8.871-8.048,8.93-16.448
				C51.371,10.389,52.123,21.749,52.877,29.108z M31.26,29.578c0,5.483,0,10.966,0,16.448c2.819,0,5.64,0,8.459,0
				c3.293-5.389,11.547-8.898,11.279-15.978C45.337,28.973,37.698,29.876,31.26,29.578z M50.058,46.496c1.253,0,2.506,0,3.76,0
				C54.515,41.411,50.511,43.973,50.058,46.496z M31.26,63.885c1.566,0,3.134,0,4.699,0c-1.339-6.786,1.126-12.246,3.29-16.918
				c-2.663,0-5.326,0-7.989,0C31.26,52.605,31.26,58.245,31.26,63.885z M40.188,63.885c2.192,0,4.386,0,6.58,0
				c0.146-6.59,3.949-9.522,8.459-11.749c-0.31-1.728-0.913-3.16-0.94-5.169C43.733,46.751,40.815,54.174,40.188,63.885z
				 M59.457,63.885c2.202-0.306,5.627,0.613,7.049-0.471c-1.91-2.476-3.392-5.381-7.988-5.17
				C58.433,60.522,59.137,62.012,59.457,63.885z M50.998,63.885c2.046-0.304,5.313,0.612,6.579-0.471
				c-0.729-1.15-0.701-3.059-0.939-4.699C53.268,58.949,52.193,61.477,50.998,63.885z M31.26,80.803
				c7.228-0.489,15.214,0.763,21.147,0c-9.542-1.425-14.045-7.887-16.448-16.448c-1.565,0-3.133,0-4.699,0
				C31.26,69.838,31.26,75.32,31.26,80.803z M59.927,78.453c-0.361-5.276-1.302-9.977-2.819-14.099c-2.037,0-4.073,0-6.109,0
				c-0.794,5.337,2.233,6.853,3.76,9.869c-4.429-1.682-7.211-5.008-8.459-9.869c-2.035,0-4.072,0-6.108,0
				C40.522,75.077,48.668,80.188,59.927,78.453z M61.807,77.043c4.551-1.216,6.378-6.692,5.169-12.219
				c-2.358,0.307-5.942-0.615-7.521,0.471C60.572,68.879,61.348,72.803,61.807,77.043z M57.577,81.272
				c1.33-0.08,3.224,0.404,3.29-0.939C59.41,80.286,58.26,80.546,57.577,81.272z"/>
		</g>
	</g>
</g>
<g id="Layer_4">
	<g>
		<path fill="#FFFFFF" d="M62.231,10.635c2.502-0.401,4.795-1.136,7.258-1.814c2.324-0.64,5.041-1.494,7.809-1.183
			c2.229,0.251,4.643,2.241,4.969,4.811c0.49,3.85-2.139,6.648-5.6,6.784c-4.596,0.18-8.211-2.201-12.305-2.997
			c-0.572-0.111-1.527-0.33-1.893-0.237c-0.566,0.146-1.143,1.363-1.658,1.815c-0.678,0.595-1.242,0.716-1.811,1.261
			c0,2.577,0,5.154,0,7.73c1.105,0.181,2.547,0.028,3.785,0.078c0.314,3.837-0.418,8.891,0,12.621
			c0.166,1.489,1.078,2.85,2.365,3.313c1.895,0.682,5.359,0.237,7.809,0.237c2.65,0,5.504,0,7.967,0
			c6.061,0,13.105-0.819,15.619,2.839c1.824,2.661,1.104,8.166,1.104,12.621c0,4.906,0,9.373,0,13.882
			c-4.691,1.62-13.236,1.795-18.143,0.235c-0.092-2.567-0.125-5.423-0.236-8.202c-0.035-0.894,0.014-1.884-0.236-2.524
			c-0.842-2.151-5.549-1.814-8.439-1.814c-1.873,0-3.582-0.169-5.127,0c-1.51,0.165-2.947,0.54-4.338,0.711
			c-4.809,0.586-9.717,0.573-14.435,0c-1.518-0.186-2.993-0.593-4.339-0.711c-3.336-0.291-6.887,0-10.331,0
			c-3.501,0-6.984,0-10.255,0c0-5.679,0-11.358,0-17.037c5.386,0,10.933,0,16.564,0c2.75,0,5.202,0.203,6.231-1.499
			c1.021-1.687,0.631-4.404,0.631-7.02c0-2.716,0-5.354,0-7.651c1.42,0,2.839,0,4.259,0c0.144-1.826,0.078-3.77,0.078-5.837
			c0-0.638,0.16-1.546,0-1.972c-0.15-0.401-1.18-0.772-1.578-1.104c-0.652-0.546-1.015-1.266-1.656-1.736
			c-4.646,0.404-9.317,3.219-14.434,2.997c-3.942-0.17-7.192-4.607-4.89-8.676c0.802-1.418,2.424-2.703,4.337-2.918
			c5.251-0.59,9.824,3.04,14.829,3.234c1.582-2.217,4.333-4.095,8.044-4.102C57.823,6.763,60.641,8.406,62.231,10.635z"/>
		<path fill="#FFFFFF" d="M89.208,76.514c-0.016-0.067,0.031-0.075,0.078-0.08c0.053,0,0.105,0,0.158,0
			c1.281,5.318,5.703,8.527,7.178,13.646c0.963,3.345-0.369,6.59-2.209,8.202c-4.852,4.255-14.199,0.629-12.461-7.573
			c1.018-4.808,4.656-8.056,6.467-12.067C88.718,77.981,88.821,77.135,89.208,76.514z"/>
	</g>
</g>
<g id="Layer_2_1_" display="none">
	<g id="Layer_1_2_" display="inline">
		<g>
			<path fill="#FFFFFF" d="M100.987,79.724c-1.717,0-3.436,0-5.152,0c-0.445-0.969,0.866-1.602,1.29-2.11
				c8.725-10.533,13.043-30.765,5.365-46.429C95.845,17.629,82.488,6.251,62.776,6.071C43.354,5.894,29.286,17.62,22.848,31.184
				c-3.681,7.751-5.163,17.499-3.437,27.013c1.607,8.854,5.806,15.941,10.306,21.527c-2.092-0.398-3.677,0.53-5.367,0
				c-1.782-0.561-3.849-4.792-4.724-6.331c-4.092-7.206-6.63-16.009-6.01-27.013c0.724-12.847,6.777-23.086,13.954-30.391
				C36.531,6.868,49.169,0.81,66.64,1.85c13.403,0.799,24.791,7.73,32.414,15.829c7.894,8.384,13.265,20.81,12.452,35.242
				C110.859,64.412,106.855,71.885,100.987,79.724z"/>
			<path fill="#FFFFFF" d="M79.519,17.256c4.808-1.254,8.673,4.654,11.164,8.653c4.329,6.955,6.214,16.489,3.435,26.592
				c-1.087,3.95-3.18,9.569-7.299,9.075c-4.729-0.567-2.154-7.285-1.288-9.921c3.846-11.691-0.202-19.833-5.797-26.379
				C78.012,23.26,75.094,18.411,79.519,17.256z"/>
			<path fill="#FFFFFF" d="M43.669,18.734c1.75-0.23,3.709,0.486,4.08,2.111c0.944,4.149-3.3,7-4.724,8.864
				c-4.547,5.953-7.067,13.732-3.649,23.848c0.952,2.818,3.432,8.752-1.073,9.496c-3.941,0.65-6.166-4.354-7.299-8.231
				c-2.809-9.606-1.455-18.851,2.576-26.168C35.825,24.578,39.464,19.285,43.669,18.734z"/>
			<path fill="#FFFFFF" d="M66.21,23.588c0,3.082,0,6.05,0,9.707c0,2.99-0.833,7.542,1.933,7.598
				c4.297,0.088,1.206-12.102,2.148-15.616c6.35,2.65,10.199,12.756,6.225,20.471c-7.831,4.639-22.682,3.328-28.766-1.898
				c-2.736-8.026,1.633-16.205,6.87-18.361c0.924,3.277-2.173,15.469,2.363,15.194c3.992-0.242,0.97-14.319,1.932-17.094
				C61.18,23.079,63.942,23.079,66.21,23.588z"/>
			<path fill="#FFFFFF" d="M48.607,45.747c3.529,2.289,9.598,5.116,16.315,4.643c4.154-0.293,7.789-1.749,10.519-3.588
				c-1.81,3.645-6.02,6.686-11.378,7.175C56.784,54.645,51.191,50.371,48.607,45.747z"/>
			<path fill="#FFFFFF" d="M46.675,53.556c0.499-0.125,4.157-0.499,5.797-0.211c2.631,0.459,4.351,2.371,7.728,2.742
				c1.746,0.195,3.041,0.148,4.51,0c3.462-0.347,5.298-2.271,7.727-2.742c3.92-0.761,8.79,0.123,9.658,2.32
				c0.632,1.592-0.23,4.321-0.642,6.332c-0.79,3.839-1.645,7.672-2.575,11.818c-0.469,2.077-1.032,4.04-2.577,4.642
				c-2.931,1.146-10.008,0.211-13.524,0.211c-3.512,0-10.287,1.053-13.525-0.211c-2.564-1-2.897-6.632-3.649-10.553
				C44.587,62.621,41.198,54.913,46.675,53.556z"/>
			<path fill="#FFFFFF" d="M26.067,80.569c4.538-1.241,14.413-0.212,19.964-0.212c16.717,0,32.208,0,49.374,0
				c3.855,0,6.654,0.252,6.654,3.167c0,3.052-3.082,3.165-7.298,3.165c-17.668,0-34.848,0-52.379,0
				c-5.356,0-17.558,1.442-18.676-2.11C23.01,82.369,24.523,80.99,26.067,80.569z"/>
			<path fill="#FFFFFF" d="M64.494,98.506c-1.26,0.448-1.934-0.453-2.792-0.421c-1.255,0.049-1.412,1.029-2.79,0.634
				c-2.58-0.741-2.488-7.574,0.857-7.809c0.94-0.009,1.325,0.527,1.933,0.844c0-1.054,0-2.11,0-3.165
				c1.092,0.202,2.24-0.333,2.792,0C64.494,91.894,64.494,95.2,64.494,98.506z M60.844,97.664c1.367-0.483,1.385-5.486-0.215-5.699
				C59.929,93.281,59.511,96.715,60.844,97.664z"/>
			<path fill="#FFFFFF" d="M31.005,88.588c0.931,0,1.86,0,2.791,0c0,1.267,0,2.532,0,3.8c0.367,0.482,1.639,0.078,2.362,0.21
				c0-1.335,0-2.672,0-4.01c1.001,0,2.004,0,3.004,0c0,3.307,0,6.612,0,9.918c-1,0-2.003,0-3.004,0c0-1.548,0-3.094,0-4.642
				c-0.367-0.482-1.638-0.076-2.362-0.211c0,1.617,0,3.236,0,4.853c-0.931,0-1.86,0-2.791,0
				C31.005,95.2,31.005,91.894,31.005,88.588z"/>
			<path fill="#FFFFFF" d="M80.808,88.588c0.588,2.903-1.235,8.32,1.071,9.076c4.343,1.418,1.951-6.313,3.221-9.076
				c0.404,2.684,1.465,8.335-0.858,9.708c-1.423,0.842-4.246,0.891-5.581-0.422c-1.752-1.723-0.433-5.906-0.858-9.286
				C78.804,88.588,79.805,88.588,80.808,88.588z"/>
			<path fill="#FFFFFF" d="M47.32,91.965c0,1.829,0,3.658,0,5.487c0.159,0.912,1.16-0.309,1.073,0.844
				c-0.916,0.626-2.962,0.558-3.649-0.211c-2.228,1.476-5.084,0.28-4.293-2.322c0.529-1.739,3.646-1.124,4.293-2.954
				c0.047-2.001-3.575-1.223-2.362,0.633c-0.176,0.428-1.132-0.132-1.503-0.209C40.744,90.265,45.965,90.488,47.32,91.965z
				 M43.885,97.664c1.073,0.016,1.241-2.929,0.429-3.377C43.343,94.41,42.514,97.251,43.885,97.664z"/>
			<path fill="#FFFFFF" d="M51.397,90.909c0.47,0.031,0.461,0.532,0.43,1.056c0.554-0.024,1.655-1.322,3.435-0.845
				c1.543,1.228,0.603,4.896,0.859,7.386c-0.931,0-1.86,0-2.792,0c-0.128-1.982,0.268-4.481-0.214-6.118
				c-2.229,0.269-0.94,3.999-1.288,6.118c-0.931,0-1.86,0-2.791,0c0-2.461,0-4.924,0-7.386
				C49.759,90.986,51.031,91.392,51.397,90.909z"/>
			<path fill="#FFFFFF" d="M71.792,93.02c-1.609,0.964-2.012-2.749-3.864-0.845c0.657,2.146,3.563,1.473,4.078,3.377
				c1.144,4.204-6.494,4.534-6.439,0.632c0.656,0.154,0.781-0.216,1.288-0.21c-0.16,1.563,0.769,2.058,2.146,2.11
				c0.309-0.117,0.524-0.33,0.644-0.633c-0.725-2.281-4.84-1.438-3.862-4.854C66.332,90.671,71.376,90.144,71.792,93.02z"/>
			<path fill="#FFFFFF" d="M87.033,91.12c0.871,0.271,2.929-0.627,2.791,0.633c0.402,0.106,1.35-1.058,2.79-0.633
				c2.989,1.523,1.625,10.344-2.79,6.964c0,0.985,0,1.971,0,2.956c-0.931,0-1.859,0-2.791,0
				C87.033,97.734,87.033,94.427,87.033,91.12z M90.683,97.664c1.215-1.102,0.824-3.834,0.429-5.488
				C89.048,91.93,89.431,97.297,90.683,97.664z"/>
		</g>
	</g>
</g>
</svg>
