<?xml version="1.0" encoding="utf-8"?>
<!-- Generator: Adobe Illustrator 15.1.0, SVG Export Plug-In . SVG Version: 6.00 Build 0)  -->
<!DOCTYPE svg PUBLIC "-//W3C//DTD SVG 1.1//EN" "http://www.w3.org/Graphics/SVG/1.1/DTD/svg11.dtd">
<svg version="1.1" xmlns="http://www.w3.org/2000/svg" xmlns:xlink="http://www.w3.org/1999/xlink" x="0px" y="0px" width="126.5px"
	 height="125.962px" viewBox="-0.807 -9.558 126.5 125.962" enable-background="new -0.807 -9.558 126.5 125.962"
	 xml:space="preserve">
<g id="Layer_1">
	<g id="Layer_2" display="none">
		<g display="inline">
			
				<linearGradient id="SVGID_1_" gradientUnits="userSpaceOnUse" x1="443.3259" y1="-241.8167" x2="443.8259" y2="-241.8167" gradientTransform="matrix(1 0 0 -1 -206 -181.1919)">
				<stop  offset="0" style="stop-color:#43B7C2"/>
				<stop  offset="1" style="stop-color:#9DC66B"/>
			</linearGradient>
			<path fill="url(#SVGID_1_)" d="M0,89.291C0,65.95,0,42.609,0,19.268c7.676,0,15.353,0,23.028,0
				c1.51-4.559,3.576-11.305,7.989-10.81c3.845,0.433,4.158,6.642,5.64,10.81c27.754,0.443,56.274,0.119,83.651,0.939
				c-26.218,0.212-55.931-0.15-83.651,0c0.082,6.035,0.227,12.132-1.41,16.448c28.868,0.112,57.752,0.208,86.001,0.94
				c-28.667,0-57.333,0-86.001,0c-1.631,6.102-9.415,8.708-7.049,15.978c29.99,1.653,64.286-1,93.521,1.41
				c-31.051,0.973-63.392-1.818-93.052,0.47c-0.283,5.581,5.479,2.988,8.93,4.699c3.956,1.963,5.713,5.751,7.049,11.279
				c25.488,0.044,50.869,0.197,75.662,0.938c-25.222,0-50.441,0-75.662,0c-0.18,3.542-0.715,6.255-1.88,8.46
				c-1.869,3.539-5.5,4.364-7.521,7.52c27.274,1.706,59.034-1.073,85.531,1.409c-28.862,0.353-56.459-0.562-85.062-0.47
				c2.265,10.519,3.271,22.812-7.519,23.497c-5.493,0.351-11.948-2.399-12.219-8.459c-0.387-8.607,11.749-10.192,11.749-2.35
				c0,4.513-1.841,3.265-5.64,6.108c10.832,9.346,16.159-7.999,11.279-18.798C22.244,89.291,11.122,89.291,0,89.291z M29.137,19.268
				c1.429-0.295,4.048,0.602,4.699-0.471C32.548,17.235,30.074,17.212,29.137,19.268z M3.76,36.656c6.423,0,12.846,0,19.269,0
				c-0.288-5.454-1.656-10.911-0.47-16.448c-6.557,0.133-12.017-0.83-18.799-0.47C3.76,25.377,3.76,31.017,3.76,36.656z
				 M25.377,36.656c6.578-1.881,8.871-8.048,8.93-16.448C23.871,17.937,24.623,29.297,25.377,36.656z M3.76,37.126
				c0,5.483,0,10.966,0,16.448c2.819,0,5.64,0,8.459,0c3.293-5.389,11.547-8.898,11.279-15.978
				C17.837,36.521,10.198,37.424,3.76,37.126z M22.558,54.044c1.253,0,2.506,0,3.76,0C27.015,48.959,23.011,51.521,22.558,54.044z
				 M3.76,71.433c1.566,0,3.134,0,4.699,0c-1.339-6.786,1.126-12.246,3.29-16.918c-2.663,0-5.326,0-7.989,0
				C3.76,60.153,3.76,65.793,3.76,71.433z M12.688,71.433c2.192,0,4.386,0,6.58,0c0.146-6.59,3.949-9.522,8.459-11.749
				c-0.31-1.728-0.913-3.16-0.94-5.169C16.233,54.299,13.315,61.721,12.688,71.433z M31.957,71.433
				c2.202-0.306,5.627,0.613,7.049-0.471c-1.91-2.476-3.392-5.381-7.988-5.17C30.933,68.07,31.637,69.56,31.957,71.433z
				 M23.498,71.433c2.046-0.304,5.313,0.612,6.579-0.471c-0.729-1.15-0.701-3.059-0.939-4.699
				C25.768,66.497,24.693,69.025,23.498,71.433z M3.76,88.351c7.228-0.489,15.214,0.763,21.147,0
				c-9.542-1.425-14.045-7.887-16.448-16.448c-1.565,0-3.133,0-4.699,0C3.76,77.385,3.76,82.868,3.76,88.351z M32.427,86.001
				c-0.361-5.276-1.302-9.977-2.819-14.099c-2.037,0-4.073,0-6.109,0c-0.794,5.337,2.233,6.853,3.76,9.869
				c-4.429-1.682-7.211-5.008-8.459-9.869c-2.035,0-4.072,0-6.108,0C13.022,82.625,21.168,87.736,32.427,86.001z M34.307,84.591
				c4.551-1.216,6.378-6.692,5.169-12.219c-2.358,0.307-5.942-0.615-7.521,0.471C33.072,76.427,33.848,80.351,34.307,84.591z
				 M30.077,88.82c1.33-0.08,3.224,0.404,3.29-0.939C31.91,87.834,30.76,88.094,30.077,88.82z"/>
		</g>
	</g>
	<g id="Layer_3" display="none">
	</g>
	<circle fill="#6B6B6B" stroke="#6B6B6B" stroke-miterlimit="10" cx="62.976" cy="53.077" r="62.572"/>
</g>
<g id="Layer_3_1_">
	<g id="Layer_2_2_">
		<g>
			<path fill="#FFFFFF" d="M107.414,33.925c-15.494,0-30.988,0-46.483,0c-1.547,5.787-8.93,8.259-6.686,15.154
				c17.911,0.987,37.262,0.628,56.192,0.596l2.964,0.355c-19.443,0.178-40.274-0.59-58.71,0.832
				c-0.269,5.293,5.197,2.834,8.469,4.457c3.752,1.862,5.419,5.454,6.686,10.698c13.85,0.023,28.021,0.374,41.718,0.552
				l-2.313,0.338c-13.135,0-26.271,0-39.405,0c-0.17,3.359-0.678,5.933-1.783,8.024c-1.772,3.356-5.216,4.139-7.133,7.132
				c14.503,0.907,30.996,0.768,46.544,0.63l-1.898,0.624c-14.684-0.171-29.298-0.411-44.2-0.363
				c2.148,9.977,3.103,21.637-7.131,22.287c-5.21,0.332-11.333-2.276-11.589-8.023c-0.367-8.164,11.144-9.667,11.144-2.229
				c0,4.28-1.746,3.097-5.349,5.794c10.274,8.863,15.327-7.587,10.698-17.83c-10.55,0.002-21.099,0.002-31.647,0.002
				c0-22.138,0-44.276,0-66.414c7.28,0,14.562,0,21.842,0c1.432-4.323,3.392-10.722,7.577-10.252
				c3.646,0.411,3.944,6.299,5.35,10.252c12.661,0.203,23.457,0.582,36.254,0.648l2.016,0.258
				c-12.812-0.042-25.755-0.083-38.27-0.016c0.077,5.724,0.215,11.507-1.338,15.601c15.029,0.058,29.769,0.425,44.705,0.577
				L107.414,33.925z M55.136,16.541c1.355-0.279,3.839,0.571,4.458-0.446C58.371,14.613,56.024,14.591,55.136,16.541z
				 M31.066,33.033c6.092,0,12.184,0,18.276,0c-0.273-5.173-1.571-10.349-0.446-15.601c-6.219,0.126-11.397-0.787-17.83-0.445
				C31.066,22.335,31.066,27.685,31.066,33.033z M51.569,33.033c6.239-1.784,8.414-7.633,8.47-15.601
				C50.141,15.279,50.854,26.052,51.569,33.033z M31.066,33.478c0,5.201,0,10.401,0,15.601c2.674,0,5.349,0,8.023,0
				c3.123-5.111,10.952-8.44,10.698-15.154C44.418,32.905,37.173,33.76,31.066,33.478z M48.896,49.524c1.188,0,2.377,0,3.566,0
				C53.123,44.701,49.326,47.132,48.896,49.524z M31.066,66.018c1.486,0,2.972,0,4.457,0c-1.27-6.437,1.068-11.615,3.121-16.046
				c-2.526,0-5.052,0-7.578,0C31.066,55.319,31.066,60.668,31.066,66.018z M39.534,66.018c2.08,0,4.16,0,6.241,0
				c0.138-6.251,3.746-9.032,8.023-11.144c-0.294-1.638-0.866-2.997-0.892-4.902C42.897,49.766,40.129,56.806,39.534,66.018z
				 M57.81,66.018c2.089-0.29,5.337,0.581,6.686-0.447c-1.812-2.348-3.217-5.104-7.577-4.903
				C56.84,62.828,57.508,64.241,57.81,66.018z M49.787,66.018c1.94-0.288,5.04,0.58,6.24-0.447c-0.691-1.091-0.665-2.9-0.891-4.457
				C51.941,61.336,50.921,63.734,49.787,66.018z M31.066,82.064c6.855-0.464,14.43,0.724,20.058,0
				c-9.05-1.352-13.321-7.48-15.601-15.601c-1.485,0-2.971,0-4.457,0C31.066,71.664,31.066,76.863,31.066,82.064z M58.256,79.835
				c-0.343-5.005-1.234-9.463-2.674-13.372c-1.932,0-3.863,0-5.794,0c-0.753,5.062,2.118,6.499,3.566,9.36
				c-4.2-1.595-6.839-4.75-8.023-9.36c-1.93,0-3.862,0-5.793,0C39.851,76.633,47.577,81.48,58.256,79.835z M60.04,78.497
				c4.316-1.152,6.049-6.347,4.902-11.589c-2.237,0.291-5.636-0.583-7.133,0.446C58.868,70.754,59.604,74.476,60.04,78.497z
				 M56.027,82.509c1.262-0.076,3.058,0.384,3.12-0.891C57.765,81.573,56.675,81.82,56.027,82.509z"/>
		</g>
	</g>
</g>
<g id="Layer_4" display="none">
	<g display="inline">
		<path fill="#FFFFFF" d="M64.475,17.854c2.258-0.362,4.327-1.025,6.55-1.637c2.098-0.577,4.55-1.348,7.049-1.068
			c2.011,0.227,4.189,2.023,4.483,4.342c0.442,3.475-1.93,6-5.054,6.123c-4.147,0.163-7.411-1.987-11.104-2.705
			c-0.518-0.1-1.379-0.298-1.709-0.214c-0.512,0.131-1.031,1.23-1.497,1.638c-0.611,0.537-1.12,0.647-1.634,1.139
			c0,2.326,0,4.651,0,6.976c0.998,0.164,2.299,0.026,3.417,0.071c0.284,3.462-0.378,8.023,0,11.39
			c0.149,1.343,0.973,2.572,2.134,2.99c1.711,0.615,4.838,0.214,7.047,0.214c2.394,0,4.969,0,7.191,0
			c5.469,0,11.828-0.74,14.096,2.563c1.647,2.4,0.996,7.37,0.996,11.39c0,4.429,0,8.461,0,12.53
			c-4.233,1.462-11.945,1.619-16.373,0.212c-0.083-2.317-0.112-4.895-0.214-7.402c-0.032-0.807,0.013-1.701-0.213-2.279
			c-0.76-1.941-5.008-1.637-7.617-1.637c-1.69,0-3.233-0.152-4.627,0c-1.361,0.148-2.66,0.487-3.915,0.642
			c-4.34,0.528-8.77,0.517-13.028,0c-1.37-0.167-2.7-0.536-3.916-0.642c-3.011-0.264-6.215,0-9.324,0c-3.16,0-6.304,0-9.255,0
			c0-5.125,0-10.251,0-15.377c4.861,0,9.867,0,14.949,0c2.481,0,4.695,0.184,5.624-1.353c0.921-1.522,0.569-3.974,0.569-6.335
			c0-2.452,0-4.832,0-6.905c1.282,0,2.562,0,3.844,0c0.129-1.648,0.07-3.403,0.07-5.268c0-0.576,0.145-1.396,0-1.779
			c-0.136-0.362-1.065-0.697-1.424-0.996c-0.589-0.493-0.916-1.143-1.495-1.567c-4.192,0.365-8.408,2.905-13.026,2.705
			c-3.559-0.154-6.491-4.158-4.414-7.831c0.724-1.28,2.188-2.439,3.915-2.634c4.739-0.532,8.866,2.744,13.383,2.919
			c1.428-2.001,3.91-3.696,7.26-3.702C60.497,14.36,63.04,15.843,64.475,17.854z"/>
		<path fill="#FFFFFF" d="M88.822,77.311c-0.015-0.062,0.027-0.068,0.071-0.072c0.047,0,0.095,0,0.143,0
			c1.156,4.801,5.147,7.696,6.478,12.316c0.869,3.019-0.333,5.947-1.994,7.402c-4.378,3.84-12.814,0.567-11.246-6.835
			c0.92-4.34,4.203-7.271,5.837-10.892C88.38,78.635,88.473,77.871,88.822,77.311z"/>
	</g>
</g>
<g id="Layer_2_1_" display="none">
	<g id="Layer_1_2_" display="inline">
		<g>
			<path fill="#FFFFFF" d="M100.987,79.724c-1.717,0-3.436,0-5.152,0c-0.445-0.969,0.866-1.602,1.29-2.11
				c8.725-10.533,13.043-30.765,5.365-46.429C95.845,17.629,82.488,6.251,62.776,6.071C43.354,5.894,29.286,17.62,22.848,31.184
				c-3.681,7.751-5.163,17.499-3.437,27.013c1.607,8.854,5.806,15.941,10.306,21.527c-2.092-0.398-3.677,0.53-5.367,0
				c-1.782-0.561-3.849-4.792-4.724-6.331c-4.092-7.206-6.63-16.009-6.01-27.013c0.724-12.847,6.777-23.086,13.954-30.391
				C36.531,6.868,49.169,0.81,66.64,1.85c13.403,0.799,24.791,7.73,32.414,15.829c7.894,8.384,13.265,20.81,12.452,35.242
				C110.859,64.412,106.855,71.885,100.987,79.724z"/>
			<path fill="#FFFFFF" d="M79.519,17.256c4.808-1.254,8.673,4.654,11.164,8.653c4.329,6.955,6.214,16.489,3.435,26.592
				c-1.087,3.95-3.18,9.569-7.299,9.075c-4.729-0.567-2.154-7.285-1.288-9.921c3.846-11.691-0.202-19.833-5.797-26.379
				C78.012,23.26,75.094,18.411,79.519,17.256z"/>
			<path fill="#FFFFFF" d="M43.669,18.734c1.75-0.23,3.709,0.486,4.08,2.111c0.944,4.149-3.3,7-4.724,8.864
				c-4.547,5.953-7.067,13.732-3.649,23.848c0.952,2.818,3.432,8.752-1.073,9.496c-3.941,0.65-6.166-4.354-7.299-8.231
				c-2.809-9.606-1.455-18.851,2.576-26.168C35.825,24.578,39.464,19.285,43.669,18.734z"/>
			<path fill="#FFFFFF" d="M66.21,23.588c0,3.082,0,6.05,0,9.707c0,2.99-0.833,7.542,1.933,7.598
				c4.297,0.088,1.206-12.102,2.148-15.616c6.35,2.65,10.199,12.756,6.225,20.471c-7.831,4.639-22.682,3.328-28.766-1.898
				c-2.736-8.026,1.633-16.205,6.87-18.361c0.924,3.277-2.173,15.469,2.363,15.194c3.992-0.242,0.97-14.319,1.932-17.094
				C61.18,23.079,63.942,23.079,66.21,23.588z"/>
			<path fill="#FFFFFF" d="M48.607,45.747c3.529,2.289,9.598,5.116,16.315,4.643c4.154-0.293,7.789-1.749,10.519-3.588
				c-1.81,3.645-6.02,6.686-11.378,7.175C56.784,54.645,51.191,50.371,48.607,45.747z"/>
			<path fill="#FFFFFF" d="M46.675,53.556c0.499-0.125,4.157-0.499,5.797-0.211c2.631,0.459,4.351,2.371,7.728,2.742
				c1.746,0.195,3.041,0.148,4.51,0c3.462-0.347,5.298-2.271,7.727-2.742c3.92-0.761,8.79,0.123,9.658,2.32
				c0.632,1.592-0.23,4.321-0.642,6.332c-0.79,3.839-1.645,7.672-2.575,11.818c-0.469,2.077-1.032,4.04-2.577,4.642
				c-2.931,1.146-10.008,0.211-13.524,0.211c-3.512,0-10.287,1.053-13.525-0.211c-2.564-1-2.897-6.632-3.649-10.553
				C44.587,62.621,41.198,54.913,46.675,53.556z"/>
			<path fill="#FFFFFF" d="M26.067,80.569c4.538-1.241,14.413-0.212,19.964-0.212c16.717,0,32.208,0,49.374,0
				c3.855,0,6.654,0.252,6.654,3.167c0,3.052-3.082,3.165-7.298,3.165c-17.668,0-34.848,0-52.379,0
				c-5.356,0-17.558,1.442-18.676-2.11C23.01,82.369,24.523,80.99,26.067,80.569z"/>
			<path fill="#FFFFFF" d="M64.494,98.506c-1.26,0.448-1.934-0.453-2.792-0.421c-1.255,0.049-1.412,1.029-2.79,0.634
				c-2.58-0.741-2.488-7.574,0.857-7.809c0.94-0.009,1.325,0.527,1.933,0.844c0-1.054,0-2.11,0-3.165
				c1.092,0.202,2.24-0.333,2.792,0C64.494,91.894,64.494,95.2,64.494,98.506z M60.844,97.664c1.367-0.483,1.385-5.486-0.215-5.699
				C59.929,93.281,59.511,96.715,60.844,97.664z"/>
			<path fill="#FFFFFF" d="M31.005,88.588c0.931,0,1.86,0,2.791,0c0,1.267,0,2.532,0,3.8c0.367,0.482,1.639,0.078,2.362,0.21
				c0-1.335,0-2.672,0-4.01c1.001,0,2.004,0,3.004,0c0,3.307,0,6.612,0,9.918c-1,0-2.003,0-3.004,0c0-1.548,0-3.094,0-4.642
				c-0.367-0.482-1.638-0.076-2.362-0.211c0,1.617,0,3.236,0,4.853c-0.931,0-1.86,0-2.791,0
				C31.005,95.2,31.005,91.894,31.005,88.588z"/>
			<path fill="#FFFFFF" d="M80.808,88.588c0.588,2.903-1.235,8.32,1.071,9.076c4.343,1.418,1.951-6.313,3.221-9.076
				c0.404,2.684,1.465,8.335-0.858,9.708c-1.423,0.842-4.246,0.891-5.581-0.422c-1.752-1.723-0.433-5.906-0.858-9.286
				C78.804,88.588,79.805,88.588,80.808,88.588z"/>
			<path fill="#FFFFFF" d="M47.32,91.965c0,1.829,0,3.658,0,5.487c0.159,0.912,1.16-0.309,1.073,0.844
				c-0.916,0.626-2.962,0.558-3.649-0.211c-2.228,1.476-5.084,0.28-4.293-2.322c0.529-1.739,3.646-1.124,4.293-2.954
				c0.047-2.001-3.575-1.223-2.362,0.633c-0.176,0.428-1.132-0.132-1.503-0.209C40.744,90.265,45.965,90.488,47.32,91.965z
				 M43.885,97.664c1.073,0.016,1.241-2.929,0.429-3.377C43.343,94.41,42.514,97.251,43.885,97.664z"/>
			<path fill="#FFFFFF" d="M51.397,90.909c0.47,0.031,0.461,0.532,0.43,1.056c0.554-0.024,1.655-1.322,3.435-0.845
				c1.543,1.228,0.603,4.896,0.859,7.386c-0.931,0-1.86,0-2.792,0c-0.128-1.982,0.268-4.481-0.214-6.118
				c-2.229,0.269-0.94,3.999-1.288,6.118c-0.931,0-1.86,0-2.791,0c0-2.461,0-4.924,0-7.386
				C49.759,90.986,51.031,91.392,51.397,90.909z"/>
			<path fill="#FFFFFF" d="M71.792,93.02c-1.609,0.964-2.012-2.749-3.864-0.845c0.657,2.146,3.563,1.473,4.078,3.377
				c1.144,4.204-6.494,4.534-6.439,0.632c0.656,0.154,0.781-0.216,1.288-0.21c-0.16,1.563,0.769,2.058,2.146,2.11
				c0.309-0.117,0.524-0.33,0.644-0.633c-0.725-2.281-4.84-1.438-3.862-4.854C66.332,90.671,71.376,90.144,71.792,93.02z"/>
			<path fill="#FFFFFF" d="M87.033,91.12c0.871,0.271,2.929-0.627,2.791,0.633c0.402,0.106,1.35-1.058,2.79-0.633
				c2.989,1.523,1.625,10.344-2.79,6.964c0,0.985,0,1.971,0,2.956c-0.931,0-1.859,0-2.791,0
				C87.033,97.734,87.033,94.427,87.033,91.12z M90.683,97.664c1.215-1.102,0.824-3.834,0.429-5.488
				C89.048,91.93,89.431,97.297,90.683,97.664z"/>
		</g>
	</g>
</g>
</svg>
