<?xml version="1.0" encoding="utf-8"?>
<!-- Generator: Adobe Illustrator 15.1.0, SVG Export Plug-In . SVG Version: 6.00 Build 0)  -->
<!DOCTYPE svg PUBLIC "-//W3C//DTD SVG 1.1//EN" "http://www.w3.org/Graphics/SVG/1.1/DTD/svg11.dtd">
<svg version="1.1" id="Layer_1" xmlns="http://www.w3.org/2000/svg" xmlns:xlink="http://www.w3.org/1999/xlink" x="0px" y="0px"
	 width="144.5px" height="36.667px" viewBox="0 0 144.5 36.667" enable-background="new 0 0 144.5 36.667" xml:space="preserve">
<g id="MaruiaDB">
	<path fill="#002B64" d="M55.474,0c-0.85,0.027-0.581,0.272-2.416,0.724c-1.854,0.456-4.116,0.316-6.111,1.152
		c-5.958,2.499-7.152,11.037-12.568,14.096c-4.048,2.287-8.132,2.469-11.804,3.619c-2.412,0.757-5.052,2.309-7.238,4.191
		c-1.696,1.463-1.74,2.75-3.514,4.584C9.927,30.33,4.286,28.4,1.729,31.403c0.824,0.834,1.184,1.065,2.807,0.851
		C4.2,32.891,2.22,33.428,2.607,34.365c0.408,0.985,5.196,1.653,9.55-0.976c2.027-1.224,3.643-2.988,6.799-3.409
		c4.086-0.544,8.793,0.35,13.523,1.032c-0.702,2.092-2.11,3.481-3.238,5.147c-0.349,0.375,0.701,0.418,1.9,0.189
		c2.156-0.533,3.711-0.963,5.338-1.909c2-1.165,2.303-4.147,4.757-4.795c1.366,2.103,5.084,2.599,7.391,0.917
		c-2.024-0.572-2.584-4.881-1.9-6.779c0.647-1.799,1.287-4.673,1.938-7.049c0.7-2.551,0.958-5.767,1.805-7.066
		c1.274-1.955,2.682-2.627,3.904-3.729c1.223-1.104,2.342-2.176,2.305-4.699C56.667,0.429,56.247-0.024,55.474,0L55.474,0z"/>
	<path fill="#FFFFFF" d="M3.487,34.185c3.1,0.443,4.985,0,7.475-1.08c2.117-0.918,4.164-2.813,6.665-3.615
		c3.673-1.178,7.701,0.002,11.628,0.237c0.957,0.058,1.906,0.06,2.845-0.044c1.462-0.898,1.433-4.262,2.856-4.568
		c-0.043,4.717-1.977,7.545-4,10.28c4.264-0.752,6.814-3.218,8.538-6.513c0.523-0.998,0.97-2.072,1.364-3.198
		c0.61,0.469,0.264,1.894,0.571,2.666c2.937-1.636,4.618-5.369,5.732-9.146c1.287-4.37,1.815-8.795,2.646-10.088
		c0.812-1.262,2.073-2.039,3.226-2.848c1.31-0.918,2.477-1.876,2.679-3.626c-1.381-0.128-1.7-0.448-1.904-1.144
		c-0.691,0.39-1.326,0.474-2.045,0.494c-0.623,0.02-1.308-0.008-2.144,0.078c-6.915,0.709-7.794,8.331-12.225,12.65
		c-0.327,0.317-0.675,0.612-1.04,0.883c-1.552,1.157-3.456,1.982-5.208,2.652c-2.834,1.084-5.528,1.161-8.188,2.095
		c-1.952,0.687-3.936,1.683-5.538,2.778c-0.388,0.265-0.764,0.543-1.127,0.84c-0.941,0.77-1.559,1.623-2.156,2.503
		c-0.615,0.905-1.211,1.837-2.117,2.726c-1.471,1.443-6.96,0.422-8.893,1.76C2.911,31.106,2.74,31.285,2.623,31.5
		c1.055,0.479,1.76,0.185,2.973,0.318C5.755,32.97,3.094,33.655,3.487,34.185L3.487,34.185z M45.378,25.892
		c0.082,1.32,0.849,3.939,1.525,4.576c-1.325,0.324-3.609-0.209-4.195-1.145C43.01,27.974,44.577,26.74,45.378,25.892L45.378,25.892
		z"/>
	<path fill="#002B64" d="M47.32,4.931c0.979,0.85,3.033,0.168,2.666-1.523C48.464,3.282,47.583,3.798,47.32,4.931z M54.144,2.955
		c-0.261,0.547-0.759,1.25-0.759,2.641C53.382,5.834,53.204,5.998,53.2,5.63c0.014-1.358,0.374-1.946,0.755-2.718
		C54.134,2.595,54.24,2.726,54.144,2.955z"/>
	<path fill="#002B64" d="M53.881,2.75c-0.307,0.521-1.046,1.471-1.168,2.855c-0.023,0.238-0.216,0.385-0.188,0.018
		C52.66,4.271,53.25,3.425,53.7,2.689C53.903,2.39,53.999,2.529,53.881,2.75L53.881,2.75z M53.643,2.476
		c-0.35,0.494-1.489,1.635-1.727,3.005c-0.043,0.235-0.248,0.365-0.188,0.002c0.247-1.336,1.228-2.387,1.736-3.081
		C53.694,2.121,53.777,2.267,53.643,2.476z M53.43,2.172c-0.417,0.439-1.773,1.896-2.202,3.218
		c-0.074,0.226-0.296,0.326-0.185-0.025c0.432-1.287,1.619-2.676,2.221-3.291C53.53,1.827,53.591,1.984,53.43,2.172L53.43,2.172z"/>
	<text transform="matrix(1 0 0 1 56.834 25.7944)" fill="#002B64" font-family="'SegoeUI-SemiBold'" font-size="21.3964">MariaDB</text>
</g>
</svg>
