<?xml version="1.0" encoding="utf-8"?>
<!-- Generator: Adobe Illustrator 15.1.0, SVG Export Plug-In . SVG Version: 6.00 Build 0)  -->
<!DOCTYPE svg PUBLIC "-//W3C//DTD SVG 1.1//EN" "http://www.w3.org/Graphics/SVG/1.1/DTD/svg11.dtd">
<svg version="1.1" id="Layer_1" xmlns="http://www.w3.org/2000/svg" xmlns:xlink="http://www.w3.org/1999/xlink" x="0px" y="0px"
	 width="58.375px" height="36.667px" viewBox="0 0 58.375 36.667" enable-background="new 0 0 58.375 36.667" xml:space="preserve">
<g id="Layer_10">
	<path fill="#002B64" d="M56.169,0.177c-0.851,0.027-0.581,0.272-2.416,0.724c-1.854,0.456-4.116,0.316-6.111,1.152
		c-5.958,2.499-7.153,11.037-12.569,14.096c-4.047,2.287-8.131,2.469-11.802,3.619c-2.413,0.757-5.052,2.31-7.239,4.192
		c-1.696,1.463-1.741,2.75-3.514,4.584c-1.896,1.961-7.538,0.033-10.094,3.035c0.824,0.834,1.185,1.066,2.808,0.852
		c-0.336,0.637-2.317,1.174-1.929,2.109c0.408,0.986,5.197,1.654,9.55-0.975c2.027-1.223,3.642-2.988,6.799-3.408
		c4.085-0.545,8.792,0.35,13.523,1.031c-0.702,2.092-2.109,3.48-3.238,5.146c-0.349,0.375,0.701,0.418,1.901,0.19
		c2.156-0.532,3.71-0.963,5.337-1.909c2-1.164,2.303-4.148,4.757-4.795c1.366,2.102,5.084,2.598,7.392,0.918
		c-2.024-0.574-2.584-4.882-1.9-6.781c0.646-1.797,1.287-4.672,1.938-7.047c0.701-2.551,0.959-5.767,1.806-7.066
		c1.274-1.955,2.682-2.627,3.903-3.729c1.224-1.104,2.342-2.176,2.306-4.699C57.361,0.606,56.941,0.153,56.169,0.177L56.169,0.177z"
		/>
	<path fill="#FFFFFF" d="M4.182,34.362c3.1,0.444,4.985,0,7.474-1.079c2.118-0.918,4.164-2.813,6.666-3.615
		c3.673-1.178,7.701,0.002,11.627,0.236c0.957,0.059,1.907,0.059,2.846-0.044c1.462-0.899,1.433-4.262,2.855-4.569
		c-0.043,4.717-1.977,7.545-3.999,10.281c4.264-0.752,6.813-3.218,8.538-6.512c0.522-0.998,0.969-2.073,1.363-3.199
		c0.609,0.469,0.264,1.895,0.571,2.666c2.937-1.636,4.618-5.369,5.731-9.145c1.287-4.37,1.815-8.796,2.646-10.089
		c0.813-1.262,2.072-2.039,3.227-2.848c1.309-0.918,2.477-1.876,2.678-3.626c-1.381-0.128-1.699-0.448-1.903-1.144
		c-0.69,0.39-1.326,0.474-2.045,0.494c-0.623,0.02-1.308-0.008-2.144,0.078c-6.916,0.709-7.795,8.331-12.226,12.65
		c-0.327,0.317-0.675,0.612-1.04,0.883c-1.552,1.157-3.456,1.982-5.208,2.652c-2.834,1.084-5.528,1.161-8.188,2.095
		c-1.952,0.688-3.936,1.682-5.539,2.778c-0.387,0.265-0.763,0.544-1.127,0.84c-0.94,0.771-1.558,1.624-2.155,2.503
		c-0.616,0.905-1.211,1.837-2.118,2.727c-1.47,1.442-6.959,0.42-8.892,1.76c-0.216,0.148-0.387,0.326-0.503,0.541
		c1.055,0.479,1.759,0.186,2.972,0.32C6.45,33.147,3.789,33.832,4.182,34.362L4.182,34.362z M46.072,26.069
		c0.082,1.32,0.85,3.94,1.525,4.577c-1.324,0.322-3.609-0.21-4.195-1.145C43.705,28.151,45.271,26.917,46.072,26.069L46.072,26.069z
		"/>
	<path fill="#002B64" d="M48.015,5.108c0.979,0.85,3.033,0.168,2.666-1.523C49.158,3.458,48.277,3.975,48.015,5.108z M54.839,3.131
		c-0.261,0.547-0.759,1.25-0.759,2.641c-0.004,0.238-0.182,0.402-0.186,0.034c0.014-1.358,0.375-1.946,0.756-2.718
		C54.828,2.772,54.936,2.903,54.839,3.131z"/>
	<path fill="#002B64" d="M54.576,2.926c-0.307,0.521-1.047,1.471-1.168,2.855c-0.023,0.238-0.217,0.385-0.188,0.018
		c0.134-1.352,0.726-2.197,1.175-2.934C54.598,2.567,54.693,2.706,54.576,2.926L54.576,2.926z M54.338,2.653
		c-0.35,0.494-1.489,1.635-1.727,3.005c-0.043,0.235-0.248,0.365-0.188,0.002c0.247-1.336,1.228-2.387,1.735-3.081
		C54.389,2.297,54.472,2.444,54.338,2.653z M54.125,2.349c-0.417,0.439-1.773,1.896-2.202,3.218
		c-0.074,0.226-0.296,0.326-0.185-0.025c0.432-1.287,1.619-2.676,2.221-3.291C54.225,2.003,54.285,2.161,54.125,2.349L54.125,2.349z
		"/>
</g>
</svg>
