<?xml version="1.0" encoding="utf-8"?>
<!-- Generator: Adobe Illustrator 15.1.0, SVG Export Plug-In . SVG Version: 6.00 Build 0)  -->
<!DOCTYPE svg PUBLIC "-//W3C//DTD SVG 1.1//EN" "http://www.w3.org/Graphics/SVG/1.1/DTD/svg11.dtd">
<svg version="1.1" id="Layer_1" xmlns="http://www.w3.org/2000/svg" xmlns:xlink="http://www.w3.org/1999/xlink" x="0px" y="0px"
	 width="36.625px" height="36.667px" viewBox="0 0 36.625 36.667" enable-background="new 0 0 36.625 36.667" xml:space="preserve">
<g id="Layer_5">
	<g>
		<path fill="#FFA000" d="M5.956,29.523l0.167-0.324L16.438,9.624l-4.584-8.666c-0.381-0.717-1.348-0.533-1.473,0.268L5.956,29.523z
			"/>
	</g>
	<g>
		<path fill="#FFA000" d="M19.781,15.842l3.326-3.406l-3.326-6.335C19.466,5.5,18.698,5.437,18.386,6.04l-1.838,3.543l-0.055,0.18
			L19.781,15.842z"/>
	</g>
	<path fill="#F6820C" d="M5.825,29.757l0.1-0.1l0.363-0.148l13.34-13.291l0.169-0.459l-3.328-6.342L5.825,29.757z"/>
	<path fill="#FCCA3F" d="M32.234,29.671L28.813,8.6c-0.106-0.66-0.783-0.933-1.256-0.459L5.959,29.716l11.872,6.637
		c0.753,0.42,1.67,0.42,2.423,0L32.234,29.671L32.234,29.671z"/>
</g>
</svg>
