<?xml version="1.0" encoding="utf-8"?>
<!-- Generator: Adobe Illustrator 15.1.0, SVG Export Plug-In . SVG Version: 6.00 Build 0)  -->
<!DOCTYPE svg PUBLIC "-//W3C//DTD SVG 1.1//EN" "http://www.w3.org/Graphics/SVG/1.1/DTD/svg11.dtd">
<svg version="1.1" id="Layer_1" xmlns="http://www.w3.org/2000/svg" xmlns:xlink="http://www.w3.org/1999/xlink" x="0px" y="0px"
	 width="112.042px" height="36.667px" viewBox="0 0 112.042 36.667" enable-background="new 0 0 112.042 36.667"
	 xml:space="preserve">
<g id="Layer_3">
	<g>
		<path fill="#FFA000" d="M2.142,29.522l0.167-0.325L12.625,9.623L8.041,0.957C7.66,0.24,6.693,0.423,6.568,1.224L2.142,29.522z"/>
	</g>
	<g>
		<path fill="#FFA000" d="M15.968,15.841l3.327-3.406L15.968,6.1c-0.315-0.601-1.083-0.664-1.396-0.062l-1.838,3.543l-0.056,0.18
			L15.968,15.841z"/>
	</g>
	<path fill="#F6820C" d="M2.012,29.757l0.101-0.102l0.362-0.146l13.34-13.292l0.169-0.459l-3.328-6.342L2.012,29.757z"/>
	<path fill="#FCCA3F" d="M28.422,29.669L25,8.599c-0.107-0.66-0.784-0.933-1.257-0.459L2.146,29.714l11.872,6.638
		c0.753,0.42,1.67,0.42,2.423,0L28.422,29.669L28.422,29.669z"/>
	<text transform="matrix(1 0 0 1 30.165 26.2319)" fill="#EAEAEA" font-family="'MyriadPro-Regular'" font-size="23.0278">Firebase</text>
</g>
</svg>
