<?xml version="1.0" encoding="utf-8"?>
<!-- Generator: Adobe Illustrator 15.1.0, SVG Export Plug-In . SVG Version: 6.00 Build 0)  -->
<!DOCTYPE svg PUBLIC "-//W3C//DTD SVG 1.1//EN" "http://www.w3.org/Graphics/SVG/1.1/DTD/svg11.dtd">
<svg version="1.1" xmlns="http://www.w3.org/2000/svg" xmlns:xlink="http://www.w3.org/1999/xlink" x="0px" y="0px"
	 width="136.667px" height="36.667px" viewBox="0 0 136.667 36.667" enable-background="new 0 0 136.667 36.667"
	 xml:space="preserve">
<g id="Layer_1">
	<g id="Layer_10">
		<path fill="#00979C" d="M43.729,12.021l-4.265,13.92h3.355l0.77-2.593h4.16l0.749,2.593h3.649l-4.264-13.92H43.729z
			 M44.433,20.548l1.267-4.33l1.252,4.33H44.433z M60.167,19.591c-0.05-0.054-0.102-0.104-0.155-0.152
			c0.105-0.04,0.208-0.083,0.307-0.13c0.395-0.178,0.754-0.43,1.058-0.74c0.305-0.317,0.542-0.691,0.698-1.101
			c0.162-0.418,0.245-0.899,0.245-1.428c0-0.729-0.131-1.359-0.391-1.874c-0.257-0.517-0.645-0.955-1.125-1.274
			c-0.47-0.315-1.042-0.543-1.7-0.677c-0.633-0.128-1.345-0.194-2.116-0.194h-4.353v13.92h3.337v-5.439h0.099
			c0.365,0,0.669,0.081,0.931,0.247c0.258,0.164,0.458,0.405,0.608,0.74l2.018,4.452h3.885l-2.452-4.966
			C60.766,20.372,60.472,19.92,60.167,19.591L60.167,19.591z M58.714,16.92c-0.097,0.184-0.238,0.342-0.41,0.46
			c-0.189,0.132-0.423,0.235-0.698,0.303c-0.289,0.072-0.62,0.108-0.982,0.108h-0.651v-2.931h0.733c0.764,0,1.332,0.119,1.688,0.357
			c0.31,0.206,0.46,0.553,0.46,1.063C58.857,16.528,58.811,16.737,58.714,16.92L58.714,16.92z M73.295,13.675
			c-0.562-0.565-1.271-0.989-2.108-1.257c-0.816-0.262-1.776-0.397-2.852-0.397h-4.414v13.92h3.843c1.24,0,2.325-0.169,3.224-0.502
			c0.913-0.338,1.675-0.827,2.265-1.456c0.59-0.627,1.03-1.393,1.305-2.276c0.271-0.864,0.408-1.839,0.408-2.891
			c0-1.148-0.137-2.156-0.409-2.996C74.283,14.962,73.859,14.24,73.295,13.675z M70.566,22.134c-0.58,0.644-1.42,0.957-2.571,0.957
			h-0.733v-8.22h0.911c0.644,0,1.184,0.091,1.606,0.271c0.408,0.174,0.725,0.419,0.966,0.75c0.248,0.339,0.427,0.765,0.532,1.264
			c0.11,0.529,0.168,1.142,0.168,1.82C71.443,20.424,71.147,21.487,70.566,22.134L70.566,22.134z M83.01,20.877
			c0,0.479-0.044,0.889-0.133,1.215c-0.08,0.306-0.201,0.555-0.358,0.74c-0.148,0.178-0.343,0.313-0.561,0.386
			c-0.248,0.088-0.563,0.134-0.941,0.134c-0.399,0-0.728-0.052-0.976-0.151c-0.23-0.09-0.435-0.236-0.59-0.427
			c-0.157-0.19-0.272-0.429-0.337-0.709c-0.074-0.313-0.109-0.676-0.109-1.088v-8.957h-3.338v9.108c0,0.752,0.094,1.442,0.277,2.052
			c0.191,0.634,0.505,1.181,0.935,1.627c0.43,0.444,0.993,0.79,1.672,1.021c0.662,0.229,1.46,0.345,2.375,0.345
			c0.817,0,1.568-0.115,2.227-0.345c0.677-0.231,1.259-0.583,1.732-1.044s0.841-1.043,1.093-1.728
			c0.246-0.673,0.372-1.461,0.372-2.341v-8.696h-3.34V20.877 M88.058,14.821h2.995v8.299h-2.995v2.82h9.37v-2.82h-2.995v-8.299
			h2.995v-2.801h-9.37V14.821 M106.718,19.952l-3.731-7.931h-3.778v13.92h3.109v-8.082l3.749,8.083h3.76V12.021h-3.109
			L106.718,19.952 M120.636,13.667c-0.975-1.239-2.437-1.868-4.344-1.868c-0.815,0-1.593,0.145-2.312,0.43
			c-0.729,0.289-1.373,0.739-1.915,1.337c-0.536,0.594-0.963,1.359-1.267,2.27c-0.3,0.9-0.452,1.98-0.452,3.21
			c0,2.271,0.483,4.038,1.436,5.253c0.975,1.243,2.437,1.873,4.343,1.873c0.816,0,1.596-0.146,2.313-0.432
			c0.73-0.288,1.373-0.737,1.914-1.337c0.536-0.593,0.963-1.357,1.269-2.27c0.298-0.899,0.451-1.979,0.451-3.21
			C122.071,16.648,121.589,14.879,120.636,13.667L120.636,13.667z M118.439,20.901c-0.097,0.515-0.246,0.946-0.443,1.288
			c-0.188,0.324-0.421,0.563-0.713,0.727c-0.289,0.164-0.649,0.248-1.072,0.248c-0.835,0-1.416-0.313-1.778-0.949
			c-0.396-0.703-0.599-1.81-0.599-3.287c0-0.695,0.05-1.319,0.149-1.854c0.096-0.513,0.246-0.944,0.447-1.285
			c0.191-0.326,0.426-0.564,0.715-0.729c0.285-0.164,0.645-0.246,1.063-0.246c0.843,0,1.425,0.311,1.783,0.948
			c0.396,0.702,0.595,1.808,0.595,3.288C118.587,19.744,118.538,20.367,118.439,20.901L118.439,20.901z"/>
		<path fill="#00979D" stroke="#81C9CB" stroke-width="0.932" stroke-miterlimit="10" d="M37.225,18.367
			c0,9.58-7.813,17.345-17.45,17.345c-9.64,0-17.453-7.767-17.453-17.345c0-9.579,7.813-17.345,17.453-17.345
			C29.412,1.022,37.225,8.788,37.225,18.367L37.225,18.367z"/>
		
			<linearGradient id="SVGID_1_" gradientUnits="userSpaceOnUse" x1="294.5024" y1="44.2632" x2="313.6675" y2="44.2632" gradientTransform="matrix(1.8212 0 0 1.8212 -534.0272 -62.2473)">
			<stop  offset="0.117" style="stop-color:#FFFFFF;stop-opacity:0"/>
			<stop  offset="0.252" style="stop-color:#C0D1D3;stop-opacity:0.153"/>
			<stop  offset="0.387" style="stop-color:#91B3B7;stop-opacity:0.306"/>
			<stop  offset="0.52" style="stop-color:#6D9FA3;stop-opacity:0.457"/>
			<stop  offset="0.65" style="stop-color:#4D9195;stop-opacity:0.604"/>
			<stop  offset="0.776" style="stop-color:#30888B;stop-opacity:0.746"/>
			<stop  offset="0.895" style="stop-color:#148386;stop-opacity:0.881"/>
			<stop  offset="1" style="stop-color:#008184"/>
		</linearGradient>
		<linearGradient id="SVGID_2_" gradientUnits="userSpaceOnUse" x1="-81.8003" y1="95.5942" x2="1290.4008" y2="95.5942">
			<stop  offset="0" style="stop-color:#FFFFFF;stop-opacity:0"/>
			<stop  offset="0.153" style="stop-color:#C0D1D3;stop-opacity:0.153"/>
			<stop  offset="0.306" style="stop-color:#91B3B7;stop-opacity:0.306"/>
			<stop  offset="0.457" style="stop-color:#6D9FA3;stop-opacity:0.457"/>
			<stop  offset="0.604" style="stop-color:#4D9195;stop-opacity:0.604"/>
			<stop  offset="0.746" style="stop-color:#30888B;stop-opacity:0.746"/>
			<stop  offset="0.881" style="stop-color:#148386;stop-opacity:0.881"/>
			<stop  offset="1" style="stop-color:#008184"/>
		</linearGradient>
		<path opacity="0.5" fill="url(#SVGID_1_)" stroke="url(#SVGID_2_)" stroke-miterlimit="10" enable-background="new    " d="
			M37.225,18.367c0,9.58-7.813,17.345-17.45,17.345c-9.64,0-17.453-7.769-17.453-17.345c0-9.578,7.813-17.346,17.453-17.346
			C29.412,1.023,37.225,8.789,37.225,18.367L37.225,18.367z"/>
		<g>
			<path fill="#FFFFFF" d="M26.44,24.572c-0.328,0-0.666-0.025-0.996-0.074c-2.773-0.393-4.629-2.373-5.667-3.895
				c-1.043,1.521-2.898,3.504-5.671,3.896c-0.33,0.047-0.663,0.07-0.996,0.07c-1.725,0-3.343-0.639-4.562-1.797
				c-1.229-1.17-1.907-2.734-1.907-4.408s0.679-3.238,1.909-4.408c1.217-1.158,2.837-1.796,4.563-1.796
				c0.329,0,0.663,0.023,0.993,0.07c2.772,0.394,4.628,2.376,5.671,3.897c1.038-1.521,2.894-3.504,5.667-3.897
				c0.33-0.047,0.666-0.07,0.994-0.07c1.725,0,3.345,0.64,4.562,1.796c1.231,1.17,1.906,2.736,1.906,4.408
				c0,1.671-0.675,3.238-1.904,4.408C29.781,23.933,28.165,24.572,26.44,24.572 M21.004,18.369c0.542,1.025,2.14,3.583,4.753,3.955
				c0.228,0.033,0.457,0.049,0.683,0.049c2.347,0,4.256-1.795,4.256-4.004c0-2.209-1.909-4.004-4.258-4.004
				c-0.224,0-0.453,0.016-0.681,0.047C23.144,14.781,21.546,17.339,21.004,18.369 M13.113,14.363c-2.35,0-4.26,1.797-4.26,4.006
				c0,2.208,1.909,4.003,4.257,4.003c0.226,0,0.455-0.017,0.684-0.047c2.612-0.373,4.21-2.931,4.753-3.958
				c-0.541-1.025-2.141-3.586-4.753-3.957C13.568,14.378,13.337,14.363,13.113,14.363"/>
			<path fill="#FFFFFF" d="M11.33,17.761h3.886v1.245H11.33V17.761z M28.183,17.761h-1.314v-1.309h-1.256v1.309h-1.314v1.245h1.314
				v1.31h1.256v-1.31h1.314V17.761z"/>
		</g>
	</g>
</g>
<g id="Layer_2">
</g>
</svg>
