<?xml version="1.0" encoding="utf-8"?>
<!-- Generator: Adobe Illustrator 15.1.0, SVG Export Plug-In . SVG Version: 6.00 Build 0)  -->
<!DOCTYPE svg PUBLIC "-//W3C//DTD SVG 1.1//EN" "http://www.w3.org/Graphics/SVG/1.1/DTD/svg11.dtd">
<svg version="1.1" id="Layer_1" xmlns="http://www.w3.org/2000/svg" xmlns:xlink="http://www.w3.org/1999/xlink" x="0px" y="0px"
	 width="36.625px" height="36.667px" viewBox="0 0 36.625 36.667" enable-background="new 0 0 36.625 36.667" xml:space="preserve">
<g id="Layer_2_1_">
	<path fill="#00979D" stroke="#81C9CB" stroke-width="0.932" stroke-miterlimit="10" d="M36.018,18.311
		c0,9.58-7.813,17.347-17.451,17.347c-9.64,0-17.453-7.767-17.453-17.347c0-9.579,7.813-17.345,17.453-17.345
		C28.203,0.966,36.018,8.732,36.018,18.311L36.018,18.311z"/>
	
		<linearGradient id="SVGID_1_" gradientUnits="userSpaceOnUse" x1="136.8203" y1="278.4663" x2="155.9863" y2="278.4663" gradientTransform="matrix(1.8212 0 0 -1.8212 -248.065 525.4543)">
		<stop  offset="0.117" style="stop-color:#FFFFFF;stop-opacity:0"/>
		<stop  offset="0.252" style="stop-color:#C0D1D3;stop-opacity:0.153"/>
		<stop  offset="0.387" style="stop-color:#91B3B7;stop-opacity:0.306"/>
		<stop  offset="0.52" style="stop-color:#6D9FA3;stop-opacity:0.457"/>
		<stop  offset="0.65" style="stop-color:#4D9195;stop-opacity:0.604"/>
		<stop  offset="0.776" style="stop-color:#30888B;stop-opacity:0.746"/>
		<stop  offset="0.895" style="stop-color:#148386;stop-opacity:0.881"/>
		<stop  offset="1" style="stop-color:#008184"/>
	</linearGradient>
	<linearGradient id="SVGID_2_" gradientUnits="userSpaceOnUse" x1="-179.1748" y1="16.0713" x2="1193.0262" y2="16.0713">
		<stop  offset="0" style="stop-color:#FFFFFF;stop-opacity:0"/>
		<stop  offset="0.153" style="stop-color:#C0D1D3;stop-opacity:0.153"/>
		<stop  offset="0.306" style="stop-color:#91B3B7;stop-opacity:0.306"/>
		<stop  offset="0.457" style="stop-color:#6D9FA3;stop-opacity:0.457"/>
		<stop  offset="0.604" style="stop-color:#4D9195;stop-opacity:0.604"/>
		<stop  offset="0.746" style="stop-color:#30888B;stop-opacity:0.746"/>
		<stop  offset="0.881" style="stop-color:#148386;stop-opacity:0.881"/>
		<stop  offset="1" style="stop-color:#008184"/>
	</linearGradient>
	<path opacity="0.5" fill="url(#SVGID_1_)" stroke="url(#SVGID_2_)" stroke-miterlimit="10" enable-background="new    " d="
		M36.018,18.311c0,9.579-7.813,17.347-17.451,17.347c-9.64,0-17.453-7.769-17.453-17.347c0-9.58,7.813-17.346,17.453-17.346
		C28.203,0.966,36.018,8.731,36.018,18.311L36.018,18.311z"/>
	<g>
		<path fill="#FFFFFF" d="M25.23,24.515c-0.328,0-0.666-0.023-0.996-0.073c-2.772-0.394-4.629-2.373-5.667-3.896
			c-1.042,1.521-2.897,3.504-5.67,3.896c-0.33,0.047-0.663,0.071-0.996,0.071c-1.725,0-3.343-0.64-4.561-1.798
			c-1.229-1.168-1.908-2.735-1.908-4.406c0-1.673,0.679-3.238,1.909-4.409c1.217-1.159,2.837-1.795,4.563-1.795
			c0.329,0,0.663,0.024,0.993,0.071c2.772,0.393,4.628,2.374,5.67,3.896c1.04-1.522,2.894-3.503,5.667-3.896
			c0.33-0.047,0.666-0.071,0.994-0.071c1.726,0,3.346,0.639,4.563,1.795c1.23,1.17,1.906,2.735,1.906,4.409
			c0,1.671-0.676,3.238-1.904,4.406C28.572,23.876,26.956,24.515,25.23,24.515 M19.796,18.312c0.542,1.025,2.14,3.584,4.753,3.957
			c0.229,0.031,0.457,0.048,0.684,0.048c2.347,0,4.256-1.795,4.256-4.005c0-2.209-1.909-4.005-4.258-4.005
			c-0.225,0-0.453,0.016-0.682,0.048C21.936,14.725,20.338,17.283,19.796,18.312 M11.904,14.306c-2.35,0-4.26,1.797-4.26,4.005
			c0,2.209,1.91,4.005,4.257,4.005c0.225,0,0.455-0.018,0.684-0.048c2.613-0.372,4.21-2.929,4.752-3.957
			c-0.541-1.026-2.14-3.587-4.752-3.957C12.359,14.322,12.129,14.306,11.904,14.306"/>
		<path fill="#FFFFFF" d="M10.122,17.705h3.885v1.246h-3.885V17.705z M26.975,17.705H25.66v-1.31h-1.256v1.31H23.09v1.246h1.314
			v1.309h1.256v-1.309h1.314V17.705L26.975,17.705z"/>
	</g>
</g>
</svg>
