<?xml version="1.0" encoding="utf-8"?>
<!-- Generator: Adobe Illustrator 15.1.0, SVG Export Plug-In . SVG Version: 6.00 Build 0)  -->
<!DOCTYPE svg PUBLIC "-//W3C//DTD SVG 1.1//EN" "http://www.w3.org/Graphics/SVG/1.1/DTD/svg11.dtd">
<svg version="1.1" id="Layer_1" xmlns="http://www.w3.org/2000/svg" xmlns:xlink="http://www.w3.org/1999/xlink" x="0px" y="0px"
	 width="36.625px" height="36.667px" viewBox="0 0 36.625 36.667" enable-background="new 0 0 36.625 36.667" xml:space="preserve">
<g id="Layer_8">
	<path d="M11.799-0.126c-0.186,0.005-0.386,0.073-0.614,0.253c-0.557-0.215-1.096-0.29-1.579,0.148
		C8.861,0.178,8.619,0.377,8.435,0.61C8.271,0.607,7.211,0.442,6.724,1.167C5.502,1.024,5.116,1.886,5.553,2.693
		c-0.25,0.386-0.509,0.768,0.075,1.504C5.422,4.608,5.55,5.053,6.037,5.592C5.908,6.169,6.161,6.577,6.613,6.894
		C6.529,7.683,7.338,8.142,7.579,8.305c0.093,0.461,0.287,0.894,1.21,1.135c0.152,0.685,0.707,0.804,1.245,0.946
		c-1.777,1.034-3.301,2.393-3.291,5.729l-0.26,0.463C4.446,17.816,2.612,21.8,5.48,25.035c0.187,1.014,0.5,1.741,0.781,2.547
		c0.418,3.246,3.146,4.767,3.866,4.945c1.056,0.803,2.179,1.564,3.699,2.1c1.432,1.479,2.985,2.041,4.546,2.041
		c0.023,0,3.183-0.563,4.616-2.041c1.521-0.533,2.645-1.297,3.697-2.1c0.722-0.18,3.449-1.699,3.867-4.945
		c0.28-0.806,0.596-1.533,0.781-2.547c2.866-3.236,1.034-7.219-1.004-8.458l-0.262-0.463c0.011-3.335-1.514-4.693-3.289-5.729
		c0.537-0.144,1.093-0.261,1.244-0.948c0.924-0.24,1.117-0.674,1.209-1.134c0.242-0.163,1.051-0.623,0.967-1.412
		c0.453-0.318,0.705-0.725,0.576-1.302c0.488-0.539,0.615-0.984,0.406-1.394c0.586-0.736,0.327-1.118,0.076-1.504
		c0.439-0.807,0.053-1.67-1.171-1.525c-0.485-0.725-1.547-0.561-1.711-0.558c-0.185-0.232-0.426-0.432-1.171-0.335
		c-0.482-0.438-1.021-0.363-1.579-0.148c-0.661-0.522-1.099-0.104-1.599,0.054c-0.801-0.261-0.983,0.097-1.379,0.242
		c-0.871-0.184-1.137,0.217-1.556,0.643l-0.487-0.01C19.29,1.83,18.636,3.41,18.404,4.223C18.172,3.41,17.52,1.83,16.203,1.055
		l-0.487,0.01c-0.419-0.425-0.684-0.827-1.557-0.643c-0.393-0.145-0.576-0.503-1.377-0.242c-0.328-0.104-0.629-0.319-0.985-0.309"/>
	<path fill="#75A928" d="M9.179,3.287c3.493,1.801,5.523,3.258,6.636,4.498c-0.569,2.284-3.542,2.388-4.628,2.324
		c0.222-0.104,0.408-0.229,0.474-0.418c-0.273-0.194-1.24-0.021-1.915-0.4c0.259-0.054,0.381-0.105,0.502-0.297
		C9.61,8.79,8.922,8.614,8.519,8.278C8.736,8.28,8.94,8.326,9.225,8.128C8.653,7.821,8.043,7.577,7.57,7.107
		C7.866,7.1,8.184,7.104,8.277,6.995c-0.523-0.324-0.964-0.684-1.33-1.078c0.413,0.05,0.588,0.007,0.688-0.065
		C7.24,5.447,6.74,5.105,6.501,4.605c0.307,0.107,0.587,0.147,0.791-0.008c-0.134-0.303-0.71-0.481-1.041-1.19
		c0.323,0.032,0.666,0.07,0.734,0c-0.15-0.61-0.408-0.954-0.66-1.311c0.691-0.009,1.738,0.003,1.691-0.055L7.589,1.605
		c0.675-0.183,1.367,0.029,1.869,0.186c0.226-0.179-0.004-0.403-0.279-0.632c0.574,0.077,1.093,0.209,1.561,0.39
		c0.25-0.226-0.163-0.453-0.363-0.678c0.887,0.169,1.263,0.404,1.636,0.641c0.271-0.259,0.016-0.48-0.167-0.706
		c0.668,0.248,1.013,0.567,1.376,0.883C13.345,1.522,13.534,1.4,13.305,1c0.475,0.274,0.833,0.597,1.097,0.958
		c0.294-0.187,0.175-0.443,0.177-0.68c0.493,0.401,0.807,0.829,1.189,1.246c0.078-0.055,0.146-0.246,0.205-0.548
		c1.177,1.142,2.839,4.018,0.428,5.158C14.348,5.442,11.895,4.21,9.179,3.287L9.179,3.287 M27.713,3.287
		c-3.492,1.801-5.523,3.258-6.637,4.498c0.57,2.284,3.542,2.388,4.63,2.324c-0.224-0.104-0.409-0.229-0.476-0.418
		c0.272-0.194,1.24-0.021,1.914-0.4c-0.258-0.054-0.379-0.105-0.5-0.297c0.638-0.204,1.324-0.379,1.729-0.715
		c-0.219,0.002-0.422,0.048-0.706-0.15c0.571-0.307,1.181-0.551,1.653-1.021c-0.295-0.007-0.612-0.003-0.705-0.112
		c0.521-0.324,0.963-0.684,1.328-1.078c-0.412,0.05-0.588,0.007-0.688-0.065c0.395-0.404,0.896-0.746,1.133-1.246
		c-0.307,0.107-0.587,0.147-0.789-0.008c0.135-0.303,0.709-0.481,1.041-1.19c-0.322,0.032-0.666,0.07-0.734,0
		c0.15-0.61,0.408-0.955,0.66-1.311c-0.691-0.009-1.738,0.003-1.691-0.055l0.428-0.438c-0.676-0.181-1.367,0.029-1.867,0.187
		c-0.227-0.179,0.004-0.403,0.277-0.632c-0.572,0.076-1.093,0.209-1.563,0.39c-0.25-0.226,0.164-0.453,0.363-0.678
		c-0.888,0.167-1.263,0.404-1.636,0.641c-0.271-0.259-0.017-0.48,0.167-0.706c-0.668,0.248-1.013,0.567-1.376,0.883
		C23.547,1.522,23.357,1.4,23.587,1c-0.476,0.274-0.832,0.597-1.099,0.958c-0.293-0.188-0.174-0.444-0.176-0.68
		c-0.492,0.401-0.808,0.829-1.189,1.246c-0.076-0.057-0.145-0.246-0.204-0.548c-1.177,1.142-2.84,4.018-0.428,5.158
		C22.544,5.44,24.995,4.21,27.713,3.287L27.713,3.287"/>
	<path fill="#BC1142" d="M22.676,26.539c0.014,2.133-1.852,3.869-4.162,3.881c-2.312,0.011-4.194-1.709-4.207-3.838
		c0-0.015,0-0.027,0-0.043c-0.012-2.129,1.852-3.867,4.163-3.877c2.311-0.012,4.194,1.707,4.206,3.838V26.539 M16.07,15.518
		c1.734,1.136,2.046,3.71,0.698,5.75s-3.847,2.772-5.581,1.638c-1.733-1.137-2.046-3.711-0.698-5.751
		C11.838,15.115,14.337,14.381,16.07,15.518 M20.75,15.312c-1.732,1.136-2.046,3.71-0.697,5.75c1.348,2.04,3.846,2.773,5.579,1.639
		c1.734-1.136,2.048-3.711,0.698-5.751C24.982,14.909,22.482,14.176,20.75,15.312 M7.406,17.375
		c1.872-0.502,0.632,7.744-0.892,7.067C4.839,23.093,4.3,19.148,7.406,17.375 M29.037,17.271c-1.872-0.501-0.633,7.745,0.893,7.068
		C31.604,22.992,32.145,19.044,29.037,17.271 M22.678,11.131c3.229-0.545,5.918,1.373,5.811,4.876
		C28.38,17.35,21.486,11.331,22.678,11.131 M13.752,11.028c-3.23-0.545-5.918,1.375-5.81,4.877
		C8.048,17.248,14.942,11.229,13.752,11.028 M18.392,10.211c-1.928-0.05-3.778,1.431-3.783,2.291
		c-0.005,1.043,1.524,2.112,3.796,2.14c2.32,0.017,3.8-0.855,3.808-1.934C22.221,11.489,20.104,10.192,18.392,10.211L18.392,10.211
		 M18.51,31.617c1.682-0.072,3.938,0.543,3.941,1.356c0.027,0.792-2.047,2.582-4.053,2.547c-2.078,0.09-4.116-1.702-4.09-2.324
		C14.277,32.287,16.839,31.574,18.51,31.617 M12.301,26.783c1.197,1.442,1.743,3.975,0.744,4.723
		c-0.945,0.57-3.239,0.336-4.871-2.008c-1.1-1.965-0.958-3.968-0.186-4.555C9.143,24.24,10.928,25.189,12.301,26.783L12.301,26.783
		 M24.479,26.326c-1.295,1.518-2.017,4.284-1.07,5.174c0.902,0.692,3.326,0.596,5.117-1.89c1.302-1.669,0.865-4.456,0.123-5.194
		C27.545,23.56,25.96,24.653,24.479,26.326L24.479,26.326"/>
</g>
</svg>
