<?xml version="1.0" encoding="utf-8"?>
<!-- Generator: Adobe Illustrator 15.1.0, SVG Export Plug-In . SVG Version: 6.00 Build 0)  -->
<!DOCTYPE svg PUBLIC "-//W3C//DTD SVG 1.1//EN" "http://www.w3.org/Graphics/SVG/1.1/DTD/svg11.dtd">
<svg version="1.1" id="Layer_1" xmlns="http://www.w3.org/2000/svg" xmlns:xlink="http://www.w3.org/1999/xlink" x="0px" y="0px"
	 width="145.792px" height="36.667px" viewBox="0 0 145.792 36.667" enable-background="new 0 0 145.792 36.667"
	 xml:space="preserve">
<g id="RaspberryPi">
	<path d="M10.028-0.127C9.842-0.123,9.642-0.054,9.415,0.125c-0.557-0.214-1.096-0.289-1.58,0.149
		C7.09,0.177,6.848,0.376,6.665,0.609C6.5,0.606,5.44,0.442,4.953,1.167C3.731,1.023,3.345,1.885,3.782,2.692
		C3.532,3.079,3.273,3.46,3.857,4.196C3.651,4.608,3.779,5.051,4.266,5.591C4.137,6.168,4.39,6.576,4.842,6.893
		C4.758,7.682,5.567,8.141,5.808,8.304C5.9,8.765,6.094,9.198,7.018,9.44c0.152,0.685,0.707,0.803,1.244,0.945
		c-1.776,1.035-3.3,2.394-3.29,5.729l-0.26,0.463c-2.037,1.238-3.871,5.223-1.003,8.458c0.187,1.014,0.5,1.741,0.781,2.547
		c0.418,3.246,3.146,4.767,3.867,4.945c1.055,0.803,2.178,1.564,3.699,2.1c1.432,1.479,2.984,2.041,4.545,2.041
		c0.023,0,3.184-0.563,4.616-2.041c1.521-0.533,2.645-1.297,3.698-2.1c0.721-0.18,3.449-1.699,3.867-4.945
		c0.28-0.806,0.595-1.533,0.781-2.547c2.866-3.236,1.034-7.22-1.004-8.458l-0.261-0.463c0.01-3.336-1.514-4.693-3.29-5.729
		c0.537-0.143,1.093-0.261,1.244-0.947c0.924-0.24,1.117-0.674,1.21-1.134c0.242-0.163,1.05-0.622,0.966-1.411
		c0.453-0.318,0.706-0.726,0.577-1.303c0.487-0.539,0.614-0.984,0.406-1.395c0.585-0.736,0.327-1.117,0.076-1.504
		c0.439-0.807,0.052-1.67-1.171-1.525c-0.486-0.725-1.547-0.561-1.711-0.558c-0.184-0.232-0.426-0.432-1.171-0.335
		c-0.483-0.438-1.022-0.363-1.579-0.148c-0.661-0.521-1.099-0.104-1.599,0.055c-0.8-0.262-0.983,0.097-1.378,0.242
		c-0.872-0.185-1.137,0.217-1.556,0.643l-0.487-0.01c-1.316,0.774-1.971,2.355-2.202,3.168c-0.231-0.813-0.884-2.394-2.2-3.168
		l-0.487,0.01c-0.419-0.426-0.685-0.827-1.558-0.643c-0.393-0.146-0.576-0.504-1.377-0.242C10.684,0.077,10.383-0.14,10.028-0.127"
		/>
	<path fill="#75A928" d="M7.408,3.286c3.493,1.801,5.523,3.258,6.636,4.498c-0.569,2.283-3.542,2.388-4.629,2.324
		C9.638,10.004,9.823,9.879,9.89,9.69c-0.273-0.193-1.24-0.021-1.915-0.4c0.259-0.054,0.381-0.105,0.502-0.297
		c-0.638-0.204-1.325-0.38-1.729-0.716c0.217,0.003,0.42,0.048,0.706-0.15C6.882,7.82,6.272,7.577,5.799,7.106
		c0.295-0.008,0.613-0.003,0.707-0.112C5.982,6.67,5.542,6.31,5.176,5.916c0.413,0.05,0.588,0.007,0.688-0.065
		C5.469,5.446,4.969,5.104,4.73,4.604c0.307,0.107,0.587,0.147,0.791-0.008C5.387,4.293,4.811,4.115,4.48,3.407
		c0.323,0.031,0.666,0.07,0.734,0c-0.15-0.611-0.408-0.954-0.66-1.312C5.246,2.086,6.292,2.098,6.246,2.04L5.818,1.604
		C6.493,1.421,7.184,1.633,7.686,1.79c0.227-0.179-0.004-0.402-0.278-0.633C7.981,1.235,8.5,1.366,8.969,1.547
		c0.25-0.226-0.163-0.453-0.363-0.678C9.493,1.038,9.87,1.274,10.243,1.51c0.271-0.26,0.016-0.48-0.168-0.706
		c0.669,0.247,1.014,0.567,1.377,0.883c0.122-0.166,0.312-0.288,0.082-0.688c0.475,0.275,0.833,0.598,1.098,0.959
		c0.294-0.188,0.175-0.443,0.176-0.68c0.494,0.4,0.807,0.828,1.189,1.245c0.078-0.056,0.146-0.246,0.205-0.548
		c1.178,1.142,2.84,4.018,0.428,5.158C12.577,5.441,10.124,4.209,7.408,3.286L7.408,3.286 M25.942,3.286
		c-3.492,1.801-5.523,3.258-6.637,4.498c0.57,2.283,3.542,2.388,4.63,2.324c-0.224-0.104-0.409-0.229-0.475-0.418
		c0.272-0.193,1.239-0.021,1.914-0.4c-0.259-0.054-0.38-0.105-0.501-0.297c0.638-0.204,1.325-0.38,1.729-0.716
		c-0.219,0.003-0.422,0.048-0.706-0.149c0.571-0.308,1.181-0.551,1.654-1.021c-0.295-0.008-0.613-0.003-0.706-0.112
		c0.522-0.323,0.963-0.684,1.328-1.078c-0.412,0.05-0.587,0.007-0.687-0.065c0.395-0.404,0.896-0.746,1.133-1.246
		c-0.307,0.107-0.587,0.147-0.79-0.008c0.135-0.303,0.71-0.481,1.042-1.189c-0.323,0.031-0.666,0.07-0.735,0
		c0.15-0.611,0.408-0.955,0.66-1.312c-0.691-0.009-1.738,0.003-1.691-0.056l0.428-0.438c-0.676-0.181-1.367,0.029-1.868,0.188
		c-0.226-0.179,0.004-0.402,0.278-0.633c-0.573,0.076-1.093,0.209-1.562,0.391c-0.25-0.226,0.163-0.453,0.363-0.678
		c-0.888,0.167-1.263,0.404-1.636,0.641c-0.271-0.26-0.017-0.48,0.167-0.706c-0.668,0.247-1.013,0.567-1.376,0.883
		c-0.123-0.166-0.313-0.288-0.083-0.688c-0.475,0.275-0.832,0.598-1.098,0.959c-0.293-0.189-0.175-0.445-0.177-0.68
		c-0.492,0.4-0.807,0.828-1.189,1.245c-0.076-0.057-0.145-0.246-0.204-0.548c-1.177,1.142-2.841,4.018-0.428,5.158
		C20.773,5.44,23.224,4.209,25.942,3.286L25.942,3.286"/>
	<path fill="#BC1142" d="M20.905,26.539c0.013,2.131-1.852,3.869-4.162,3.879c-2.31,0.012-4.193-1.707-4.207-3.838
		c0-0.014,0-0.026,0-0.041c-0.012-2.131,1.853-3.867,4.163-3.879c2.31-0.011,4.194,1.707,4.206,3.838V26.539 M14.299,15.516
		c1.734,1.137,2.047,3.711,0.698,5.751c-1.348,2.04-3.847,2.771-5.581,1.638c-1.732-1.137-2.045-3.711-0.697-5.751
		C10.067,15.114,12.566,14.38,14.299,15.516 M18.979,15.311c-1.733,1.136-2.047,3.71-0.697,5.75c1.348,2.04,3.846,2.772,5.579,1.638
		c1.734-1.135,2.047-3.711,0.698-5.75C23.211,14.908,20.712,14.175,18.979,15.311 M5.635,17.374
		c1.872-0.502,0.631,7.743-0.892,7.067C3.068,23.093,2.529,19.147,5.635,17.374 M27.266,17.27c-1.872-0.501-0.632,7.745,0.892,7.067
		C29.833,22.992,30.373,19.044,27.266,17.27 M20.907,11.13c3.229-0.545,5.918,1.373,5.81,4.876
		C26.609,17.349,19.715,11.331,20.907,11.13 M11.981,11.027c-3.23-0.546-5.918,1.374-5.811,4.878
		C6.278,17.247,13.171,11.227,11.981,11.027 M16.622,10.209c-1.928-0.049-3.779,1.432-3.783,2.291
		c-0.006,1.044,1.523,2.112,3.796,2.141c2.319,0.016,3.8-0.855,3.808-1.934C20.45,11.488,18.333,10.191,16.622,10.209L16.622,10.209
		 M16.739,31.617c1.682-0.074,3.937,0.541,3.941,1.355c0.027,0.792-2.046,2.582-4.053,2.547c-2.078,0.09-4.116-1.702-4.09-2.324
		C12.506,32.285,15.069,31.574,16.739,31.617 M10.53,26.783c1.197,1.441,1.742,3.975,0.744,4.723
		c-0.945,0.568-3.239,0.334-4.871-2.01c-1.099-1.965-0.957-3.967-0.186-4.554C7.372,24.238,9.157,25.188,10.53,26.783L10.53,26.783
		 M22.708,26.326c-1.296,1.516-2.017,4.283-1.071,5.174c0.903,0.691,3.327,0.594,5.118-1.891c1.301-1.669,0.865-4.456,0.122-5.195
		C25.774,23.559,24.189,24.652,22.708,26.326L22.708,26.326"/>
	<text transform="matrix(1 0 0 1 34.041 25.0835)" fill="#333333" font-family="'SegoeUI-Semilight'" font-size="21.4112">RaspberryPi</text>
</g>
</svg>
