<?xml version="1.0" encoding="utf-8"?>
<!-- Generator: Adobe Illustrator 15.1.0, SVG Export Plug-In . SVG Version: 6.00 Build 0)  -->
<!DOCTYPE svg PUBLIC "-//W3C//DTD SVG 1.1//EN" "http://www.w3.org/Graphics/SVG/1.1/DTD/svg11.dtd">
<svg version="1.1" id="Layer_1" xmlns="http://www.w3.org/2000/svg" xmlns:xlink="http://www.w3.org/1999/xlink" x="0px" y="0px"
	 width="112.042px" height="36.667px" viewBox="0 0 112.042 36.667" enable-background="new 0 0 112.042 36.667"
	 xml:space="preserve">
<g id="Layer_2">
	<g>
		<path fill="#EAEAEA" d="M45.484,23.887V13.718h-5.707c-3.037,0-5.498,2.276-5.498,5.085c0,2.808,2.462,5.084,5.498,5.084h1.748
			v-2.21h-1.74c-1.766,0-3.203-1.243-3.203-2.874c0-1.633,1.403-2.875,3.167-2.875h3.541v7.96L45.484,23.887L45.484,23.887z
			 M52.752,13.335c-2.914,0-5.278,2.006-5.278,5.046v5.506h2.146v-5.628c0-1.959,1.674-3.089,3.132-3.089
			c1.457,0,3.101,1.13,3.101,3.089v5.628h2.178v-5.506C58.031,15.341,55.668,13.335,52.752,13.335z M69.917,18.739
			c0-2.932-1.935-5.021-4.851-5.021H60.23v2.21h4.955c1.877,0,2.654,1.315,2.654,2.78c0,1.465-0.805,2.969-2.685,2.969l-4.954-0.002
			v2.189h4.838C67.955,23.865,69.917,21.669,69.917,18.739L69.917,18.739z M109.945,18.739c0-2.932-1.938-5.021-4.852-5.021h-4.838
			v2.21h4.955c1.877,0,2.652,1.315,2.652,2.78c0,1.465-0.806,2.969-2.684,2.969l-4.955-0.002v2.189h4.838
			C107.979,23.865,109.945,21.669,109.945,18.739L109.945,18.739z M79.957,20.453c0.936-0.509,1.398-1.445,1.398-3.048
			c0-2.819-1.497-3.688-4.413-3.688h-4.836v2.211h4.956c1.877,0,2.213,0.598,2.213,1.447s-0.271,1.576-2.148,1.576h-4.957
			l-0.002,2.029h4.836c0.047,0,0.093,0,0.139,0c0.96,0.104,1.709,0.92,1.709,1.912c0,0.318,0.057,0.617-0.08,0.882
			c0.001,0.036,0.132,0.074,0.132,0.112h2C80.901,23.887,81.264,21.722,79.957,20.453L79.957,20.453z M83.359,18.657
			c0,2.891,2.248,5.236,5.021,5.236c2.772,0,5.02-2.345,5.02-5.236s-2.247-5.235-5.02-5.235
			C85.607,13.422,83.359,15.766,83.359,18.657z M85.375,18.657c0-1.73,1.347-3.134,3.006-3.134c1.658,0,3.004,1.403,3.004,3.134
			c0,1.731-1.346,3.133-3.004,3.133C86.72,21.791,85.375,20.388,85.375,18.657L85.375,18.657z M95.85,13.718h2.2v10.169h-2.2V13.718
			z"/>
	</g>
	<path fill="#8FC31F" d="M19.821,3.603"/>
	<circle fill="#8FC31F" stroke="#FFFFFF" stroke-width="2" cx="11.75" cy="8.164" r="0.406"/>
	<circle fill="#8FC31F" stroke="#FFFFFF" stroke-width="2" cx="20.275" cy="8.164" r="0.406"/>
	<path fill="#A4C639" d="M11.978,22.688c1.035,0,1.875,0.924,1.875,2.063v8.852c0,1.141-0.84,2.063-1.875,2.063
		c-1.036,0-1.875-0.924-1.875-2.063v-8.852C10.103,23.612,10.941,22.688,11.978,22.688L11.978,22.688z"/>
	<path fill="#A4C639" d="M7.267,12.046c-0.007,0.078-0.013,0.157-0.013,0.236v13.412c0,1.44,1.142,2.604,2.559,2.604h13.638
		c1.417,0,2.559-1.162,2.559-2.604V12.283c0-0.079-0.003-0.158-0.01-0.236L7.267,12.046L7.267,12.046z"/>
	<path fill="#A4C639" d="M21.286,22.688c1.036,0,1.875,0.924,1.875,2.063v8.852c0,1.141-0.839,2.063-1.875,2.063
		c-1.035,0-1.875-0.924-1.875-2.063v-8.852C19.412,23.612,20.251,22.688,21.286,22.688L21.286,22.688z M3.938,13.24
		c1.035,0,1.875,0.924,1.875,2.063v8.852c0,1.14-0.84,2.063-1.875,2.063s-1.875-0.924-1.875-2.063v-8.852
		C2.063,14.164,2.903,13.24,3.938,13.24L3.938,13.24z M29.325,13.24c1.035,0,1.875,0.924,1.875,2.063v8.852
		c0,1.14-0.84,2.063-1.875,2.063c-1.035,0-1.875-0.924-1.875-2.063v-8.852C27.45,14.164,28.29,13.24,29.325,13.24L29.325,13.24z
		 M7.327,11.165c0.058-4.119,3.653-7.496,8.268-7.941h2.074c4.616,0.445,8.21,3.823,8.268,7.941H7.327z"/>
	<path fill="none" stroke="#A4C639" stroke-linecap="round" stroke-linejoin="round" d="M8.044,2.825l2.177,3.771 M25.219,2.825
		l-2.177,3.771"/>
	<path fill="#FFFFFF" d="M13.86,7.473c0.002,0.576-0.475,1.044-1.065,1.045c-0.589,0.002-1.068-0.463-1.07-1.04V7.473
		C11.723,6.898,12.2,6.429,12.79,6.428c0.589-0.002,1.069,0.463,1.07,1.04V7.473z M21.828,7.473
		c0.002,0.576-0.474,1.044-1.064,1.045c-0.59,0.002-1.069-0.463-1.071-1.04V7.473c-0.001-0.575,0.475-1.044,1.064-1.045
		c0.589-0.002,1.069,0.463,1.07,1.04L21.828,7.473L21.828,7.473z"/>
</g>
</svg>
