<?xml version="1.0" encoding="utf-8"?>
<!-- Generator: Adobe Illustrator 15.1.0, SVG Export Plug-In . SVG Version: 6.00 Build 0)  -->
<!DOCTYPE svg PUBLIC "-//W3C//DTD SVG 1.1//EN" "http://www.w3.org/Graphics/SVG/1.1/DTD/svg11.dtd">
<svg version="1.1" id="Layer_1" xmlns="http://www.w3.org/2000/svg" xmlns:xlink="http://www.w3.org/1999/xlink" x="0px" y="0px"
	 width="36.625px" height="36.667px" viewBox="0 0 36.625 36.667" enable-background="new 0 0 36.625 36.667" xml:space="preserve">
<g id="Layer_4">
	<path fill="#8FC31F" d="M21.708,1.715"/>
	<circle fill="#8FC31F" stroke="#FFFFFF" stroke-width="2" cx="12.91" cy="6.687" r="0.443"/>
	<circle fill="#8FC31F" stroke="#FFFFFF" stroke-width="2" cx="22.202" cy="6.687" r="0.443"/>
	<path fill="#A4C639" d="M13.157,22.52c1.129,0,2.044,1.007,2.044,2.249v9.648c0,1.242-0.915,2.25-2.044,2.25
		c-1.128,0-2.044-1.008-2.044-2.25v-9.648C11.113,23.527,12.029,22.52,13.157,22.52L13.157,22.52z"/>
	<path fill="#A4C639" d="M8.021,10.919c-0.006,0.085-0.014,0.172-0.014,0.258v14.62c0,1.572,1.245,2.838,2.791,2.838h14.866
		c1.544,0,2.79-1.266,2.79-2.838v-14.62c0-0.086-0.005-0.173-0.011-0.258H8.021L8.021,10.919z"/>
	<path fill="#A4C639" d="M23.305,22.52c1.131,0,2.045,1.007,2.045,2.249v9.648c0,1.242-0.914,2.25-2.045,2.25
		c-1.129,0-2.043-1.008-2.043-2.25v-9.648C21.262,23.527,22.176,22.52,23.305,22.52L23.305,22.52z M4.394,12.22
		c1.128,0,2.044,1.007,2.044,2.25v9.648c0,1.242-0.916,2.25-2.044,2.25s-2.044-1.008-2.044-2.25V14.47
		C2.35,13.228,3.265,12.22,4.394,12.22L4.394,12.22z M32.066,12.22c1.129,0,2.045,1.007,2.045,2.25v9.648
		c0,1.242-0.916,2.25-2.045,2.25c-1.127,0-2.043-1.008-2.043-2.25V14.47C30.023,13.228,30.939,12.22,32.066,12.22L32.066,12.22z
		 M8.087,9.958c0.063-4.49,3.981-8.171,9.012-8.657h2.262c5.031,0.485,8.949,4.167,9.012,8.657H8.087z"/>
	<path fill="none" stroke="#A4C639" stroke-linecap="round" stroke-linejoin="round" d="M8.87,0.868l2.373,4.11 M27.592,0.868
		l-2.373,4.11"/>
	<path fill="#FFFFFF" d="M15.209,5.935c0.002,0.627-0.518,1.139-1.161,1.14c-0.643,0.002-1.165-0.505-1.167-1.133V5.935
		c-0.002-0.627,0.518-1.138,1.161-1.139c0.642-0.002,1.165,0.505,1.167,1.133V5.935z M23.896,5.935
		c0.002,0.627-0.519,1.139-1.16,1.14c-0.644,0.002-1.166-0.505-1.168-1.133V5.935c-0.002-0.627,0.519-1.138,1.16-1.139
		c0.644-0.002,1.166,0.505,1.168,1.133V5.935z"/>
</g>
</svg>
